<?xml version="1.0" encoding="UTF-8" standalone="no"?>
<!DOCTYPE svg PUBLIC "-//W3C//DTD SVG 1.1//EN" "http://www.w3.org/Graphics/SVG/1.1/DTD/svg11.dtd">
<svg width="100%" height="100%" viewBox="0 0 1080 1080" version="1.1" xmlns="http://www.w3.org/2000/svg" xmlns:xlink="http://www.w3.org/1999/xlink" xml:space="preserve" xmlns:serif="http://www.serif.com/" style="fill-rule:evenodd;clip-rule:evenodd;stroke-linejoin:bevel;stroke-miterlimit:2;">
    <g transform="matrix(1.41834,0,0,1.22562,-428.018,-135.332)">
        <rect x="289.714" y="85.717" width="836.267" height="978.451"/>
    </g>
    <g transform="matrix(1,0,0,1,-59.867,151.538)">
        <path d="M338.225,451.055C338.225,458.274 337.311,464.766 335.482,470.531C333.654,476.297 331.24,481.383 328.24,485.789C325.24,490.195 321.725,493.945 317.693,497.039C313.662,500.133 309.49,502.664 305.178,504.633C300.865,506.602 296.482,508.055 292.029,508.992C287.576,509.93 283.381,510.399 279.443,510.399L142.945,510.399C141.739,510.399 140.582,509.919 139.729,509.066C138.876,508.213 138.397,507.056 138.397,505.85C138.397,498.78 138.397,485.24 138.397,478.252C138.397,477.081 138.862,475.958 139.69,475.129C140.518,474.301 141.641,473.836 142.812,473.836C166.705,473.836 279.443,473.836 279.443,473.836C286.475,473.836 291.936,471.774 295.826,467.649C299.717,463.524 301.662,457.992 301.662,451.055C301.662,447.68 301.147,444.586 300.115,441.774C299.084,438.961 297.607,436.524 295.686,434.461C293.764,432.399 291.42,430.805 288.654,429.68C285.889,428.555 282.818,427.992 279.443,427.992L195.35,427.992C189.443,427.992 183.068,426.938 176.225,424.828C169.381,422.719 163.029,419.32 157.17,414.633C151.311,409.945 146.436,403.805 142.545,396.211C138.654,388.617 136.709,379.336 136.709,368.367C136.709,357.399 138.654,348.141 142.545,340.594C146.436,333.047 151.311,326.906 157.17,322.172C163.029,317.438 169.381,314.016 176.225,311.906C183.068,309.797 189.443,308.742 195.35,308.742L316.309,308.742C318.239,308.742 319.803,310.306 319.803,312.236C319.803,319.549 319.803,336.327 319.803,342.744C319.803,344.158 318.656,345.305 317.242,345.305C299.482,345.305 195.35,345.305 195.35,345.305C188.412,345.305 182.998,347.414 179.107,351.633C175.217,355.852 173.272,361.43 173.272,368.367C173.272,375.399 175.217,380.953 179.107,385.031C182.998,389.11 188.412,391.149 195.35,391.149L279.725,391.149C283.662,391.242 287.834,391.781 292.24,392.766C296.647,393.75 301.029,395.274 305.389,397.336C309.748,399.399 313.897,402 317.834,405.141C321.772,408.281 325.264,412.055 328.311,416.461C331.357,420.867 333.772,425.93 335.553,431.649C337.334,437.367 338.225,443.836 338.225,451.055Z" style="fill:rgb(0,175,255);fill-rule:nonzero;stroke:rgb(0,175,255);stroke-width:28.82px;"/>
    </g>
    <g transform="matrix(1,0,0,1,9.35421,35.546)">
        <path d="M509.247,689.999L342.466,689.999C339.841,689.999 337.404,689.531 335.154,688.593C332.904,687.656 330.958,686.367 329.318,684.726C327.677,683.085 326.388,681.14 325.451,678.89C324.513,676.64 324.044,674.203 324.044,671.578C324.044,518.527 324.044,451.815 324.044,488.343L360.607,488.343L360.607,653.437L509.247,653.437L509.247,689.999Z" style="fill:rgb(255,194,0);fill-rule:nonzero;stroke:rgb(255,194,0);stroke-width:29.88px;stroke-linejoin:round;"/>
    </g>
    <g transform="matrix(1,0,0,1,-99.1547,-132.83)">
        <path d="M860.441,781.028C860.441,783.653 859.949,786.091 858.964,788.341C857.98,790.591 856.667,792.536 855.027,794.177C853.386,795.817 851.441,797.106 849.191,798.044C846.941,798.981 844.55,799.45 842.019,799.45C839.769,799.45 837.495,799.028 835.199,798.184C832.902,797.341 830.863,795.981 829.081,794.106L695.488,654.606L695.488,796.637L658.925,796.637L658.925,610.591C658.925,606.841 659.98,603.442 662.089,600.395C664.199,597.348 666.894,595.075 670.175,593.575C673.644,592.169 677.206,591.817 680.863,592.52C684.519,593.223 687.659,594.934 690.284,597.653L823.878,737.012L823.878,594.981L860.441,594.981L860.441,781.028Z" style="fill:rgb(255,0,4);fill-rule:nonzero;stroke:rgb(255,0,4);stroke-width:30.94px;stroke-linejoin:round;"/>
    </g>
    <g transform="matrix(1,0,0,1,319.914,458.356)">
        <path d="M680.283,-30.734L599.704,-30.734L599.704,134.359L563.142,134.359L563.142,-30.734L482.423,-30.734L482.423,-67.297L680.283,-67.297L680.283,-30.734Z" style="fill:rgb(98,185,36);fill-rule:nonzero;stroke:rgb(98,185,36);stroke-width:36.24px;stroke-linejoin:round;"/>
    </g>
</svg>
