<?xml version="1.0" encoding="UTF-8" standalone="no"?>
<svg
   width="1920"
   height="720"
   viewBox="0 0 1920 720"
   version="1.1"
   xml:space="preserve"
   style="clip-rule:evenodd;fill-rule:evenodd;stroke-linejoin:bevel;stroke-miterlimit:2"
   id="svg5"
   sodipodi:docname="logo.svg"
   inkscape:version="1.3.2 (091e20e, 2023-11-25)"
   xmlns:inkscape="http://www.inkscape.org/namespaces/inkscape"
   xmlns:sodipodi="http://sodipodi.sourceforge.net/DTD/sodipodi-0.dtd"
   xmlns="http://www.w3.org/2000/svg"
   xmlns:svg="http://www.w3.org/2000/svg"><path
   style="font-weight:500;font-size:192px;font-family:'Atkinson Hyperlegible Next';-inkscape-font-specification:'Atkinson Hyperlegible Next Medium';fill:#ffffff;stroke:#ffffff;stroke-width:0"
   d="m 696.25005,257.08508 q -9.792,0 -15.36,-1.92 -5.568,-1.92 -7.872,-7.296 -2.112,-5.376 -2.112,-15.552 v -54.528 h -15.936 v -15.936 h 15.936 v -23.808 h 20.352 v 23.808 h 20.16 v 15.936 h -20.16 v 50.112 q 0,7.68 2.112,9.792 2.112,2.112 8.64,2.112 h 9.408 v 17.28 z m 34.56013,0 v -135.936 h 20.352 v 54.528 q 2.496,-4.224 6.528,-7.68 4.224,-3.648 9.984,-5.76 5.952,-2.304 13.824,-2.304 11.712,0 18.624,4.608 6.912,4.608 9.984,13.056 3.072,8.448 3.072,19.968 v 59.52 h -20.544 v -53.952 q 0,-7.104 -1.152,-13.056 -1.152,-6.144 -5.184,-9.792 -3.84,-3.648 -12.48,-3.648 -10.752,0 -16.704,7.68 -5.952,7.488 -5.952,22.08 v 50.688 z m 149.56801,2.304 q -15.168,0 -26.112,-6.336 -10.752,-6.528 -16.704,-17.664 -5.76,-11.328 -5.76,-25.92 0,-15.168 6.336,-26.304 6.528,-11.136 17.28,-17.088 10.944,-6.144 24.384,-6.144 11.328,0 20.16,4.416 9.024,4.416 14.976,12.096 5.952,7.68 8.64,17.664 2.688,9.792 1.92,20.928 h -72.96 q 0.96,7.872 3.84,13.248 2.88,5.376 6.72,8.448 4.032,3.072 8.448,4.416 4.608,1.344 8.64,1.344 7.488,0 12.672,-2.304 5.376,-2.496 8.448,-6.336 l 18.048,5.76 q -5.76,9.216 -15.936,14.592 -10.176,5.184 -23.04,5.184 z m -27.648,-58.944 h 52.416 q -0.192,-6.528 -3.456,-11.904 -3.072,-5.568 -8.64,-8.832 -5.568,-3.456 -13.056,-3.456 -5.952,0 -11.904,2.304 -5.76,2.304 -9.984,7.68 -4.032,5.184 -5.376,14.208 z"
   id="text9"
   aria-label="the" /><defs
   id="defs5"><rect
     x="4277.5952"
     y="779.19019"
     width="430.67484"
     height="587.04297"
     id="rect6" /></defs><sodipodi:namedview
   id="namedview5"
   pagecolor="#ffffff"
   bordercolor="#000000"
   borderopacity="0.25"
   inkscape:showpageshadow="2"
   inkscape:pageopacity="0.0"
   inkscape:pagecheckerboard="0"
   inkscape:deskcolor="#d1d1d1"
   inkscape:zoom="0.2786611"
   inkscape:cx="852.28975"
   inkscape:cy="658.50598"
   inkscape:window-width="1648"
   inkscape:window-height="942"
   inkscape:window-x="3058"
   inkscape:window-y="30"
   inkscape:window-maximized="0"
   inkscape:current-layer="svg5"
   showguides="true" />
    <rect
   style="clip-rule:evenodd;fill:#62b924;fill-opacity:1;fill-rule:evenodd;stroke:#ffffff;stroke-width:0;stroke-linejoin:bevel;stroke-miterlimit:2"
   id="rect7-5"
   width="101.5006"
   height="135.35904"
   x="479.21036"
   y="423.88199" /><rect
   style="clip-rule:evenodd;fill:#ff0004;fill-opacity:1;fill-rule:evenodd;stroke:#ffffff;stroke-width:0;stroke-linejoin:bevel;stroke-miterlimit:2"
   id="rect5-0"
   width="104.03812"
   height="151.0195"
   x="353.8721"
   y="464.43433" /><rect
   style="clip-rule:evenodd;fill:#ffc200;fill-opacity:1;fill-rule:evenodd;stroke:#ffffff;stroke-width:0;stroke-linejoin:bevel;stroke-miterlimit:2"
   id="rect4-9"
   width="98.963089"
   height="103.85778"
   x="237.6089"
   y="487.83344" /><rect
   style="clip-rule:evenodd;fill:#00afff;fill-opacity:1;fill-rule:evenodd;stroke:#ffffff;stroke-width:0;stroke-linejoin:bevel;stroke-miterlimit:2"
   id="rect3-3"
   width="101.50061"
   height="102.37134"
   x="107.68207"
   y="459.45828" />
    <g
   transform="matrix(0.43616683,0,0,0.43616683,53.832361,187.43473)"
   id="g2"
   style="fill:#f9f9f9;fill-opacity:1;stroke:#ffffff;stroke-opacity:1">
        
        <path
   d="m 338.225,451.055 c 0,7.219 -0.914,13.711 -2.743,19.476 -1.828,5.766 -4.242,10.852 -7.242,15.258 -3,4.406 -6.515,8.156 -10.547,11.25 -4.031,3.094 -8.203,5.625 -12.515,7.594 -4.313,1.969 -8.696,3.422 -13.149,4.359 -4.453,0.938 -8.648,1.407 -12.586,1.407 H 142.945 c -1.206,0 -2.363,-0.48 -3.216,-1.333 -0.853,-0.853 -1.332,-2.01 -1.332,-3.216 0,-7.07 0,-20.61 0,-27.598 0,-1.171 0.465,-2.294 1.293,-3.123 0.828,-0.828 1.951,-1.293 3.122,-1.293 23.893,0 136.631,0 136.631,0 7.032,0 12.493,-2.062 16.383,-6.187 3.891,-4.125 5.836,-9.657 5.836,-16.594 0,-3.375 -0.515,-6.469 -1.547,-9.281 -1.031,-2.813 -2.508,-5.25 -4.429,-7.313 -1.922,-2.062 -4.266,-3.656 -7.032,-4.781 -2.765,-1.125 -5.836,-1.688 -9.211,-1.688 H 195.35 c -5.907,0 -12.282,-1.054 -19.125,-3.164 -6.844,-2.109 -13.196,-5.508 -19.055,-10.195 -5.859,-4.688 -10.734,-10.828 -14.625,-18.422 -3.891,-7.594 -5.836,-16.875 -5.836,-27.844 0,-10.968 1.945,-20.226 5.836,-27.773 3.891,-7.547 8.766,-13.688 14.625,-18.422 5.859,-4.734 12.211,-8.156 19.055,-10.266 6.843,-2.109 13.218,-3.164 19.125,-3.164 h 120.959 c 1.93,0 3.494,1.564 3.494,3.494 0,7.313 0,24.091 0,30.508 0,1.414 -1.147,2.561 -2.561,2.561 -17.76,0 -121.892,0 -121.892,0 -6.938,0 -12.352,2.109 -16.243,6.328 -3.89,4.219 -5.835,9.797 -5.835,16.734 0,7.032 1.945,12.586 5.835,16.664 3.891,4.079 9.305,6.118 16.243,6.118 h 84.375 c 3.937,0.093 8.109,0.632 12.515,1.617 4.407,0.984 8.789,2.508 13.149,4.57 4.359,2.063 8.508,4.664 12.445,7.805 3.938,3.14 7.43,6.914 10.477,11.32 3.046,4.406 5.461,9.469 7.242,15.188 1.781,5.718 2.672,12.187 2.672,19.406 z"
   style="fill:#f9f9f9;fill-rule:nonzero;stroke:#ffffff;stroke-width:28.82px;fill-opacity:1;stroke-opacity:1"
   id="path1" />
    </g>
    <g
   transform="matrix(0.43616683,0,0,0.43616683,97.30572,136.84284)"
   id="g3"
   style="fill:#f9f9f9;stroke:#ffffff;stroke-opacity:1">
        
        <path
   d="M 509.247,689.999 H 342.466 c -2.625,0 -5.062,-0.468 -7.312,-1.406 -2.25,-0.937 -4.196,-2.226 -5.836,-3.867 -1.641,-1.641 -2.93,-3.586 -3.867,-5.836 -0.938,-2.25 -1.407,-4.687 -1.407,-7.312 V 490.343 h 36.563 v 163.094 h 148.64 z"
   style="fill:#f9f9f9;fill-rule:nonzero;stroke:#ffffff;stroke-width:29.88px;stroke-linejoin:round;stroke-opacity:1"
   id="path2"
   sodipodi:nodetypes="cscccsccccc" />
    </g>
    <g
   transform="matrix(0.43616683,0,0,0.43616683,72.113329,63.402831)"
   id="g4"
   style="fill:#f9f9f9;fill-opacity:1;stroke:#ffffff;stroke-opacity:1">
        
        <path
   d="m 860.441,781.028 c 0,2.625 -0.492,5.063 -1.477,7.313 -0.984,2.25 -2.297,4.195 -3.937,5.836 -1.641,1.64 -3.586,2.929 -5.836,3.867 -2.25,0.937 -4.641,1.406 -7.172,1.406 -2.25,0 -4.524,-0.422 -6.82,-1.266 -2.297,-0.843 -4.336,-2.203 -6.118,-4.078 L 695.488,654.606 V 796.637 H 658.925 V 610.591 c 0,-3.75 1.055,-7.149 3.164,-10.196 2.11,-3.047 4.805,-5.32 8.086,-6.82 3.469,-1.406 7.031,-1.758 10.688,-1.055 3.656,0.703 6.796,2.414 9.421,5.133 L 823.878,737.012 V 594.981 h 36.563 z"
   style="fill:#f9f9f9;fill-rule:nonzero;stroke:#ffffff;stroke-width:30.94px;stroke-linejoin:round;fill-opacity:1;stroke-opacity:1"
   id="path3" />
    </g>
    
<g
   transform="matrix(0.43616683,0,0,0.43616683,277.03283,314.61786)"
   id="g5"
   style="stroke:#ffffff;stroke-opacity:1;fill:#f9f9f9">
        
        <path
   d="M 680.283,-30.734 H 599.704 V 134.359 H 563.142 V -30.734 h -80.719 v -36.563 h 197.86 z"
   style="fill:#f9f9f9;fill-rule:nonzero;stroke:#ffffff;stroke-width:36.24px;stroke-linejoin:round;stroke-opacity:1"
   id="path4" />
    </g><rect
   style="fill:#00afff;fill-opacity:1;stroke:#ffffff;stroke-width:0"
   id="rect3"
   width="101.50061"
   height="104.90885"
   x="107.6267"
   y="164.32278" /><rect
   style="fill:#ffc200;fill-opacity:1;stroke:#ffffff;stroke-width:0"
   id="rect4"
   width="98.963089"
   height="191.18437"
   x="233.4514"
   y="111.65067" /><rect
   style="fill:#ff0004;fill-opacity:1;stroke:#ffffff;stroke-width:0"
   id="rect5"
   width="104.03812"
   height="141.48515"
   x="352.71463"
   y="134.48831" /><rect
   style="fill:#62b924;fill-opacity:1;stroke:#ffffff;stroke-width:0"
   id="rect7"
   width="101.5006"
   height="62.206459"
   x="479.59036"
   y="170.01352" /><path
   style="font-weight:500;font-size:192px;font-family:'Atkinson Hyperlegible Next';-inkscape-font-specification:'Atkinson Hyperlegible Next Medium';fill:#ffffff;stroke:#ffffff;stroke-width:0"
   d="m 704.20507,412.07536 q -9.216,0 -17.856,-2.688 -8.448,-2.688 -14.976,-7.872 -6.336,-5.376 -9.6,-13.44 l 18.624,-6.72 q 1.92,7.104 9.024,10.944 7.104,3.84 14.976,3.84 8.64,0 14.784,-3.456 6.144,-3.648 6.144,-9.6 0,-5.184 -4.416,-8.064 -4.416,-2.88 -14.208,-4.8 l -12.864,-2.688 q -8.448,-1.728 -15.168,-4.992 -6.528,-3.264 -10.368,-8.64 -3.648,-5.376 -3.648,-13.44 0,-8.832 5.376,-15.168 5.376,-6.336 14.208,-9.6 9.024,-3.264 19.392,-3.264 12.48,0 23.232,4.992 10.752,4.8 15.552,15.552 l -18.24,6.72 q -2.496,-5.568 -8.448,-8.448 -5.76,-2.88 -13.056,-2.88 -8.064,0 -13.056,3.072 -4.992,3.072 -4.992,8.256 0,4.608 3.456,7.104 3.648,2.304 11.328,4.032 l 13.056,2.688 q 10.368,2.112 17.664,5.376 7.488,3.264 11.328,8.832 3.84,5.376 3.84,14.208 0,9.408 -5.568,16.32 -5.568,6.72 -14.784,10.368 -9.216,3.456 -20.736,3.456 z m 99.64801,0 q -8.832,0 -17.28,-2.88 -8.448,-2.88 -15.168,-9.024 -6.72,-6.144 -10.944,-15.552 -4.032,-9.408 -4.032,-22.272 0,-12.864 4.032,-22.272 4.224,-9.408 10.944,-15.552 6.72,-6.144 15.168,-9.024 8.448,-2.88 17.28,-2.88 8.832,0 17.088,2.88 8.448,2.88 15.168,9.024 6.72,6.144 10.752,15.552 4.224,9.408 4.224,22.272 0,12.864 -4.224,22.272 -4.032,9.408 -10.752,15.552 -6.72,6.144 -15.168,9.024 -8.256,2.88 -17.088,2.88 z m 0,-16.896 q 6.72,0 12.48,-3.264 5.952,-3.456 9.6,-10.752 3.648,-7.296 3.648,-18.816 0,-11.52 -3.648,-18.624 -3.648,-7.296 -9.6,-10.752 -5.76,-3.456 -12.48,-3.456 -6.72,0 -12.672,3.456 -5.952,3.456 -9.6,10.752 -3.648,7.104 -3.648,18.624 0,11.52 3.648,18.816 3.648,7.296 9.6,10.752 5.952,3.264 12.672,3.264 z m 91.2,14.592 q -9.792,0 -15.552,-1.92 -5.568,-1.92 -7.872,-7.104 -2.304,-5.376 -2.304,-14.976 v -111.936 h 20.352 v 108.096 q 0,6.336 2.112,8.448 2.112,2.112 9.408,2.112 h 7.104 v 17.28 z m 70.46408,2.304 q -15.168,0 -26.112,-6.336 -10.752,-6.528 -16.704,-17.664 -5.76,-11.328 -5.76,-25.92 0,-15.168 6.336,-26.304 6.528,-11.136 17.28,-17.088 10.944,-6.144 24.384,-6.144 11.328,0 20.16,4.416 9.024,4.416 14.97604,12.096 5.952,7.68 8.64,17.664 2.688,9.792 1.92,20.928 h -72.96004 q 0.96,7.872 3.84,13.248 2.88,5.376 6.72,8.448 4.032,3.072 8.448,4.416 4.608,1.344 8.64,1.344 7.488,0 12.672,-2.304 5.376,-2.496 8.448,-6.336 l 18.04804,5.76 q -5.76004,9.216 -15.93604,14.592 -10.176,5.184 -23.04,5.184 z m -27.648,-58.944 h 52.416 q -0.192,-6.528 -3.456,-11.904 -3.072,-5.568 -8.64,-8.832 -5.568,-3.456 -13.056,-3.456 -5.952,0 -11.904,2.304 -5.76,2.304 -9.984,7.68 -4.032,5.184 -5.376,14.208 z m 90.62404,56.64 v -95.232 h 16.32 l 4.032,13.824 q 2.496,-4.224 6.528,-7.68 4.224,-3.648 9.984,-5.76 5.952,-2.304 13.824,-2.304 11.712,0 18.624,4.608 6.912,4.608 9.984,13.056 3.072,8.448 3.072,19.968 v 59.52 h -20.544 v -53.952 q 0,-7.104 -1.152,-13.056 -1.152,-6.144 -5.184,-9.792 -3.84,-3.648 -12.48,-3.648 -10.752,0 -16.704,7.68 -5.952,7.488 -5.952,22.08 v 50.688 z m 136.7039,0 q -9.792,0 -15.36,-1.92 -5.568,-1.92 -7.872,-7.296 -2.112,-5.376 -2.112,-15.552 v -54.528 h -15.936 v -15.936 h 15.936 v -23.808 h 20.352 v 23.808 h 20.16 v 15.936 h -20.16 v 50.112 q 0,7.68 2.112,9.792 2.112,2.112 8.64,2.112 h 9.408 v 17.28 z"
   id="text1"
   aria-label="solent" /><path
   style="font-weight:500;font-size:192px;font-family:'Atkinson Hyperlegible Next';-inkscape-font-specification:'Atkinson Hyperlegible Next Medium';fill:#ffffff;stroke:#ffffff;stroke-width:0"
   d="m 665.84058,558.22937 v -95.232 h 16.32 l 4.032,13.824 q 2.496,-4.224 6.336,-7.68 4.032,-3.648 9.6,-5.76 5.568,-2.304 12.672,-2.304 11.136,0 17.856,4.416 6.72,4.224 9.984,12.096 5.568,-8.64 13.824,-12.48 8.448,-4.032 18.432,-4.032 11.52,0 18.24,4.608 6.72,4.608 9.792,13.056 3.072,8.448 3.072,19.968 v 59.52 h -20.352 v -53.952 q 0,-7.104 -1.344,-13.056 -1.152,-6.144 -5.184,-9.792 -3.84,-3.648 -12.096,-3.648 -9.792,0 -15.36,7.488 -5.568,7.296 -5.568,21.696 v 51.264 h -20.352 v -53.952 q 0,-7.104 -1.344,-13.056 -1.152,-6.144 -4.992,-9.792 -3.84,-3.648 -12.096,-3.648 -6.528,0 -11.328,3.456 -4.8,3.264 -7.296,9.984 -2.496,6.528 -2.496,15.936 v 51.072 z m 207.36012,2.304 q -15.168,0 -26.112,-6.336 -10.752,-6.528 -16.704,-17.664 -5.76,-11.328 -5.76,-25.92 0,-15.168 6.336,-26.304 6.528,-11.136 17.28,-17.088 10.944,-6.144 24.384,-6.144 11.328,0 20.16,4.416 9.024,4.416 14.976,12.096 5.952,7.68 8.64,17.664 2.688,9.792 1.92,20.928 h -72.96 q 0.96,7.872 3.84,13.248 2.88,5.376 6.72,8.448 4.032,3.072 8.448,4.416 4.608,1.344 8.64,1.344 7.488,0 12.672,-2.304 5.376,-2.496 8.448,-6.336 l 18.048,5.76 q -5.76,9.216 -15.936,14.592 -10.176,5.184 -23.04,5.184 z m -27.648,-58.944 h 52.416 q -0.192,-6.528 -3.456,-11.904 -3.072,-5.568 -8.64,-8.832 -5.568,-3.456 -13.056,-3.456 -5.952,0 -11.904,2.304 -5.76,2.304 -9.984,7.68 -4.032,5.184 -5.376,14.208 z m 121.92001,56.64 q -9.792,0 -15.36,-1.92 -5.568,-1.92 -7.872,-7.296 -2.112,-5.376 -2.112,-15.552 v -54.528 h -15.936 v -15.936 h 15.936 v -23.808 h 20.352 v 23.808 h 20.16 v 15.936 h -20.16 v 50.112 q 0,7.68 2.112,9.792 2.112,2.112 8.64,2.112 h 9.408 v 17.28 z m 34.56009,0 v -95.232 h 15.36 l 5.184,17.664 q 3.264,-6.528 7.872,-10.752 4.8,-4.416 11.136,-6.72 6.336,-2.304 14.016,-2.112 v 20.736 q -12.096,-0.384 -19.392,3.264 -7.296,3.648 -10.56,11.136 -3.264,7.488 -3.264,18.816 v 43.2 z m 107.5202,2.304 q -8.832,0 -17.28,-2.88 -8.448,-2.88 -15.168,-9.024 -6.72,-6.144 -10.944,-15.552 -4.032,-9.408 -4.032,-22.272 0,-12.864 4.032,-22.272 4.224,-9.408 10.944,-15.552 6.72,-6.144 15.168,-9.024 8.448,-2.88 17.28,-2.88 8.832,0 17.088,2.88 8.448,2.88 15.168,9.024 6.72,6.144 10.752,15.552 4.224,9.408 4.224,22.272 0,12.864 -4.224,22.272 -4.032,9.408 -10.752,15.552 -6.72,6.144 -15.168,9.024 -8.256,2.88 -17.088,2.88 z m 0,-16.896 q 6.72,0 12.48,-3.264 5.952,-3.456 9.6,-10.752 3.648,-7.296 3.648,-18.816 0,-11.52 -3.648,-18.624 -3.648,-7.296 -9.6,-10.752 -5.76,-3.456 -12.48,-3.456 -6.72,0 -12.672,3.456 -5.952,3.456 -9.6,10.752 -3.648,7.104 -3.648,18.624 0,11.52 3.648,18.816 3.648,7.296 9.6,10.752 5.952,3.264 12.672,3.264 z m 66.24,45.696 v -126.336 h 16.128 l 4.224,14.4 q 2.88,-5.184 7.488,-8.832 4.608,-3.648 10.368,-5.568 5.76,-1.92 12.48,-1.92 11.328,0 20.736,5.952 9.408,5.952 14.976,17.088 5.568,11.136 5.568,26.688 0,15.552 -5.568,26.88 -5.568,11.136 -14.976,17.088 -9.408,5.76 -20.736,5.76 -6.72,0 -12.48,-1.92 -5.76,-1.92 -10.368,-5.568 -4.608,-3.84 -7.488,-9.024 v 45.312 z m 44.736,-45.504 q 11.136,0 18.048,-8.64 7.104,-8.64 7.104,-24.384 0,-15.744 -7.104,-24.384 -6.912,-8.64 -18.048,-8.64 -11.136,0 -18.24,8.256 -6.912,8.256 -6.912,24.576 0,16.128 6.912,24.768 7.104,8.448 18.24,8.448 z m 107.712,16.704 q -8.832,0 -17.28,-2.88 -8.448,-2.88 -15.168,-9.024 -6.72,-6.144 -10.944,-15.552 -4.032,-9.408 -4.032,-22.272 0,-12.864 4.032,-22.272 4.224,-9.408 10.944,-15.552 6.72,-6.144 15.168,-9.024 8.448,-2.88 17.28,-2.88 8.832,0 17.088,2.88 8.448,2.88 15.168,9.024 6.72,6.144 10.752,15.552 4.224,9.408 4.224,22.272 0,12.864 -4.224,22.272 -4.032,9.408 -10.752,15.552 -6.72,6.144 -15.168,9.024 -8.256,2.88 -17.088,2.88 z m 0,-16.896 q 6.72,0 12.48,-3.264 5.952,-3.456 9.6,-10.752 3.648,-7.296 3.648,-18.816 0,-11.52 -3.648,-18.624 -3.648,-7.296 -9.6,-10.752 -5.76,-3.456 -12.48,-3.456 -6.72,0 -12.672,3.456 -5.952,3.456 -9.6,10.752 -3.648,7.104 -3.648,18.624 0,11.52 3.648,18.816 3.648,7.296 9.6,10.752 5.952,3.264 12.672,3.264 z m 91.2,14.592 q -9.792,0 -15.552,-1.92 -5.568,-1.92 -7.872,-7.104 -2.304,-5.376 -2.304,-14.976 v -111.936 h 20.352 v 108.096 q 0,6.336 2.112,8.448 2.112,2.112 9.408,2.112 h 7.104 v 17.28 z m 34.944,0 v -79.296 h -14.208 v -15.936 h 34.752 v 95.232 z m 8.832,-112.512 q -5.568,0 -9.6,-4.032 -4.032,-4.032 -4.032,-9.6 0,-5.76 4.032,-9.6 4.032,-4.032 9.6,-4.032 5.76,0 9.6,4.032 4.032,3.84 4.032,9.6 0,5.568 -4.032,9.6 -3.84,4.032 -9.6,4.032 z m 69.12,112.512 q -9.792,0 -15.36,-1.92 -5.568,-1.92 -7.872,-7.296 -2.112,-5.376 -2.112,-15.552 v -54.528 h -15.936 v -15.936 h 15.936 v -23.808 h 20.352 v 23.808 h 20.16 v 15.936 h -20.16 v 50.112 q 0,7.68 2.112,9.792 2.112,2.112 8.64,2.112 h 9.408 v 17.28 z m 60.4801,2.304 q -9.024,0 -16.704,-3.264 -7.488,-3.264 -12.096,-9.408 -4.416,-6.144 -4.416,-14.784 0,-11.328 7.872,-18.24 8.064,-6.912 22.656,-10.56 14.592,-3.84 34.56,-5.568 v -2.304 q 0,-9.408 -4.992,-14.784 -4.992,-5.376 -15.168,-5.376 -7.872,0 -13.248,3.648 -5.184,3.456 -6.72,9.984 l -18.432,-5.952 q 4.032,-10.56 14.208,-16.704 10.368,-6.144 24.192,-6.144 20.16,0 29.76,9.408 9.792,9.216 9.792,29.568 v 21.888 q 0,7.296 0.384,14.016 0.576,6.528 1.344,12.288 0.96,5.568 1.728,9.984 h -18.816 l -3.648,-12.48 q -4.608,7.104 -12.672,10.944 -7.872,3.84 -19.584,3.84 z m 5.952,-15.168 q 7.104,0 13.056,-2.496 5.952,-2.496 9.408,-8.064 3.456,-5.76 3.456,-15.744 v -6.144 q -20.544,1.728 -31.872,5.952 -11.328,4.224 -11.328,13.248 0,5.952 4.608,9.6 4.8,3.648 12.672,3.648 z m 71.0399,12.864 v -95.232 h 16.32 l 4.032,13.824 q 2.496,-4.224 6.528,-7.68 4.224,-3.648 9.984,-5.76 5.952,-2.304 13.824,-2.304 11.712,0 18.624,4.608 6.912,4.608 9.984,13.056 3.072,8.448 3.072,19.968 v 59.52 h -20.544 v -53.952 q 0,-7.104 -1.152,-13.056 -1.152,-6.144 -5.184,-9.792 -3.84,-3.648 -12.48,-3.648 -10.752,0 -16.704,7.68 -5.952,7.488 -5.952,22.08 v 50.688 z"
   id="text3"
   aria-label="metropolitan" /></svg>
