<?xml version="1.0" encoding="UTF-8" standalone="no"?>
<svg
   width="1920"
   height="720"
   viewBox="0 0 1920 720"
   version="1.1"
   xml:space="preserve"
   style="clip-rule:evenodd;fill-rule:evenodd;stroke-linejoin:bevel;stroke-miterlimit:2"
   id="svg5"
   sodipodi:docname="logo202604.svg"
   inkscape:version="1.3.2 (091e20e, 2023-11-25)"
   xmlns:inkscape="http://www.inkscape.org/namespaces/inkscape"
   xmlns:sodipodi="http://sodipodi.sourceforge.net/DTD/sodipodi-0.dtd"
   xmlns="http://www.w3.org/2000/svg"
   xmlns:svg="http://www.w3.org/2000/svg"><defs
   id="defs5"><rect
     x="4277.5952"
     y="779.19019"
     width="430.67484"
     height="587.04297"
     id="rect6" /></defs><sodipodi:namedview
   id="namedview5"
   pagecolor="#ffffff"
   bordercolor="#000000"
   borderopacity="0.25"
   inkscape:showpageshadow="2"
   inkscape:pageopacity="0.0"
   inkscape:pagecheckerboard="0"
   inkscape:deskcolor="#d1d1d1"
   inkscape:zoom="0.5573222"
   inkscape:cx="854.08404"
   inkscape:cy="657.60883"
   inkscape:window-width="1648"
   inkscape:window-height="942"
   inkscape:window-x="3058"
   inkscape:window-y="42"
   inkscape:window-maximized="0"
   inkscape:current-layer="svg5"
   showguides="true" />
    <circle
   style="fill:#ffffff;fill-opacity:1;stroke-width:0.861318"
   id="path7"
   cx="344.53958"
   cy="355.1412"
   r="277.41812" /><rect
   style="clip-rule:evenodd;fill:#62b924;fill-opacity:1;fill-rule:evenodd;stroke:#ffffff;stroke-width:0;stroke-linejoin:bevel;stroke-miterlimit:2"
   id="rect7-5"
   width="101.5006"
   height="135.35904"
   x="479.21036"
   y="423.88199" /><rect
   style="clip-rule:evenodd;fill:#ff0004;fill-opacity:1;fill-rule:evenodd;stroke:#ffffff;stroke-width:0;stroke-linejoin:bevel;stroke-miterlimit:2"
   id="rect5-0"
   width="104.03812"
   height="151.0195"
   x="353.8721"
   y="464.43433" /><rect
   style="clip-rule:evenodd;fill:#ffc200;fill-opacity:1;fill-rule:evenodd;stroke:#ffffff;stroke-width:0;stroke-linejoin:bevel;stroke-miterlimit:2"
   id="rect4-9"
   width="98.963089"
   height="103.85778"
   x="237.6089"
   y="487.83344" /><rect
   style="clip-rule:evenodd;fill:#00afff;fill-opacity:1;fill-rule:evenodd;stroke:#ffffff;stroke-width:0;stroke-linejoin:bevel;stroke-miterlimit:2"
   id="rect3-3"
   width="101.50061"
   height="102.37134"
   x="107.68207"
   y="459.45828" />
    <g
   transform="matrix(0.43616683,0,0,0.43616683,53.832361,187.43473)"
   id="g2"
   style="fill:#00afff;fill-opacity:1">
        
        <path
   d="m 338.225,451.055 c 0,7.219 -0.914,13.711 -2.743,19.476 -1.828,5.766 -4.242,10.852 -7.242,15.258 -3,4.406 -6.515,8.156 -10.547,11.25 -4.031,3.094 -8.203,5.625 -12.515,7.594 -4.313,1.969 -8.696,3.422 -13.149,4.359 -4.453,0.938 -8.648,1.407 -12.586,1.407 H 142.945 c -1.206,0 -2.363,-0.48 -3.216,-1.333 -0.853,-0.853 -1.332,-2.01 -1.332,-3.216 0,-7.07 0,-20.61 0,-27.598 0,-1.171 0.465,-2.294 1.293,-3.123 0.828,-0.828 1.951,-1.293 3.122,-1.293 23.893,0 136.631,0 136.631,0 7.032,0 12.493,-2.062 16.383,-6.187 3.891,-4.125 5.836,-9.657 5.836,-16.594 0,-3.375 -0.515,-6.469 -1.547,-9.281 -1.031,-2.813 -2.508,-5.25 -4.429,-7.313 -1.922,-2.062 -4.266,-3.656 -7.032,-4.781 -2.765,-1.125 -5.836,-1.688 -9.211,-1.688 H 195.35 c -5.907,0 -12.282,-1.054 -19.125,-3.164 -6.844,-2.109 -13.196,-5.508 -19.055,-10.195 -5.859,-4.688 -10.734,-10.828 -14.625,-18.422 -3.891,-7.594 -5.836,-16.875 -5.836,-27.844 0,-10.968 1.945,-20.226 5.836,-27.773 3.891,-7.547 8.766,-13.688 14.625,-18.422 5.859,-4.734 12.211,-8.156 19.055,-10.266 6.843,-2.109 13.218,-3.164 19.125,-3.164 h 120.959 c 1.93,0 3.494,1.564 3.494,3.494 0,7.313 0,24.091 0,30.508 0,1.414 -1.147,2.561 -2.561,2.561 -17.76,0 -121.892,0 -121.892,0 -6.938,0 -12.352,2.109 -16.243,6.328 -3.89,4.219 -5.835,9.797 -5.835,16.734 0,7.032 1.945,12.586 5.835,16.664 3.891,4.079 9.305,6.118 16.243,6.118 h 84.375 c 3.937,0.093 8.109,0.632 12.515,1.617 4.407,0.984 8.789,2.508 13.149,4.57 4.359,2.063 8.508,4.664 12.445,7.805 3.938,3.14 7.43,6.914 10.477,11.32 3.046,4.406 5.461,9.469 7.242,15.188 1.781,5.718 2.672,12.187 2.672,19.406 z"
   style="fill:#00afff;fill-rule:nonzero;stroke:#00afff;stroke-width:28.82px;fill-opacity:1"
   id="path1" />
    </g>
    <g
   transform="matrix(0.43616683,0,0,0.43616683,97.30572,136.84284)"
   id="g3">
        
        <path
   d="M 509.247,689.999 H 342.466 c -2.625,0 -5.062,-0.468 -7.312,-1.406 -2.25,-0.937 -4.196,-2.226 -5.836,-3.867 -1.641,-1.641 -2.93,-3.586 -3.867,-5.836 -0.938,-2.25 -1.407,-4.687 -1.407,-7.312 V 490.343 h 36.563 v 163.094 h 148.64 z"
   style="fill:#ffc200;fill-rule:nonzero;stroke:#ffc200;stroke-width:29.88px;stroke-linejoin:round"
   id="path2"
   sodipodi:nodetypes="cscccsccccc" />
    </g>
    <g
   transform="matrix(0.43616683,0,0,0.43616683,72.113329,63.402831)"
   id="g4"
   style="fill:#ff0004;fill-opacity:1">
        
        <path
   d="m 860.441,781.028 c 0,2.625 -0.492,5.063 -1.477,7.313 -0.984,2.25 -2.297,4.195 -3.937,5.836 -1.641,1.64 -3.586,2.929 -5.836,3.867 -2.25,0.937 -4.641,1.406 -7.172,1.406 -2.25,0 -4.524,-0.422 -6.82,-1.266 -2.297,-0.843 -4.336,-2.203 -6.118,-4.078 L 695.488,654.606 V 796.637 H 658.925 V 610.591 c 0,-3.75 1.055,-7.149 3.164,-10.196 2.11,-3.047 4.805,-5.32 8.086,-6.82 3.469,-1.406 7.031,-1.758 10.688,-1.055 3.656,0.703 6.796,2.414 9.421,5.133 L 823.878,737.012 V 594.981 h 36.563 z"
   style="fill:#ff0004;fill-rule:nonzero;stroke:#ff0004;stroke-width:30.94px;stroke-linejoin:round;fill-opacity:1"
   id="path3" />
    </g>
    
<g
   transform="matrix(0.43616683,0,0,0.43616683,277.03283,314.61786)"
   id="g5">
        
        <path
   d="M 680.283,-30.734 H 599.704 V 134.359 H 563.142 V -30.734 h -80.719 v -36.563 h 197.86 z"
   style="fill:#62b924;fill-rule:nonzero;stroke:#62b924;stroke-width:36.24px;stroke-linejoin:round"
   id="path4" />
    </g><rect
   style="fill:#00afff;fill-opacity:1;stroke:#ffffff;stroke-width:0"
   id="rect3"
   width="101.50061"
   height="104.90885"
   x="107.6267"
   y="164.32278" /><rect
   style="fill:#ffc200;fill-opacity:1;stroke:#ffffff;stroke-width:0"
   id="rect4"
   width="98.963089"
   height="191.18437"
   x="233.4514"
   y="111.65067" /><rect
   style="fill:#ff0004;fill-opacity:1;stroke:#ffffff;stroke-width:0"
   id="rect5"
   width="104.03812"
   height="141.48515"
   x="352.71463"
   y="134.48831" /><rect
   style="fill:#62b924;fill-opacity:1;stroke:#ffffff;stroke-width:0"
   id="rect7"
   width="101.5006"
   height="62.206459"
   x="479.59036"
   y="170.01352" /><text
   xml:space="preserve"
   style="font-style:normal;font-variant:normal;font-weight:normal;font-stretch:normal;font-size:42.6667px;font-family:Arial;-inkscape-font-specification:Arial;fill:#f9f9f9;fill-opacity:0;stroke:#ffffff;stroke-width:0"
   x="794.24225"
   y="164.93849"
   id="text7"><tspan
     sodipodi:role="line"
     id="tspan7"
     x="794.24225"
     y="164.93849" /></text><text
   xml:space="preserve"
   style="font-style:normal;font-variant:normal;font-weight:normal;font-stretch:normal;font-size:42.6667px;font-family:Arial;-inkscape-font-specification:Arial;fill:#2c4f6e;fill-opacity:1;stroke:#ffffff;stroke-width:0"
   x="779.01715"
   y="170.01352"
   id="text8"><tspan
     sodipodi:role="line"
     id="tspan8"
     x="779.01715"
     y="170.01352" /></text><text
   xml:space="preserve"
   style="font-style:normal;font-variant:normal;font-weight:normal;font-stretch:normal;font-size:192px;font-family:'Atkinson Hyperlegible Next';-inkscape-font-specification:'Atkinson Hyperlegible Next';fill:#ffffff;fill-opacity:1;stroke:#ffffff;stroke-width:0"
   x="651.70605"
   y="257.08508"
   id="text9"><tspan
     sodipodi:role="line"
     id="tspan9"
     x="651.70605"
     y="257.08508"
     style="font-style:normal;font-variant:normal;font-weight:500;font-stretch:normal;font-size:192px;font-family:'Atkinson Hyperlegible Next';-inkscape-font-specification:'Atkinson Hyperlegible Next Medium'">the</tspan></text><text
   xml:space="preserve"
   style="font-style:normal;font-variant:normal;font-weight:normal;font-stretch:normal;font-size:192px;font-family:'Atkinson Hyperlegible Next';-inkscape-font-specification:'Atkinson Hyperlegible Next';fill:#ffffff;stroke:#ffffff;stroke-width:0"
   x="656.78107"
   y="409.77136"
   id="text1"><tspan
     sodipodi:role="line"
     x="656.78107"
     y="409.77136"
     id="tspan2"
     style="font-style:normal;font-variant:normal;font-weight:500;font-stretch:normal;font-size:192px;font-family:'Atkinson Hyperlegible Next';-inkscape-font-specification:'Atkinson Hyperlegible Next Medium'">solent</tspan></text><text
   xml:space="preserve"
   style="font-style:normal;font-variant:normal;font-weight:normal;font-stretch:normal;font-size:192px;font-family:'Atkinson Hyperlegible Next';-inkscape-font-specification:'Atkinson Hyperlegible Next';fill:#ffffff;stroke:#ffffff;stroke-width:0"
   x="653.16858"
   y="558.22937"
   id="text3"><tspan
     sodipodi:role="line"
     id="tspan3"
     x="653.16858"
     y="558.22937"
     style="font-style:normal;font-variant:normal;font-weight:500;font-stretch:normal;font-size:192px;font-family:'Atkinson Hyperlegible Next';-inkscape-font-specification:'Atkinson Hyperlegible Next Medium'">metropolitan</tspan></text></svg>
