<?xml version='1.0' encoding='utf-8'?>
<svg xmlns="http://www.w3.org/2000/svg" xmlns:inkscape="http://www.inkscape.org/namespaces/inkscape" xmlns:sodipodi="http://sodipodi.sourceforge.net/DTD/sodipodi-0.dtd" width="1920" height="720" viewBox="0 0 1920 720" version="1.1" xml:space="preserve" style="clip-rule:evenodd;fill-rule:evenodd;stroke-linejoin:bevel;stroke-miterlimit:2" id="svg5" sodipodi:docname="slnt2.svg" inkscape:version="1.4.2 (ebf0e94, 2025-05-08)"><defs id="defs5"><rect x="4277.5952" y="779.19019" width="430.67484" height="587.04297" id="rect6" /></defs><sodipodi:namedview id="namedview5" pagecolor="#ffffff" bordercolor="#000000" borderopacity="0.25" inkscape:showpageshadow="2" inkscape:pageopacity="0.0" inkscape:pagecheckerboard="0" inkscape:deskcolor="#d1d1d1" inkscape:zoom="0.18865741" inkscape:cx="954.11042" inkscape:cy="68.907975" inkscape:window-width="1835" inkscape:window-height="950" inkscape:window-x="26" inkscape:window-y="23" inkscape:window-maximized="0" inkscape:current-layer="svg5" />
    <circle style="fill:#2c4f6e;fill-opacity:1;stroke:#ffffff;stroke-width:24" id="path7-outline" cx="344.53958" cy="355.1412" r="280.03067" />
    <circle style="fill:#2c4f6e;fill-opacity:1;stroke-width:0.884953" id="path7" cx="344.53958" cy="355.1412" r="265.03067" />
    <g transform="matrix(0.5,0,0,0.5,44.274952,155.27828)" id="g2">
        <path d="m 338.225,451.055 c 0,7.219 -0.914,13.711 -2.743,19.476 -1.828,5.766 -4.242,10.852 -7.242,15.258 -3,4.406 -6.515,8.156 -10.547,11.25 -4.031,3.094 -8.203,5.625 -12.515,7.594 -4.313,1.969 -8.696,3.422 -13.149,4.359 -4.453,0.938 -8.648,1.407 -12.586,1.407 H 142.945 c -1.206,0 -2.363,-0.48 -3.216,-1.333 -0.853,-0.853 -1.332,-2.01 -1.332,-3.216 0,-7.07 0,-20.61 0,-27.598 0,-1.171 0.465,-2.294 1.293,-3.123 0.828,-0.828 1.951,-1.293 3.122,-1.293 23.893,0 136.631,0 136.631,0 7.032,0 12.493,-2.062 16.383,-6.187 3.891,-4.125 5.836,-9.657 5.836,-16.594 0,-3.375 -0.515,-6.469 -1.547,-9.281 -1.031,-2.813 -2.508,-5.25 -4.429,-7.313 -1.922,-2.062 -4.266,-3.656 -7.032,-4.781 -2.765,-1.125 -5.836,-1.688 -9.211,-1.688 H 195.35 c -5.907,0 -12.282,-1.054 -19.125,-3.164 -6.844,-2.109 -13.196,-5.508 -19.055,-10.195 -5.859,-4.688 -10.734,-10.828 -14.625,-18.422 -3.891,-7.594 -5.836,-16.875 -5.836,-27.844 0,-10.968 1.945,-20.226 5.836,-27.773 3.891,-7.547 8.766,-13.688 14.625,-18.422 5.859,-4.734 12.211,-8.156 19.055,-10.266 6.843,-2.109 13.218,-3.164 19.125,-3.164 h 120.959 c 1.93,0 3.494,1.564 3.494,3.494 0,7.313 0,24.091 0,30.508 0,1.414 -1.147,2.561 -2.561,2.561 -17.76,0 -121.892,0 -121.892,0 -6.938,0 -12.352,2.109 -16.243,6.328 -3.89,4.219 -5.835,9.797 -5.835,16.734 0,7.032 1.945,12.586 5.835,16.664 3.891,4.079 9.305,6.118 16.243,6.118 h 84.375 c 3.937,0.093 8.109,0.632 12.515,1.617 4.407,0.984 8.789,2.508 13.149,4.57 4.359,2.063 8.508,4.664 12.445,7.805 3.938,3.14 7.43,6.914 10.477,11.32 3.046,4.406 5.461,9.469 7.242,15.188 1.781,5.718 2.672,12.187 2.672,19.406 z" style="fill:#00afff;fill-rule:nonzero;stroke:#000000;stroke-width:97.64px;stroke-linejoin:round" id="path1-outline" />
        <path d="m 338.225,451.055 c 0,7.219 -0.914,13.711 -2.743,19.476 -1.828,5.766 -4.242,10.852 -7.242,15.258 -3,4.406 -6.515,8.156 -10.547,11.25 -4.031,3.094 -8.203,5.625 -12.515,7.594 -4.313,1.969 -8.696,3.422 -13.149,4.359 -4.453,0.938 -8.648,1.407 -12.586,1.407 H 142.945 c -1.206,0 -2.363,-0.48 -3.216,-1.333 -0.853,-0.853 -1.332,-2.01 -1.332,-3.216 0,-7.07 0,-20.61 0,-27.598 0,-1.171 0.465,-2.294 1.293,-3.123 0.828,-0.828 1.951,-1.293 3.122,-1.293 23.893,0 136.631,0 136.631,0 7.032,0 12.493,-2.062 16.383,-6.187 3.891,-4.125 5.836,-9.657 5.836,-16.594 0,-3.375 -0.515,-6.469 -1.547,-9.281 -1.031,-2.813 -2.508,-5.25 -4.429,-7.313 -1.922,-2.062 -4.266,-3.656 -7.032,-4.781 -2.765,-1.125 -5.836,-1.688 -9.211,-1.688 H 195.35 c -5.907,0 -12.282,-1.054 -19.125,-3.164 -6.844,-2.109 -13.196,-5.508 -19.055,-10.195 -5.859,-4.688 -10.734,-10.828 -14.625,-18.422 -3.891,-7.594 -5.836,-16.875 -5.836,-27.844 0,-10.968 1.945,-20.226 5.836,-27.773 3.891,-7.547 8.766,-13.688 14.625,-18.422 5.859,-4.734 12.211,-8.156 19.055,-10.266 6.843,-2.109 13.218,-3.164 19.125,-3.164 h 120.959 c 1.93,0 3.494,1.564 3.494,3.494 0,7.313 0,24.091 0,30.508 0,1.414 -1.147,2.561 -2.561,2.561 -17.76,0 -121.892,0 -121.892,0 -6.938,0 -12.352,2.109 -16.243,6.328 -3.89,4.219 -5.835,9.797 -5.835,16.734 0,7.032 1.945,12.586 5.835,16.664 3.891,4.079 9.305,6.118 16.243,6.118 h 84.375 c 3.937,0.093 8.109,0.632 12.515,1.617 4.407,0.984 8.789,2.508 13.149,4.57 4.359,2.063 8.508,4.664 12.445,7.805 3.938,3.14 7.43,6.914 10.477,11.32 3.046,4.406 5.461,9.469 7.242,15.188 1.781,5.718 2.672,12.187 2.672,19.406 z" style="fill:#00afff;fill-rule:nonzero;stroke:#00afff;stroke-width:28.82px" id="path1" />
    </g>
    <g transform="matrix(0.5,0,0,0.5,78.885562,97.282258)" id="g3">
        <path d="M 509.247,689.999 H 342.466 c -2.625,0 -5.062,-0.468 -7.312,-1.406 -2.25,-0.937 -4.196,-2.226 -5.836,-3.867 -1.641,-1.641 -2.93,-3.586 -3.867,-5.836 -0.938,-2.25 -1.407,-4.687 -1.407,-7.312 V 490.343 h 36.563 v 163.094 h 148.64 z" style="fill:#ffc200;fill-rule:nonzero;stroke:#000000;stroke-width:99.76px;stroke-linejoin:round" id="path2-outline" sodipodi:nodetypes="cscccsccccc" />
        <path d="M 509.247,689.999 H 342.466 c -2.625,0 -5.062,-0.468 -7.312,-1.406 -2.25,-0.937 -4.196,-2.226 -5.836,-3.867 -1.641,-1.641 -2.93,-3.586 -3.867,-5.836 -0.938,-2.25 -1.407,-4.687 -1.407,-7.312 V 490.343 h 36.563 v 163.094 h 148.64 z" style="fill:#ffc200;fill-rule:nonzero;stroke:#ffc200;stroke-width:29.88px;stroke-linejoin:round" id="path2" sodipodi:nodetypes="cscccsccccc" />
    </g>
    <g transform="matrix(0.5,0,0,0.5,24.631103,13.094268)" id="g4">
        <path d="m 860.441,781.028 c 0,2.625 -0.492,5.063 -1.477,7.313 -0.984,2.25 -2.297,4.195 -3.937,5.836 -1.641,1.64 -3.586,2.929 -5.836,3.867 -2.25,0.937 -4.641,1.406 -7.172,1.406 -2.25,0 -4.524,-0.422 -6.82,-1.266 -2.297,-0.843 -4.336,-2.203 -6.118,-4.078 L 695.488,654.606 V 796.637 H 658.925 V 610.591 c 0,-3.75 1.055,-7.149 3.164,-10.196 2.11,-3.047 4.805,-5.32 8.086,-6.82 3.469,-1.406 7.031,-1.758 10.688,-1.055 3.656,0.703 6.796,2.414 9.421,5.133 L 823.878,737.012 V 594.981 h 36.563 z" style="fill:#ff0004;fill-rule:nonzero;stroke:#000000;stroke-width:101.88px;stroke-linejoin:round" id="path3-outline" />
        <path d="m 860.441,781.028 c 0,2.625 -0.492,5.063 -1.477,7.313 -0.984,2.25 -2.297,4.195 -3.937,5.836 -1.641,1.64 -3.586,2.929 -5.836,3.867 -2.25,0.937 -4.641,1.406 -7.172,1.406 -2.25,0 -4.524,-0.422 -6.82,-1.266 -2.297,-0.843 -4.336,-2.203 -6.118,-4.078 L 695.488,654.606 V 796.637 H 658.925 V 610.591 c 0,-3.75 1.055,-7.149 3.164,-10.196 2.11,-3.047 4.805,-5.32 8.086,-6.82 3.469,-1.406 7.031,-1.758 10.688,-1.055 3.656,0.703 6.796,2.414 9.421,5.133 L 823.878,737.012 V 594.981 h 36.563 z" style="fill:#ff0004;fill-rule:nonzero;stroke:#ff0004;stroke-width:30.94px;stroke-linejoin:round" id="path3" />
    </g><rect style="fill:#ffffff;fill-opacity:0;stroke-width:0.868902" id="rect2" width="4537.3252" height="1197.9386" x="1171.4355" y="-30.503193" />
    
<g transform="matrix(0.5,0,0,0.5,234.16549,308.68726)" id="g5">
        <path d="M 680.283,-30.734 H 599.704 V 134.359 H 563.142 V -30.734 h -80.719 v -36.563 h 197.86 z" style="fill:#62b924;fill-rule:nonzero;stroke:#000000;stroke-width:112.48px;stroke-linejoin:round" id="path4-outline" />
        <path d="M 680.283,-30.734 H 599.704 V 134.359 H 563.142 V -30.734 h -80.719 v -36.563 h 197.86 z" style="fill:#62b924;fill-rule:nonzero;stroke:#62b924;stroke-width:36.24px;stroke-linejoin:round" id="path4" />
    </g><g id="text13-paths" style="fill:#ffffff"><path d="M250 -17C327 -17 377 12 407 66L391 82C364 60 347 50 322 50C282 50 257 73 257 127V505H380V546H257L258 708H155L103 546L14 537V505H95V249C95 208 94 179 94 139C94 29 148 -17 250 -17Z" transform="translate(697.55304,245.93999) scale(0.17793899536000002,-0.17793899536000002)" /><path d="M446 0H674V31L614 36L612 238V368C612 504 547 563 449 563C375 563 322 533 263 463V656L266 817L253 826L31 783V756L104 750V238L102 37L36 31V0H325V31L268 36C267 95 266 182 266 238V433C306 469 345 488 377 488C421 488 450 460 450 383V238C450 180 449 95 448 37L384 31V0Z" transform="translate(769.79627211616,245.93999) scale(0.17793899536000002,-0.17793899536000002)" /><path d="M323 -17C427 -17 505 31 547 118L528 131C495 84 451 54 380 54C283 54 211 119 206 274H546C551 293 553 310 553 335C553 462 472 563 317 563C170 563 35 461 35 275C35 88 154 -17 323 -17ZM206 310C210 466 255 528 310 528C364 528 401 484 401 395C401 333 387 310 341 310Z" transform="translate(894.35356886816,245.93999) scale(0.17793899536000002,-0.17793899536000002)" /></g><g id="text14-paths" style="fill:#ffffff"><path d="M238 -17C390 -17 482 51 482 168C482 250 436 305 331 337L272 355C194 378 174 408 174 444C174 494 214 525 276 525C305 525 326 520 347 510L385 392H442L449 518C390 547 339 563 272 563C125 563 43 487 43 382C43 297 96 245 186 218L244 199C324 176 343 146 343 104C343 49 301 22 225 22C193 22 168 27 142 37L112 169H48L40 33C99 0 160 -17 238 -17Z" transform="translate(701.97449,406.91992) scale(0.17793899536000002,-0.17793899536000002)" /><path d="M318 -17C489 -17 602 97 602 276C602 455 476 563 318 563C161 563 35 453 35 276C35 100 146 -17 318 -17ZM318 18C247 18 207 100 207 274C207 449 247 528 318 528C390 528 429 449 429 274C429 100 390 18 318 18Z" transform="translate(793.07925562432,406.91992) scale(0.17793899536000002,-0.17793899536000002)" /><path d="M101 0H337V31L269 37C267 102 266 173 266 238V656L270 817L255 826L31 783V756L104 750V238L102 37L33 31V0Z" transform="translate(906.42639566864,406.91992) scale(0.17793899536000002,-0.17793899536000002)" /><path d="M323 -17C427 -17 505 31 547 118L528 131C495 84 451 54 380 54C283 54 211 119 206 274H546C551 293 553 310 553 335C553 462 472 563 317 563C170 563 35 461 35 275C35 88 154 -17 323 -17ZM206 310C210 466 255 528 310 528C364 528 401 484 401 395C401 333 387 310 341 310Z" transform="translate(971.5520679704,406.91992) scale(0.17793899536000002,-0.17793899536000002)" /><path d="M443 0H671V31L611 36C609 94 608 179 608 238V370C608 501 543 563 448 563C382 563 327 540 261 464L255 553L242 562L24 499V475L97 467C100 419 101 386 101 321V238C101 182 100 96 99 37L33 31V0H323V31L265 36L263 238V431C306 469 347 488 377 488C424 488 446 460 446 383V238L444 37L381 31V0Z" transform="translate(1075.82431925136,406.91992) scale(0.17793899536000002,-0.17793899536000002)" /><path d="M250 -17C327 -17 377 12 407 66L391 82C364 60 347 50 322 50C282 50 257 73 257 127V505H380V546H257L258 708H155L103 546L14 537V505H95V249C95 208 94 179 94 139C94 29 148 -17 250 -17Z" transform="translate(1199.84779901728,406.91992) scale(0.17793899536000002,-0.17793899536000002)" /></g><g id="text15-paths" style="fill:#ffffff"><path d="M775 0H999V31L939 37L937 238V364C937 500 886 563 774 563C703 563 643 533 588 460C567 529 517 563 442 563C369 563 312 527 261 465L255 553L242 562L24 499V476L97 468C101 419 101 387 101 322V238C101 182 100 96 99 37L33 31V0H323V31L265 36L263 238V429C299 464 337 487 373 487C421 487 442 455 442 373V238C442 180 441 95 440 37L376 31V0H661V31L603 37C601 94 600 179 600 238V370C600 391 599 410 596 428C634 466 671 487 708 487C756 487 778 461 778 373V238L776 37L716 31V0Z" transform="translate(693.13196,573.10828) scale(0.17793899536000002,-0.17793899536000002)" /><path d="M323 -17C427 -17 505 31 547 118L528 131C495 84 451 54 380 54C283 54 211 119 206 274H546C551 293 553 310 553 335C553 462 472 563 317 563C170 563 35 461 35 275C35 88 154 -17 323 -17ZM206 310C210 466 255 528 310 528C364 528 401 484 401 395C401 333 387 310 341 310Z" transform="translate(875.5194302440001,573.10828) scale(0.17793899536000002,-0.17793899536000002)" /><path d="M250 -17C327 -17 377 12 407 66L391 82C364 60 347 50 322 50C282 50 257 73 257 127V505H380V546H257L258 708H155L103 546L14 537V505H95V249C95 208 94 179 94 139C94 29 148 -17 250 -17Z" transform="translate(979.79168152496,573.10828) scale(0.17793899536000002,-0.17793899536000002)" /><path d="M263 321C282 395 307 439 349 472L356 463C382 426 406 403 444 403C494 403 516 438 518 484C508 544 469 563 421 563C362 563 294 511 263 411L255 553L242 562L24 499V475L97 467C100 419 101 387 101 321V238C101 182 100 96 99 38L32 31V0H358V31L265 40L263 238Z" transform="translate(1052.03491364112,573.10828) scale(0.17793899536000002,-0.17793899536000002)" /><path d="M318 -17C489 -17 602 97 602 276C602 455 476 563 318 563C161 563 35 453 35 276C35 100 146 -17 318 -17ZM318 18C247 18 207 100 207 274C207 449 247 528 318 528C390 528 429 449 429 274C429 100 390 18 318 18Z" transform="translate(1144.56319122832,573.10828) scale(0.17793899536000002,-0.17793899536000002)" /><path d="M410 -17C543 -17 654 94 654 276C654 461 557 563 434 563C368 563 309 540 263 488L255 552L242 562L27 499V475L101 467C103 419 104 385 104 320V-7L102 -223L35 -230V-259H343V-230L266 -221L264 -6V53C305 5 354 -17 410 -17ZM266 458C299 488 325 494 355 494C434 494 480 438 480 275C480 108 427 54 349 54C316 54 291 59 266 79Z" transform="translate(1257.91033127264,573.10828) scale(0.17793899536000002,-0.17793899536000002)" /><path d="M318 -17C489 -17 602 97 602 276C602 455 476 563 318 563C161 563 35 453 35 276C35 100 146 -17 318 -17ZM318 18C247 18 207 100 207 274C207 449 247 528 318 528C390 528 429 449 429 274C429 100 390 18 318 18Z" transform="translate(1380.51029907568,573.10828) scale(0.17793899536000002,-0.17793899536000002)" /><path d="M101 0H337V31L269 37C267 102 266 173 266 238V656L270 817L255 826L31 783V756L104 750V238L102 37L33 31V0Z" transform="translate(1493.85743912,573.10828) scale(0.17793899536000002,-0.17793899536000002)" /><path d="M181 655C229 655 267 689 267 738C267 784 229 819 181 819C134 819 95 784 95 738C95 689 134 655 181 655ZM101 0H329V31L268 37C267 95 266 182 266 238V392L270 553L257 562L27 502V478L101 470C103 423 104 384 104 318V238L102 37L37 31V0Z" transform="translate(1558.98311142176,573.10828) scale(0.17793899536000002,-0.17793899536000002)" /><path d="M250 -17C327 -17 377 12 407 66L391 82C364 60 347 50 322 50C282 50 257 73 257 127V505H380V546H257L258 708H155L103 546L14 537V505H95V249C95 208 94 179 94 139C94 29 148 -17 250 -17Z" transform="translate(1622.68527176064,573.10828) scale(0.17793899536000002,-0.17793899536000002)" /><path d="M471 -16C536 -16 574 7 600 62L582 75C563 45 552 37 537 37C518 37 508 50 508 88V357C508 502 449 563 307 563C152 563 65 503 56 410C65 376 90 358 126 358C164 358 198 384 201 453L208 524C223 527 236 528 250 528C326 528 350 497 350 393V332L253 306C90 261 39 210 39 119C39 35 99 -17 185 -17C265 -17 303 14 354 70C369 17 406 -16 471 -16ZM350 99C309 60 284 51 263 51C218 51 188 80 188 140C188 213 227 259 292 287C306 292 327 298 350 305Z" transform="translate(1694.9285038768,573.10828) scale(0.17793899536000002,-0.17793899536000002)" /><path d="M443 0H671V31L611 36C609 94 608 179 608 238V370C608 501 543 563 448 563C382 563 327 540 261 464L255 553L242 562L24 499V475L97 467C100 419 101 386 101 321V238C101 182 100 96 99 37L33 31V0H323V31L265 36L263 238V431C306 469 347 488 377 488C424 488 446 460 446 383V238L444 37L381 31V0Z" transform="translate(1801.51396209744,573.10828) scale(0.17793899536000002,-0.17793899536000002)" /></g></svg>