<?xml version="1.0" encoding="UTF-8" standalone="no"?>
<svg
   width="1920"
   height="720"
   viewBox="0 0 1920 720"
   version="1.1"
   xml:space="preserve"
   style="clip-rule:evenodd;fill-rule:evenodd;stroke-linejoin:bevel;stroke-miterlimit:2"
   id="svg5"
   xmlns:inkscape="http://www.inkscape.org/namespaces/inkscape"
   xmlns:sodipodi="http://sodipodi.sourceforge.net/DTD/sodipodi-0.dtd"
   xmlns="http://www.w3.org/2000/svg"
   xmlns:svg="http://www.w3.org/2000/svg">
  <defs id="defs5">
    <rect x="4277.5952" y="779.19019" width="430.67484" height="587.04297" id="rect6" />
  </defs>
  <circle
     style="fill:#2c4f6e;fill-opacity:1;stroke-width:0.884953"
     id="path7"
     cx="344.53958"
     cy="355.1412"
     r="265.03067" />

  <g transform="matrix(0.5,0,0,0.5,44.274952,155.27828)" id="g2">
    <path
       d="m 338.225,451.055 c 0,7.219 -0.914,13.711 -2.743,19.476 -1.828,5.766 -4.242,10.852 -7.242,15.258 -3,4.406 -6.515,8.156 -10.547,11.25 -4.031,3.094 -8.203,5.625 -12.515,7.594 -4.313,1.969 -8.696,3.422 -13.149,4.359 -4.453,0.938 -8.648,1.407 -12.586,1.407 H 142.945 c -1.206,0 -2.363,-0.48 -3.216,-1.333 -0.853,-0.853 -1.332,-2.01 -1.332,-3.216 0,-7.07 0,-20.61 0,-27.598 0,-1.171 0.465,-2.294 1.293,-3.123 0.828,-0.828 1.951,-1.293 3.122,-1.293 23.893,0 136.631,0 136.631,0 7.032,0 12.493,-2.062 16.383,-6.187 3.891,-4.125 5.836,-9.657 5.836,-16.594 0,-3.375 -0.515,-6.469 -1.547,-9.281 -1.031,-2.813 -2.508,-5.25 -4.429,-7.313 -1.922,-2.062 -4.266,-3.656 -7.032,-4.781 -2.765,-1.125 -5.836,-1.688 -9.211,-1.688 H 195.35 c -5.907,0 -12.282,-1.054 -19.125,-3.164 -6.844,-2.109 -13.196,-5.508 -19.055,-10.195 -5.859,-4.688 -10.734,-10.828 -14.625,-18.422 -3.891,-7.594 -5.836,-16.875 -5.836,-27.844 0,-10.968 1.945,-20.226 5.836,-27.773 3.891,-7.547 8.766,-13.688 14.625,-18.422 5.859,-4.734 12.211,-8.156 19.055,-10.266 6.843,-2.109 13.218,-3.164 19.125,-3.164 h 120.959 c 1.93,0 3.494,1.564 3.494,3.494 0,7.313 0,24.091 0,30.508 0,1.414 -1.147,2.561 -2.561,2.561 -17.76,0 -121.892,0 -121.892,0 -6.938,0 -12.352,2.109 -16.243,6.328 -3.89,4.219 -5.835,9.797 -5.835,16.734 0,7.032 1.945,12.586 5.835,16.664 3.891,4.079 9.305,6.118 16.243,6.118 h 84.375 c 3.937,0.093 8.109,0.632 12.515,1.617 4.407,0.984 8.789,2.508 13.149,4.57 4.359,2.063 8.508,4.664 12.445,7.805 3.938,3.14 7.43,6.914 10.477,11.32 3.046,4.406 5.461,9.469 7.242,15.188 1.781,5.718 2.672,12.187 2.672,19.406 z"
       style="fill:none;stroke:#ffffff;stroke-width:57.64px;stroke-linejoin:round"
       id="path1-outline" />
    <path
       d="m 338.225,451.055 c 0,7.219 -0.914,13.711 -2.743,19.476 -1.828,5.766 -4.242,10.852 -7.242,15.258 -3,4.406 -6.515,8.156 -10.547,11.25 -4.031,3.094 -8.203,5.625 -12.515,7.594 -4.313,1.969 -8.696,3.422 -13.149,4.359 -4.453,0.938 -8.648,1.407 -12.586,1.407 H 142.945 c -1.206,0 -2.363,-0.48 -3.216,-1.333 -0.853,-0.853 -1.332,-2.01 -1.332,-3.216 0,-7.07 0,-20.61 0,-27.598 0,-1.171 0.465,-2.294 1.293,-3.123 0.828,-0.828 1.951,-1.293 3.122,-1.293 23.893,0 136.631,0 136.631,0 7.032,0 12.493,-2.062 16.383,-6.187 3.891,-4.125 5.836,-9.657 5.836,-16.594 0,-3.375 -0.515,-6.469 -1.547,-9.281 -1.031,-2.813 -2.508,-5.25 -4.429,-7.313 -1.922,-2.062 -4.266,-3.656 -7.032,-4.781 -2.765,-1.125 -5.836,-1.688 -9.211,-1.688 H 195.35 c -5.907,0 -12.282,-1.054 -19.125,-3.164 -6.844,-2.109 -13.196,-5.508 -19.055,-10.195 -5.859,-4.688 -10.734,-10.828 -14.625,-18.422 -3.891,-7.594 -5.836,-16.875 -5.836,-27.844 0,-10.968 1.945,-20.226 5.836,-27.773 3.891,-7.547 8.766,-13.688 14.625,-18.422 5.859,-4.734 12.211,-8.156 19.055,-10.266 6.843,-2.109 13.218,-3.164 19.125,-3.164 h 120.959 c 1.93,0 3.494,1.564 3.494,3.494 0,7.313 0,24.091 0,30.508 0,1.414 -1.147,2.561 -2.561,2.561 -17.76,0 -121.892,0 -121.892,0 -6.938,0 -12.352,2.109 -16.243,6.328 -3.89,4.219 -5.835,9.797 -5.835,16.734 0,7.032 1.945,12.586 5.835,16.664 3.891,4.079 9.305,6.118 16.243,6.118 h 84.375 c 3.937,0.093 8.109,0.632 12.515,1.617 4.407,0.984 8.789,2.508 13.149,4.57 4.359,2.063 8.508,4.664 12.445,7.805 3.938,3.14 7.43,6.914 10.477,11.32 3.046,4.406 5.461,9.469 7.242,15.188 1.781,5.718 2.672,12.187 2.672,19.406 z"
       style="fill:#00afff;fill-rule:nonzero"
       id="path1" />
  </g>

  <g transform="matrix(0.5,0,0,0.5,78.885562,97.282258)" id="g3">
    <path
       d="M 509.247,689.999 H 342.466 c -2.625,0 -5.062,-0.468 -7.312,-1.406 -2.25,-0.937 -4.196,-2.226 -5.836,-3.867 -1.641,-1.641 -2.93,-3.586 -3.867,-5.836 -0.938,-2.25 -1.407,-4.687 -1.407,-7.312 V 490.343 h 36.563 v 163.094 h 148.64 z"
       style="fill:none;stroke:#ffffff;stroke-width:59.76px;stroke-linejoin:round"
       id="path2-outline" />
    <path
       d="M 509.247,689.999 H 342.466 c -2.625,0 -5.062,-0.468 -7.312,-1.406 -2.25,-0.937 -4.196,-2.226 -5.836,-3.867 -1.641,-1.641 -2.93,-3.586 -3.867,-5.836 -0.938,-2.25 -1.407,-4.687 -1.407,-7.312 V 490.343 h 36.563 v 163.094 h 148.64 z"
       style="fill:#ffc200;fill-rule:nonzero"
       id="path2" />
  </g>

  <g transform="matrix(0.5,0,0,0.5,24.631103,13.094268)" id="g4">
    <path
       d="m 860.441,781.028 c 0,2.625 -0.492,5.063 -1.477,7.313 -0.984,2.25 -2.297,4.195 -3.937,5.836 -1.641,1.64 -3.586,2.929 -5.836,3.867 -2.25,0.937 -4.641,1.406 -7.172,1.406 -2.25,0 -4.524,-0.422 -6.82,-1.266 -2.297,-0.843 -4.336,-2.203 -6.118,-4.078 L 695.488,654.606 V 796.637 H 658.925 V 610.591 c 0,-3.75 1.055,-7.149 3.164,-10.196 2.11,-3.047 4.805,-5.32 8.086,-6.82 3.469,-1.406 7.031,-1.758 10.688,-1.055 3.656,0.703 6.796,2.414 9.421,5.133 L 823.878,737.012 V 594.981 h 36.563 z"
       style="fill:none;stroke:#ffffff;stroke-width:61.88px;stroke-linejoin:round"
       id="path3-outline" />
    <path
       d="m 860.441,781.028 c 0,2.625 -0.492,5.063 -1.477,7.313 -0.984,2.25 -2.297,4.195 -3.937,5.836 -1.641,1.64 -3.586,2.929 -5.836,3.867 -2.25,0.937 -4.641,1.406 -7.172,1.406 -2.25,0 -4.524,-0.422 -6.82,-1.266 -2.297,-0.843 -4.336,-2.203 -6.118,-4.078 L 695.488,654.606 V 796.637 H 658.925 V 610.591 c 0,-3.75 1.055,-7.149 3.164,-10.196 2.11,-3.047 4.805,-5.32 8.086,-6.82 3.469,-1.406 7.031,-1.758 10.688,-1.055 3.656,0.703 6.796,2.414 9.421,5.133 L 823.878,737.012 V 594.981 h 36.563 z"
       style="fill:#ff0004;fill-rule:nonzero"
       id="path3" />
  </g>

  <g transform="matrix(0.5,0,0,0.5,234.16549,308.68726)" id="g5">
    <path
       d="M 680.283,-30.734 H 599.704 V 134.359 H 563.142 V -30.734 h -80.719 v -36.563 h 197.86 z"
       style="fill:none;stroke:#ffffff;stroke-width:72.48px;stroke-linejoin:round"
       id="path4-outline" />
    <path
       d="M 680.283,-30.734 H 599.704 V 134.359 H 563.142 V -30.734 h -80.719 v -36.563 h 197.86 z"
       style="fill:#62b924;fill-rule:nonzero"
       id="path4" />
  </g>

  <text xml:space="preserve" style="font-style:normal;font-weight:bold;font-size:177.9389px;font-family:'Noto Serif';fill:#000000;stroke-width:3.33636" x="697.55304" y="245.93999" id="text13"><tspan sodipodi:role="line" id="tspan13" x="697.55304" y="245.93999">the</tspan></text>
  <text xml:space="preserve" style="font-style:normal;font-weight:bold;font-size:177.9389px;font-family:'Noto Serif';fill:#000000;stroke-width:3.33636" x="701.97449" y="406.91992" id="text14"><tspan sodipodi:role="line" id="tspan14" x="701.97449" y="406.91992">solent</tspan></text>
  <text xml:space="preserve" style="font-style:normal;font-weight:bold;font-size:177.9389px;font-family:'Noto Serif';fill:#000000;stroke-width:3.33636" x="693.13196" y="573.10828" id="text15"><tspan sodipodi:role="line" id="tspan15" x="693.13196" y="573.10828">metropolitan</tspan></text>
</svg>