<svg xmlns="http://www.w3.org/2000/svg" width="120" height="103.92" viewBox="0 0 120 103.92">
  <g transform="translate(-14.00,-14.00)" fill="white" stroke="white" stroke-width="0" opacity="0.12">
    <g transform="scale(0.109375)">
      <path d="M92,108a12,12,0,0,1,12-12h72a12,12,0,0,1,0,24H104A12,12,0,0,1,92,108Zm12,52h72a12,12,0,0,0,0-24H104a12,12,0,0,0,0,24ZM236,64V184a28,28,0,0,1-28,28H36A32,32,0,0,1,4,180V88a12,12,0,0,1,24,0v92a8,8,0,0,0,16,0V64A20,20,0,0,1,64,44H216A20,20,0,0,1,236,64Zm-24,4H68V180a32,32,0,0,1-1,8H208a4,4,0,0,0,4-4Z"/>
    </g>
  </g>
  <g transform="translate(-14.00,89.92)" fill="white" stroke="white" stroke-width="0" opacity="0.12">
    <g transform="scale(0.109375)">
      <path d="M92,108a12,12,0,0,1,12-12h72a12,12,0,0,1,0,24H104A12,12,0,0,1,92,108Zm12,52h72a12,12,0,0,0,0-24H104a12,12,0,0,0,0,24ZM236,64V184a28,28,0,0,1-28,28H36A32,32,0,0,1,4,180V88a12,12,0,0,1,24,0v92a8,8,0,0,0,16,0V64A20,20,0,0,1,64,44H216A20,20,0,0,1,236,64Zm-24,4H68V180a32,32,0,0,1-1,8H208a4,4,0,0,0,4-4Z"/>
    </g>
  </g>
  <g transform="translate(106.00,-14.00)" fill="white" stroke="white" stroke-width="0" opacity="0.12">
    <g transform="scale(0.109375)">
      <path d="M92,108a12,12,0,0,1,12-12h72a12,12,0,0,1,0,24H104A12,12,0,0,1,92,108Zm12,52h72a12,12,0,0,0,0-24H104a12,12,0,0,0,0,24ZM236,64V184a28,28,0,0,1-28,28H36A32,32,0,0,1,4,180V88a12,12,0,0,1,24,0v92a8,8,0,0,0,16,0V64A20,20,0,0,1,64,44H216A20,20,0,0,1,236,64Zm-24,4H68V180a32,32,0,0,1-1,8H208a4,4,0,0,0,4-4Z"/>
    </g>
  </g>
  <g transform="translate(106.00,89.92)" fill="white" stroke="white" stroke-width="0" opacity="0.12">
    <g transform="scale(0.109375)">
      <path d="M92,108a12,12,0,0,1,12-12h72a12,12,0,0,1,0,24H104A12,12,0,0,1,92,108Zm12,52h72a12,12,0,0,0,0-24H104a12,12,0,0,0,0,24ZM236,64V184a28,28,0,0,1-28,28H36A32,32,0,0,1,4,180V88a12,12,0,0,1,24,0v92a8,8,0,0,0,16,0V64A20,20,0,0,1,64,44H216A20,20,0,0,1,236,64Zm-24,4H68V180a32,32,0,0,1-1,8H208a4,4,0,0,0,4-4Z"/>
    </g>
  </g>
  <g transform="translate(46.00,-14.00)" fill="white" stroke="white" stroke-width="0" opacity="0.12">
    <g transform="scale(0.109375)">
      <path d="M208,36H48A20,20,0,0,0,28,56v56c0,54.29,26.32,87.22,48.4,105.29,23.71,19.39,47.44,26,48.44,26.29a12.1,12.1,0,0,0,6.32,0c1-.28,24.73-6.9,48.44-26.29,22.08-18.07,48.4-51,48.4-105.29V56A20,20,0,0,0,208,36Zm-4,76c0,35.71-13.09,64.69-38.91,86.15A126.28,126.28,0,0,1,128,219.38a126.14,126.14,0,0,1-37.09-21.23C65.09,176.69,52,147.71,52,112V60H204Z"/>
    </g>
  </g>
  <g transform="translate(46.00,89.92)" fill="white" stroke="white" stroke-width="0" opacity="0.12">
    <g transform="scale(0.109375)">
      <path d="M208,36H48A20,20,0,0,0,28,56v56c0,54.29,26.32,87.22,48.4,105.29,23.71,19.39,47.44,26,48.44,26.29a12.1,12.1,0,0,0,6.32,0c1-.28,24.73-6.9,48.44-26.29,22.08-18.07,48.4-51,48.4-105.29V56A20,20,0,0,0,208,36Zm-4,76c0,35.71-13.09,64.69-38.91,86.15A126.28,126.28,0,0,1,128,219.38a126.14,126.14,0,0,1-37.09-21.23C65.09,176.69,52,147.71,52,112V60H204Z"/>
    </g>
  </g>
  <g transform="translate(16.00,37.96)" fill="white" stroke="white" stroke-width="0" opacity="0.12">
    <g transform="scale(0.109375)">
      <path d="M252,92.68a19.86,19.86,0,0,0-5.86-14.14L177.46,9.85a20,20,0,0,0-28.29,0L121.35,37.67,64.11,59.14A20,20,0,0,0,51.4,74.58L28.16,214A12,12,0,0,0,40,228a11.9,11.9,0,0,0,2-.16l139.45-23.25a20.07,20.07,0,0,0,15.44-12.7l21.46-57.25,27.82-27.82A19.85,19.85,0,0,0,252,92.68ZM175.2,181.3,75,198l33-33a34,34,0,1,0-17-17L58,181,74.7,80.8,125,61.94,194.05,131ZM112,134a10,10,0,1,1,10,10A10,10,0,0,1,112,134Zm96-23L145,48l18.34-18.34,63,63Z"/>
    </g>
  </g>
  <g transform="translate(76.00,37.96)" fill="white" stroke="white" stroke-width="0" opacity="0.12">
    <g transform="scale(0.109375)">
      <path d="M92,108a12,12,0,0,1,12-12h72a12,12,0,0,1,0,24H104A12,12,0,0,1,92,108Zm12,52h72a12,12,0,0,0,0-24H104a12,12,0,0,0,0,24ZM236,64V184a28,28,0,0,1-28,28H36A32,32,0,0,1,4,180V88a12,12,0,0,1,24,0v92a8,8,0,0,0,16,0V64A20,20,0,0,1,64,44H216A20,20,0,0,1,236,64Zm-24,4H68V180a32,32,0,0,1-1,8H208a4,4,0,0,0,4-4Z"/>
    </g>
  </g>
</svg>