<svg xmlns="http://www.w3.org/2000/svg" width="120" height="103.92" viewBox="0 0 120 103.92">
  <g transform="translate(-14.00,-14.00)" fill="white" stroke="white" stroke-width="0" opacity="0.12">
    <g transform="scale(0.109375)">
      <path d="M208,52H182.42L170,33.34A12,12,0,0,0,160,28H96a12,12,0,0,0-10,5.34L73.57,52H48A28,28,0,0,0,20,80V192a28,28,0,0,0,28,28H208a28,28,0,0,0,28-28V80A28,28,0,0,0,208,52Zm4,140a4,4,0,0,1-4,4H48a4,4,0,0,1-4-4V80a4,4,0,0,1,4-4H80a12,12,0,0,0,10-5.34L102.42,52h51.15L166,70.66A12,12,0,0,0,176,76h32a4,4,0,0,1,4,4ZM128,84a48,48,0,1,0,48,48A48.05,48.05,0,0,0,128,84Zm0,72a24,24,0,1,1,24-24A24,24,0,0,1,128,156Z"/>
    </g>
  </g>
  <g transform="translate(-14.00,89.92)" fill="white" stroke="white" stroke-width="0" opacity="0.12">
    <g transform="scale(0.109375)">
      <path d="M208,52H182.42L170,33.34A12,12,0,0,0,160,28H96a12,12,0,0,0-10,5.34L73.57,52H48A28,28,0,0,0,20,80V192a28,28,0,0,0,28,28H208a28,28,0,0,0,28-28V80A28,28,0,0,0,208,52Zm4,140a4,4,0,0,1-4,4H48a4,4,0,0,1-4-4V80a4,4,0,0,1,4-4H80a12,12,0,0,0,10-5.34L102.42,52h51.15L166,70.66A12,12,0,0,0,176,76h32a4,4,0,0,1,4,4ZM128,84a48,48,0,1,0,48,48A48.05,48.05,0,0,0,128,84Zm0,72a24,24,0,1,1,24-24A24,24,0,0,1,128,156Z"/>
    </g>
  </g>
  <g transform="translate(106.00,-14.00)" fill="white" stroke="white" stroke-width="0" opacity="0.12">
    <g transform="scale(0.109375)">
      <path d="M208,52H182.42L170,33.34A12,12,0,0,0,160,28H96a12,12,0,0,0-10,5.34L73.57,52H48A28,28,0,0,0,20,80V192a28,28,0,0,0,28,28H208a28,28,0,0,0,28-28V80A28,28,0,0,0,208,52Zm4,140a4,4,0,0,1-4,4H48a4,4,0,0,1-4-4V80a4,4,0,0,1,4-4H80a12,12,0,0,0,10-5.34L102.42,52h51.15L166,70.66A12,12,0,0,0,176,76h32a4,4,0,0,1,4,4ZM128,84a48,48,0,1,0,48,48A48.05,48.05,0,0,0,128,84Zm0,72a24,24,0,1,1,24-24A24,24,0,0,1,128,156Z"/>
    </g>
  </g>
  <g transform="translate(106.00,89.92)" fill="white" stroke="white" stroke-width="0" opacity="0.12">
    <g transform="scale(0.109375)">
      <path d="M208,52H182.42L170,33.34A12,12,0,0,0,160,28H96a12,12,0,0,0-10,5.34L73.57,52H48A28,28,0,0,0,20,80V192a28,28,0,0,0,28,28H208a28,28,0,0,0,28-28V80A28,28,0,0,0,208,52Zm4,140a4,4,0,0,1-4,4H48a4,4,0,0,1-4-4V80a4,4,0,0,1,4-4H80a12,12,0,0,0,10-5.34L102.42,52h51.15L166,70.66A12,12,0,0,0,176,76h32a4,4,0,0,1,4,4ZM128,84a48,48,0,1,0,48,48A48.05,48.05,0,0,0,128,84Zm0,72a24,24,0,1,1,24-24A24,24,0,0,1,128,156Z"/>
    </g>
  </g>
  <g transform="translate(46.00,-14.00)" fill="white" stroke="white" stroke-width="0" opacity="0.12">
    <g transform="scale(0.109375)">
      <path d="M204.41,51.63a108,108,0,1,0,0,152.74A107.38,107.38,0,0,0,204.41,51.63Zm-17,17A83.85,83.85,0,0,1,196.26,79L169,111.09l-23.3-65.21A83.52,83.52,0,0,1,187.43,68.6Zm-118.85,0a83.44,83.44,0,0,1,51.11-24.2l14.16,39.65L65.71,71.61C66.64,70.59,67.59,69.59,68.58,68.6ZM48,153.7a84.48,84.48,0,0,1,3.4-60.3L92.84,101Zm20.55,33.7A83.94,83.94,0,0,1,59.74,177L87,144.91l23.3,65.21A83.53,83.53,0,0,1,68.58,187.4Zm36.36-63.61,15.18-17.85,23.06,4.21,7.88,22.06-15.17,17.85-23.06-4.21Zm82.49,63.61a83.49,83.49,0,0,1-51.11,24.2L122.15,172l68.14,12.44C189.36,185.41,188.41,186.41,187.43,187.4ZM163.16,155,208,102.3a84.43,84.43,0,0,1-3.41,60.3Z"/>
    </g>
  </g>
  <g transform="translate(46.00,89.92)" fill="white" stroke="white" stroke-width="0" opacity="0.12">
    <g transform="scale(0.109375)">
      <path d="M204.41,51.63a108,108,0,1,0,0,152.74A107.38,107.38,0,0,0,204.41,51.63Zm-17,17A83.85,83.85,0,0,1,196.26,79L169,111.09l-23.3-65.21A83.52,83.52,0,0,1,187.43,68.6Zm-118.85,0a83.44,83.44,0,0,1,51.11-24.2l14.16,39.65L65.71,71.61C66.64,70.59,67.59,69.59,68.58,68.6ZM48,153.7a84.48,84.48,0,0,1,3.4-60.3L92.84,101Zm20.55,33.7A83.94,83.94,0,0,1,59.74,177L87,144.91l23.3,65.21A83.53,83.53,0,0,1,68.58,187.4Zm36.36-63.61,15.18-17.85,23.06,4.21,7.88,22.06-15.17,17.85-23.06-4.21Zm82.49,63.61a83.49,83.49,0,0,1-51.11,24.2L122.15,172l68.14,12.44C189.36,185.41,188.41,186.41,187.43,187.4ZM163.16,155,208,102.3a84.43,84.43,0,0,1-3.41,60.3Z"/>
    </g>
  </g>
  <g transform="translate(16.00,37.96)" fill="white" stroke="white" stroke-width="0" opacity="0.12">
    <g transform="scale(0.109375)">
      <path d="M144,96a16,16,0,1,1,16,16A16,16,0,0,1,144,96Zm92-40V200a20,20,0,0,1-20,20H40a20,20,0,0,1-20-20V56A20,20,0,0,1,40,36H216A20,20,0,0,1,236,56ZM44,60v79.72l33.86-33.86a20,20,0,0,1,28.28,0L147.31,147l17.18-17.17a20,20,0,0,1,28.28,0L212,149.09V60Zm0,136H162.34L92,125.66l-48,48Zm168,0V183l-33.37-33.37L164.28,164l32,32Z"/>
    </g>
  </g>
  <g transform="translate(76.00,37.96)" fill="white" stroke="white" stroke-width="0" opacity="0.12">
    <g transform="scale(0.109375)">
      <path d="M208,52H182.42L170,33.34A12,12,0,0,0,160,28H96a12,12,0,0,0-10,5.34L73.57,52H48A28,28,0,0,0,20,80V192a28,28,0,0,0,28,28H208a28,28,0,0,0,28-28V80A28,28,0,0,0,208,52Zm4,140a4,4,0,0,1-4,4H48a4,4,0,0,1-4-4V80a4,4,0,0,1,4-4H80a12,12,0,0,0,10-5.34L102.42,52h51.15L166,70.66A12,12,0,0,0,176,76h32a4,4,0,0,1,4,4ZM128,84a48,48,0,1,0,48,48A48.05,48.05,0,0,0,128,84Zm0,72a24,24,0,1,1,24-24A24,24,0,0,1,128,156Z"/>
    </g>
  </g>
</svg>