<svg xmlns="http://www.w3.org/2000/svg" width="120" height="120" viewBox="0 0 120 120">
  <g transform="translate(46.0,12.399999999999999)" fill="white" stroke="white" stroke-width="0" opacity="0.12">
    <g transform="scale(0.109375)">
      <path d="M176,116H152a12,12,0,0,1,0-24h24a12,12,0,0,1,0,24ZM104,92h-4V88a12,12,0,0,0-24,0v4H72a12,12,0,0,0,0,24h4v4a12,12,0,0,0,24,0v-4h4a12,12,0,0,0,0-24ZM244.76,202.94a40,40,0,0,1-61,5.35,7,7,0,0,1-.53-.56L144.67,164H111.33L72.81,207.73c-.17.19-.35.38-.53.56A40,40,0,0,1,4.62,173.05a1.18,1.18,0,0,1,0-.2L21,88.79A63.88,63.88,0,0,1,83.88,36H172a64.08,64.08,0,0,1,62.93,52.48,1.8,1.8,0,0,1,0,.19l16.36,84.17a1.77,1.77,0,0,1,0,.2A39.74,39.74,0,0,1,244.76,202.94ZM172,140a40,40,0,0,0,0-80H83.89A39.9,39.9,0,0,0,44.62,93.06a1.55,1.55,0,0,0,0,.21l-16.34,84a16,16,0,0,0,13,18.44,16.07,16.07,0,0,0,13.86-4.21L96.9,144.07a12,12,0,0,1,9-4.07Zm55.76,37.31-7-35.95a63.84,63.84,0,0,1-44.27,22.46l24.41,27.72a16,16,0,0,0,26.85-14.23Z"/>
    </g>
  </g>
  <g transform="translate(10.0,72.39999999999999)" fill="white" stroke="white" stroke-width="0" opacity="0.12">
    <g transform="scale(0.109375)">
      <path d="M222.41,155.16a12,12,0,0,0-11.56-.69A16,16,0,0,1,188,139,16.2,16.2,0,0,1,202.8,124a15.83,15.83,0,0,1,8,1.5A12,12,0,0,0,228,114.7V72a20,20,0,0,0-20-20H176a40.15,40.15,0,0,0-12.62-29.16,39.67,39.67,0,0,0-29.94-10.76,40.08,40.08,0,0,0-37.34,37C96,50.07,96,51,96,52H64A20,20,0,0,0,44,72v28a40.15,40.15,0,0,0-29.16,12.62A40,40,0,0,0,41.1,179.9a28.3,28.3,0,0,0,2.9.1v28a20,20,0,0,0,20,20H208a20,20,0,0,0,20-20V165.31A12,12,0,0,0,222.41,155.16ZM204,204H68V165.31a12,12,0,0,0-17.15-10.84A15.9,15.9,0,0,1,42.8,156,16.2,16.2,0,0,1,28,141.06a16,16,0,0,1,22.82-15.52A12,12,0,0,0,68,114.7V76h42.7a12,12,0,0,0,10.83-17.15A15.9,15.9,0,0,1,120,50.8,16.19,16.19,0,0,1,134.94,36a16,16,0,0,1,15.53,22.81A12,12,0,0,0,161.31,76H204v24c-1,0-1.93,0-2.9.11A40,40,0,0,0,204,180h0Z"/>
    </g>
  </g>
  <g transform="translate(82.0,72.39999999999999)" fill="white" stroke="white" stroke-width="0" opacity="0.12">
    <g transform="scale(0.109375)">
      <path d="M192,28H64A36,36,0,0,0,28,64V192a36,36,0,0,0,36,36H192a36,36,0,0,0,36-36V64A36,36,0,0,0,192,28Zm12,164a12,12,0,0,1-12,12H64a12,12,0,0,1-12-12V64A12,12,0,0,1,64,52H192a12,12,0,0,1,12,12ZM104,88A16,16,0,1,1,88,72,16,16,0,0,1,104,88Zm40,40a16,16,0,1,1-16-16A16,16,0,0,1,144,128Zm40-40a16,16,0,1,1-16-16A16,16,0,0,1,184,88Zm-80,80a16,16,0,1,1-16-16A16,16,0,0,1,104,168Zm80,0a16,16,0,1,1-16-16A16,16,0,0,1,184,168Z"/>
    </g>
  </g>
</svg>