<svg xmlns="http://www.w3.org/2000/svg" width="120" height="103.92" viewBox="0 0 120 103.92">
  <g transform="translate(-14.00,-14.00)" fill="white" stroke="white" stroke-width="0" opacity="0.12">
    <g transform="scale(0.109375)">
      <path d="M216,76H188V48a20,20,0,0,0-20-20H40A20,20,0,0,0,20,48V176a12,12,0,0,0,19.54,9.33l28.46-23V184a20,20,0,0,0,20,20h92.17l36.29,29.33A12,12,0,0,0,236,224V96A20,20,0,0,0,216,76ZM44,150.87V52H164v80H71.58A12,12,0,0,0,64,134.67Zm168,48-20-16.2a12,12,0,0,0-7.54-2.67H92V156h76a20,20,0,0,0,20-20V100h24Z"/>
    </g>
  </g>
  <g transform="translate(-14.00,89.92)" fill="white" stroke="white" stroke-width="0" opacity="0.12">
    <g transform="scale(0.109375)">
      <path d="M216,76H188V48a20,20,0,0,0-20-20H40A20,20,0,0,0,20,48V176a12,12,0,0,0,19.54,9.33l28.46-23V184a20,20,0,0,0,20,20h92.17l36.29,29.33A12,12,0,0,0,236,224V96A20,20,0,0,0,216,76ZM44,150.87V52H164v80H71.58A12,12,0,0,0,64,134.67Zm168,48-20-16.2a12,12,0,0,0-7.54-2.67H92V156h76a20,20,0,0,0,20-20V100h24Z"/>
    </g>
  </g>
  <g transform="translate(106.00,-14.00)" fill="white" stroke="white" stroke-width="0" opacity="0.12">
    <g transform="scale(0.109375)">
      <path d="M216,76H188V48a20,20,0,0,0-20-20H40A20,20,0,0,0,20,48V176a12,12,0,0,0,19.54,9.33l28.46-23V184a20,20,0,0,0,20,20h92.17l36.29,29.33A12,12,0,0,0,236,224V96A20,20,0,0,0,216,76ZM44,150.87V52H164v80H71.58A12,12,0,0,0,64,134.67Zm168,48-20-16.2a12,12,0,0,0-7.54-2.67H92V156h76a20,20,0,0,0,20-20V100h24Z"/>
    </g>
  </g>
  <g transform="translate(106.00,89.92)" fill="white" stroke="white" stroke-width="0" opacity="0.12">
    <g transform="scale(0.109375)">
      <path d="M216,76H188V48a20,20,0,0,0-20-20H40A20,20,0,0,0,20,48V176a12,12,0,0,0,19.54,9.33l28.46-23V184a20,20,0,0,0,20,20h92.17l36.29,29.33A12,12,0,0,0,236,224V96A20,20,0,0,0,216,76ZM44,150.87V52H164v80H71.58A12,12,0,0,0,64,134.67Zm168,48-20-16.2a12,12,0,0,0-7.54-2.67H92V156h76a20,20,0,0,0,20-20V100h24Z"/>
    </g>
  </g>
  <g transform="translate(46.00,-14.00)" fill="white" stroke="white" stroke-width="0" opacity="0.12">
    <g transform="scale(0.109375)">
      <path d="M252,120a52.06,52.06,0,0,0-52-52H160.32c-3.44-.21-52.6-4-99.46-43.3A20,20,0,0,0,28,40V200a19.8,19.8,0,0,0,11.54,18.12,19.86,19.86,0,0,0,21.32-2.81A192.92,192.92,0,0,1,144,174.47v26.2a20,20,0,0,0,8.9,16.64,11.35,11.35,0,0,0,1.39.8l14.44,7.06A20,20,0,0,0,198.37,213l11.09-41.82A52.07,52.07,0,0,0,252,120ZM52,191.63V48.4c36.17,28.07,72.17,38.1,92,41.66V150C124.17,153.52,88.17,163.55,52,191.63ZM176.39,202.2,168,198.1V172h16.4ZM200,148H168V92h32a28,28,0,1,1,0,56Z"/>
    </g>
  </g>
  <g transform="translate(46.00,89.92)" fill="white" stroke="white" stroke-width="0" opacity="0.12">
    <g transform="scale(0.109375)">
      <path d="M252,120a52.06,52.06,0,0,0-52-52H160.32c-3.44-.21-52.6-4-99.46-43.3A20,20,0,0,0,28,40V200a19.8,19.8,0,0,0,11.54,18.12,19.86,19.86,0,0,0,21.32-2.81A192.92,192.92,0,0,1,144,174.47v26.2a20,20,0,0,0,8.9,16.64,11.35,11.35,0,0,0,1.39.8l14.44,7.06A20,20,0,0,0,198.37,213l11.09-41.82A52.07,52.07,0,0,0,252,120ZM52,191.63V48.4c36.17,28.07,72.17,38.1,92,41.66V150C124.17,153.52,88.17,163.55,52,191.63ZM176.39,202.2,168,198.1V172h16.4ZM200,148H168V92h32a28,28,0,1,1,0,56Z"/>
    </g>
  </g>
  <g transform="translate(16.00,37.96)" fill="white" stroke="white" stroke-width="0" opacity="0.12">
    <g transform="scale(0.109375)">
      <path d="M216,36H140V24a12,12,0,0,0-24,0V36H40A20,20,0,0,0,20,56V176a20,20,0,0,0,20,20H71l-16.4,20.5a12,12,0,0,0,18.74,15l28.4-35.5h52.46l28.4,35.5a12,12,0,0,0,18.74-15L185,196h31a20,20,0,0,0,20-20V56A20,20,0,0,0,216,36Zm-4,136H44V60H212ZM104,120v24a12,12,0,0,1-24,0V120a12,12,0,0,1,24,0Zm24-28a12,12,0,0,1,12,12v40a12,12,0,0,1-24,0V104A12,12,0,0,1,128,92Zm24,52V88a12,12,0,0,1,24,0v56a12,12,0,0,1-24,0Z"/>
    </g>
  </g>
  <g transform="translate(76.00,37.96)" fill="white" stroke="white" stroke-width="0" opacity="0.12">
    <g transform="scale(0.109375)">
      <path d="M216,76H188V48a20,20,0,0,0-20-20H40A20,20,0,0,0,20,48V176a12,12,0,0,0,19.54,9.33l28.46-23V184a20,20,0,0,0,20,20h92.17l36.29,29.33A12,12,0,0,0,236,224V96A20,20,0,0,0,216,76ZM44,150.87V52H164v80H71.58A12,12,0,0,0,64,134.67Zm168,48-20-16.2a12,12,0,0,0-7.54-2.67H92V156h76a20,20,0,0,0,20-20V100h24Z"/>
    </g>
  </g>
</svg>