<svg xmlns="http://www.w3.org/2000/svg" width="120" height="120" viewBox="0 0 120 120">
  <g transform="translate(46.0,12.399999999999999)" fill="white" stroke="white" stroke-width="0" opacity="0.12">
    <g transform="scale(0.109375)">
      <path d="M24,108H44v48H32a12,12,0,0,0,0,24H224a12,12,0,0,0,0-24H212V108h20a12,12,0,0,0,6.29-22.22l-104-64a12,12,0,0,0-12.58,0l-104,64A12,12,0,0,0,24,108Zm44,0H92v48H68Zm72,0v48H116V108Zm48,48H164V108h24ZM128,46.09,189.6,84H66.4ZM252,208a12,12,0,0,1-12,12H16a12,12,0,0,1,0-24H240A12,12,0,0,1,252,208Z"/>
    </g>
  </g>
  <g transform="translate(10.0,72.39999999999999)" fill="white" stroke="white" stroke-width="0" opacity="0.12">
    <g transform="scale(0.109375)">
      <path d="M92,92a12,12,0,0,1,12-12h60a12,12,0,0,1,0,24H104A12,12,0,0,1,92,92Zm12,52h60a12,12,0,0,0,0-24H104a12,12,0,0,0,0,24Zm132,48a36,36,0,0,1-36,36H88a36,36,0,0,1-36-36V64a12,12,0,0,0-24,0c0,3.73,3.35,6.51,3.38,6.54l-.18-.14h0A12,12,0,1,1,16.81,89.59h0C15.49,88.62,4,79.55,4,64A36,36,0,0,1,40,28H176a36,36,0,0,1,36,36V164h4a12,12,0,0,1,7.2,2.4C224.51,167.38,236,176.45,236,192ZM92.62,172.2A12,12,0,0,1,104,164h84V64a12,12,0,0,0-12-12H73.94A35.88,35.88,0,0,1,76,64V192a12,12,0,0,0,24,0c0-3.58-3.17-6.38-3.2-6.4A12,12,0,0,1,92.62,172.2ZM212,192a7.69,7.69,0,0,0-1.24-4h-87a30.32,30.32,0,0,1,.26,4,35.84,35.84,0,0,1-2.06,12H200A12,12,0,0,0,212,192Z"/>
    </g>
  </g>
  <g transform="translate(82.0,72.39999999999999)" fill="white" stroke="white" stroke-width="0" opacity="0.12">
    <g transform="scale(0.109375)">
      <path d="M216,212H204V117l10.14-10.14A19.86,19.86,0,0,0,220,92.69V48a20,20,0,0,0-20-20H56A20,20,0,0,0,36,48V92.69a19.86,19.86,0,0,0,5.86,14.14L52,117v95H40a12,12,0,0,0,0,24H216a12,12,0,0,0,0-24ZM72.49,103.51,60,91V52H88V76a12,12,0,0,0,24,0V52h32V76a12,12,0,0,0,24,0V52h28V91l-12.49,12.48A12,12,0,0,0,180,112V212H164V168a36,36,0,0,0-72,0v44H76V112A12,12,0,0,0,72.49,103.51ZM140,212H116V168a12,12,0,0,1,24,0Z"/>
    </g>
  </g>
</svg>