<svg xmlns="http://www.w3.org/2000/svg" width="120" height="103.92" viewBox="0 0 120 103.92">
  <g transform="translate(-14.00,-14.00)" fill="white" stroke="white" stroke-width="0" opacity="0.12">
    <g transform="scale(0.109375)">
      <path d="M246.17,57.9,198.09,29.65h0A11.9,11.9,0,0,0,192,28H160a12,12,0,0,0-12,12,20,20,0,0,1-40,0A12,12,0,0,0,96,28H64a11.9,11.9,0,0,0-6.07,1.66h0L9.83,57.9A20.18,20.18,0,0,0,2,84l17.9,36.8A19.62,19.62,0,0,0,37.67,132H52v76a20,20,0,0,0,20,20H184a20,20,0,0,0,20-20V132h14.32a19.64,19.64,0,0,0,17.75-11.17L254,84A20.18,20.18,0,0,0,246.17,57.9ZM40.37,108,25.16,76.73,52,61v47ZM180,204H76V52h9.67a44,44,0,0,0,84.68,0H180Zm35.62-96H204V61l26.83,15.76Z"/>
    </g>
  </g>
  <g transform="translate(46.00,-14.00)" fill="white" stroke="white" stroke-width="0" opacity="0.12">
    <g transform="scale(0.109375)">
      <path d="M238.78,183.79,98.28,87.65A40.18,40.18,0,0,0,100,76a40,40,0,1,0-15.29,31.45l30,20.56-30,20.56a40,40,0,1,0,3.57,59.74h0A39.73,39.73,0,0,0,100,180a40.18,40.18,0,0,0-1.72-11.66L136,142.54l89.22,61.06a12,12,0,0,0,13.56-19.81ZM71.31,191.33h0A16,16,0,1,1,76,180,16,16,0,0,1,71.31,191.33ZM48.69,87.3a16,16,0,1,1,22.62,0h0A16,16,0,0,1,48.69,87.3Zm112.82,23.24a12,12,0,0,1,3.13-16.68L225.22,52.4a12,12,0,0,1,13.56,19.81l-60.59,41.46a12,12,0,0,1-16.68-3.13Z"/>
    </g>
  </g>
  <g transform="translate(16.00,37.96)" fill="white" stroke="white" stroke-width="0" opacity="0.12">
    <g transform="scale(0.109375)">
      <path d="M244,168,148,96l19.2-14.4A12,12,0,0,0,172,72a44,44,0,0,0-87.66-5.48,12,12,0,1,0,23.82,3,20,20,0,0,1,39.09-2.92L121,86.24c-.15.1-.29.21-.43.32L12,168a20,20,0,0,0,12,36H232a20,20,0,0,0,12-36ZM36,180l92-69,92,69Z"/>
    </g>
  </g>
  <g transform="translate(76.00,37.96)" fill="white" stroke="white" stroke-width="0" opacity="0.12">
    <g transform="scale(0.109375)">
      <path d="M246.17,57.9,198.09,29.65h0A11.9,11.9,0,0,0,192,28H160a12,12,0,0,0-12,12,20,20,0,0,1-40,0A12,12,0,0,0,96,28H64a11.9,11.9,0,0,0-6.07,1.66h0L9.83,57.9A20.18,20.18,0,0,0,2,84l17.9,36.8A19.62,19.62,0,0,0,37.67,132H52v76a20,20,0,0,0,20,20H184a20,20,0,0,0,20-20V132h14.32a19.64,19.64,0,0,0,17.75-11.17L254,84A20.18,20.18,0,0,0,246.17,57.9ZM40.37,108,25.16,76.73,52,61v47ZM180,204H76V52h9.67a44,44,0,0,0,84.68,0H180Zm35.62-96H204V61l26.83,15.76Z"/>
    </g>
  </g>
</svg>