<svg xmlns="http://www.w3.org/2000/svg" width="120" height="120" viewBox="0 0 120 120">
  <g transform="translate(46.0,12.399999999999999)" fill="white" stroke="white" stroke-width="0" opacity="0.12">
    <g transform="scale(0.109375)">
      <path d="M68,88V40a12,12,0,0,1,24,0V88a12,12,0,0,1-24,0ZM220,40V224a12,12,0,0,1-24,0V180H152a12,12,0,0,1-12-12,273.23,273.23,0,0,1,7.33-57.82C157.42,68.42,176.76,40.33,203.27,29A12,12,0,0,1,220,40ZM196,62.92C182.6,77,175,98,170.77,115.38A254.41,254.41,0,0,0,164.55,156H196ZM128,39A12,12,0,0,0,104,41l4,47.46a28,28,0,0,1-56,0L56,41A12,12,0,1,0,32,39L28,87c0,.34,0,.67,0,1a52.1,52.1,0,0,0,40,50.59V224a12,12,0,0,0,24,0V138.59A52.1,52.1,0,0,0,132,88c0-.33,0-.66,0-1Z"/>
    </g>
  </g>
  <g transform="translate(10.0,72.39999999999999)" fill="white" stroke="white" stroke-width="0" opacity="0.12">
    <g transform="scale(0.109375)">
      <path d="M212,76H32A12,12,0,0,0,20,88v48a100.24,100.24,0,0,0,26.73,68H32a12,12,0,0,0,0,24H208a12,12,0,0,0,0-24H193.27a100.75,100.75,0,0,0,20-32A44,44,0,0,0,256,128v-8A44.05,44.05,0,0,0,212,76Zm-16,60a76.27,76.27,0,0,1-42,68H86a76.27,76.27,0,0,1-42-68V100H196Zm36-8a20,20,0,0,1-12.57,18.55A97.17,97.17,0,0,0,220,136V101.68A20,20,0,0,1,232,120ZM68,48V24a12,12,0,0,1,24,0V48a12,12,0,0,1-24,0Zm40,0V24a12,12,0,0,1,24,0V48a12,12,0,0,1-24,0Zm40,0V24a12,12,0,0,1,24,0V48a12,12,0,0,1-24,0Z"/>
    </g>
  </g>
  <g transform="translate(82.0,72.39999999999999)" fill="white" stroke="white" stroke-width="0" opacity="0.12">
    <g transform="scale(0.109375)">
      <path d="M209.17,102.54,187.39,28.61A12,12,0,0,0,175.89,20H80.11a12,12,0,0,0-11.5,8.61L46.83,102.54a67.45,67.45,0,0,0,18.53,68.72A91.32,91.32,0,0,0,116,195.2V228H88a12,12,0,0,0,0,24h80a12,12,0,0,0,0-24H140V195.2a91.32,91.32,0,0,0,50.65-23.94A67.45,67.45,0,0,0,209.17,102.54ZM89.08,44h77.84l18.38,62.41c-10.88,2.8-28.05,3-51.88-9.12C110.68,85.78,91.92,83,77.24,84.22ZM128,172a67.5,67.5,0,0,1-46.26-18.27,43.55,43.55,0,0,1-12-43.89c18.44-5.33,38.64,1.66,52.87,8.87,11.55,5.85,30.18,13.28,50.26,13.28a74.15,74.15,0,0,0,14.29-1.35,43.2,43.2,0,0,1-12.87,23.09A67.5,67.5,0,0,1,128,172Z"/>
    </g>
  </g>
</svg>