<svg xmlns="http://www.w3.org/2000/svg" width="120" height="103.92" viewBox="0 0 120 103.92">
  <g transform="translate(-14.00,-14.00)" fill="white" stroke="white" stroke-width="0" opacity="0.12">
    <g transform="scale(0.109375)">
      <path d="M215.38,14.54a12,12,0,0,0-10.29-2.18l-128,32A12,12,0,0,0,68,56V159.35A40,40,0,1,0,92,196V113.37l104-26v40A40,40,0,1,0,220,164V24A12,12,0,0,0,215.38,14.54ZM52,212a16,16,0,1,1,16-16A16,16,0,0,1,52,212ZM92,88.63V65.37l104-26V62.63ZM180,180a16,16,0,1,1,16-16A16,16,0,0,1,180,180Z"/>
    </g>
  </g>
  <g transform="translate(-14.00,89.92)" fill="white" stroke="white" stroke-width="0" opacity="0.12">
    <g transform="scale(0.109375)">
      <path d="M215.38,14.54a12,12,0,0,0-10.29-2.18l-128,32A12,12,0,0,0,68,56V159.35A40,40,0,1,0,92,196V113.37l104-26v40A40,40,0,1,0,220,164V24A12,12,0,0,0,215.38,14.54ZM52,212a16,16,0,1,1,16-16A16,16,0,0,1,52,212ZM92,88.63V65.37l104-26V62.63ZM180,180a16,16,0,1,1,16-16A16,16,0,0,1,180,180Z"/>
    </g>
  </g>
  <g transform="translate(106.00,-14.00)" fill="white" stroke="white" stroke-width="0" opacity="0.12">
    <g transform="scale(0.109375)">
      <path d="M215.38,14.54a12,12,0,0,0-10.29-2.18l-128,32A12,12,0,0,0,68,56V159.35A40,40,0,1,0,92,196V113.37l104-26v40A40,40,0,1,0,220,164V24A12,12,0,0,0,215.38,14.54ZM52,212a16,16,0,1,1,16-16A16,16,0,0,1,52,212ZM92,88.63V65.37l104-26V62.63ZM180,180a16,16,0,1,1,16-16A16,16,0,0,1,180,180Z"/>
    </g>
  </g>
  <g transform="translate(106.00,89.92)" fill="white" stroke="white" stroke-width="0" opacity="0.12">
    <g transform="scale(0.109375)">
      <path d="M215.38,14.54a12,12,0,0,0-10.29-2.18l-128,32A12,12,0,0,0,68,56V159.35A40,40,0,1,0,92,196V113.37l104-26v40A40,40,0,1,0,220,164V24A12,12,0,0,0,215.38,14.54ZM52,212a16,16,0,1,1,16-16A16,16,0,0,1,52,212ZM92,88.63V65.37l104-26V62.63ZM180,180a16,16,0,1,1,16-16A16,16,0,0,1,180,180Z"/>
    </g>
  </g>
  <g transform="translate(46.00,-14.00)" fill="white" stroke="white" stroke-width="0" opacity="0.12">
    <g transform="scale(0.109375)">
      <path d="M128,20A108,108,0,1,0,236,128,108.12,108.12,0,0,0,128,20Zm0,192a84,84,0,1,1,84-84A84.09,84.09,0,0,1,128,212Zm0-128a44.05,44.05,0,0,0-44,44,12,12,0,0,1-24,0,68.07,68.07,0,0,1,68-68,12,12,0,0,1,0,24Zm68,44a68.07,68.07,0,0,1-68,68,12,12,0,0,1,0-24,44.05,44.05,0,0,0,44-44,12,12,0,0,1,24,0Zm-68,28a28,28,0,1,1,28-28A28,28,0,0,1,128,156Z"/>
    </g>
  </g>
  <g transform="translate(46.00,89.92)" fill="white" stroke="white" stroke-width="0" opacity="0.12">
    <g transform="scale(0.109375)">
      <path d="M128,20A108,108,0,1,0,236,128,108.12,108.12,0,0,0,128,20Zm0,192a84,84,0,1,1,84-84A84.09,84.09,0,0,1,128,212Zm0-128a44.05,44.05,0,0,0-44,44,12,12,0,0,1-24,0,68.07,68.07,0,0,1,68-68,12,12,0,0,1,0,24Zm68,44a68.07,68.07,0,0,1-68,68,12,12,0,0,1,0-24,44.05,44.05,0,0,0,44-44,12,12,0,0,1,24,0Zm-68,28a28,28,0,1,1,28-28A28,28,0,0,1,128,156Z"/>
    </g>
  </g>
  <g transform="translate(16.00,37.96)" fill="white" stroke="white" stroke-width="0" opacity="0.12">
    <g transform="scale(0.109375)">
      <path d="M128,180a52.06,52.06,0,0,0,52-52V64A52,52,0,0,0,76,64v64A52.06,52.06,0,0,0,128,180ZM100,64a28,28,0,0,1,56,0v64a28,28,0,0,1-56,0Zm40,155.22V240a12,12,0,0,1-24,0V219.22A92.14,92.14,0,0,1,36,128a12,12,0,0,1,24,0,68,68,0,0,0,136,0,12,12,0,0,1,24,0A92.14,92.14,0,0,1,140,219.22Z"/>
    </g>
  </g>
  <g transform="translate(76.00,37.96)" fill="white" stroke="white" stroke-width="0" opacity="0.12">
    <g transform="scale(0.109375)">
      <path d="M215.38,14.54a12,12,0,0,0-10.29-2.18l-128,32A12,12,0,0,0,68,56V159.35A40,40,0,1,0,92,196V113.37l104-26v40A40,40,0,1,0,220,164V24A12,12,0,0,0,215.38,14.54ZM52,212a16,16,0,1,1,16-16A16,16,0,0,1,52,212ZM92,88.63V65.37l104-26V62.63ZM180,180a16,16,0,1,1,16-16A16,16,0,0,1,180,180Z"/>
    </g>
  </g>
</svg>