<svg xmlns="http://www.w3.org/2000/svg" width="120" height="103.92" viewBox="0 0 120 103.92">
  <g transform="translate(-14.00,-14.00)" fill="white" stroke="white" stroke-width="0" opacity="0.12">
    <g transform="scale(0.109375)">
      <path d="M232,60H212V48a12,12,0,0,0-12-12H56A12,12,0,0,0,44,48V60H24A20,20,0,0,0,4,80V96a44.05,44.05,0,0,0,44,44h.77A84.18,84.18,0,0,0,116,195.15V212H96a12,12,0,0,0,0,24h64a12,12,0,0,0,0-24H140V195.11c30.94-4.51,56.53-26.2,67-55.11h1a44.05,44.05,0,0,0,44-44V80A20,20,0,0,0,232,60ZM28,96V84H44v28c0,1.21,0,2.41.09,3.61A20,20,0,0,1,28,96Zm160,15.1c0,33.33-26.71,60.65-59.54,60.9A60,60,0,0,1,68,112V60H188ZM228,96a20,20,0,0,1-16.12,19.62c.08-1.5.12-3,.12-4.52V84h16Z"/>
    </g>
  </g>
  <g transform="translate(-14.00,89.92)" fill="white" stroke="white" stroke-width="0" opacity="0.12">
    <g transform="scale(0.109375)">
      <path d="M232,60H212V48a12,12,0,0,0-12-12H56A12,12,0,0,0,44,48V60H24A20,20,0,0,0,4,80V96a44.05,44.05,0,0,0,44,44h.77A84.18,84.18,0,0,0,116,195.15V212H96a12,12,0,0,0,0,24h64a12,12,0,0,0,0-24H140V195.11c30.94-4.51,56.53-26.2,67-55.11h1a44.05,44.05,0,0,0,44-44V80A20,20,0,0,0,232,60ZM28,96V84H44v28c0,1.21,0,2.41.09,3.61A20,20,0,0,1,28,96Zm160,15.1c0,33.33-26.71,60.65-59.54,60.9A60,60,0,0,1,68,112V60H188ZM228,96a20,20,0,0,1-16.12,19.62c.08-1.5.12-3,.12-4.52V84h16Z"/>
    </g>
  </g>
  <g transform="translate(106.00,-14.00)" fill="white" stroke="white" stroke-width="0" opacity="0.12">
    <g transform="scale(0.109375)">
      <path d="M232,60H212V48a12,12,0,0,0-12-12H56A12,12,0,0,0,44,48V60H24A20,20,0,0,0,4,80V96a44.05,44.05,0,0,0,44,44h.77A84.18,84.18,0,0,0,116,195.15V212H96a12,12,0,0,0,0,24h64a12,12,0,0,0,0-24H140V195.11c30.94-4.51,56.53-26.2,67-55.11h1a44.05,44.05,0,0,0,44-44V80A20,20,0,0,0,232,60ZM28,96V84H44v28c0,1.21,0,2.41.09,3.61A20,20,0,0,1,28,96Zm160,15.1c0,33.33-26.71,60.65-59.54,60.9A60,60,0,0,1,68,112V60H188ZM228,96a20,20,0,0,1-16.12,19.62c.08-1.5.12-3,.12-4.52V84h16Z"/>
    </g>
  </g>
  <g transform="translate(106.00,89.92)" fill="white" stroke="white" stroke-width="0" opacity="0.12">
    <g transform="scale(0.109375)">
      <path d="M232,60H212V48a12,12,0,0,0-12-12H56A12,12,0,0,0,44,48V60H24A20,20,0,0,0,4,80V96a44.05,44.05,0,0,0,44,44h.77A84.18,84.18,0,0,0,116,195.15V212H96a12,12,0,0,0,0,24h64a12,12,0,0,0,0-24H140V195.11c30.94-4.51,56.53-26.2,67-55.11h1a44.05,44.05,0,0,0,44-44V80A20,20,0,0,0,232,60ZM28,96V84H44v28c0,1.21,0,2.41.09,3.61A20,20,0,0,1,28,96Zm160,15.1c0,33.33-26.71,60.65-59.54,60.9A60,60,0,0,1,68,112V60H188ZM228,96a20,20,0,0,1-16.12,19.62c.08-1.5.12-3,.12-4.52V84h16Z"/>
    </g>
  </g>
  <g transform="translate(46.00,-14.00)" fill="white" stroke="white" stroke-width="0" opacity="0.12">
    <g transform="scale(0.109375)">
      <path d="M233.06,53.18a37,37,0,0,0-30.24-30.24c-15.24-2.58-38.75-4.78-64.26-.61C107.66,27.39,81.56,40.39,61,61s-33.59,46.68-38.65,77.58c-4.17,25.51-2,49,.61,64.26a37,37,0,0,0,30.24,30.24A209.43,209.43,0,0,0,87.9,236a184.13,184.13,0,0,0,29.54-2.33c30.9-5.06,57-18.06,77.58-38.65s33.59-46.68,38.65-77.58C237.84,91.93,235.64,68.42,233.06,53.18Zm-23.66,4A192,192,0,0,1,212,83.06L172.93,44a190.57,190.57,0,0,1,25.88,2.64A13,13,0,0,1,209.4,57.19ZM46.6,198.81A191.79,191.79,0,0,1,44,172.94L83.06,212a191.79,191.79,0,0,1-25.87-2.63A13,13,0,0,1,46.6,198.81Zm131.45-20.76c-11,11-31.31,26.16-63.2,31.83L46.12,141.15C51.79,109.26,67,88.93,78,78s31.3-26.16,63.2-31.83l68.73,68.73C204.21,146.74,189,167.07,178.05,178.05Zm-13.56-69.57L159,114l5.52,5.51a12,12,0,0,1-17,17L142,131l-11,11,5.52,5.52a12,12,0,0,1-17,17L114,159l-5.52,5.52a12,12,0,0,1-17-17L97,142l-5.52-5.51a12,12,0,1,1,17-17L114,125l11-11-5.52-5.52a12,12,0,1,1,17-17L142,97l5.52-5.52a12,12,0,0,1,17,17Z"/>
    </g>
  </g>
  <g transform="translate(46.00,89.92)" fill="white" stroke="white" stroke-width="0" opacity="0.12">
    <g transform="scale(0.109375)">
      <path d="M233.06,53.18a37,37,0,0,0-30.24-30.24c-15.24-2.58-38.75-4.78-64.26-.61C107.66,27.39,81.56,40.39,61,61s-33.59,46.68-38.65,77.58c-4.17,25.51-2,49,.61,64.26a37,37,0,0,0,30.24,30.24A209.43,209.43,0,0,0,87.9,236a184.13,184.13,0,0,0,29.54-2.33c30.9-5.06,57-18.06,77.58-38.65s33.59-46.68,38.65-77.58C237.84,91.93,235.64,68.42,233.06,53.18Zm-23.66,4A192,192,0,0,1,212,83.06L172.93,44a190.57,190.57,0,0,1,25.88,2.64A13,13,0,0,1,209.4,57.19ZM46.6,198.81A191.79,191.79,0,0,1,44,172.94L83.06,212a191.79,191.79,0,0,1-25.87-2.63A13,13,0,0,1,46.6,198.81Zm131.45-20.76c-11,11-31.31,26.16-63.2,31.83L46.12,141.15C51.79,109.26,67,88.93,78,78s31.3-26.16,63.2-31.83l68.73,68.73C204.21,146.74,189,167.07,178.05,178.05Zm-13.56-69.57L159,114l5.52,5.51a12,12,0,0,1-17,17L142,131l-11,11,5.52,5.52a12,12,0,0,1-17,17L114,159l-5.52,5.52a12,12,0,0,1-17-17L97,142l-5.52-5.51a12,12,0,1,1,17-17L114,125l11-11-5.52-5.52a12,12,0,1,1,17-17L142,97l5.52-5.52a12,12,0,0,1,17,17Z"/>
    </g>
  </g>
  <g transform="translate(16.00,37.96)" fill="white" stroke="white" stroke-width="0" opacity="0.12">
    <g transform="scale(0.109375)">
      <path d="M220,96A92,92,0,1,0,68,165.69V240a12,12,0,0,0,17.37,10.73L128,229.42l42.64,21.31A12,12,0,0,0,188,240V165.69A91.86,91.86,0,0,0,220,96ZM60,96a68,68,0,1,1,68,68A68.07,68.07,0,0,1,60,96ZM164,220.59l-30.64-15.32a12,12,0,0,0-10.74,0L92,220.58V180.66a92,92,0,0,0,72,0ZM128,148A52,52,0,1,0,76,96,52.06,52.06,0,0,0,128,148Zm0-80a28,28,0,1,1-28,28A28,28,0,0,1,128,68Z"/>
    </g>
  </g>
  <g transform="translate(76.00,37.96)" fill="white" stroke="white" stroke-width="0" opacity="0.12">
    <g transform="scale(0.109375)">
      <path d="M232,60H212V48a12,12,0,0,0-12-12H56A12,12,0,0,0,44,48V60H24A20,20,0,0,0,4,80V96a44.05,44.05,0,0,0,44,44h.77A84.18,84.18,0,0,0,116,195.15V212H96a12,12,0,0,0,0,24h64a12,12,0,0,0,0-24H140V195.11c30.94-4.51,56.53-26.2,67-55.11h1a44.05,44.05,0,0,0,44-44V80A20,20,0,0,0,232,60ZM28,96V84H44v28c0,1.21,0,2.41.09,3.61A20,20,0,0,1,28,96Zm160,15.1c0,33.33-26.71,60.65-59.54,60.9A60,60,0,0,1,68,112V60H188ZM228,96a20,20,0,0,1-16.12,19.62c.08-1.5.12-3,.12-4.52V84h16Z"/>
    </g>
  </g>
</svg>