<svg xmlns="http://www.w3.org/2000/svg" width="120" height="103.92" viewBox="0 0 120 103.92">
  <g transform="translate(-14.00,-14.00)" fill="white" stroke="white" stroke-width="0" opacity="0.12">
    <g transform="scale(0.109375)">
      <path d="M241,150.65s0,0,0-.05a51.33,51.33,0,0,0-2.53-5.9L196.93,50.18a12,12,0,0,0-2.5-3.65,36,36,0,0,0-50.92,0A12,12,0,0,0,140,55V76H116V55a12,12,0,0,0-3.51-8.48,36,36,0,0,0-50.92,0,12,12,0,0,0-2.5,3.65L17.53,144.7A51.33,51.33,0,0,0,15,150.6s0,0,0,.05A52,52,0,1,0,116,168V100h24v68a52,52,0,1,0,101-17.35ZM80,62.28a12,12,0,0,1,12-1.22v63.15a51.9,51.9,0,0,0-35.9-7.62ZM64,196a28,28,0,1,1,28-28A28,28,0,0,1,64,196ZM164,61.06a12.06,12.06,0,0,1,12,1.22l23.87,54.31a51.9,51.9,0,0,0-35.9,7.62ZM192,196a28,28,0,1,1,28-28A28,28,0,0,1,192,196Z"/>
    </g>
  </g>
  <g transform="translate(46.00,-14.00)" fill="white" stroke="white" stroke-width="0" opacity="0.12">
    <g transform="scale(0.109375)">
      <path d="M178,36c-20.09,0-37.92,7.93-50,21.56C115.92,43.93,98.09,36,78,36a66.08,66.08,0,0,0-66,66c0,72.34,105.81,130.14,110.31,132.57a12,12,0,0,0,11.38,0C138.19,232.14,244,174.34,244,102A66.08,66.08,0,0,0,178,36Zm-5.49,142.36A328.69,328.69,0,0,1,128,210.16a328.69,328.69,0,0,1-44.51-31.8C61.82,159.77,36,131.42,36,102A42,42,0,0,1,78,60c17.8,0,32.7,9.4,38.89,24.54a12,12,0,0,0,22.22,0C145.3,69.4,160.2,60,178,60a42,42,0,0,1,42,42C220,131.42,194.18,159.77,172.51,178.36Z"/>
    </g>
  </g>
  <g transform="translate(16.00,37.96)" fill="white" stroke="white" stroke-width="0" opacity="0.12">
    <g transform="scale(0.109375)">
      <path d="M243,96a20.33,20.33,0,0,0-17.74-14l-56.59-4.57L146.83,24.62a20.36,20.36,0,0,0-37.66,0L87.35,77.44,30.76,82A20.45,20.45,0,0,0,19.1,117.88l43.18,37.24-13.2,55.7A20.37,20.37,0,0,0,79.57,233L128,203.19,176.43,233a20.39,20.39,0,0,0,30.49-22.15l-13.2-55.7,43.18-37.24A20.43,20.43,0,0,0,243,96ZM172.53,141.7a12,12,0,0,0-3.84,11.86L181.58,208l-47.29-29.08a12,12,0,0,0-12.58,0L74.42,208l12.89-54.4a12,12,0,0,0-3.84-11.86L41.2,105.24l55.4-4.47a12,12,0,0,0,10.13-7.38L128,41.89l21.27,51.5a12,12,0,0,0,10.13,7.38l55.4,4.47Z"/>
    </g>
  </g>
  <g transform="translate(76.00,37.96)" fill="white" stroke="white" stroke-width="0" opacity="0.12">
    <g transform="scale(0.109375)">
      <path d="M241,150.65s0,0,0-.05a51.33,51.33,0,0,0-2.53-5.9L196.93,50.18a12,12,0,0,0-2.5-3.65,36,36,0,0,0-50.92,0A12,12,0,0,0,140,55V76H116V55a12,12,0,0,0-3.51-8.48,36,36,0,0,0-50.92,0,12,12,0,0,0-2.5,3.65L17.53,144.7A51.33,51.33,0,0,0,15,150.6s0,0,0,.05A52,52,0,1,0,116,168V100h24v68a52,52,0,1,0,101-17.35ZM80,62.28a12,12,0,0,1,12-1.22v63.15a51.9,51.9,0,0,0-35.9-7.62ZM64,196a28,28,0,1,1,28-28A28,28,0,0,1,64,196ZM164,61.06a12.06,12.06,0,0,1,12,1.22l23.87,54.31a51.9,51.9,0,0,0-35.9,7.62ZM192,196a28,28,0,1,1,28-28A28,28,0,0,1,192,196Z"/>
    </g>
  </g>
</svg>