<svg xmlns="http://www.w3.org/2000/svg" width="120" height="103.92" viewBox="0 0 120 103.92">
  <g transform="translate(-14.00,-14.00)" fill="white" stroke="white" stroke-width="0" opacity="0.12">
    <g transform="scale(0.109375)">
      <path d="M230.17,141.71,196,121.21V104A12,12,0,0,0,190,93.58L140,65V52h12a12,12,0,0,0,0-24H140V16a12,12,0,0,0-24,0V28H104a12,12,0,0,0,0,24h12V65L66.05,93.58A12,12,0,0,0,60,104v17.21l-34.17,20.5A12,12,0,0,0,20,152v64a12,12,0,0,0,12,12h76a12,12,0,0,0,12-12V172a8,8,0,0,1,16,0v44a12,12,0,0,0,12,12h76a12,12,0,0,0,12-12V152A12,12,0,0,0,230.17,141.71ZM44,158.79l16-9.6V204H44ZM128,140a32,32,0,0,0-32,32v32H84V111l44-25.14L172,111v93H160V172A32,32,0,0,0,128,140Zm84,64H196V149.19l16,9.6Z"/>
    </g>
  </g>
  <g transform="translate(46.00,-14.00)" fill="white" stroke="white" stroke-width="0" opacity="0.12">
    <g transform="scale(0.109375)">
      <path d="M238.15,177.18l-35.53-35.53L166.45,22.3A25.75,25.75,0,0,0,128,8,25.75,25.75,0,0,0,89.55,22.3L53.38,141.65,17.85,177.18a20,20,0,0,0,0,28.28l32.69,32.69a20,20,0,0,0,28.28,0l48.29-48.28c.31-.31.6-.62.89-.94.29.32.58.63.89.94l48.29,48.28a20,20,0,0,0,28.28,0l32.69-32.69A20,20,0,0,0,238.15,177.18ZM64.68,218.35l-27-27,11-11,27,27ZM116,158.75a19.85,19.85,0,0,1-5.86,14.14L92.68,190.35l-27-27,6.83-6.83a11.94,11.94,0,0,0,3-5l37-122.23a1.78,1.78,0,0,1,3.48.52Zm47.5,31.78-17.64-17.64A19.85,19.85,0,0,1,140,158.75v-129a1.78,1.78,0,0,1,3.48-.52l37,122.23a11.94,11.94,0,0,0,3,5l7.6,7.6Zm27.82,27.82-10.85-10.84,27.63-26.44,10.25,10.25Z"/>
    </g>
  </g>
  <g transform="translate(16.00,37.96)" fill="white" stroke="white" stroke-width="0" opacity="0.12">
    <g transform="scale(0.109375)">
      <path d="M200,68H164V32a20,20,0,0,0-20-20H112A20,20,0,0,0,92,32V68H56A20,20,0,0,0,36,88v32a20,20,0,0,0,20,20H92v84a20,20,0,0,0,20,20h32a20,20,0,0,0,20-20V140h36a20,20,0,0,0,20-20V88A20,20,0,0,0,200,68Zm-4,48H152a12,12,0,0,0-12,12v92H116V128a12,12,0,0,0-12-12H60V92h44a12,12,0,0,0,12-12V36h24V80a12,12,0,0,0,12,12h44Z"/>
    </g>
  </g>
  <g transform="translate(76.00,37.96)" fill="white" stroke="white" stroke-width="0" opacity="0.12">
    <g transform="scale(0.109375)">
      <path d="M230.17,141.71,196,121.21V104A12,12,0,0,0,190,93.58L140,65V52h12a12,12,0,0,0,0-24H140V16a12,12,0,0,0-24,0V28H104a12,12,0,0,0,0,24h12V65L66.05,93.58A12,12,0,0,0,60,104v17.21l-34.17,20.5A12,12,0,0,0,20,152v64a12,12,0,0,0,12,12h76a12,12,0,0,0,12-12V172a8,8,0,0,1,16,0v44a12,12,0,0,0,12,12h76a12,12,0,0,0,12-12V152A12,12,0,0,0,230.17,141.71ZM44,158.79l16-9.6V204H44ZM128,140a32,32,0,0,0-32,32v32H84V111l44-25.14L172,111v93H160V172A32,32,0,0,0,128,140Zm84,64H196V149.19l16,9.6Z"/>
    </g>
  </g>
</svg>