<svg xmlns="http://www.w3.org/2000/svg" width="120" height="103.92" viewBox="0 0 120 103.92">
  <g transform="translate(-14.00,-14.00)" fill="white" stroke="white" stroke-width="0" opacity="0.12">
    <g transform="scale(0.109375)">
      <path d="M201.17,59.62a80,80,0,0,0-146.34,0,76,76,0,0,0,61.17,139V232a12,12,0,0,0,24,0V198.64A76.26,76.26,0,0,0,168,204l1.92,0A76,76,0,0,0,201.17,59.62ZM169.35,180A52,52,0,0,1,140,171.79V135.42l41.37-20.69a12,12,0,1,0-10.74-21.46L140,108.58V88a12,12,0,0,0-24,0v44.58L85.37,117.27a12,12,0,0,0-10.74,21.46L116,159.42v12.37A52.24,52.24,0,0,1,86.65,180c-27.53-.69-50.72-24.56-50.65-52.13a51.81,51.81,0,0,1,32.61-48.1,12,12,0,0,0,6.78-7,56,56,0,0,1,105.22,0,12,12,0,0,0,6.78,7A51.81,51.81,0,0,1,220,127.85C220.08,155.41,196.88,179.29,169.35,180Z"/>
    </g>
  </g>
  <g transform="translate(46.00,-14.00)" fill="white" stroke="white" stroke-width="0" opacity="0.12">
    <g transform="scale(0.109375)">
      <path d="M160,80a32,32,0,1,0-32-32A32,32,0,0,0,160,80Zm0-40a8,8,0,1,1-8,8A8,8,0,0,1,160,40Zm94.32,153.88L199.76,101.8A19.85,19.85,0,0,0,182.55,92h0a19.83,19.83,0,0,0-17.2,9.8l-18.7,31.55-37.42-63.5a20,20,0,0,0-34.46,0L1.66,193.91A12,12,0,0,0,12,212H244a12,12,0,0,0,10.32-18.12ZM92,87.87,108.57,116H75.43ZM33,188l28.28-48h61.44L151,188Zm145.86,0L160.56,157l22-37.1L222.94,188Z"/>
    </g>
  </g>
  <g transform="translate(16.00,37.96)" fill="white" stroke="white" stroke-width="0" opacity="0.12">
    <g transform="scale(0.109375)">
      <path d="M128,20A108,108,0,1,0,236,128,108.12,108.12,0,0,0,128,20Zm0,192a84,84,0,1,1,84-84A84.09,84.09,0,0,1,128,212ZM163.27,77l-56,24a12,12,0,0,0-6.3,6.3l-24,56A12,12,0,0,0,92.73,179l56-24a12,12,0,0,0,6.3-6.3l24-56A12,12,0,0,0,163.27,77Zm-28.41,57.89-24,10.29,10.29-24,24-10.29Z"/>
    </g>
  </g>
  <g transform="translate(76.00,37.96)" fill="white" stroke="white" stroke-width="0" opacity="0.12">
    <g transform="scale(0.109375)">
      <path d="M201.17,59.62a80,80,0,0,0-146.34,0,76,76,0,0,0,61.17,139V232a12,12,0,0,0,24,0V198.64A76.26,76.26,0,0,0,168,204l1.92,0A76,76,0,0,0,201.17,59.62ZM169.35,180A52,52,0,0,1,140,171.79V135.42l41.37-20.69a12,12,0,1,0-10.74-21.46L140,108.58V88a12,12,0,0,0-24,0v44.58L85.37,117.27a12,12,0,0,0-10.74,21.46L116,159.42v12.37A52.24,52.24,0,0,1,86.65,180c-27.53-.69-50.72-24.56-50.65-52.13a51.81,51.81,0,0,1,32.61-48.1,12,12,0,0,0,6.78-7,56,56,0,0,1,105.22,0,12,12,0,0,0,6.78,7A51.81,51.81,0,0,1,220,127.85C220.08,155.41,196.88,179.29,169.35,180Z"/>
    </g>
  </g>
</svg>