<svg xmlns="http://www.w3.org/2000/svg" width="120" height="103.92" viewBox="0 0 120 103.92">
  <g transform="translate(-14.00,-14.00)" fill="white" stroke="white" stroke-width="0" opacity="0.12">
    <g transform="scale(0.109375)">
      <path d="M164.38,181.1a52,52,0,1,0-72.76,0,75.89,75.89,0,0,0-30,28.89,12,12,0,0,0,20.78,12,53,53,0,0,1,91.22,0,12,12,0,1,0,20.78-12A75.89,75.89,0,0,0,164.38,181.1ZM100,144a28,28,0,1,1,28,28A28,28,0,0,1,100,144Zm147.21,9.59a12,12,0,0,1-16.81-2.39c-8.33-11.09-19.85-19.59-29.33-21.64a12,12,0,0,1-1.82-22.91,20,20,0,1,0-24.78-28.3,12,12,0,1,1-21-11.6,44,44,0,1,1,73.28,48.35,92.18,92.18,0,0,1,22.85,21.69A12,12,0,0,1,247.21,153.59Zm-192.28-24c-9.48,2.05-21,10.55-29.33,21.65A12,12,0,0,1,6.41,136.79,92.37,92.37,0,0,1,29.26,115.1a44,44,0,1,1,73.28-48.35,12,12,0,1,1-21,11.6,20,20,0,1,0-24.78,28.3,12,12,0,0,1-1.82,22.91Z"/>
    </g>
  </g>
  <g transform="translate(46.00,-14.00)" fill="white" stroke="white" stroke-width="0" opacity="0.12">
    <g transform="scale(0.109375)">
      <path d="M220.77,83.57,199.59,47a30.14,30.14,0,0,0-41.11-11,30.49,30.49,0,0,0-4.92,3.52L144,23a30.16,30.16,0,0,0-49.55-3.78,30.18,30.18,0,0,0-28.59.8A29.95,29.95,0,0,0,53.08,57.47,29.68,29.68,0,0,0,47.32,60a30,30,0,0,0-11,41l.3.52A30.77,30.77,0,0,0,31,104a30,30,0,0,0-11,41l35.33,61a84.48,84.48,0,0,0,115.12,30.75,83.51,83.51,0,0,0,39.27-51c.39-1.45.73-2.89,1-4.35A84.13,84.13,0,0,0,220.77,83.57ZM167.71,60.45a6,6,0,0,1,11-1.45l21.18,36.57a59.85,59.85,0,0,1,7.34,39A85.15,85.15,0,0,0,201.33,122l-33-57A5.94,5.94,0,0,1,167.71,60.45Zm-55.61-24a6,6,0,0,1,7.38-4.25,6,6,0,0,1,3.65,2.8l22.33,38.55A30.7,30.7,0,0,0,140,76a30.22,30.22,0,0,0-4.9,3.52L112.7,41A6,6,0,0,1,112.1,36.45Zm-37,8a6,6,0,0,1,7.37-4.25A6.05,6.05,0,0,1,86.09,43l3.77,6.58A29.92,29.92,0,0,0,84.34,52a30.39,30.39,0,0,0-4.88,3.5L75.68,49A5.93,5.93,0,0,1,75.08,44.45ZM158.44,216a60.37,60.37,0,0,1-82.23-22L40.88,133a6,6,0,0,1,2.2-8.2A6,6,0,0,1,51.3,127l20.29,35a12,12,0,0,0,20.85-12L57.15,89a6,6,0,0,1,10.41-6L99.42,138a12,12,0,0,0,20.85-12L94.2,81.05h0l0-.05a6,6,0,0,1,10.44-6l36.57,63A12,12,0,0,0,162,126l-12.55-21.61A6,6,0,0,1,160.21,99l20.27,35A60,60,0,0,1,158.44,216Z"/>
    </g>
  </g>
  <g transform="translate(16.00,37.96)" fill="white" stroke="white" stroke-width="0" opacity="0.12">
    <g transform="scale(0.109375)">
      <path d="M164.38,181.1a52,52,0,1,0-72.76,0,75.89,75.89,0,0,0-30,28.89,12,12,0,0,0,20.78,12,53,53,0,0,1,91.22,0,12,12,0,1,0,20.78-12A75.89,75.89,0,0,0,164.38,181.1ZM100,144a28,28,0,1,1,28,28A28,28,0,0,1,100,144Zm147.21,9.59a12,12,0,0,1-16.81-2.39c-8.33-11.09-19.85-19.59-29.33-21.64a12,12,0,0,1-1.82-22.91,20,20,0,1,0-24.78-28.3,12,12,0,1,1-21-11.6,44,44,0,1,1,73.28,48.35,92.18,92.18,0,0,1,22.85,21.69A12,12,0,0,1,247.21,153.59Zm-192.28-24c-9.48,2.05-21,10.55-29.33,21.65A12,12,0,0,1,6.41,136.79,92.37,92.37,0,0,1,29.26,115.1a44,44,0,1,1,73.28-48.35,12,12,0,1,1-21,11.6,20,20,0,1,0-24.78,28.3,12,12,0,0,1-1.82,22.91Z"/>
    </g>
  </g>
  <g transform="translate(76.00,37.96)" fill="white" stroke="white" stroke-width="0" opacity="0.12">
    <g transform="scale(0.109375)">
      <path d="M220.77,83.57,199.59,47a30.14,30.14,0,0,0-41.11-11,30.49,30.49,0,0,0-4.92,3.52L144,23a30.16,30.16,0,0,0-49.55-3.78,30.18,30.18,0,0,0-28.59.8A29.95,29.95,0,0,0,53.08,57.47,29.68,29.68,0,0,0,47.32,60a30,30,0,0,0-11,41l.3.52A30.77,30.77,0,0,0,31,104a30,30,0,0,0-11,41l35.33,61a84.48,84.48,0,0,0,115.12,30.75,83.51,83.51,0,0,0,39.27-51c.39-1.45.73-2.89,1-4.35A84.13,84.13,0,0,0,220.77,83.57ZM167.71,60.45a6,6,0,0,1,11-1.45l21.18,36.57a59.85,59.85,0,0,1,7.34,39A85.15,85.15,0,0,0,201.33,122l-33-57A5.94,5.94,0,0,1,167.71,60.45Zm-55.61-24a6,6,0,0,1,7.38-4.25,6,6,0,0,1,3.65,2.8l22.33,38.55A30.7,30.7,0,0,0,140,76a30.22,30.22,0,0,0-4.9,3.52L112.7,41A6,6,0,0,1,112.1,36.45Zm-37,8a6,6,0,0,1,7.37-4.25A6.05,6.05,0,0,1,86.09,43l3.77,6.58A29.92,29.92,0,0,0,84.34,52a30.39,30.39,0,0,0-4.88,3.5L75.68,49A5.93,5.93,0,0,1,75.08,44.45ZM158.44,216a60.37,60.37,0,0,1-82.23-22L40.88,133a6,6,0,0,1,2.2-8.2A6,6,0,0,1,51.3,127l20.29,35a12,12,0,0,0,20.85-12L57.15,89a6,6,0,0,1,10.41-6L99.42,138a12,12,0,0,0,20.85-12L94.2,81.05h0l0-.05a6,6,0,0,1,10.44-6l36.57,63A12,12,0,0,0,162,126l-12.55-21.61A6,6,0,0,1,160.21,99l20.27,35A60,60,0,0,1,158.44,216Z"/>
    </g>
  </g>
</svg>