<svg xmlns="http://www.w3.org/2000/svg" width="120" height="103.92" viewBox="0 0 120 103.92">
  <g transform="translate(-14.00,-14.00)" fill="white" stroke="white" stroke-width="0" opacity="0.12">
    <g transform="scale(0.109375)">
      <path d="M224,44H32A20,20,0,0,0,12,64V88a20,20,0,0,0,16,19.6V192a20,20,0,0,0,20,20H208a20,20,0,0,0,20-20V107.6A20,20,0,0,0,244,88V64A20,20,0,0,0,224,44ZM36,68H220V84H36ZM52,188V108H204v80Zm112-52a12,12,0,0,1-12,12H104a12,12,0,0,1,0-24h48A12,12,0,0,1,164,136Z"/>
    </g>
  </g>
  <g transform="translate(46.00,-14.00)" fill="white" stroke="white" stroke-width="0" opacity="0.12">
    <g transform="scale(0.109375)">
      <path d="M236,137A108.13,108.13,0,1,1,119,20,12,12,0,0,1,121,44,84.12,84.12,0,1,0,212,135,12,12,0,1,1,236,137ZM116,76v52a12,12,0,0,0,12,12h52a12,12,0,0,0,0-24H140V76a12,12,0,0,0-24,0Zm92,20a16,16,0,1,0-16-16A16,16,0,0,0,208,96ZM176,64a16,16,0,1,0-16-16A16,16,0,0,0,176,64Z"/>
    </g>
  </g>
  <g transform="translate(16.00,37.96)" fill="white" stroke="white" stroke-width="0" opacity="0.12">
    <g transform="scale(0.109375)">
      <path d="M216,68H133.39l-26-29.29a20,20,0,0,0-15-6.71H40A20,20,0,0,0,20,52V200.62A19.41,19.41,0,0,0,39.38,220H216.89A19.13,19.13,0,0,0,236,200.89V88A20,20,0,0,0,216,68ZM44,56H90.61l10.67,12H44ZM212,196H44V92H212Z"/>
    </g>
  </g>
  <g transform="translate(76.00,37.96)" fill="white" stroke="white" stroke-width="0" opacity="0.12">
    <g transform="scale(0.109375)">
      <path d="M224,44H32A20,20,0,0,0,12,64V88a20,20,0,0,0,16,19.6V192a20,20,0,0,0,20,20H208a20,20,0,0,0,20-20V107.6A20,20,0,0,0,244,88V64A20,20,0,0,0,224,44ZM36,68H220V84H36ZM52,188V108H204v80Zm112-52a12,12,0,0,1-12,12H104a12,12,0,0,1,0-24h48A12,12,0,0,1,164,136Z"/>
    </g>
  </g>
</svg>