<svg xmlns="http://www.w3.org/2000/svg" width="120" height="103.92" viewBox="0 0 120 103.92">
  <g transform="translate(-14.00,-14.00)" fill="white" stroke="white" stroke-width="0" opacity="0.12">
    <g transform="scale(0.109375)">
      <path d="M128,20A108,108,0,1,0,236,128,108.12,108.12,0,0,0,128,20Zm0,192a84,84,0,1,1,84-84A84.09,84.09,0,0,1,128,212ZM163.27,77l-56,24a12,12,0,0,0-6.3,6.3l-24,56A12,12,0,0,0,92.73,179l56-24a12,12,0,0,0,6.3-6.3l24-56A12,12,0,0,0,163.27,77Zm-28.41,57.89-24,10.29,10.29-24,24-10.29Z"/>
    </g>
  </g>
  <g transform="translate(46.00,-14.00)" fill="white" stroke="white" stroke-width="0" opacity="0.12">
    <g transform="scale(0.109375)">
      <path d="M232.49,215.51,185,168a92.12,92.12,0,1,0-17,17l47.53,47.54a12,12,0,0,0,17-17ZM44,112a68,68,0,1,1,68,68A68.07,68.07,0,0,1,44,112Z"/>
    </g>
  </g>
  <g transform="translate(16.00,37.96)" fill="white" stroke="white" stroke-width="0" opacity="0.12">
    <g transform="scale(0.109375)">
      <path d="M241,150.65s0,0,0-.05a51.33,51.33,0,0,0-2.53-5.9L196.93,50.18a12,12,0,0,0-2.5-3.65,36,36,0,0,0-50.92,0A12,12,0,0,0,140,55V76H116V55a12,12,0,0,0-3.51-8.48,36,36,0,0,0-50.92,0,12,12,0,0,0-2.5,3.65L17.53,144.7A51.33,51.33,0,0,0,15,150.6s0,0,0,.05A52,52,0,1,0,116,168V100h24v68a52,52,0,1,0,101-17.35ZM80,62.28a12,12,0,0,1,12-1.22v63.15a51.9,51.9,0,0,0-35.9-7.62ZM64,196a28,28,0,1,1,28-28A28,28,0,0,1,64,196ZM164,61.06a12.06,12.06,0,0,1,12,1.22l23.87,54.31a51.9,51.9,0,0,0-35.9,7.62ZM192,196a28,28,0,1,1,28-28A28,28,0,0,1,192,196Z"/>
    </g>
  </g>
  <g transform="translate(76.00,37.96)" fill="white" stroke="white" stroke-width="0" opacity="0.12">
    <g transform="scale(0.109375)">
      <path d="M128,20A108,108,0,1,0,236,128,108.12,108.12,0,0,0,128,20Zm0,192a84,84,0,1,1,84-84A84.09,84.09,0,0,1,128,212ZM163.27,77l-56,24a12,12,0,0,0-6.3,6.3l-24,56A12,12,0,0,0,92.73,179l56-24a12,12,0,0,0,6.3-6.3l24-56A12,12,0,0,0,163.27,77Zm-28.41,57.89-24,10.29,10.29-24,24-10.29Z"/>
    </g>
  </g>
</svg>