<svg xmlns="http://www.w3.org/2000/svg" width="120" height="103.92" viewBox="0 0 120 103.92">
  <g transform="translate(-14.00,-14.00)" fill="white" stroke="white" stroke-width="0" opacity="0.12">
    <g transform="scale(0.109375)">
      <path d="M128,20A108,108,0,0,0,31.85,177.23L21,209.66A20,20,0,0,0,46.34,235l32.43-10.81A108,108,0,1,0,128,20Zm0,192a84,84,0,0,1-42.06-11.27,12,12,0,0,0-6-1.62,12.1,12.1,0,0,0-3.8.62l-29.79,9.93,9.93-29.79a12,12,0,0,0-1-9.81A84,84,0,1,1,128,212Z"/>
    </g>
  </g>
  <g transform="translate(-14.00,89.92)" fill="white" stroke="white" stroke-width="0" opacity="0.12">
    <g transform="scale(0.109375)">
      <path d="M128,20A108,108,0,0,0,31.85,177.23L21,209.66A20,20,0,0,0,46.34,235l32.43-10.81A108,108,0,1,0,128,20Zm0,192a84,84,0,0,1-42.06-11.27,12,12,0,0,0-6-1.62,12.1,12.1,0,0,0-3.8.62l-29.79,9.93,9.93-29.79a12,12,0,0,0-1-9.81A84,84,0,1,1,128,212Z"/>
    </g>
  </g>
  <g transform="translate(106.00,-14.00)" fill="white" stroke="white" stroke-width="0" opacity="0.12">
    <g transform="scale(0.109375)">
      <path d="M128,20A108,108,0,0,0,31.85,177.23L21,209.66A20,20,0,0,0,46.34,235l32.43-10.81A108,108,0,1,0,128,20Zm0,192a84,84,0,0,1-42.06-11.27,12,12,0,0,0-6-1.62,12.1,12.1,0,0,0-3.8.62l-29.79,9.93,9.93-29.79a12,12,0,0,0-1-9.81A84,84,0,1,1,128,212Z"/>
    </g>
  </g>
  <g transform="translate(106.00,89.92)" fill="white" stroke="white" stroke-width="0" opacity="0.12">
    <g transform="scale(0.109375)">
      <path d="M128,20A108,108,0,0,0,31.85,177.23L21,209.66A20,20,0,0,0,46.34,235l32.43-10.81A108,108,0,1,0,128,20Zm0,192a84,84,0,0,1-42.06-11.27,12,12,0,0,0-6-1.62,12.1,12.1,0,0,0-3.8.62l-29.79,9.93,9.93-29.79a12,12,0,0,0-1-9.81A84,84,0,1,1,128,212Z"/>
    </g>
  </g>
  <g transform="translate(46.00,-14.00)" fill="white" stroke="white" stroke-width="0" opacity="0.12">
    <g transform="scale(0.109375)">
      <path d="M252,120a52.06,52.06,0,0,0-52-52H160.32c-3.44-.21-52.6-4-99.46-43.3A20,20,0,0,0,28,40V200a19.8,19.8,0,0,0,11.54,18.12,19.86,19.86,0,0,0,21.32-2.81A192.92,192.92,0,0,1,144,174.47v26.2a20,20,0,0,0,8.9,16.64,11.35,11.35,0,0,0,1.39.8l14.44,7.06A20,20,0,0,0,198.37,213l11.09-41.82A52.07,52.07,0,0,0,252,120ZM52,191.63V48.4c36.17,28.07,72.17,38.1,92,41.66V150C124.17,153.52,88.17,163.55,52,191.63ZM176.39,202.2,168,198.1V172h16.4ZM200,148H168V92h32a28,28,0,1,1,0,56Z"/>
    </g>
  </g>
  <g transform="translate(46.00,89.92)" fill="white" stroke="white" stroke-width="0" opacity="0.12">
    <g transform="scale(0.109375)">
      <path d="M252,120a52.06,52.06,0,0,0-52-52H160.32c-3.44-.21-52.6-4-99.46-43.3A20,20,0,0,0,28,40V200a19.8,19.8,0,0,0,11.54,18.12,19.86,19.86,0,0,0,21.32-2.81A192.92,192.92,0,0,1,144,174.47v26.2a20,20,0,0,0,8.9,16.64,11.35,11.35,0,0,0,1.39.8l14.44,7.06A20,20,0,0,0,198.37,213l11.09-41.82A52.07,52.07,0,0,0,252,120ZM52,191.63V48.4c36.17,28.07,72.17,38.1,92,41.66V150C124.17,153.52,88.17,163.55,52,191.63ZM176.39,202.2,168,198.1V172h16.4ZM200,148H168V92h32a28,28,0,1,1,0,56Z"/>
    </g>
  </g>
  <g transform="translate(16.00,37.96)" fill="white" stroke="white" stroke-width="0" opacity="0.12">
    <g transform="scale(0.109375)">
      <path d="M252,92.68a19.86,19.86,0,0,0-5.86-14.14L177.46,9.85a20,20,0,0,0-28.29,0L121.35,37.67,64.11,59.14A20,20,0,0,0,51.4,74.58L28.16,214A12,12,0,0,0,40,228a11.9,11.9,0,0,0,2-.16l139.45-23.25a20.07,20.07,0,0,0,15.44-12.7l21.46-57.25,27.82-27.82A19.85,19.85,0,0,0,252,92.68ZM175.2,181.3,75,198l33-33a34,34,0,1,0-17-17L58,181,74.7,80.8,125,61.94,194.05,131ZM112,134a10,10,0,1,1,10,10A10,10,0,0,1,112,134Zm96-23L145,48l18.34-18.34,63,63Z"/>
    </g>
  </g>
  <g transform="translate(76.00,37.96)" fill="white" stroke="white" stroke-width="0" opacity="0.12">
    <g transform="scale(0.109375)">
      <path d="M128,20A108,108,0,0,0,31.85,177.23L21,209.66A20,20,0,0,0,46.34,235l32.43-10.81A108,108,0,1,0,128,20Zm0,192a84,84,0,0,1-42.06-11.27,12,12,0,0,0-6-1.62,12.1,12.1,0,0,0-3.8.62l-29.79,9.93,9.93-29.79a12,12,0,0,0-1-9.81A84,84,0,1,1,128,212Z"/>
    </g>
  </g>
</svg>