<svg xmlns="http://www.w3.org/2000/svg" width="120" height="103.92" viewBox="0 0 120 103.92">
  <g transform="translate(-14.00,-14.00)" fill="white" stroke="white" stroke-width="0" opacity="0.12">
    <g transform="scale(0.109375)">
      <path d="M242.79,149.32,223.7,97.11A20,20,0,0,0,198.12,85.2l-61.31,22.22L147.7,45.18A20,20,0,0,0,131.55,22L76.87,12.31A19.94,19.94,0,0,0,53.76,28.55l-25,143.13A48,48,0,0,0,67.4,227.26a51.19,51.19,0,0,0,8.7.74H224a20,20,0,0,0,20-20V156.19A21.74,21.74,0,0,0,242.79,149.32ZM99,184.18a23.84,23.84,0,0,1-9.86,15.56,23.28,23.28,0,0,1-17.56,3.89,24,24,0,0,1-19.23-27.82L76.71,36.66,123.37,45,99,184.18Zm23.64,4.13,9.39-53.64,70.49-25.54,16.3,44.59-96.23,34.87C122.62,188.5,122.65,188.41,122.66,188.31ZM220,204H150.52L220,178.82ZM89.22,174.07l-1.4,8A12,12,0,0,1,76,192a12.35,12.35,0,0,1-2.08-.18,12,12,0,0,1-9.75-13.89l1.4-8a12,12,0,0,1,23.64,4.14Z"/>
    </g>
  </g>
  <g transform="translate(46.00,-14.00)" fill="white" stroke="white" stroke-width="0" opacity="0.12">
    <g transform="scale(0.109375)">
      <path d="M246.15,133.18,146.83,33.86A19.85,19.85,0,0,0,132.69,28H40A12,12,0,0,0,28,40v92.69a19.85,19.85,0,0,0,5.86,14.14l99.32,99.32a20,20,0,0,0,28.28,0l84.69-84.69A20,20,0,0,0,246.15,133.18Zm-98.83,93.17L52,131V52h79l95.32,95.32ZM104,88A16,16,0,1,1,88,72,16,16,0,0,1,104,88Z"/>
    </g>
  </g>
  <g transform="translate(16.00,37.96)" fill="white" stroke="white" stroke-width="0" opacity="0.12">
    <g transform="scale(0.109375)">
      <path d="M200,36H56A20,20,0,0,0,36,56V200a20,20,0,0,0,20,20H200a20,20,0,0,0,20-20V56A20,20,0,0,0,200,36Zm-4,80H140V60h56ZM116,60v56H60V60ZM60,140h56v56H60Zm80,56V140h56v56Z"/>
    </g>
  </g>
  <g transform="translate(76.00,37.96)" fill="white" stroke="white" stroke-width="0" opacity="0.12">
    <g transform="scale(0.109375)">
      <path d="M242.79,149.32,223.7,97.11A20,20,0,0,0,198.12,85.2l-61.31,22.22L147.7,45.18A20,20,0,0,0,131.55,22L76.87,12.31A19.94,19.94,0,0,0,53.76,28.55l-25,143.13A48,48,0,0,0,67.4,227.26a51.19,51.19,0,0,0,8.7.74H224a20,20,0,0,0,20-20V156.19A21.74,21.74,0,0,0,242.79,149.32ZM99,184.18a23.84,23.84,0,0,1-9.86,15.56,23.28,23.28,0,0,1-17.56,3.89,24,24,0,0,1-19.23-27.82L76.71,36.66,123.37,45,99,184.18Zm23.64,4.13,9.39-53.64,70.49-25.54,16.3,44.59-96.23,34.87C122.62,188.5,122.65,188.41,122.66,188.31ZM220,204H150.52L220,178.82ZM89.22,174.07l-1.4,8A12,12,0,0,1,76,192a12.35,12.35,0,0,1-2.08-.18,12,12,0,0,1-9.75-13.89l1.4-8a12,12,0,0,1,23.64,4.14Z"/>
    </g>
  </g>
</svg>