<svg xmlns="http://www.w3.org/2000/svg" width="120" height="103.92" viewBox="0 0 120 103.92">
  <g transform="translate(-14.00,-14.00)" fill="white" stroke="white" stroke-width="0" opacity="0.12">
    <g transform="scale(0.109375)">
      <path d="M216,36H40A20,20,0,0,0,20,56V200a20,20,0,0,0,20,20H216a20,20,0,0,0,20-20V56A20,20,0,0,0,216,36Zm-4,160H44V60H212ZM68,92A12,12,0,0,1,80,80h96a12,12,0,0,1,0,24H80A12,12,0,0,1,68,92Zm0,36a12,12,0,0,1,12-12h96a12,12,0,0,1,0,24H80A12,12,0,0,1,68,128Zm0,36a12,12,0,0,1,12-12h96a12,12,0,0,1,0,24H80A12,12,0,0,1,68,164Z"/>
    </g>
  </g>
  <g transform="translate(46.00,-14.00)" fill="white" stroke="white" stroke-width="0" opacity="0.12">
    <g transform="scale(0.109375)">
      <path d="M92,108a12,12,0,0,1,12-12h72a12,12,0,0,1,0,24H104A12,12,0,0,1,92,108Zm12,52h72a12,12,0,0,0,0-24H104a12,12,0,0,0,0,24ZM236,64V184a28,28,0,0,1-28,28H36A32,32,0,0,1,4,180V88a12,12,0,0,1,24,0v92a8,8,0,0,0,16,0V64A20,20,0,0,1,64,44H216A20,20,0,0,1,236,64Zm-24,4H68V180a32,32,0,0,1-1,8H208a4,4,0,0,0,4-4Z"/>
    </g>
  </g>
  <g transform="translate(16.00,37.96)" fill="white" stroke="white" stroke-width="0" opacity="0.12">
    <g transform="scale(0.109375)">
      <path d="M232,44H160a43.86,43.86,0,0,0-32,13.85A43.86,43.86,0,0,0,96,44H24A12,12,0,0,0,12,56V200a12,12,0,0,0,12,12H96a20,20,0,0,1,20,20,12,12,0,0,0,24,0,20,20,0,0,1,20-20h72a12,12,0,0,0,12-12V56A12,12,0,0,0,232,44ZM96,188H36V68H96a20,20,0,0,1,20,20V192.81A43.79,43.79,0,0,0,96,188Zm124,0H160a43.71,43.71,0,0,0-20,4.83V88a20,20,0,0,1,20-20h60Z"/>
    </g>
  </g>
  <g transform="translate(76.00,37.96)" fill="white" stroke="white" stroke-width="0" opacity="0.12">
    <g transform="scale(0.109375)">
      <path d="M216,36H40A20,20,0,0,0,20,56V200a20,20,0,0,0,20,20H216a20,20,0,0,0,20-20V56A20,20,0,0,0,216,36Zm-4,160H44V60H212ZM68,92A12,12,0,0,1,80,80h96a12,12,0,0,1,0,24H80A12,12,0,0,1,68,92Zm0,36a12,12,0,0,1,12-12h96a12,12,0,0,1,0,24H80A12,12,0,0,1,68,128Zm0,36a12,12,0,0,1,12-12h96a12,12,0,0,1,0,24H80A12,12,0,0,1,68,164Z"/>
    </g>
  </g>
</svg>