<svg xmlns="http://www.w3.org/2000/svg" width="120" height="103.92" viewBox="0 0 120 103.92">
  <g transform="translate(-14.00,-14.00)" fill="white" stroke="white" stroke-width="0" opacity="0.12">
    <g transform="scale(0.109375)">
      <path d="M224,196h-4V40a12,12,0,0,0-12-12H152a12,12,0,0,0-12,12V76H96A12,12,0,0,0,84,88v36H48a12,12,0,0,0-12,12v60H32a12,12,0,0,0,0,24H224a12,12,0,0,0,0-24ZM164,52h32V196H164Zm-56,48h32v96H108ZM60,148H84v48H60Z"/>
    </g>
  </g>
  <g transform="translate(46.00,-14.00)" fill="white" stroke="white" stroke-width="0" opacity="0.12">
    <g transform="scale(0.109375)">
      <path d="M196,35.52C177.62,25.51,153.48,20,128,20S78.38,25.51,60,35.52C39.37,46.79,28,62.58,28,80v96c0,17.42,11.37,33.21,32,44.48,18.35,10,42.49,15.52,68,15.52s49.62-5.51,68-15.52c20.66-11.27,32-27.06,32-44.48V80C228,62.58,216.63,46.79,196,35.52ZM204,128c0,17-31.21,36-76,36s-76-19-76-36v-8.46a88.9,88.9,0,0,0,8,4.94c18.35,10,42.49,15.52,68,15.52s49.62-5.51,68-15.52a88.9,88.9,0,0,0,8-4.94ZM128,44c44.79,0,76,19,76,36s-31.21,36-76,36S52,97,52,80,83.21,44,128,44Zm0,168c-44.79,0-76-19-76-36v-8.46a88.9,88.9,0,0,0,8,4.94c18.35,10,42.49,15.52,68,15.52s49.62-5.51,68-15.52a88.9,88.9,0,0,0,8-4.94V176C204,193,172.79,212,128,212Z"/>
    </g>
  </g>
  <g transform="translate(16.00,37.96)" fill="white" stroke="white" stroke-width="0" opacity="0.12">
    <g transform="scale(0.109375)">
      <path d="M224,44H32A12,12,0,0,0,20,56V192a20,20,0,0,0,20,20H216a20,20,0,0,0,20-20V56A12,12,0,0,0,224,44ZM44,116H76v24H44Zm56,0H212v24H100ZM212,68V92H44V68ZM44,164H76v24H44Zm56,24V164H212v24Z"/>
    </g>
  </g>
  <g transform="translate(76.00,37.96)" fill="white" stroke="white" stroke-width="0" opacity="0.12">
    <g transform="scale(0.109375)">
      <path d="M224,196h-4V40a12,12,0,0,0-12-12H152a12,12,0,0,0-12,12V76H96A12,12,0,0,0,84,88v36H48a12,12,0,0,0-12,12v60H32a12,12,0,0,0,0,24H224a12,12,0,0,0,0-24ZM164,52h32V196H164Zm-56,48h32v96H108ZM60,148H84v48H60Z"/>
    </g>
  </g>
</svg>