<svg xmlns="http://www.w3.org/2000/svg" width="120" height="103.92" viewBox="0 0 120 103.92">
  <g transform="translate(-14.00,-14.00)" fill="white" stroke="white" stroke-width="0" opacity="0.12">
    <g transform="scale(0.109375)">
      <path d="M252,124a60.14,60.14,0,0,0-32-53.08,52,52,0,0,0-92-32.11A52,52,0,0,0,36,70.92a60,60,0,0,0,0,106.14,52,52,0,0,0,92,32.13,52,52,0,0,0,92-32.13A60.05,60.05,0,0,0,252,124ZM88,204a28,28,0,0,1-26.85-20.07c1,0,1.89.07,2.85.07h8a12,12,0,0,0,0-24H64A36,36,0,0,1,52,90.05a12,12,0,0,0,8-11.32V72a28,28,0,0,1,56,0v60.18a51.61,51.61,0,0,0-7.2-3.85,12,12,0,1,0-9.6,22A28,28,0,0,1,88,204Zm104-44h-8a12,12,0,0,0,0,24h8c1,0,1.9,0,2.85-.07a28,28,0,1,1-38-33.61,12,12,0,1,0-9.6-22,51.61,51.61,0,0,0-7.2,3.85V72a28,28,0,0,1,56,0v6.73a12,12,0,0,0,8,11.32,36,36,0,0,1-12,70Zm16-44a12,12,0,0,1-12,12,40,40,0,0,1-40-40V84a12,12,0,0,1,24,0v4a16,16,0,0,0,16,16A12,12,0,0,1,208,116ZM100,88a40,40,0,0,1-40,40,12,12,0,0,1,0-24A16,16,0,0,0,76,88V84a12,12,0,0,1,24,0Z"/>
    </g>
  </g>
  <g transform="translate(-14.00,89.92)" fill="white" stroke="white" stroke-width="0" opacity="0.12">
    <g transform="scale(0.109375)">
      <path d="M252,124a60.14,60.14,0,0,0-32-53.08,52,52,0,0,0-92-32.11A52,52,0,0,0,36,70.92a60,60,0,0,0,0,106.14,52,52,0,0,0,92,32.13,52,52,0,0,0,92-32.13A60.05,60.05,0,0,0,252,124ZM88,204a28,28,0,0,1-26.85-20.07c1,0,1.89.07,2.85.07h8a12,12,0,0,0,0-24H64A36,36,0,0,1,52,90.05a12,12,0,0,0,8-11.32V72a28,28,0,0,1,56,0v60.18a51.61,51.61,0,0,0-7.2-3.85,12,12,0,1,0-9.6,22A28,28,0,0,1,88,204Zm104-44h-8a12,12,0,0,0,0,24h8c1,0,1.9,0,2.85-.07a28,28,0,1,1-38-33.61,12,12,0,1,0-9.6-22,51.61,51.61,0,0,0-7.2,3.85V72a28,28,0,0,1,56,0v6.73a12,12,0,0,0,8,11.32,36,36,0,0,1-12,70Zm16-44a12,12,0,0,1-12,12,40,40,0,0,1-40-40V84a12,12,0,0,1,24,0v4a16,16,0,0,0,16,16A12,12,0,0,1,208,116ZM100,88a40,40,0,0,1-40,40,12,12,0,0,1,0-24A16,16,0,0,0,76,88V84a12,12,0,0,1,24,0Z"/>
    </g>
  </g>
  <g transform="translate(106.00,-14.00)" fill="white" stroke="white" stroke-width="0" opacity="0.12">
    <g transform="scale(0.109375)">
      <path d="M252,124a60.14,60.14,0,0,0-32-53.08,52,52,0,0,0-92-32.11A52,52,0,0,0,36,70.92a60,60,0,0,0,0,106.14,52,52,0,0,0,92,32.13,52,52,0,0,0,92-32.13A60.05,60.05,0,0,0,252,124ZM88,204a28,28,0,0,1-26.85-20.07c1,0,1.89.07,2.85.07h8a12,12,0,0,0,0-24H64A36,36,0,0,1,52,90.05a12,12,0,0,0,8-11.32V72a28,28,0,0,1,56,0v60.18a51.61,51.61,0,0,0-7.2-3.85,12,12,0,1,0-9.6,22A28,28,0,0,1,88,204Zm104-44h-8a12,12,0,0,0,0,24h8c1,0,1.9,0,2.85-.07a28,28,0,1,1-38-33.61,12,12,0,1,0-9.6-22,51.61,51.61,0,0,0-7.2,3.85V72a28,28,0,0,1,56,0v6.73a12,12,0,0,0,8,11.32,36,36,0,0,1-12,70Zm16-44a12,12,0,0,1-12,12,40,40,0,0,1-40-40V84a12,12,0,0,1,24,0v4a16,16,0,0,0,16,16A12,12,0,0,1,208,116ZM100,88a40,40,0,0,1-40,40,12,12,0,0,1,0-24A16,16,0,0,0,76,88V84a12,12,0,0,1,24,0Z"/>
    </g>
  </g>
  <g transform="translate(106.00,89.92)" fill="white" stroke="white" stroke-width="0" opacity="0.12">
    <g transform="scale(0.109375)">
      <path d="M252,124a60.14,60.14,0,0,0-32-53.08,52,52,0,0,0-92-32.11A52,52,0,0,0,36,70.92a60,60,0,0,0,0,106.14,52,52,0,0,0,92,32.13,52,52,0,0,0,92-32.13A60.05,60.05,0,0,0,252,124ZM88,204a28,28,0,0,1-26.85-20.07c1,0,1.89.07,2.85.07h8a12,12,0,0,0,0-24H64A36,36,0,0,1,52,90.05a12,12,0,0,0,8-11.32V72a28,28,0,0,1,56,0v60.18a51.61,51.61,0,0,0-7.2-3.85,12,12,0,1,0-9.6,22A28,28,0,0,1,88,204Zm104-44h-8a12,12,0,0,0,0,24h8c1,0,1.9,0,2.85-.07a28,28,0,1,1-38-33.61,12,12,0,1,0-9.6-22,51.61,51.61,0,0,0-7.2,3.85V72a28,28,0,0,1,56,0v6.73a12,12,0,0,0,8,11.32,36,36,0,0,1-12,70Zm16-44a12,12,0,0,1-12,12,40,40,0,0,1-40-40V84a12,12,0,0,1,24,0v4a16,16,0,0,0,16,16A12,12,0,0,1,208,116ZM100,88a40,40,0,0,1-40,40,12,12,0,0,1,0-24A16,16,0,0,0,76,88V84a12,12,0,0,1,24,0Z"/>
    </g>
  </g>
  <g transform="translate(46.00,-14.00)" fill="white" stroke="white" stroke-width="0" opacity="0.12">
    <g transform="scale(0.109375)">
      <path d="M178,36c-20.09,0-37.92,7.93-50,21.56C115.92,43.93,98.09,36,78,36a66.08,66.08,0,0,0-66,66c0,72.34,105.81,130.14,110.31,132.57a12,12,0,0,0,11.38,0C138.19,232.14,244,174.34,244,102A66.08,66.08,0,0,0,178,36Zm-5.49,142.36A328.69,328.69,0,0,1,128,210.16a328.69,328.69,0,0,1-44.51-31.8C61.82,159.77,36,131.42,36,102A42,42,0,0,1,78,60c17.8,0,32.7,9.4,38.89,24.54a12,12,0,0,0,22.22,0C145.3,69.4,160.2,60,178,60a42,42,0,0,1,42,42C220,131.42,194.18,159.77,172.51,178.36Z"/>
    </g>
  </g>
  <g transform="translate(46.00,89.92)" fill="white" stroke="white" stroke-width="0" opacity="0.12">
    <g transform="scale(0.109375)">
      <path d="M178,36c-20.09,0-37.92,7.93-50,21.56C115.92,43.93,98.09,36,78,36a66.08,66.08,0,0,0-66,66c0,72.34,105.81,130.14,110.31,132.57a12,12,0,0,0,11.38,0C138.19,232.14,244,174.34,244,102A66.08,66.08,0,0,0,178,36Zm-5.49,142.36A328.69,328.69,0,0,1,128,210.16a328.69,328.69,0,0,1-44.51-31.8C61.82,159.77,36,131.42,36,102A42,42,0,0,1,78,60c17.8,0,32.7,9.4,38.89,24.54a12,12,0,0,0,22.22,0C145.3,69.4,160.2,60,178,60a42,42,0,0,1,42,42C220,131.42,194.18,159.77,172.51,178.36Z"/>
    </g>
  </g>
  <g transform="translate(16.00,37.96)" fill="white" stroke="white" stroke-width="0" opacity="0.12">
    <g transform="scale(0.109375)">
      <path d="M128,20A108,108,0,0,0,31.85,177.23L21,209.66A20,20,0,0,0,46.34,235l32.43-10.81A108,108,0,1,0,128,20Zm0,192a84,84,0,0,1-42.06-11.27,12,12,0,0,0-6-1.62,12.1,12.1,0,0,0-3.8.62l-29.79,9.93,9.93-29.79a12,12,0,0,0-1-9.81A84,84,0,1,1,128,212Z"/>
    </g>
  </g>
  <g transform="translate(76.00,37.96)" fill="white" stroke="white" stroke-width="0" opacity="0.12">
    <g transform="scale(0.109375)">
      <path d="M252,124a60.14,60.14,0,0,0-32-53.08,52,52,0,0,0-92-32.11A52,52,0,0,0,36,70.92a60,60,0,0,0,0,106.14,52,52,0,0,0,92,32.13,52,52,0,0,0,92-32.13A60.05,60.05,0,0,0,252,124ZM88,204a28,28,0,0,1-26.85-20.07c1,0,1.89.07,2.85.07h8a12,12,0,0,0,0-24H64A36,36,0,0,1,52,90.05a12,12,0,0,0,8-11.32V72a28,28,0,0,1,56,0v60.18a51.61,51.61,0,0,0-7.2-3.85,12,12,0,1,0-9.6,22A28,28,0,0,1,88,204Zm104-44h-8a12,12,0,0,0,0,24h8c1,0,1.9,0,2.85-.07a28,28,0,1,1-38-33.61,12,12,0,1,0-9.6-22,51.61,51.61,0,0,0-7.2,3.85V72a28,28,0,0,1,56,0v6.73a12,12,0,0,0,8,11.32,36,36,0,0,1-12,70Zm16-44a12,12,0,0,1-12,12,40,40,0,0,1-40-40V84a12,12,0,0,1,24,0v4a16,16,0,0,0,16,16A12,12,0,0,1,208,116ZM100,88a40,40,0,0,1-40,40,12,12,0,0,1,0-24A16,16,0,0,0,76,88V84a12,12,0,0,1,24,0Z"/>
    </g>
  </g>
</svg>