<svg xmlns="http://www.w3.org/2000/svg" width="120" height="103.92" viewBox="0 0 120 103.92">
  <g transform="translate(-14.00,-14.00)" fill="white" stroke="white" stroke-width="0" opacity="0.12">
    <g transform="scale(0.109375)">
      <path d="M222.14,105.85l-80-80a20,20,0,0,0-28.28,0l-80,80A19.86,19.86,0,0,0,28,120v96a12,12,0,0,0,12,12h64a12,12,0,0,0,12-12V164h24v52a12,12,0,0,0,12,12h64a12,12,0,0,0,12-12V120A19.86,19.86,0,0,0,222.14,105.85ZM204,204H164V152a12,12,0,0,0-12-12H104a12,12,0,0,0-12,12v52H52V121.65l76-76,76,76Z"/>
    </g>
  </g>
  <g transform="translate(46.00,-14.00)" fill="white" stroke="white" stroke-width="0" opacity="0.12">
    <g transform="scale(0.109375)">
      <path d="M249.3,119.63a19.51,19.51,0,0,0-12-9.2A76,76,0,0,0,218.92,108a92.19,92.19,0,0,0-3-42,20.15,20.15,0,0,0-23.44-13.57A88.39,88.39,0,0,0,166.3,62.8,98,98,0,0,0,140,32,20.07,20.07,0,0,0,116,32,98,98,0,0,0,89.7,62.8,88.39,88.39,0,0,0,63.55,52.42,20.15,20.15,0,0,0,40.11,66a92.19,92.19,0,0,0-3,42,76,76,0,0,0-18.41,2.43,19.51,19.51,0,0,0-12,9.2,20,20,0,0,0-2,15.31c3.55,13.16,14.4,38.16,47.14,57.72C84.16,212,112.76,212,128.08,212s43.76,0,76.07-19.34c32.74-19.56,43.59-44.56,47.14-57.72A20,20,0,0,0,249.3,119.63ZM64.16,172.05c-22.29-13.32-31.35-29.13-35-39.35a57.54,57.54,0,0,1,14.54-.46,134,134,0,0,0,8.55,17.69,142.54,142.54,0,0,0,19.59,26.32C69.3,175,66.74,173.6,64.16,172.05ZM79,147.27c-2.1-3-4.12-6-6-9.29C57.37,110.7,58.84,88.94,62,76.76A69,69,0,0,1,80.5,85.33,124.18,124.18,0,0,0,76,119.17,127.59,127.59,0,0,0,79,147.27Zm49,38c-9.72-8.07-28-28.28-28-66.13,0-37.42,18-57.7,28-66.08,10,8.38,28,28.66,28,66.08C156,157,137.72,177.23,128,185.3Zm49-38a127.59,127.59,0,0,0,3-28.1,124.18,124.18,0,0,0-4.5-33.84A69.08,69.08,0,0,1,194,76.75c3.13,12.19,4.6,34-11.06,61.23C181.1,141.23,179.08,144.32,177,147.27Zm14.86,24.78c-2.56,1.53-5.09,2.91-7.58,4.16a142.54,142.54,0,0,0,19.51-26.28,134,134,0,0,0,8.55-17.69,57.54,57.54,0,0,1,14.54.46C223.19,142.92,214.13,158.73,191.84,172.05Z"/>
    </g>
  </g>
  <g transform="translate(16.00,37.96)" fill="white" stroke="white" stroke-width="0" opacity="0.12">
    <g transform="scale(0.109375)">
      <path d="M255.62,51.65a12,12,0,0,0-11.27-11.27c-53.27-3.13-96.2,13.36-114.84,44.14-12.14,20-12.56,44.17-1.46,67.3a75.14,75.14,0,0,0-12.28,23l-12.66-12.66c7.19-16.77,6.43-34.11-2.4-48.69C86.73,90.36,54.89,78,15.55,80.27A12,12,0,0,0,4.28,91.55C2,130.89,14.36,162.73,37.45,176.71a49.76,49.76,0,0,0,26,7.27,57.54,57.54,0,0,0,22.7-4.87L112,205v23a12,12,0,0,0,24,0V198.51a51.63,51.63,0,0,1,9.49-29.95,76.82,76.82,0,0,0,32.1,7.39,64.91,64.91,0,0,0,33.89-9.46C242.25,147.85,258.76,104.92,255.62,51.65ZM49.88,156.18c-13.19-8-21.18-27.46-21.83-52.13,24.67.65,44.14,8.64,52.13,21.83a26,26,0,0,1,3.63,17L72.48,131.51a12,12,0,0,0-17,17l11.34,11.34A26.27,26.27,0,0,1,49.88,156.18ZM199.05,146c-10.66,6.45-23,7.67-35.81,3.76l37.25-37.24a12,12,0,0,0-17-17l-37.25,37.24C142.37,120,143.59,107.61,150,97c12.7-21,42.65-33,81.32-33H232C232.14,103,220.14,133.18,199.05,146Z"/>
    </g>
  </g>
  <g transform="translate(76.00,37.96)" fill="white" stroke="white" stroke-width="0" opacity="0.12">
    <g transform="scale(0.109375)">
      <path d="M222.14,105.85l-80-80a20,20,0,0,0-28.28,0l-80,80A19.86,19.86,0,0,0,28,120v96a12,12,0,0,0,12,12h64a12,12,0,0,0,12-12V164h24v52a12,12,0,0,0,12,12h64a12,12,0,0,0,12-12V120A19.86,19.86,0,0,0,222.14,105.85ZM204,204H164V152a12,12,0,0,0-12-12H104a12,12,0,0,0-12,12v52H52V121.65l76-76,76,76Z"/>
    </g>
  </g>
</svg>