<svg xmlns="http://www.w3.org/2000/svg" width="120" height="120" viewBox="0 0 120 120">
  <g transform="translate(46.0,12.399999999999999)" fill="white" stroke="white" stroke-width="0" opacity="0.12">
    <g transform="scale(0.109375)">
      <path d="M244,116V88a20,20,0,0,0-20-20H208V64a20,20,0,0,0-20-20H164a20,20,0,0,0-20,20v52H112V64A20,20,0,0,0,92,44H68A20,20,0,0,0,48,64v4H32A20,20,0,0,0,12,88v28a12,12,0,0,0,0,24v28a20,20,0,0,0,20,20H48v4a20,20,0,0,0,20,20H92a20,20,0,0,0,20-20V140h32v52a20,20,0,0,0,20,20h24a20,20,0,0,0,20-20v-4h16a20,20,0,0,0,20-20V140a12,12,0,0,0,0-24ZM36,164V92H48v72Zm52,24H72V68H88Zm96,0H168V68h16Zm36-24H208V92h12Z"/>
    </g>
  </g>
  <g transform="translate(10.0,72.39999999999999)" fill="white" stroke="white" stroke-width="0" opacity="0.12">
    <g transform="scale(0.109375)">
      <path d="M71.76,148H31.7a12,12,0,1,1,0-24H65.33l12.45-18.66a12,12,0,0,1,20,0l22,33,6-9a12,12,0,0,1,10-5.34h24a12,12,0,1,1,0,24h-17.6l-12.46,18.66a12,12,0,0,1-20,0l-22-33-6,9A12,12,0,0,1,71.76,148ZM177.91,36c-20.12,0-38,7.93-50.07,21.56C115.74,43.93,97.89,36,77.76,36A66,66,0,0,0,12.07,94.68,12,12,0,0,0,36,97.32,42,42,0,0,1,77.76,60c17.83,0,32.75,9.4,38.95,24.54a12,12,0,0,0,22.25,0C145.16,69.4,160.08,60,177.91,60A42.08,42.08,0,0,1,220,102c0,29.42-25.86,57.77-47.56,76.36a329,329,0,0,1-44.58,31.81c-10.87-6.45-35.37-22-56.51-42.73a12,12,0,1,0-16.84,17.12c30.39,29.81,66.15,49.2,67.66,50a12.06,12.06,0,0,0,11.39,0C138,232.14,244,174.34,244,102A66.12,66.12,0,0,0,177.91,36Z"/>
    </g>
  </g>
  <g transform="translate(82.0,72.39999999999999)" fill="white" stroke="white" stroke-width="0" opacity="0.12">
    <g transform="scale(0.109375)">
      <path d="M152,92a36,36,0,1,0-36-36A36,36,0,0,0,152,92Zm0-48a12,12,0,1,1-12,12A12,12,0,0,1,152,44Zm76,93.4a12,12,0,0,1-7,10.91,66,66,0,0,1-21.47,3.78c-14,0-34.25-3.82-59.77-19a177,177,0,0,1-10.27,21C153.12,162.83,188,183.8,188,232a12,12,0,0,1-24,0c0-18.69-6.95-33.06-21.26-43.94-9.16-7-19.55-11-27.43-13.34-.81,1-1.64,2-2.5,2.95-20,22.87-44.82,34.76-72.25,34.76a97.33,97.33,0,0,1-9.75-.49,12,12,0,1,1,2.39-23.88c52.3,5.22,77.48-45.92,85.79-67.75C84.8,102.46,63.74,118.78,63.51,119a12,12,0,0,1-15-18.72C50.08,99,88,69.44,142.75,106.62c43.1,29.31,68.1,19.92,68.5,19.76a12,12,0,0,1,16.75,11Z"/>
    </g>
  </g>
</svg>