<svg xmlns="http://www.w3.org/2000/svg" width="120" height="103.92" viewBox="0 0 120 103.92">
  <g transform="translate(-14.00,-14.00)" fill="white" stroke="white" stroke-width="0" opacity="0.12">
    <g transform="scale(0.109375)">
      <path d="M252,92.68a19.86,19.86,0,0,0-5.86-14.14L177.46,9.85a20,20,0,0,0-28.29,0L121.35,37.67,64.11,59.14A20,20,0,0,0,51.4,74.58L28.16,214A12,12,0,0,0,40,228a11.9,11.9,0,0,0,2-.16l139.45-23.25a20.07,20.07,0,0,0,15.44-12.7l21.46-57.25,27.82-27.82A19.85,19.85,0,0,0,252,92.68ZM175.2,181.3,75,198l33-33a34,34,0,1,0-17-17L58,181,74.7,80.8,125,61.94,194.05,131ZM112,134a10,10,0,1,1,10,10A10,10,0,0,1,112,134Zm96-23L145,48l18.34-18.34,63,63Z"/>
    </g>
  </g>
  <g transform="translate(-14.00,89.92)" fill="white" stroke="white" stroke-width="0" opacity="0.12">
    <g transform="scale(0.109375)">
      <path d="M252,92.68a19.86,19.86,0,0,0-5.86-14.14L177.46,9.85a20,20,0,0,0-28.29,0L121.35,37.67,64.11,59.14A20,20,0,0,0,51.4,74.58L28.16,214A12,12,0,0,0,40,228a11.9,11.9,0,0,0,2-.16l139.45-23.25a20.07,20.07,0,0,0,15.44-12.7l21.46-57.25,27.82-27.82A19.85,19.85,0,0,0,252,92.68ZM175.2,181.3,75,198l33-33a34,34,0,1,0-17-17L58,181,74.7,80.8,125,61.94,194.05,131ZM112,134a10,10,0,1,1,10,10A10,10,0,0,1,112,134Zm96-23L145,48l18.34-18.34,63,63Z"/>
    </g>
  </g>
  <g transform="translate(106.00,-14.00)" fill="white" stroke="white" stroke-width="0" opacity="0.12">
    <g transform="scale(0.109375)">
      <path d="M252,92.68a19.86,19.86,0,0,0-5.86-14.14L177.46,9.85a20,20,0,0,0-28.29,0L121.35,37.67,64.11,59.14A20,20,0,0,0,51.4,74.58L28.16,214A12,12,0,0,0,40,228a11.9,11.9,0,0,0,2-.16l139.45-23.25a20.07,20.07,0,0,0,15.44-12.7l21.46-57.25,27.82-27.82A19.85,19.85,0,0,0,252,92.68ZM175.2,181.3,75,198l33-33a34,34,0,1,0-17-17L58,181,74.7,80.8,125,61.94,194.05,131ZM112,134a10,10,0,1,1,10,10A10,10,0,0,1,112,134Zm96-23L145,48l18.34-18.34,63,63Z"/>
    </g>
  </g>
  <g transform="translate(106.00,89.92)" fill="white" stroke="white" stroke-width="0" opacity="0.12">
    <g transform="scale(0.109375)">
      <path d="M252,92.68a19.86,19.86,0,0,0-5.86-14.14L177.46,9.85a20,20,0,0,0-28.29,0L121.35,37.67,64.11,59.14A20,20,0,0,0,51.4,74.58L28.16,214A12,12,0,0,0,40,228a11.9,11.9,0,0,0,2-.16l139.45-23.25a20.07,20.07,0,0,0,15.44-12.7l21.46-57.25,27.82-27.82A19.85,19.85,0,0,0,252,92.68ZM175.2,181.3,75,198l33-33a34,34,0,1,0-17-17L58,181,74.7,80.8,125,61.94,194.05,131ZM112,134a10,10,0,1,1,10,10A10,10,0,0,1,112,134Zm96-23L145,48l18.34-18.34,63,63Z"/>
    </g>
  </g>
  <g transform="translate(46.00,-14.00)" fill="white" stroke="white" stroke-width="0" opacity="0.12">
    <g transform="scale(0.109375)">
      <path d="M238.15,70.54,185.46,17.86a20,20,0,0,0-28.29,0L17.85,157.17a20,20,0,0,0,0,28.29l52.69,52.68a20,20,0,0,0,28.29,0L238.15,98.83A20,20,0,0,0,238.15,70.54ZM84.68,218.34l-47-47L64,145l23.52,23.52a12,12,0,0,0,17-17L81,128l15-15,23.51,23.52a12,12,0,0,0,17-17L113,96l15-15,23.52,23.52a12,12,0,0,0,17-17L145,64l26.35-26.34,47,47Z"/>
    </g>
  </g>
  <g transform="translate(46.00,89.92)" fill="white" stroke="white" stroke-width="0" opacity="0.12">
    <g transform="scale(0.109375)">
      <path d="M238.15,70.54,185.46,17.86a20,20,0,0,0-28.29,0L17.85,157.17a20,20,0,0,0,0,28.29l52.69,52.68a20,20,0,0,0,28.29,0L238.15,98.83A20,20,0,0,0,238.15,70.54ZM84.68,218.34l-47-47L64,145l23.52,23.52a12,12,0,0,0,17-17L81,128l15-15,23.51,23.52a12,12,0,0,0,17-17L113,96l15-15,23.52,23.52a12,12,0,0,0,17-17L145,64l26.35-26.34,47,47Z"/>
    </g>
  </g>
  <g transform="translate(16.00,37.96)" fill="white" stroke="white" stroke-width="0" opacity="0.12">
    <g transform="scale(0.109375)">
      <path d="M218.68,125.46a12,12,0,1,0-21.37-10.92,75.15,75.15,0,0,1-27.66,29.64l-13.5-30.39A44,44,0,0,0,140,37.68V24a12,12,0,0,0-24,0V37.68a44,44,0,0,0-16.15,76.11L53,219.12A12,12,0,0,0,59.13,235,11.86,11.86,0,0,0,64,236a12,12,0,0,0,11-7.13l23.67-53.26A99.52,99.52,0,0,0,128,180a102.81,102.81,0,0,0,29.39-4.32L181,228.87A12,12,0,0,0,192,236a11.85,11.85,0,0,0,4.86-1A12,12,0,0,0,203,219.12l-23.51-52.9A99.39,99.39,0,0,0,218.68,125.46ZM128,60a20,20,0,1,1-20,20A20,20,0,0,1,128,60Zm0,96a75.8,75.8,0,0,1-19.52-2.53l13.3-29.92a43.21,43.21,0,0,0,12.44,0l13.33,30A79.11,79.11,0,0,1,128,156Z"/>
    </g>
  </g>
  <g transform="translate(76.00,37.96)" fill="white" stroke="white" stroke-width="0" opacity="0.12">
    <g transform="scale(0.109375)">
      <path d="M252,92.68a19.86,19.86,0,0,0-5.86-14.14L177.46,9.85a20,20,0,0,0-28.29,0L121.35,37.67,64.11,59.14A20,20,0,0,0,51.4,74.58L28.16,214A12,12,0,0,0,40,228a11.9,11.9,0,0,0,2-.16l139.45-23.25a20.07,20.07,0,0,0,15.44-12.7l21.46-57.25,27.82-27.82A19.85,19.85,0,0,0,252,92.68ZM175.2,181.3,75,198l33-33a34,34,0,1,0-17-17L58,181,74.7,80.8,125,61.94,194.05,131ZM112,134a10,10,0,1,1,10,10A10,10,0,0,1,112,134Zm96-23L145,48l18.34-18.34,63,63Z"/>
    </g>
  </g>
</svg>