<svg xmlns="http://www.w3.org/2000/svg" width="120" height="103.92" viewBox="0 0 120 103.92">
  <g transform="translate(-14.00,-14.00)" fill="white" stroke="white" stroke-width="0" opacity="0.12">
    <g transform="scale(0.109375)">
      <path d="M203.57,51A107.9,107.9,0,0,0,20,128c0,44.72,27.6,82.25,72,97.94A36,36,0,0,0,140,192a12,12,0,0,1,12-12h46.21a35.79,35.79,0,0,0,35.1-28A108.6,108.6,0,0,0,236,127.09,107.23,107.23,0,0,0,203.57,51Zm6.34,95.67a11.91,11.91,0,0,1-11.7,9.3H152a36,36,0,0,0-36,36,12,12,0,0,1-16,11.3c-16.65-5.88-30.65-15.76-40.48-28.56A76,76,0,0,1,44,128a84,84,0,0,1,83.13-84H128a84.35,84.35,0,0,1,84,83.29A84.72,84.72,0,0,1,209.91,146.71ZM144,76a16,16,0,1,1-16-16A16,16,0,0,1,144,76Zm-44,24A16,16,0,1,1,84,84,16,16,0,0,1,100,100Zm0,56a16,16,0,1,1-16-16A16,16,0,0,1,100,156Zm88-56a16,16,0,1,1-16-16A16,16,0,0,1,188,100Z"/>
    </g>
  </g>
  <g transform="translate(-14.00,89.92)" fill="white" stroke="white" stroke-width="0" opacity="0.12">
    <g transform="scale(0.109375)">
      <path d="M203.57,51A107.9,107.9,0,0,0,20,128c0,44.72,27.6,82.25,72,97.94A36,36,0,0,0,140,192a12,12,0,0,1,12-12h46.21a35.79,35.79,0,0,0,35.1-28A108.6,108.6,0,0,0,236,127.09,107.23,107.23,0,0,0,203.57,51Zm6.34,95.67a11.91,11.91,0,0,1-11.7,9.3H152a36,36,0,0,0-36,36,12,12,0,0,1-16,11.3c-16.65-5.88-30.65-15.76-40.48-28.56A76,76,0,0,1,44,128a84,84,0,0,1,83.13-84H128a84.35,84.35,0,0,1,84,83.29A84.72,84.72,0,0,1,209.91,146.71ZM144,76a16,16,0,1,1-16-16A16,16,0,0,1,144,76Zm-44,24A16,16,0,1,1,84,84,16,16,0,0,1,100,100Zm0,56a16,16,0,1,1-16-16A16,16,0,0,1,100,156Zm88-56a16,16,0,1,1-16-16A16,16,0,0,1,188,100Z"/>
    </g>
  </g>
  <g transform="translate(106.00,-14.00)" fill="white" stroke="white" stroke-width="0" opacity="0.12">
    <g transform="scale(0.109375)">
      <path d="M203.57,51A107.9,107.9,0,0,0,20,128c0,44.72,27.6,82.25,72,97.94A36,36,0,0,0,140,192a12,12,0,0,1,12-12h46.21a35.79,35.79,0,0,0,35.1-28A108.6,108.6,0,0,0,236,127.09,107.23,107.23,0,0,0,203.57,51Zm6.34,95.67a11.91,11.91,0,0,1-11.7,9.3H152a36,36,0,0,0-36,36,12,12,0,0,1-16,11.3c-16.65-5.88-30.65-15.76-40.48-28.56A76,76,0,0,1,44,128a84,84,0,0,1,83.13-84H128a84.35,84.35,0,0,1,84,83.29A84.72,84.72,0,0,1,209.91,146.71ZM144,76a16,16,0,1,1-16-16A16,16,0,0,1,144,76Zm-44,24A16,16,0,1,1,84,84,16,16,0,0,1,100,100Zm0,56a16,16,0,1,1-16-16A16,16,0,0,1,100,156Zm88-56a16,16,0,1,1-16-16A16,16,0,0,1,188,100Z"/>
    </g>
  </g>
  <g transform="translate(106.00,89.92)" fill="white" stroke="white" stroke-width="0" opacity="0.12">
    <g transform="scale(0.109375)">
      <path d="M203.57,51A107.9,107.9,0,0,0,20,128c0,44.72,27.6,82.25,72,97.94A36,36,0,0,0,140,192a12,12,0,0,1,12-12h46.21a35.79,35.79,0,0,0,35.1-28A108.6,108.6,0,0,0,236,127.09,107.23,107.23,0,0,0,203.57,51Zm6.34,95.67a11.91,11.91,0,0,1-11.7,9.3H152a36,36,0,0,0-36,36,12,12,0,0,1-16,11.3c-16.65-5.88-30.65-15.76-40.48-28.56A76,76,0,0,1,44,128a84,84,0,0,1,83.13-84H128a84.35,84.35,0,0,1,84,83.29A84.72,84.72,0,0,1,209.91,146.71ZM144,76a16,16,0,1,1-16-16A16,16,0,0,1,144,76Zm-44,24A16,16,0,1,1,84,84,16,16,0,0,1,100,100Zm0,56a16,16,0,1,1-16-16A16,16,0,0,1,100,156Zm88-56a16,16,0,1,1-16-16A16,16,0,0,1,188,100Z"/>
    </g>
  </g>
  <g transform="translate(46.00,-14.00)" fill="white" stroke="white" stroke-width="0" opacity="0.12">
    <g transform="scale(0.109375)">
      <path d="M236,32a12,12,0,0,0-12-12c-44.78,0-90,48.54-115.9,82a64,64,0,0,0-80,62c0,12-3.1,22.71-9.23,31.76A43,43,0,0,1,9.4,206.05a11.88,11.88,0,0,0-4.91,13.38A12.07,12.07,0,0,0,16.11,228h76A64,64,0,0,0,154,148C187.49,122.05,236,76.8,236,32ZM209.62,46.39c-4,12.92-13.15,27.49-26.92,42.91-3,3.39-6.16,6.7-9.35,9.89a104.31,104.31,0,0,0-16.5-16.51c3.19-3.19,6.49-6.32,9.88-9.35C182.15,59.55,196.71,50.43,209.62,46.39ZM92.07,204H42a80.17,80.17,0,0,0,10.14-40,40,40,0,1,1,40,40Zm38.18-91.32c3.12-3.93,6.55-8.09,10.23-12.35a80.52,80.52,0,0,1,15.23,15.24c-4.26,3.68-8.42,7.11-12.35,10.23A64.43,64.43,0,0,0,130.25,112.68Z"/>
    </g>
  </g>
  <g transform="translate(46.00,89.92)" fill="white" stroke="white" stroke-width="0" opacity="0.12">
    <g transform="scale(0.109375)">
      <path d="M236,32a12,12,0,0,0-12-12c-44.78,0-90,48.54-115.9,82a64,64,0,0,0-80,62c0,12-3.1,22.71-9.23,31.76A43,43,0,0,1,9.4,206.05a11.88,11.88,0,0,0-4.91,13.38A12.07,12.07,0,0,0,16.11,228h76A64,64,0,0,0,154,148C187.49,122.05,236,76.8,236,32ZM209.62,46.39c-4,12.92-13.15,27.49-26.92,42.91-3,3.39-6.16,6.7-9.35,9.89a104.31,104.31,0,0,0-16.5-16.51c3.19-3.19,6.49-6.32,9.88-9.35C182.15,59.55,196.71,50.43,209.62,46.39ZM92.07,204H42a80.17,80.17,0,0,0,10.14-40,40,40,0,1,1,40,40Zm38.18-91.32c3.12-3.93,6.55-8.09,10.23-12.35a80.52,80.52,0,0,1,15.23,15.24c-4.26,3.68-8.42,7.11-12.35,10.23A64.43,64.43,0,0,0,130.25,112.68Z"/>
    </g>
  </g>
  <g transform="translate(16.00,37.96)" fill="white" stroke="white" stroke-width="0" opacity="0.12">
    <g transform="scale(0.109375)">
      <path d="M203.57,51A107.9,107.9,0,0,0,20,128c0,44.72,27.6,82.25,72,97.94A36,36,0,0,0,140,192a12,12,0,0,1,12-12h46.21a35.79,35.79,0,0,0,35.1-28A108.6,108.6,0,0,0,236,127.09,107.23,107.23,0,0,0,203.57,51Zm6.34,95.67a11.91,11.91,0,0,1-11.7,9.3H152a36,36,0,0,0-36,36,12,12,0,0,1-16,11.3c-16.65-5.88-30.65-15.76-40.48-28.56A76,76,0,0,1,44,128a84,84,0,0,1,83.13-84H128a84.35,84.35,0,0,1,84,83.29A84.72,84.72,0,0,1,209.91,146.71ZM144,76a16,16,0,1,1-16-16A16,16,0,0,1,144,76Zm-44,24A16,16,0,1,1,84,84,16,16,0,0,1,100,100Zm0,56a16,16,0,1,1-16-16A16,16,0,0,1,100,156Zm88-56a16,16,0,1,1-16-16A16,16,0,0,1,188,100Z"/>
    </g>
  </g>
  <g transform="translate(76.00,37.96)" fill="white" stroke="white" stroke-width="0" opacity="0.12">
    <g transform="scale(0.109375)">
      <path d="M236,32a12,12,0,0,0-12-12c-44.78,0-90,48.54-115.9,82a64,64,0,0,0-80,62c0,12-3.1,22.71-9.23,31.76A43,43,0,0,1,9.4,206.05a11.88,11.88,0,0,0-4.91,13.38A12.07,12.07,0,0,0,16.11,228h76A64,64,0,0,0,154,148C187.49,122.05,236,76.8,236,32ZM209.62,46.39c-4,12.92-13.15,27.49-26.92,42.91-3,3.39-6.16,6.7-9.35,9.89a104.31,104.31,0,0,0-16.5-16.51c3.19-3.19,6.49-6.32,9.88-9.35C182.15,59.55,196.71,50.43,209.62,46.39ZM92.07,204H42a80.17,80.17,0,0,0,10.14-40,40,40,0,1,1,40,40Zm38.18-91.32c3.12-3.93,6.55-8.09,10.23-12.35a80.52,80.52,0,0,1,15.23,15.24c-4.26,3.68-8.42,7.11-12.35,10.23A64.43,64.43,0,0,0,130.25,112.68Z"/>
    </g>
  </g>
</svg>