<svg xmlns="http://www.w3.org/2000/svg" width="120" height="103.92" viewBox="0 0 120 103.92">
  <g transform="translate(-14.00,-14.00)" fill="white" stroke="white" stroke-width="0" opacity="0.12">
    <g transform="scale(0.109375)">
      <path d="M240,204H228V96a20,20,0,0,0-20-20H172V32a20,20,0,0,0-28.45-18.12l-104,48.54A20.06,20.06,0,0,0,28,80.55V204H16a12,12,0,0,0,0,24H240a12,12,0,0,0,0-24ZM204,100V204H172V100ZM52,83.09,148,38.3V204H52ZM132,112v12a12,12,0,0,1-24,0V112a12,12,0,0,1,24,0Zm-40,0v12a12,12,0,0,1-24,0V112a12,12,0,0,1,24,0Zm0,52v12a12,12,0,0,1-24,0V164a12,12,0,0,1,24,0Zm40,0v12a12,12,0,0,1-24,0V164a12,12,0,0,1,24,0Z"/>
    </g>
  </g>
  <g transform="translate(46.00,-14.00)" fill="white" stroke="white" stroke-width="0" opacity="0.12">
    <g transform="scale(0.109375)">
      <path d="M100,100a12,12,0,0,1,12-12h32a12,12,0,0,1,0,24H112A12,12,0,0,1,100,100ZM236,68V196a20,20,0,0,1-20,20H40a20,20,0,0,1-20-20V68A20,20,0,0,1,40,48H76V40a28,28,0,0,1,28-28h48a28,28,0,0,1,28,28v8h36A20,20,0,0,1,236,68ZM100,48h56V40a4,4,0,0,0-4-4H104a4,4,0,0,0-4,4ZM44,72v35.23A180.06,180.06,0,0,0,128,128a180,180,0,0,0,84-20.78V72ZM212,192V133.94A204.27,204.27,0,0,1,128,152a204.21,204.21,0,0,1-84-18.06V192Z"/>
    </g>
  </g>
  <g transform="translate(16.00,37.96)" fill="white" stroke="white" stroke-width="0" opacity="0.12">
    <g transform="scale(0.109375)">
      <path d="M236,208a12,12,0,0,1-12,12H32a12,12,0,0,1-12-12V48a12,12,0,0,1,24,0v99l43.51-43.52a12,12,0,0,1,17,0L128,127l43-43H160a12,12,0,0,1,0-24h40a12,12,0,0,1,12,12v40a12,12,0,0,1-24,0V101l-51.51,51.52a12,12,0,0,1-17,0L96,129,44,181v15H224A12,12,0,0,1,236,208Z"/>
    </g>
  </g>
  <g transform="translate(76.00,37.96)" fill="white" stroke="white" stroke-width="0" opacity="0.12">
    <g transform="scale(0.109375)">
      <path d="M240,204H228V96a20,20,0,0,0-20-20H172V32a20,20,0,0,0-28.45-18.12l-104,48.54A20.06,20.06,0,0,0,28,80.55V204H16a12,12,0,0,0,0,24H240a12,12,0,0,0,0-24ZM204,100V204H172V100ZM52,83.09,148,38.3V204H52ZM132,112v12a12,12,0,0,1-24,0V112a12,12,0,0,1,24,0Zm-40,0v12a12,12,0,0,1-24,0V112a12,12,0,0,1,24,0Zm0,52v12a12,12,0,0,1-24,0V164a12,12,0,0,1,24,0Zm40,0v12a12,12,0,0,1-24,0V164a12,12,0,0,1,24,0Z"/>
    </g>
  </g>
</svg>