<svg xmlns="http://www.w3.org/2000/svg" width="120" height="103.92" viewBox="0 0 120 103.92">
  <g transform="translate(-14.00,-14.00)" fill="white" stroke="white" stroke-width="0" opacity="0.12">
    <g transform="scale(0.109375)">
      <path d="M243.14,131.54l-32-80h0a12,12,0,0,0-13.73-7.25L140,57V40a12,12,0,0,0-24,0V62.37L53.4,76.29a12,12,0,0,0-8.54,7.25h0l0,0v0l-32,79.92A12,12,0,0,0,12,168c0,12.13,6.2,22.43,17.45,29A55,55,0,0,0,56,204a55,55,0,0,0,26.55-7C93.8,190.43,100,180.13,100,168a12,12,0,0,0-.86-4.46L72.38,96.65,116,87V204H104a12,12,0,0,0,0,24h48a12,12,0,0,0,0-24H140V81.63l40.42-9-23.56,58.9A12,12,0,0,0,156,136c0,12.13,6.2,22.43,17.45,29a53.78,53.78,0,0,0,53.1,0C237.8,158.43,244,148.13,244,136A12,12,0,0,0,243.14,131.54ZM56,180c-3.71,0-18-1.87-19.81-10.18L56,120.31l19.81,49.51C74,178.13,59.71,180,56,180Zm144-32c-3.71,0-18-1.87-19.81-10.18L200,88.31l19.81,49.51C218,146.13,203.71,148,200,148Z"/>
    </g>
  </g>
  <g transform="translate(46.00,-14.00)" fill="white" stroke="white" stroke-width="0" opacity="0.12">
    <g transform="scale(0.109375)">
      <path d="M246.14,113.86l-16-16a20,20,0,0,0-23.06-3.75l-45.2-45.2a20,20,0,0,0-3.74-23.06l-16-16a20,20,0,0,0-28.28,0l-64,64a20,20,0,0,0,0,28.28l16,16a20,20,0,0,0,23,3.79L29.36,181.38a32,32,0,0,0,45.26,45.26L134,167.21a20,20,0,0,0,3.81,22.94l16,16a20,20,0,0,0,28.29,0l64-64a20,20,0,0,0,0-28.29ZM80,98.34,69.64,88,128,29.65,138.34,40ZM57.64,209.67a8,8,0,0,1-11.31-11.32l59.52-59.52,11.31,11.32Zm92.7-60.29-43.72-43.72,39-39,43.72,43.72Zm17.65,37L157.65,176,216,117.66,226.34,128Z"/>
    </g>
  </g>
  <g transform="translate(16.00,37.96)" fill="white" stroke="white" stroke-width="0" opacity="0.12">
    <g transform="scale(0.109375)">
      <path d="M92,92a12,12,0,0,1,12-12h60a12,12,0,0,1,0,24H104A12,12,0,0,1,92,92Zm12,52h60a12,12,0,0,0,0-24H104a12,12,0,0,0,0,24Zm132,48a36,36,0,0,1-36,36H88a36,36,0,0,1-36-36V64a12,12,0,0,0-24,0c0,3.73,3.35,6.51,3.38,6.54l-.18-.14h0A12,12,0,1,1,16.81,89.59h0C15.49,88.62,4,79.55,4,64A36,36,0,0,1,40,28H176a36,36,0,0,1,36,36V164h4a12,12,0,0,1,7.2,2.4C224.51,167.38,236,176.45,236,192ZM92.62,172.2A12,12,0,0,1,104,164h84V64a12,12,0,0,0-12-12H73.94A35.88,35.88,0,0,1,76,64V192a12,12,0,0,0,24,0c0-3.58-3.17-6.38-3.2-6.4A12,12,0,0,1,92.62,172.2ZM212,192a7.69,7.69,0,0,0-1.24-4h-87a30.32,30.32,0,0,1,.26,4,35.84,35.84,0,0,1-2.06,12H200A12,12,0,0,0,212,192Z"/>
    </g>
  </g>
  <g transform="translate(76.00,37.96)" fill="white" stroke="white" stroke-width="0" opacity="0.12">
    <g transform="scale(0.109375)">
      <path d="M243.14,131.54l-32-80h0a12,12,0,0,0-13.73-7.25L140,57V40a12,12,0,0,0-24,0V62.37L53.4,76.29a12,12,0,0,0-8.54,7.25h0l0,0v0l-32,79.92A12,12,0,0,0,12,168c0,12.13,6.2,22.43,17.45,29A55,55,0,0,0,56,204a55,55,0,0,0,26.55-7C93.8,190.43,100,180.13,100,168a12,12,0,0,0-.86-4.46L72.38,96.65,116,87V204H104a12,12,0,0,0,0,24h48a12,12,0,0,0,0-24H140V81.63l40.42-9-23.56,58.9A12,12,0,0,0,156,136c0,12.13,6.2,22.43,17.45,29a53.78,53.78,0,0,0,53.1,0C237.8,158.43,244,148.13,244,136A12,12,0,0,0,243.14,131.54ZM56,180c-3.71,0-18-1.87-19.81-10.18L56,120.31l19.81,49.51C74,178.13,59.71,180,56,180Zm144-32c-3.71,0-18-1.87-19.81-10.18L200,88.31l19.81,49.51C218,146.13,203.71,148,200,148Z"/>
    </g>
  </g>
</svg>