<svg xmlns="http://www.w3.org/2000/svg" width="120" height="103.92" viewBox="0 0 120 103.92">
  <g transform="translate(-14.00,-14.00)" fill="white" stroke="white" stroke-width="0" opacity="0.12">
    <g transform="scale(0.109375)">
      <path d="M230.47,67.5a12,12,0,0,0-19.26-4.32L172.43,99l-12.68-2.72L157,83.57l35.79-38.78a12,12,0,0,0-4.32-19.26A76.07,76.07,0,0,0,88.41,121.64L30.92,174.18a4.68,4.68,0,0,0-.39.38,36,36,0,0,0,50.91,50.91l.38-.39,52.54-57.49A76.05,76.05,0,0,0,230.47,67.5ZM160,148a51.5,51.5,0,0,1-23.35-5.52,12,12,0,0,0-14.26,2.62L64.31,208.66a12,12,0,0,1-17-17l63.55-58.07a12,12,0,0,0,2.62-14.26A51.5,51.5,0,0,1,108,96a52.06,52.06,0,0,1,52-52h.89L135.17,71.87a12,12,0,0,0-2.91,10.65l5.66,26.35a12,12,0,0,0,9.21,9.21l26.35,5.66a12,12,0,0,0,10.65-2.91L212,95.12c0,.3,0,.59,0,.89A52.06,52.06,0,0,1,160,148Z"/>
    </g>
  </g>
  <g transform="translate(46.00,-14.00)" fill="white" stroke="white" stroke-width="0" opacity="0.12">
    <g transform="scale(0.109375)">
      <path d="M250.18,105.17,186.71,41.25a100.11,100.11,0,0,0-141.43,0l-.13.14L31.37,55.61a12,12,0,1,0,17.24,16.7L62.32,58.16A75.68,75.68,0,0,1,77.49,46.43L119,88,25.85,181.16a20,20,0,0,0,0,28.29l20.69,20.69a20,20,0,0,0,28.28,0L168,137l1.51,1.51h0l23.65,23.66a20,20,0,0,0,28.29,0l28.69-28.7A20,20,0,0,0,250.18,105.17ZM60.68,210.34l-15-15L108,133l15,15ZM140,131l-15-15,19.51-19.51a12,12,0,0,0,0-17L102.24,37.24a75.94,75.94,0,0,1,67.47,20.95l31.44,31.67L178,113l-1.51-1.51a12,12,0,0,0-17,0Zm67.32,11.31L195,130l23.09-23.09,12.3,12.39Z"/>
    </g>
  </g>
  <g transform="translate(16.00,37.96)" fill="white" stroke="white" stroke-width="0" opacity="0.12">
    <g transform="scale(0.109375)">
      <path d="M240.49,63.51a12,12,0,0,0-17,0L192,95,161,64l31.52-31.51a12,12,0,0,0-17-17L144,47,120.49,23.51a12,12,0,1,0-17,17L107,44,56.89,94.14a44,44,0,0,0,0,62.23l12.88,12.88L23.51,215.51a12,12,0,0,0,17,17l46.26-46.26,12.88,12.88a44,44,0,0,0,62.23,0L212,149l3.51,3.52a12,12,0,0,0,17-17L209,112l31.52-31.51A12,12,0,0,0,240.49,63.51Zm-95.6,118.63a20,20,0,0,1-28.29,0L73.86,139.4a20,20,0,0,1,0-28.29L124,61l71,71Z"/>
    </g>
  </g>
  <g transform="translate(76.00,37.96)" fill="white" stroke="white" stroke-width="0" opacity="0.12">
    <g transform="scale(0.109375)">
      <path d="M230.47,67.5a12,12,0,0,0-19.26-4.32L172.43,99l-12.68-2.72L157,83.57l35.79-38.78a12,12,0,0,0-4.32-19.26A76.07,76.07,0,0,0,88.41,121.64L30.92,174.18a4.68,4.68,0,0,0-.39.38,36,36,0,0,0,50.91,50.91l.38-.39,52.54-57.49A76.05,76.05,0,0,0,230.47,67.5ZM160,148a51.5,51.5,0,0,1-23.35-5.52,12,12,0,0,0-14.26,2.62L64.31,208.66a12,12,0,0,1-17-17l63.55-58.07a12,12,0,0,0,2.62-14.26A51.5,51.5,0,0,1,108,96a52.06,52.06,0,0,1,52-52h.89L135.17,71.87a12,12,0,0,0-2.91,10.65l5.66,26.35a12,12,0,0,0,9.21,9.21l26.35,5.66a12,12,0,0,0,10.65-2.91L212,95.12c0,.3,0,.59,0,.89A52.06,52.06,0,0,1,160,148Z"/>
    </g>
  </g>
</svg>