<svg xmlns="http://www.w3.org/2000/svg" width="120" height="103.92" viewBox="0 0 120 103.92">
  <g transform="translate(-14.00,-14.00)" fill="white" stroke="white" stroke-width="0" opacity="0.12">
    <g transform="scale(0.109375)">
      <path d="M237.37,125.27,164,88.58V48a36,36,0,0,0-72,0V88.58L18.63,125.27A12,12,0,0,0,12,136v32a12,12,0,0,0,14.35,11.77L92,166.64V179L79.51,191.51A12,12,0,0,0,76,200v32a12,12,0,0,0,16.46,11.14L128,228.92l35.54,14.22A11.91,11.91,0,0,0,168,244a12,12,0,0,0,12-12V200a12,12,0,0,0-3.51-8.49L164,179V166.64l65.65,13.13A12,12,0,0,0,244,168V136A12,12,0,0,0,237.37,125.27ZM220,153.36l-65.65-13.13A12,12,0,0,0,140,152v32a12,12,0,0,0,3.51,8.49L156,205v9.31l-23.54-9.42a12,12,0,0,0-8.92,0L100,214.28V205l12.49-12.48A12,12,0,0,0,116,184V152a12,12,0,0,0-14.35-11.77L36,153.36v-9.94l73.37-36.69A12,12,0,0,0,116,96V48a12,12,0,0,1,24,0V96a12,12,0,0,0,6.63,10.73L220,143.42Z"/>
    </g>
  </g>
  <g transform="translate(46.00,-14.00)" fill="white" stroke="white" stroke-width="0" opacity="0.12">
    <g transform="scale(0.109375)">
      <path d="M231.38,46.54a12,12,0,0,0-10.29-2.18L161.4,59.28l-60-30a12,12,0,0,0-8.28-.91l-64,16A12,12,0,0,0,20,56V200a12,12,0,0,0,14.91,11.64L94.6,196.72l60,30a12,12,0,0,0,8.28.91l64-16A12,12,0,0,0,236,200V56A12,12,0,0,0,231.38,46.54ZM108,59.42l40,20V196.58l-40-20Zm-64,6,40-10V174.63l-40,10ZM212,190.63l-40,10V81.37l40-10Z"/>
    </g>
  </g>
  <g transform="translate(16.00,37.96)" fill="white" stroke="white" stroke-width="0" opacity="0.12">
    <g transform="scale(0.109375)">
      <path d="M208,52H182.42L170,33.34A12,12,0,0,0,160,28H96a12,12,0,0,0-10,5.34L73.57,52H48A28,28,0,0,0,20,80V192a28,28,0,0,0,28,28H208a28,28,0,0,0,28-28V80A28,28,0,0,0,208,52Zm4,140a4,4,0,0,1-4,4H48a4,4,0,0,1-4-4V80a4,4,0,0,1,4-4H80a12,12,0,0,0,10-5.34L102.42,52h51.15L166,70.66A12,12,0,0,0,176,76h32a4,4,0,0,1,4,4ZM128,84a48,48,0,1,0,48,48A48.05,48.05,0,0,0,128,84Zm0,72a24,24,0,1,1,24-24A24,24,0,0,1,128,156Z"/>
    </g>
  </g>
  <g transform="translate(76.00,37.96)" fill="white" stroke="white" stroke-width="0" opacity="0.12">
    <g transform="scale(0.109375)">
      <path d="M237.37,125.27,164,88.58V48a36,36,0,0,0-72,0V88.58L18.63,125.27A12,12,0,0,0,12,136v32a12,12,0,0,0,14.35,11.77L92,166.64V179L79.51,191.51A12,12,0,0,0,76,200v32a12,12,0,0,0,16.46,11.14L128,228.92l35.54,14.22A11.91,11.91,0,0,0,168,244a12,12,0,0,0,12-12V200a12,12,0,0,0-3.51-8.49L164,179V166.64l65.65,13.13A12,12,0,0,0,244,168V136A12,12,0,0,0,237.37,125.27ZM220,153.36l-65.65-13.13A12,12,0,0,0,140,152v32a12,12,0,0,0,3.51,8.49L156,205v9.31l-23.54-9.42a12,12,0,0,0-8.92,0L100,214.28V205l12.49-12.48A12,12,0,0,0,116,184V152a12,12,0,0,0-14.35-11.77L36,153.36v-9.94l73.37-36.69A12,12,0,0,0,116,96V48a12,12,0,0,1,24,0V96a12,12,0,0,0,6.63,10.73L220,143.42Z"/>
    </g>
  </g>
</svg>