<svg xmlns="http://www.w3.org/2000/svg" width="120" height="103.92" viewBox="0 0 120 103.92">
  <g transform="translate(-14.00,-14.00)" fill="white" stroke="white" stroke-width="0" opacity="0.12">
    <g transform="scale(0.109375)">
      <path d="M212,68H36V48a12,12,0,0,0-24,0V208a12,12,0,0,0,24,0V180H232v28a12,12,0,0,0,24,0V112A44.05,44.05,0,0,0,212,68ZM100,156H36V92h64Zm132,0H124V92h88a20,20,0,0,1,20,20Z"/>
    </g>
  </g>
  <g transform="translate(46.00,-14.00)" fill="white" stroke="white" stroke-width="0" opacity="0.12">
    <g transform="scale(0.109375)">
      <path d="M68,88V40a12,12,0,0,1,24,0V88a12,12,0,0,1-24,0ZM220,40V224a12,12,0,0,1-24,0V180H152a12,12,0,0,1-12-12,273.23,273.23,0,0,1,7.33-57.82C157.42,68.42,176.76,40.33,203.27,29A12,12,0,0,1,220,40ZM196,62.92C182.6,77,175,98,170.77,115.38A254.41,254.41,0,0,0,164.55,156H196ZM128,39A12,12,0,0,0,104,41l4,47.46a28,28,0,0,1-56,0L56,41A12,12,0,1,0,32,39L28,87c0,.34,0,.67,0,1a52.1,52.1,0,0,0,40,50.59V224a12,12,0,0,0,24,0V138.59A52.1,52.1,0,0,0,132,88c0-.33,0-.66,0-1Z"/>
    </g>
  </g>
  <g transform="translate(16.00,37.96)" fill="white" stroke="white" stroke-width="0" opacity="0.12">
    <g transform="scale(0.109375)">
      <path d="M225.29,165.93C216.61,151,212,129.57,212,104a84,84,0,0,0-168,0c0,25.58-4.59,47-13.27,61.93A20.08,20.08,0,0,0,30.66,186,19.77,19.77,0,0,0,48,196H208a19.77,19.77,0,0,0,17.31-10A20.08,20.08,0,0,0,225.29,165.93ZM54.66,172C63.51,154,68,131.14,68,104a60,60,0,0,1,120,0c0,27.13,4.48,50,13.33,68ZM172,224a12,12,0,0,1-12,12H96a12,12,0,0,1,0-24h64A12,12,0,0,1,172,224Z"/>
    </g>
  </g>
  <g transform="translate(76.00,37.96)" fill="white" stroke="white" stroke-width="0" opacity="0.12">
    <g transform="scale(0.109375)">
      <path d="M212,68H36V48a12,12,0,0,0-24,0V208a12,12,0,0,0,24,0V180H232v28a12,12,0,0,0,24,0V112A44.05,44.05,0,0,0,212,68ZM100,156H36V92h64Zm132,0H124V92h88a20,20,0,0,1,20,20Z"/>
    </g>
  </g>
</svg>