<svg xmlns="http://www.w3.org/2000/svg" width="120" height="103.92" viewBox="0 0 120 103.92">
  <g transform="translate(-14.00,-14.00)" fill="white" stroke="white" stroke-width="0" opacity="0.12">
    <g transform="scale(0.109375)">
      <path d="M116,36V20a12,12,0,0,1,24,0V36a12,12,0,0,1-24,0Zm80,92a68,68,0,1,1-68-68A68.07,68.07,0,0,1,196,128Zm-24,0a44,44,0,1,0-44,44A44.05,44.05,0,0,0,172,128ZM51.51,68.49a12,12,0,1,0,17-17l-12-12a12,12,0,0,0-17,17Zm0,119-12,12a12,12,0,0,0,17,17l12-12a12,12,0,1,0-17-17ZM196,72a12,12,0,0,0,8.49-3.51l12-12a12,12,0,0,0-17-17l-12,12A12,12,0,0,0,196,72Zm8.49,115.51a12,12,0,0,0-17,17l12,12a12,12,0,0,0,17-17ZM48,128a12,12,0,0,0-12-12H20a12,12,0,0,0,0,24H36A12,12,0,0,0,48,128Zm80,80a12,12,0,0,0-12,12v16a12,12,0,0,0,24,0V220A12,12,0,0,0,128,208Zm108-92H220a12,12,0,0,0,0,24h16a12,12,0,0,0,0-24Z"/>
    </g>
  </g>
  <g transform="translate(46.00,-14.00)" fill="white" stroke="white" stroke-width="0" opacity="0.12">
    <g transform="scale(0.109375)">
      <path d="M212,76H32A12,12,0,0,0,20,88v48a100.24,100.24,0,0,0,26.73,68H32a12,12,0,0,0,0,24H208a12,12,0,0,0,0-24H193.27a100.75,100.75,0,0,0,20-32A44,44,0,0,0,256,128v-8A44.05,44.05,0,0,0,212,76Zm-16,60a76.27,76.27,0,0,1-42,68H86a76.27,76.27,0,0,1-42-68V100H196Zm36-8a20,20,0,0,1-12.57,18.55A97.17,97.17,0,0,0,220,136V101.68A20,20,0,0,1,232,120ZM68,48V24a12,12,0,0,1,24,0V48a12,12,0,0,1-24,0Zm40,0V24a12,12,0,0,1,24,0V48a12,12,0,0,1-24,0Zm40,0V24a12,12,0,0,1,24,0V48a12,12,0,0,1-24,0Z"/>
    </g>
  </g>
  <g transform="translate(16.00,37.96)" fill="white" stroke="white" stroke-width="0" opacity="0.12">
    <g transform="scale(0.109375)">
      <path d="M199,125.31l-49.88-18.39L130.69,57a19.92,19.92,0,0,0-37.38,0L74.92,106.92,25,125.31a19.92,19.92,0,0,0,0,37.38l49.88,18.39L93.31,231a19.92,19.92,0,0,0,37.38,0l18.39-49.88L199,162.69a19.92,19.92,0,0,0,0-37.38Zm-63.38,35.16a12,12,0,0,0-7.11,7.11L112,212.28l-16.47-44.7a12,12,0,0,0-7.11-7.11L43.72,144l44.7-16.47a12,12,0,0,0,7.11-7.11L112,75.72l16.47,44.7a12,12,0,0,0,7.11,7.11L180.28,144ZM140,40a12,12,0,0,1,12-12h12V16a12,12,0,0,1,24,0V28h12a12,12,0,0,1,0,24H188V64a12,12,0,0,1-24,0V52H152A12,12,0,0,1,140,40ZM252,88a12,12,0,0,1-12,12h-4v4a12,12,0,0,1-24,0v-4h-4a12,12,0,0,1,0-24h4V72a12,12,0,0,1,24,0v4h4A12,12,0,0,1,252,88Z"/>
    </g>
  </g>
  <g transform="translate(76.00,37.96)" fill="white" stroke="white" stroke-width="0" opacity="0.12">
    <g transform="scale(0.109375)">
      <path d="M116,36V20a12,12,0,0,1,24,0V36a12,12,0,0,1-24,0Zm80,92a68,68,0,1,1-68-68A68.07,68.07,0,0,1,196,128Zm-24,0a44,44,0,1,0-44,44A44.05,44.05,0,0,0,172,128ZM51.51,68.49a12,12,0,1,0,17-17l-12-12a12,12,0,0,0-17,17Zm0,119-12,12a12,12,0,0,0,17,17l12-12a12,12,0,1,0-17-17ZM196,72a12,12,0,0,0,8.49-3.51l12-12a12,12,0,0,0-17-17l-12,12A12,12,0,0,0,196,72Zm8.49,115.51a12,12,0,0,0-17,17l12,12a12,12,0,0,0,17-17ZM48,128a12,12,0,0,0-12-12H20a12,12,0,0,0,0,24H36A12,12,0,0,0,48,128Zm80,80a12,12,0,0,0-12,12v16a12,12,0,0,0,24,0V220A12,12,0,0,0,128,208Zm108-92H220a12,12,0,0,0,0,24h16a12,12,0,0,0,0-24Z"/>
    </g>
  </g>
</svg>