<svg xmlns="http://www.w3.org/2000/svg" width="120" height="103.92" viewBox="0 0 120 103.92">
  <g transform="translate(-14.00,-14.00)" fill="white" stroke="white" stroke-width="0" opacity="0.12">
    <g transform="scale(0.109375)">
      <path d="M196,208a12,12,0,0,1-12,12H56a12,12,0,0,1,0-24h4a24,24,0,0,0,24-24V140H56a12,12,0,0,1,0-24H84V84a56,56,0,0,1,91.63-43.21A12,12,0,0,1,160.35,59.3,31.66,31.66,0,0,0,140,52a32,32,0,0,0-32,32v32h28a12,12,0,0,1,0,24H108v32a47.74,47.74,0,0,1-6.44,24H184A12,12,0,0,1,196,208Z"/>
    </g>
  </g>
  <g transform="translate(46.00,-14.00)" fill="white" stroke="white" stroke-width="0" opacity="0.12">
    <g transform="scale(0.109375)">
      <path d="M236,208a12,12,0,0,1-12,12H32a12,12,0,0,1-12-12V48a12,12,0,0,1,24,0v85.55L88.1,95a12,12,0,0,1,15.1-.57l56.22,42.16L216.1,87A12,12,0,1,1,231.9,105l-64,56a12,12,0,0,1-15.1.57L96.58,119.44,44,165.45V196H224A12,12,0,0,1,236,208Z"/>
    </g>
  </g>
  <g transform="translate(16.00,37.96)" fill="white" stroke="white" stroke-width="0" opacity="0.12">
    <g transform="scale(0.109375)">
      <path d="M24,108H44v48H32a12,12,0,0,0,0,24H224a12,12,0,0,0,0-24H212V108h20a12,12,0,0,0,6.29-22.22l-104-64a12,12,0,0,0-12.58,0l-104,64A12,12,0,0,0,24,108Zm44,0H92v48H68Zm72,0v48H116V108Zm48,48H164V108h24ZM128,46.09,189.6,84H66.4ZM252,208a12,12,0,0,1-12,12H16a12,12,0,0,1,0-24H240A12,12,0,0,1,252,208Z"/>
    </g>
  </g>
  <g transform="translate(76.00,37.96)" fill="white" stroke="white" stroke-width="0" opacity="0.12">
    <g transform="scale(0.109375)">
      <path d="M196,208a12,12,0,0,1-12,12H56a12,12,0,0,1,0-24h4a24,24,0,0,0,24-24V140H56a12,12,0,0,1,0-24H84V84a56,56,0,0,1,91.63-43.21A12,12,0,0,1,160.35,59.3,31.66,31.66,0,0,0,140,52a32,32,0,0,0-32,32v32h28a12,12,0,0,1,0,24H108v32a47.74,47.74,0,0,1-6.44,24H184A12,12,0,0,1,196,208Z"/>
    </g>
  </g>
</svg>