<svg xmlns="http://www.w3.org/2000/svg" width="120" height="103.92" viewBox="0 0 120 103.92">
  <g transform="translate(-14.00,-14.00)" fill="white" stroke="white" stroke-width="0" opacity="0.12">
    <g transform="scale(0.109375)">
      <path d="M228,148.4V136a100.41,100.41,0,0,0-64-93.3V40a20,20,0,0,0-20-20H112A20,20,0,0,0,92,40v2.7A100.41,100.41,0,0,0,28,136v12.4A20,20,0,0,0,12,168v24a20,20,0,0,0,20,20H224a20,20,0,0,0,20-20V168A20,20,0,0,0,228,148.4ZM204,136v12H164V69.07A76.35,76.35,0,0,1,204,136ZM140,44V148H116V44ZM92,69.07V148H52V136A76.35,76.35,0,0,1,92,69.07ZM220,188H36V172H220Z"/>
    </g>
  </g>
  <g transform="translate(46.00,-14.00)" fill="white" stroke="white" stroke-width="0" opacity="0.12">
    <g transform="scale(0.109375)">
      <path d="M230.17,13.71a12,12,0,0,0-11.82-.3L101,76H32A20,20,0,0,0,12,96V200a20,20,0,0,0,20,20h88a20,20,0,0,0,20-20V168a11.86,11.86,0,0,0-.51-3.45L118.32,94,212,44V156H200v-4a12,12,0,0,0-24,0v8a20,20,0,0,0,20,20h20a20,20,0,0,0,20-20V24A12,12,0,0,0,230.17,13.71ZM95.07,100l16.8,56H76V100ZM52,100v56H36V100ZM36,196V180h80v16Z"/>
    </g>
  </g>
  <g transform="translate(16.00,37.96)" fill="white" stroke="white" stroke-width="0" opacity="0.12">
    <g transform="scale(0.109375)">
      <path d="M250.18,105.17,186.71,41.25a100.11,100.11,0,0,0-141.43,0l-.13.14L31.37,55.61a12,12,0,1,0,17.24,16.7L62.32,58.16A75.68,75.68,0,0,1,77.49,46.43L119,88,25.85,181.16a20,20,0,0,0,0,28.29l20.69,20.69a20,20,0,0,0,28.28,0L168,137l1.51,1.51h0l23.65,23.66a20,20,0,0,0,28.29,0l28.69-28.7A20,20,0,0,0,250.18,105.17ZM60.68,210.34l-15-15L108,133l15,15ZM140,131l-15-15,19.51-19.51a12,12,0,0,0,0-17L102.24,37.24a75.94,75.94,0,0,1,67.47,20.95l31.44,31.67L178,113l-1.51-1.51a12,12,0,0,0-17,0Zm67.32,11.31L195,130l23.09-23.09,12.3,12.39Z"/>
    </g>
  </g>
  <g transform="translate(76.00,37.96)" fill="white" stroke="white" stroke-width="0" opacity="0.12">
    <g transform="scale(0.109375)">
      <path d="M228,148.4V136a100.41,100.41,0,0,0-64-93.3V40a20,20,0,0,0-20-20H112A20,20,0,0,0,92,40v2.7A100.41,100.41,0,0,0,28,136v12.4A20,20,0,0,0,12,168v24a20,20,0,0,0,20,20H224a20,20,0,0,0,20-20V168A20,20,0,0,0,228,148.4ZM204,136v12H164V69.07A76.35,76.35,0,0,1,204,136ZM140,44V148H116V44ZM92,69.07V148H52V136A76.35,76.35,0,0,1,92,69.07ZM220,188H36V172H220Z"/>
    </g>
  </g>
</svg>