<svg xmlns="http://www.w3.org/2000/svg" width="120" height="103.92" viewBox="0 0 120 103.92">
  <g transform="translate(-14.00,-14.00)" fill="white" stroke="white" stroke-width="0" opacity="0.12">
    <g transform="scale(0.109375)">
      <path d="M255.62,51.65a12,12,0,0,0-11.27-11.27c-53.27-3.13-96.2,13.36-114.84,44.14-12.14,20-12.56,44.17-1.46,67.3a75.14,75.14,0,0,0-12.28,23l-12.66-12.66c7.19-16.77,6.43-34.11-2.4-48.69C86.73,90.36,54.89,78,15.55,80.27A12,12,0,0,0,4.28,91.55C2,130.89,14.36,162.73,37.45,176.71a49.76,49.76,0,0,0,26,7.27,57.54,57.54,0,0,0,22.7-4.87L112,205v23a12,12,0,0,0,24,0V198.51a51.63,51.63,0,0,1,9.49-29.95,76.82,76.82,0,0,0,32.1,7.39,64.91,64.91,0,0,0,33.89-9.46C242.25,147.85,258.76,104.92,255.62,51.65ZM49.88,156.18c-13.19-8-21.18-27.46-21.83-52.13,24.67.65,44.14,8.64,52.13,21.83a26,26,0,0,1,3.63,17L72.48,131.51a12,12,0,0,0-17,17l11.34,11.34A26.27,26.27,0,0,1,49.88,156.18ZM199.05,146c-10.66,6.45-23,7.67-35.81,3.76l37.25-37.24a12,12,0,0,0-17-17l-37.25,37.24C142.37,120,143.59,107.61,150,97c12.7-21,42.65-33,81.32-33H232C232.14,103,220.14,133.18,199.05,146Z"/>
    </g>
  </g>
  <g transform="translate(46.00,-14.00)" fill="white" stroke="white" stroke-width="0" opacity="0.12">
    <g transform="scale(0.109375)">
      <path d="M116,36V20a12,12,0,0,1,24,0V36a12,12,0,0,1-24,0Zm80,92a68,68,0,1,1-68-68A68.07,68.07,0,0,1,196,128Zm-24,0a44,44,0,1,0-44,44A44.05,44.05,0,0,0,172,128ZM51.51,68.49a12,12,0,1,0,17-17l-12-12a12,12,0,0,0-17,17Zm0,119-12,12a12,12,0,0,0,17,17l12-12a12,12,0,1,0-17-17ZM196,72a12,12,0,0,0,8.49-3.51l12-12a12,12,0,0,0-17-17l-12,12A12,12,0,0,0,196,72Zm8.49,115.51a12,12,0,0,0-17,17l12,12a12,12,0,0,0,17-17ZM48,128a12,12,0,0,0-12-12H20a12,12,0,0,0,0,24H36A12,12,0,0,0,48,128Zm80,80a12,12,0,0,0-12,12v16a12,12,0,0,0,24,0V220A12,12,0,0,0,128,208Zm108-92H220a12,12,0,0,0,0,24h16a12,12,0,0,0,0-24Z"/>
    </g>
  </g>
  <g transform="translate(16.00,37.96)" fill="white" stroke="white" stroke-width="0" opacity="0.12">
    <g transform="scale(0.109375)">
      404: Not Found
    </g>
  </g>
  <g transform="translate(76.00,37.96)" fill="white" stroke="white" stroke-width="0" opacity="0.12">
    <g transform="scale(0.109375)">
      <path d="M255.62,51.65a12,12,0,0,0-11.27-11.27c-53.27-3.13-96.2,13.36-114.84,44.14-12.14,20-12.56,44.17-1.46,67.3a75.14,75.14,0,0,0-12.28,23l-12.66-12.66c7.19-16.77,6.43-34.11-2.4-48.69C86.73,90.36,54.89,78,15.55,80.27A12,12,0,0,0,4.28,91.55C2,130.89,14.36,162.73,37.45,176.71a49.76,49.76,0,0,0,26,7.27,57.54,57.54,0,0,0,22.7-4.87L112,205v23a12,12,0,0,0,24,0V198.51a51.63,51.63,0,0,1,9.49-29.95,76.82,76.82,0,0,0,32.1,7.39,64.91,64.91,0,0,0,33.89-9.46C242.25,147.85,258.76,104.92,255.62,51.65ZM49.88,156.18c-13.19-8-21.18-27.46-21.83-52.13,24.67.65,44.14,8.64,52.13,21.83a26,26,0,0,1,3.63,17L72.48,131.51a12,12,0,0,0-17,17l11.34,11.34A26.27,26.27,0,0,1,49.88,156.18ZM199.05,146c-10.66,6.45-23,7.67-35.81,3.76l37.25-37.24a12,12,0,0,0-17-17l-37.25,37.24C142.37,120,143.59,107.61,150,97c12.7-21,42.65-33,81.32-33H232C232.14,103,220.14,133.18,199.05,146Z"/>
    </g>
  </g>
</svg>