<svg xmlns="http://www.w3.org/2000/svg" width="120" height="120" viewBox="0 0 120 120">
  <g transform="translate(46.0,12.399999999999999)" fill="white" stroke="white" stroke-width="0" opacity="0.12">
    <g transform="scale(0.109375)">
      <path d="M208,36H48A20,20,0,0,0,28,56v56c0,54.29,26.32,87.22,48.4,105.29,23.71,19.39,47.44,26,48.44,26.29a12.1,12.1,0,0,0,6.32,0c1-.28,24.73-6.9,48.44-26.29,22.08-18.07,48.4-51,48.4-105.29V56A20,20,0,0,0,208,36Zm-4,76c0,35.71-13.09,64.69-38.91,86.15A126.28,126.28,0,0,1,128,219.38a126.14,126.14,0,0,1-37.09-21.23C65.09,176.69,52,147.71,52,112V60H204Z"/>
    </g>
  </g>
  <g transform="translate(10.0,72.39999999999999)" fill="white" stroke="white" stroke-width="0" opacity="0.12">
    <g transform="scale(0.109375)">
      <path d="M207,36H49A21,21,0,0,0,28,57v49.21a21,21,0,0,0,12.31,19.11l56,25.47a52,52,0,1,0,63.32,0l56-25.47A21,21,0,0,0,228,106.21V57A21,21,0,0,0,207,36ZM128,138.82l-28-12.73V60h56v66.09ZM52,60H76v55.18L52,104.27Zm76,160a28,28,0,1,1,28-28A28,28,0,0,1,128,220Zm76-115.73-24,10.91V60h24Z"/>
    </g>
  </g>
  <g transform="translate(82.0,72.39999999999999)" fill="white" stroke="white" stroke-width="0" opacity="0.12">
    <g transform="scale(0.109375)">
      <path d="M40.14,46.88A12,12,0,0,0,36,56V224a12,12,0,0,0,24,0V181.72c22.84-17.12,42.1-9.12,70.68,5,16.23,8,34.74,17.2,54.8,17.2,14.72,0,30.28-4.94,46.38-18.88A12,12,0,0,0,236,176V56a12,12,0,0,0-19.86-9.07c-24.71,21.41-44.53,13.31-74.82-1.68C113.19,31.27,78.17,13.94,40.14,46.88ZM212,170.26c-22.84,17.13-42.1,9.11-70.68-5C118.16,153.76,90.33,140,60,153.87V61.69c22.84-17.12,42.1-9.12,70.68,5,16.23,8,34.74,17.2,54.8,17.2A63,63,0,0,0,212,78.08Z"/>
    </g>
  </g>
</svg>