<svg xmlns="http://www.w3.org/2000/svg" width="120" height="103.92" viewBox="0 0 120 103.92">
  <g transform="translate(-14.00,-14.00)" fill="white" stroke="white" stroke-width="0" opacity="0.12">
    <g transform="scale(0.109375)">
      <path d="M156,228a12,12,0,0,1-12,12H112a12,12,0,0,1,0-24h32A12,12,0,0,1,156,228ZM128,116a16,16,0,1,0-16-16A16,16,0,0,0,128,116Zm99.53,40.7-12.36,55.63a19.9,19.9,0,0,1-12.88,14.53A20.16,20.16,0,0,1,195.6,228a19.87,19.87,0,0,1-12.29-4.27L157.17,204H98.83L72.69,223.74A19.87,19.87,0,0,1,60.4,228a20.16,20.16,0,0,1-6.69-1.15,19.9,19.9,0,0,1-12.88-14.53L28.47,156.7a20.1,20.1,0,0,1,4.16-17.14l27.83-33.4A127,127,0,0,1,69.11,69.7c13.27-33.25,37-54.1,46.64-61.52a20,20,0,0,1,24.5,0c9.6,7.42,33.37,28.27,46.64,61.52a127,127,0,0,1,8.65,36.46l27.83,33.4A20.1,20.1,0,0,1,227.53,156.7ZM101.79,180h52.42c19.51-35.7,23-69.78,10.39-101.4C154.4,53,136.2,35.9,128,29.12,119.8,35.9,101.6,53,91.4,78.6,78.78,110.22,82.28,144.3,101.79,180Zm-22.55,8.72a168,168,0,0,1-16.92-47.3l-10,12,10.58,47.64Zm124.43-35.31-10-12a168,168,0,0,1-16.92,47.3l16.33,12.33Z"/>
    </g>
  </g>
  <g transform="translate(-14.00,89.92)" fill="white" stroke="white" stroke-width="0" opacity="0.12">
    <g transform="scale(0.109375)">
      <path d="M156,228a12,12,0,0,1-12,12H112a12,12,0,0,1,0-24h32A12,12,0,0,1,156,228ZM128,116a16,16,0,1,0-16-16A16,16,0,0,0,128,116Zm99.53,40.7-12.36,55.63a19.9,19.9,0,0,1-12.88,14.53A20.16,20.16,0,0,1,195.6,228a19.87,19.87,0,0,1-12.29-4.27L157.17,204H98.83L72.69,223.74A19.87,19.87,0,0,1,60.4,228a20.16,20.16,0,0,1-6.69-1.15,19.9,19.9,0,0,1-12.88-14.53L28.47,156.7a20.1,20.1,0,0,1,4.16-17.14l27.83-33.4A127,127,0,0,1,69.11,69.7c13.27-33.25,37-54.1,46.64-61.52a20,20,0,0,1,24.5,0c9.6,7.42,33.37,28.27,46.64,61.52a127,127,0,0,1,8.65,36.46l27.83,33.4A20.1,20.1,0,0,1,227.53,156.7ZM101.79,180h52.42c19.51-35.7,23-69.78,10.39-101.4C154.4,53,136.2,35.9,128,29.12,119.8,35.9,101.6,53,91.4,78.6,78.78,110.22,82.28,144.3,101.79,180Zm-22.55,8.72a168,168,0,0,1-16.92-47.3l-10,12,10.58,47.64Zm124.43-35.31-10-12a168,168,0,0,1-16.92,47.3l16.33,12.33Z"/>
    </g>
  </g>
  <g transform="translate(106.00,-14.00)" fill="white" stroke="white" stroke-width="0" opacity="0.12">
    <g transform="scale(0.109375)">
      <path d="M156,228a12,12,0,0,1-12,12H112a12,12,0,0,1,0-24h32A12,12,0,0,1,156,228ZM128,116a16,16,0,1,0-16-16A16,16,0,0,0,128,116Zm99.53,40.7-12.36,55.63a19.9,19.9,0,0,1-12.88,14.53A20.16,20.16,0,0,1,195.6,228a19.87,19.87,0,0,1-12.29-4.27L157.17,204H98.83L72.69,223.74A19.87,19.87,0,0,1,60.4,228a20.16,20.16,0,0,1-6.69-1.15,19.9,19.9,0,0,1-12.88-14.53L28.47,156.7a20.1,20.1,0,0,1,4.16-17.14l27.83-33.4A127,127,0,0,1,69.11,69.7c13.27-33.25,37-54.1,46.64-61.52a20,20,0,0,1,24.5,0c9.6,7.42,33.37,28.27,46.64,61.52a127,127,0,0,1,8.65,36.46l27.83,33.4A20.1,20.1,0,0,1,227.53,156.7ZM101.79,180h52.42c19.51-35.7,23-69.78,10.39-101.4C154.4,53,136.2,35.9,128,29.12,119.8,35.9,101.6,53,91.4,78.6,78.78,110.22,82.28,144.3,101.79,180Zm-22.55,8.72a168,168,0,0,1-16.92-47.3l-10,12,10.58,47.64Zm124.43-35.31-10-12a168,168,0,0,1-16.92,47.3l16.33,12.33Z"/>
    </g>
  </g>
  <g transform="translate(106.00,89.92)" fill="white" stroke="white" stroke-width="0" opacity="0.12">
    <g transform="scale(0.109375)">
      <path d="M156,228a12,12,0,0,1-12,12H112a12,12,0,0,1,0-24h32A12,12,0,0,1,156,228ZM128,116a16,16,0,1,0-16-16A16,16,0,0,0,128,116Zm99.53,40.7-12.36,55.63a19.9,19.9,0,0,1-12.88,14.53A20.16,20.16,0,0,1,195.6,228a19.87,19.87,0,0,1-12.29-4.27L157.17,204H98.83L72.69,223.74A19.87,19.87,0,0,1,60.4,228a20.16,20.16,0,0,1-6.69-1.15,19.9,19.9,0,0,1-12.88-14.53L28.47,156.7a20.1,20.1,0,0,1,4.16-17.14l27.83-33.4A127,127,0,0,1,69.11,69.7c13.27-33.25,37-54.1,46.64-61.52a20,20,0,0,1,24.5,0c9.6,7.42,33.37,28.27,46.64,61.52a127,127,0,0,1,8.65,36.46l27.83,33.4A20.1,20.1,0,0,1,227.53,156.7ZM101.79,180h52.42c19.51-35.7,23-69.78,10.39-101.4C154.4,53,136.2,35.9,128,29.12,119.8,35.9,101.6,53,91.4,78.6,78.78,110.22,82.28,144.3,101.79,180Zm-22.55,8.72a168,168,0,0,1-16.92-47.3l-10,12,10.58,47.64Zm124.43-35.31-10-12a168,168,0,0,1-16.92,47.3l16.33,12.33Z"/>
    </g>
  </g>
  <g transform="translate(46.00,-14.00)" fill="white" stroke="white" stroke-width="0" opacity="0.12">
    <g transform="scale(0.109375)">
      <path d="M180,232a12,12,0,0,1-12,12H88a12,12,0,0,1,0-24h80A12,12,0,0,1,180,232Zm40-128a91.51,91.51,0,0,1-35.17,72.35A12.26,12.26,0,0,0,180,186v2a20,20,0,0,1-20,20H96a20,20,0,0,1-20-20v-2a12,12,0,0,0-4.7-9.51A91.57,91.57,0,0,1,36,104.52C35.73,54.69,76,13.2,125.79,12A92,92,0,0,1,220,104Zm-24,0a68,68,0,0,0-69.65-68C89.56,36.88,59.8,67.55,60,104.38a67.71,67.71,0,0,0,26.1,53.19A35.87,35.87,0,0,1,100,184h56.1A36.13,36.13,0,0,1,170,157.49,67.68,67.68,0,0,0,196,104Zm-20.07-5.32a48.5,48.5,0,0,0-31.91-40,12,12,0,0,0-8,22.62,24.31,24.31,0,0,1,16.09,20,12,12,0,0,0,23.86-2.64Z"/>
    </g>
  </g>
  <g transform="translate(46.00,89.92)" fill="white" stroke="white" stroke-width="0" opacity="0.12">
    <g transform="scale(0.109375)">
      <path d="M180,232a12,12,0,0,1-12,12H88a12,12,0,0,1,0-24h80A12,12,0,0,1,180,232Zm40-128a91.51,91.51,0,0,1-35.17,72.35A12.26,12.26,0,0,0,180,186v2a20,20,0,0,1-20,20H96a20,20,0,0,1-20-20v-2a12,12,0,0,0-4.7-9.51A91.57,91.57,0,0,1,36,104.52C35.73,54.69,76,13.2,125.79,12A92,92,0,0,1,220,104Zm-24,0a68,68,0,0,0-69.65-68C89.56,36.88,59.8,67.55,60,104.38a67.71,67.71,0,0,0,26.1,53.19A35.87,35.87,0,0,1,100,184h56.1A36.13,36.13,0,0,1,170,157.49,67.68,67.68,0,0,0,196,104Zm-20.07-5.32a48.5,48.5,0,0,0-31.91-40,12,12,0,0,0-8,22.62,24.31,24.31,0,0,1,16.09,20,12,12,0,0,0,23.86-2.64Z"/>
    </g>
  </g>
  <g transform="translate(16.00,37.96)" fill="white" stroke="white" stroke-width="0" opacity="0.12">
    <g transform="scale(0.109375)">
      <path d="M236,208a12,12,0,0,1-12,12H32a12,12,0,0,1-12-12V48a12,12,0,0,1,24,0v99l43.51-43.52a12,12,0,0,1,17,0L128,127l43-43H160a12,12,0,0,1,0-24h40a12,12,0,0,1,12,12v40a12,12,0,0,1-24,0V101l-51.51,51.52a12,12,0,0,1-17,0L96,129,44,181v15H224A12,12,0,0,1,236,208Z"/>
    </g>
  </g>
  <g transform="translate(76.00,37.96)" fill="white" stroke="white" stroke-width="0" opacity="0.12">
    <g transform="scale(0.109375)">
      <path d="M156,228a12,12,0,0,1-12,12H112a12,12,0,0,1,0-24h32A12,12,0,0,1,156,228ZM128,116a16,16,0,1,0-16-16A16,16,0,0,0,128,116Zm99.53,40.7-12.36,55.63a19.9,19.9,0,0,1-12.88,14.53A20.16,20.16,0,0,1,195.6,228a19.87,19.87,0,0,1-12.29-4.27L157.17,204H98.83L72.69,223.74A19.87,19.87,0,0,1,60.4,228a20.16,20.16,0,0,1-6.69-1.15,19.9,19.9,0,0,1-12.88-14.53L28.47,156.7a20.1,20.1,0,0,1,4.16-17.14l27.83-33.4A127,127,0,0,1,69.11,69.7c13.27-33.25,37-54.1,46.64-61.52a20,20,0,0,1,24.5,0c9.6,7.42,33.37,28.27,46.64,61.52a127,127,0,0,1,8.65,36.46l27.83,33.4A20.1,20.1,0,0,1,227.53,156.7ZM101.79,180h52.42c19.51-35.7,23-69.78,10.39-101.4C154.4,53,136.2,35.9,128,29.12,119.8,35.9,101.6,53,91.4,78.6,78.78,110.22,82.28,144.3,101.79,180Zm-22.55,8.72a168,168,0,0,1-16.92-47.3l-10,12,10.58,47.64Zm124.43-35.31-10-12a168,168,0,0,1-16.92,47.3l16.33,12.33Z"/>
    </g>
  </g>
</svg>