<svg xmlns="http://www.w3.org/2000/svg" width="120" height="103.92" viewBox="0 0 120 103.92">
  <g transform="translate(-14.00,-14.00)" fill="white" stroke="white" stroke-width="0" opacity="0.12">
    <g transform="scale(0.109375)">
      <path d="M224,196h-4V40a12,12,0,0,0-12-12H152a12,12,0,0,0-12,12V76H96A12,12,0,0,0,84,88v36H48a12,12,0,0,0-12,12v60H32a12,12,0,0,0,0,24H224a12,12,0,0,0,0-24ZM164,52h32V196H164Zm-56,48h32v96H108ZM60,148H84v48H60Z"/>
    </g>
  </g>
  <g transform="translate(46.00,-14.00)" fill="white" stroke="white" stroke-width="0" opacity="0.12">
    <g transform="scale(0.109375)">
      <path d="M253.88,108.11l-25.53-51a20,20,0,0,0-26.83-9L178.34,59.7,131.7,44.58a12.14,12.14,0,0,0-7.4,0L77.66,59.7,54.48,48.11a20,20,0,0,0-26.83,9L2.12,108.11a20,20,0,0,0,9,26.83l26.67,13.34,51.18,37.41A12.15,12.15,0,0,0,93,187.62l62,16a12.27,12.27,0,0,0,3,.38,12,12,0,0,0,8.48-3.52l52.62-52.62,25.83-12.92a20,20,0,0,0,8.95-26.83Zm-58.12,29.15-27.52-26a12,12,0,0,0-16.76.26c-9.66,9.74-25.06,16.81-40.81,9.55l38.19-37h22.72l25.81,51.63ZM47.32,71.37,60.59,78l-22,43.9-13.27-6.63Zm107,107.3L101.23,165l-42-30.66L85.17,82.5,128,68.61l1.69.55L90,107.68l-.13.12a20,20,0,0,0,3.4,31c20.95,13.39,46,12.07,66.33-2.73l19.2,18.15Zm63-56.77-22-43.9,13.27-6.63,21.95,43.9ZM118.55,219a12,12,0,0,1-14.62,8.62l-26.6-6.87a12,12,0,0,1-4.08-1.93L48.92,201a12,12,0,0,1,14.16-19.37l22.47,16.42,24.38,6.29A12,12,0,0,1,118.55,219Z"/>
    </g>
  </g>
  <g transform="translate(16.00,37.96)" fill="white" stroke="white" stroke-width="0" opacity="0.12">
    <g transform="scale(0.109375)">
      <path d="M216,36H140V24a12,12,0,0,0-24,0V36H40A20,20,0,0,0,20,56V176a20,20,0,0,0,20,20H71l-16.4,20.5a12,12,0,0,0,18.74,15l28.4-35.5h52.46l28.4,35.5a12,12,0,0,0,18.74-15L185,196h31a20,20,0,0,0,20-20V56A20,20,0,0,0,216,36Zm-4,136H44V60H212ZM104,120v24a12,12,0,0,1-24,0V120a12,12,0,0,1,24,0Zm24-28a12,12,0,0,1,12,12v40a12,12,0,0,1-24,0V104A12,12,0,0,1,128,92Zm24,52V88a12,12,0,0,1,24,0v56a12,12,0,0,1-24,0Z"/>
    </g>
  </g>
  <g transform="translate(76.00,37.96)" fill="white" stroke="white" stroke-width="0" opacity="0.12">
    <g transform="scale(0.109375)">
      <path d="M224,196h-4V40a12,12,0,0,0-12-12H152a12,12,0,0,0-12,12V76H96A12,12,0,0,0,84,88v36H48a12,12,0,0,0-12,12v60H32a12,12,0,0,0,0,24H224a12,12,0,0,0,0-24ZM164,52h32V196H164Zm-56,48h32v96H108ZM60,148H84v48H60Z"/>
    </g>
  </g>
</svg>