<svg xmlns="http://www.w3.org/2000/svg" width="120" height="103.92" viewBox="0 0 120 103.92">
  <g transform="translate(-14.00,-14.00)" fill="white" stroke="white" stroke-width="0" opacity="0.12">
    <g transform="scale(0.109375)">
      <path d="M71.76,148H31.7a12,12,0,1,1,0-24H65.33l12.45-18.66a12,12,0,0,1,20,0l22,33,6-9a12,12,0,0,1,10-5.34h24a12,12,0,1,1,0,24h-17.6l-12.46,18.66a12,12,0,0,1-20,0l-22-33-6,9A12,12,0,0,1,71.76,148ZM177.91,36c-20.12,0-38,7.93-50.07,21.56C115.74,43.93,97.89,36,77.76,36A66,66,0,0,0,12.07,94.68,12,12,0,0,0,36,97.32,42,42,0,0,1,77.76,60c17.83,0,32.75,9.4,38.95,24.54a12,12,0,0,0,22.25,0C145.16,69.4,160.08,60,177.91,60A42.08,42.08,0,0,1,220,102c0,29.42-25.86,57.77-47.56,76.36a329,329,0,0,1-44.58,31.81c-10.87-6.45-35.37-22-56.51-42.73a12,12,0,1,0-16.84,17.12c30.39,29.81,66.15,49.2,67.66,50a12.06,12.06,0,0,0,11.39,0C138,232.14,244,174.34,244,102A66.12,66.12,0,0,0,177.91,36Z"/>
    </g>
  </g>
  <g transform="translate(46.00,-14.00)" fill="white" stroke="white" stroke-width="0" opacity="0.12">
    <g transform="scale(0.109375)">
      <path d="M248,160a40,40,0,1,0-52.64,37.94A28,28,0,0,1,168,220H144a28,28,0,0,1-28-28V154.9c31.73-5.78,56-34.09,56-67.73V40a12,12,0,0,0-12-12H136a12,12,0,0,0,0,24h12V87.17c0,24.4-19.47,44.52-43.41,44.83A44,44,0,0,1,60,88V52H72a12,12,0,0,0,0-24H48A12,12,0,0,0,36,40V88a68,68,0,0,0,56,66.93V192a52.06,52.06,0,0,0,52,52h24a52.06,52.06,0,0,0,51.61-45.72A40.08,40.08,0,0,0,248,160Zm-40,16a16,16,0,1,1,16-16A16,16,0,0,1,208,176Z"/>
    </g>
  </g>
  <g transform="translate(16.00,37.96)" fill="white" stroke="white" stroke-width="0" opacity="0.12">
    <g transform="scale(0.109375)">
      <path d="M216,52H180V44a28,28,0,0,0-28-28H104A28,28,0,0,0,76,44v8H40A20,20,0,0,0,20,72V200a20,20,0,0,0,20,20H216a20,20,0,0,0,20-20V72A20,20,0,0,0,216,52ZM100,44a4,4,0,0,1,4-4h48a4,4,0,0,1,4,4v8H100ZM212,196H44V76H212Zm-48-60a12,12,0,0,1-12,12H140v12a12,12,0,0,1-24,0V148H104a12,12,0,0,1,0-24h12V112a12,12,0,0,1,24,0v12h12A12,12,0,0,1,164,136Z"/>
    </g>
  </g>
  <g transform="translate(76.00,37.96)" fill="white" stroke="white" stroke-width="0" opacity="0.12">
    <g transform="scale(0.109375)">
      <path d="M71.76,148H31.7a12,12,0,1,1,0-24H65.33l12.45-18.66a12,12,0,0,1,20,0l22,33,6-9a12,12,0,0,1,10-5.34h24a12,12,0,1,1,0,24h-17.6l-12.46,18.66a12,12,0,0,1-20,0l-22-33-6,9A12,12,0,0,1,71.76,148ZM177.91,36c-20.12,0-38,7.93-50.07,21.56C115.74,43.93,97.89,36,77.76,36A66,66,0,0,0,12.07,94.68,12,12,0,0,0,36,97.32,42,42,0,0,1,77.76,60c17.83,0,32.75,9.4,38.95,24.54a12,12,0,0,0,22.25,0C145.16,69.4,160.08,60,177.91,60A42.08,42.08,0,0,1,220,102c0,29.42-25.86,57.77-47.56,76.36a329,329,0,0,1-44.58,31.81c-10.87-6.45-35.37-22-56.51-42.73a12,12,0,1,0-16.84,17.12c30.39,29.81,66.15,49.2,67.66,50a12.06,12.06,0,0,0,11.39,0C138,232.14,244,174.34,244,102A66.12,66.12,0,0,0,177.91,36Z"/>
    </g>
  </g>
</svg>