<svg xmlns="http://www.w3.org/2000/svg" width="120" height="103.92" viewBox="0 0 120 103.92">
  <g transform="translate(-14.00,-14.00)" fill="white" stroke="white" stroke-width="0" opacity="0.12">
    <g transform="scale(0.109375)">
      <path d="M252,120a52.06,52.06,0,0,0-52-52H160.32c-3.44-.21-52.6-4-99.46-43.3A20,20,0,0,0,28,40V200a19.8,19.8,0,0,0,11.54,18.12,19.86,19.86,0,0,0,21.32-2.81A192.92,192.92,0,0,1,144,174.47v26.2a20,20,0,0,0,8.9,16.64,11.35,11.35,0,0,0,1.39.8l14.44,7.06A20,20,0,0,0,198.37,213l11.09-41.82A52.07,52.07,0,0,0,252,120ZM52,191.63V48.4c36.17,28.07,72.17,38.1,92,41.66V150C124.17,153.52,88.17,163.55,52,191.63ZM176.39,202.2,168,198.1V172h16.4ZM200,148H168V92h32a28,28,0,1,1,0,56Z"/>
    </g>
  </g>
  <g transform="translate(46.00,-14.00)" fill="white" stroke="white" stroke-width="0" opacity="0.12">
    <g transform="scale(0.109375)">
      <path d="M229.26,90.4a108,108,0,0,1-177.63,114A108,108,0,0,1,195.41,43.63l20.1-20.11a12,12,0,0,1,17,17l-96,96a12,12,0,1,1-17-17l24-24a36,36,0,1,0,19.76,39.65,12,12,0,0,1,23.53,4.74,60,60,0,1,1-25.73-62L178.3,60.74a84,84,0,1,0,28.46,38,12,12,0,1,1,22.5-8.35Z"/>
    </g>
  </g>
  <g transform="translate(16.00,37.96)" fill="white" stroke="white" stroke-width="0" opacity="0.12">
    <g transform="scale(0.109375)">
      <path d="M224,196h-4V40a12,12,0,0,0-12-12H152a12,12,0,0,0-12,12V76H96A12,12,0,0,0,84,88v36H48a12,12,0,0,0-12,12v60H32a12,12,0,0,0,0,24H224a12,12,0,0,0,0-24ZM164,52h32V196H164Zm-56,48h32v96H108ZM60,148H84v48H60Z"/>
    </g>
  </g>
  <g transform="translate(76.00,37.96)" fill="white" stroke="white" stroke-width="0" opacity="0.12">
    <g transform="scale(0.109375)">
      <path d="M252,120a52.06,52.06,0,0,0-52-52H160.32c-3.44-.21-52.6-4-99.46-43.3A20,20,0,0,0,28,40V200a19.8,19.8,0,0,0,11.54,18.12,19.86,19.86,0,0,0,21.32-2.81A192.92,192.92,0,0,1,144,174.47v26.2a20,20,0,0,0,8.9,16.64,11.35,11.35,0,0,0,1.39.8l14.44,7.06A20,20,0,0,0,198.37,213l11.09-41.82A52.07,52.07,0,0,0,252,120ZM52,191.63V48.4c36.17,28.07,72.17,38.1,92,41.66V150C124.17,153.52,88.17,163.55,52,191.63ZM176.39,202.2,168,198.1V172h16.4ZM200,148H168V92h32a28,28,0,1,1,0,56Z"/>
    </g>
  </g>
</svg>