<svg xmlns="http://www.w3.org/2000/svg" width="120" height="103.92" viewBox="0 0 120 103.92">
  <g transform="translate(-14.00,-14.00)" fill="white" stroke="white" stroke-width="0" opacity="0.12">
    <g transform="scale(0.109375)">
      <path d="M244,116V88a20,20,0,0,0-20-20H208V64a20,20,0,0,0-20-20H164a20,20,0,0,0-20,20v52H112V64A20,20,0,0,0,92,44H68A20,20,0,0,0,48,64v4H32A20,20,0,0,0,12,88v28a12,12,0,0,0,0,24v28a20,20,0,0,0,20,20H48v4a20,20,0,0,0,20,20H92a20,20,0,0,0,20-20V140h32v52a20,20,0,0,0,20,20h24a20,20,0,0,0,20-20v-4h16a20,20,0,0,0,20-20V140a12,12,0,0,0,0-24ZM36,164V92H48v72Zm52,24H72V68H88Zm96,0H168V68h16Zm36-24H208V92h12Z"/>
    </g>
  </g>
  <g transform="translate(46.00,-14.00)" fill="white" stroke="white" stroke-width="0" opacity="0.12">
    <g transform="scale(0.109375)">
      <path d="M232,60H212V48a12,12,0,0,0-12-12H56A12,12,0,0,0,44,48V60H24A20,20,0,0,0,4,80V96a44.05,44.05,0,0,0,44,44h.77A84.18,84.18,0,0,0,116,195.15V212H96a12,12,0,0,0,0,24h64a12,12,0,0,0,0-24H140V195.11c30.94-4.51,56.53-26.2,67-55.11h1a44.05,44.05,0,0,0,44-44V80A20,20,0,0,0,232,60ZM28,96V84H44v28c0,1.21,0,2.41.09,3.61A20,20,0,0,1,28,96Zm160,15.1c0,33.33-26.71,60.65-59.54,60.9A60,60,0,0,1,68,112V60H188ZM228,96a20,20,0,0,1-16.12,19.62c.08-1.5.12-3,.12-4.52V84h16Z"/>
    </g>
  </g>
  <g transform="translate(16.00,37.96)" fill="white" stroke="white" stroke-width="0" opacity="0.12">
    <g transform="scale(0.109375)">
      <path d="M152,92a36,36,0,1,0-36-36A36,36,0,0,0,152,92Zm0-48a12,12,0,1,1-12,12A12,12,0,0,1,152,44Zm76,93.4a12,12,0,0,1-7,10.91,66,66,0,0,1-21.47,3.78c-14,0-34.25-3.82-59.77-19a177,177,0,0,1-10.27,21C153.12,162.83,188,183.8,188,232a12,12,0,0,1-24,0c0-18.69-6.95-33.06-21.26-43.94-9.16-7-19.55-11-27.43-13.34-.81,1-1.64,2-2.5,2.95-20,22.87-44.82,34.76-72.25,34.76a97.33,97.33,0,0,1-9.75-.49,12,12,0,1,1,2.39-23.88c52.3,5.22,77.48-45.92,85.79-67.75C84.8,102.46,63.74,118.78,63.51,119a12,12,0,0,1-15-18.72C50.08,99,88,69.44,142.75,106.62c43.1,29.31,68.1,19.92,68.5,19.76a12,12,0,0,1,16.75,11Z"/>
    </g>
  </g>
  <g transform="translate(76.00,37.96)" fill="white" stroke="white" stroke-width="0" opacity="0.12">
    <g transform="scale(0.109375)">
      <path d="M244,116V88a20,20,0,0,0-20-20H208V64a20,20,0,0,0-20-20H164a20,20,0,0,0-20,20v52H112V64A20,20,0,0,0,92,44H68A20,20,0,0,0,48,64v4H32A20,20,0,0,0,12,88v28a12,12,0,0,0,0,24v28a20,20,0,0,0,20,20H48v4a20,20,0,0,0,20,20H92a20,20,0,0,0,20-20V140h32v52a20,20,0,0,0,20,20h24a20,20,0,0,0,20-20v-4h16a20,20,0,0,0,20-20V140a12,12,0,0,0,0-24ZM36,164V92H48v72Zm52,24H72V68H88Zm96,0H168V68h16Zm36-24H208V92h12Z"/>
    </g>
  </g>
</svg>