<svg xmlns="http://www.w3.org/2000/svg" width="120" height="103.92" viewBox="0 0 120 103.92">
  <g transform="translate(-14.00,-14.00)" fill="white" stroke="white" stroke-width="0" opacity="0.12">
    <g transform="scale(0.109375)">
      <path d="M255.14,115.54l-14-35A19.89,19.89,0,0,0,222.58,68H196V64a12,12,0,0,0-12-12H32A20,20,0,0,0,12,72V184a20,20,0,0,0,20,20H46.06a36,36,0,0,0,67.88,0h44.12a36,36,0,0,0,67.88,0H236a20,20,0,0,0,20-20V120A21.7,21.7,0,0,0,255.14,115.54ZM196,92h23.88l6.4,16H196ZM80,204a12,12,0,1,1,12-12A12,12,0,0,1,80,204Zm92-41.92A36.32,36.32,0,0,0,158.06,180H113.94a36,36,0,0,0-67.88,0H36V140H172ZM172,116H36V76H172Zm20,88a12,12,0,1,1,12-12A12,12,0,0,1,192,204Zm40-24h-6.06A36.09,36.09,0,0,0,196,156.23V132h36Z"/>
    </g>
  </g>
  <g transform="translate(46.00,-14.00)" fill="white" stroke="white" stroke-width="0" opacity="0.12">
    <g transform="scale(0.109375)">
      <path d="M225.6,62.64l-88-48.17a19.91,19.91,0,0,0-19.2,0l-88,48.17A20,20,0,0,0,20,80.19v95.62a20,20,0,0,0,10.4,17.55l88,48.17a19.89,19.89,0,0,0,19.2,0l88-48.17A20,20,0,0,0,236,175.81V80.19A20,20,0,0,0,225.6,62.64ZM128,36.57,200,76,178.57,87.73l-72-39.42Zm0,78.83L56,76,81.56,62l72,39.41ZM44,96.79l72,39.4v76.67L44,173.44Zm96,116.07V136.19l24-13.13V152a12,12,0,0,0,24,0V109.92l24-13.13v76.65Z"/>
    </g>
  </g>
  <g transform="translate(16.00,37.96)" fill="white" stroke="white" stroke-width="0" opacity="0.12">
    <g transform="scale(0.109375)">
      <path d="M240,180h-4V61.13l6.51-1.39a12,12,0,1,0-5-23.47l-224,48A12,12,0,0,0,16,108a12.21,12.21,0,0,0,2.53-.26l1.48-.32V180H16a12,12,0,0,0,0,24H240a12,12,0,0,0,0-24ZM44,102.27l168-36V180H192V120a12,12,0,0,0-12-12H76a12,12,0,0,0-12,12v60H44ZM168,144H88V132h80ZM88,168h80v12H88Z"/>
    </g>
  </g>
  <g transform="translate(76.00,37.96)" fill="white" stroke="white" stroke-width="0" opacity="0.12">
    <g transform="scale(0.109375)">
      <path d="M255.14,115.54l-14-35A19.89,19.89,0,0,0,222.58,68H196V64a12,12,0,0,0-12-12H32A20,20,0,0,0,12,72V184a20,20,0,0,0,20,20H46.06a36,36,0,0,0,67.88,0h44.12a36,36,0,0,0,67.88,0H236a20,20,0,0,0,20-20V120A21.7,21.7,0,0,0,255.14,115.54ZM196,92h23.88l6.4,16H196ZM80,204a12,12,0,1,1,12-12A12,12,0,0,1,80,204Zm92-41.92A36.32,36.32,0,0,0,158.06,180H113.94a36,36,0,0,0-67.88,0H36V140H172ZM172,116H36V76H172Zm20,88a12,12,0,1,1,12-12A12,12,0,0,1,192,204Zm40-24h-6.06A36.09,36.09,0,0,0,196,156.23V132h36Z"/>
    </g>
  </g>
</svg>