<svg xmlns="http://www.w3.org/2000/svg" width="120" height="103.92" viewBox="0 0 120 103.92">
  <g transform="translate(-14.00,-14.00)" fill="white" stroke="white" stroke-width="0" opacity="0.12">
    <g transform="scale(0.109375)">
      <path d="M222.14,105.85l-80-80a20,20,0,0,0-28.28,0l-80,80A19.86,19.86,0,0,0,28,120v96a12,12,0,0,0,12,12h64a12,12,0,0,0,12-12V164h24v52a12,12,0,0,0,12,12h64a12,12,0,0,0,12-12V120A19.86,19.86,0,0,0,222.14,105.85ZM204,204H164V152a12,12,0,0,0-12-12H104a12,12,0,0,0-12,12v52H52V121.65l76-76,76,76Z"/>
    </g>
  </g>
  <g transform="translate(46.00,-14.00)" fill="white" stroke="white" stroke-width="0" opacity="0.12">
    <g transform="scale(0.109375)">
      <path d="M196,76a16,16,0,1,1-16-16A16,16,0,0,1,196,76Zm48,22.74A84.3,84.3,0,0,1,160.11,180H160a83.52,83.52,0,0,1-23.65-3.38l-7.86,7.87A12,12,0,0,1,120,188H108v12a12,12,0,0,1-12,12H84v12a12,12,0,0,1-12,12H40a20,20,0,0,1-20-20V187.31a19.86,19.86,0,0,1,5.86-14.14l53.52-53.52A84,84,0,1,1,244,98.74ZM202.43,53.57A59.48,59.48,0,0,0,158,36c-32,1-58,27.89-58,59.89a59.69,59.69,0,0,0,4.2,22.19,12,12,0,0,1-2.55,13.21L44,189v23H60V200a12,12,0,0,1,12-12H84V176a12,12,0,0,1,12-12h19l9.65-9.65a12,12,0,0,1,13.22-2.55A59.58,59.58,0,0,0,160,156h.08c32,0,58.87-26.07,59.89-58A59.55,59.55,0,0,0,202.43,53.57Z"/>
    </g>
  </g>
  <g transform="translate(16.00,37.96)" fill="white" stroke="white" stroke-width="0" opacity="0.12">
    <g transform="scale(0.109375)">
      <path d="M240,204H228V96a20,20,0,0,0-20-20H172V32a20,20,0,0,0-28.45-18.12l-104,48.54A20.06,20.06,0,0,0,28,80.55V204H16a12,12,0,0,0,0,24H240a12,12,0,0,0,0-24ZM204,100V204H172V100ZM52,83.09,148,38.3V204H52ZM132,112v12a12,12,0,0,1-24,0V112a12,12,0,0,1,24,0Zm-40,0v12a12,12,0,0,1-24,0V112a12,12,0,0,1,24,0Zm0,52v12a12,12,0,0,1-24,0V164a12,12,0,0,1,24,0Zm40,0v12a12,12,0,0,1-24,0V164a12,12,0,0,1,24,0Z"/>
    </g>
  </g>
  <g transform="translate(76.00,37.96)" fill="white" stroke="white" stroke-width="0" opacity="0.12">
    <g transform="scale(0.109375)">
      <path d="M222.14,105.85l-80-80a20,20,0,0,0-28.28,0l-80,80A19.86,19.86,0,0,0,28,120v96a12,12,0,0,0,12,12h64a12,12,0,0,0,12-12V164h24v52a12,12,0,0,0,12,12h64a12,12,0,0,0,12-12V120A19.86,19.86,0,0,0,222.14,105.85ZM204,204H164V152a12,12,0,0,0-12-12H104a12,12,0,0,0-12,12v52H52V121.65l76-76,76,76Z"/>
    </g>
  </g>
</svg>