<svg xmlns="http://www.w3.org/2000/svg" width="120" height="120" viewBox="0 0 120 120">
  <g transform="translate(46.0,12.399999999999999)" fill="white" stroke="white" stroke-width="0" opacity="0.12">
    <g transform="scale(0.109375)">
      <path d="M219.71,117.38a12,12,0,0,0-7.25-8.52L161.28,88.39l10.59-70.61a12,12,0,0,0-20.64-10l-112,120a12,12,0,0,0,4.31,19.33l51.18,20.47L84.13,238.22a12,12,0,0,0,20.64,10l112-120A12,12,0,0,0,219.71,117.38ZM113.6,203.55l6.27-41.77a12,12,0,0,0-7.41-12.92L68.74,131.37,142.4,52.45l-6.27,41.77a12,12,0,0,0,7.41,12.92l43.72,17.49Z"/>
    </g>
  </g>
  <g transform="translate(10.0,72.39999999999999)" fill="white" stroke="white" stroke-width="0" opacity="0.12">
    <g transform="scale(0.109375)">
      <path d="M134.88,6.17a12,12,0,0,0-13.76,0,259,259,0,0,0-42.18,39C50.85,77.43,36,111.62,36,144a92,92,0,0,0,184,0C220,66.64,138.36,8.6,134.88,6.17ZM128,212a68.07,68.07,0,0,1-68-68c0-33.31,20-63.37,36.7-82.71A249.35,249.35,0,0,1,128,31.11a249.35,249.35,0,0,1,31.3,30.18C176,80.63,196,110.69,196,144A68.07,68.07,0,0,1,128,212Zm49.62-52.4a52,52,0,0,1-34,34,12.2,12.2,0,0,1-3.6.55,12,12,0,0,1-3.6-23.45,28,28,0,0,0,18.32-18.32,12,12,0,0,1,22.9,7.2Z"/>
    </g>
  </g>
  <g transform="translate(82.0,72.39999999999999)" fill="white" stroke="white" stroke-width="0" opacity="0.12">
    <g transform="scale(0.109375)">
      <path d="M240.49,63.51a12,12,0,0,0-17,0L192,95,161,64l31.52-31.51a12,12,0,0,0-17-17L144,47,120.49,23.51a12,12,0,1,0-17,17L107,44,56.89,94.14a44,44,0,0,0,0,62.23l12.88,12.88L23.51,215.51a12,12,0,0,0,17,17l46.26-46.26,12.88,12.88a44,44,0,0,0,62.23,0L212,149l3.51,3.52a12,12,0,0,0,17-17L209,112l31.52-31.51A12,12,0,0,0,240.49,63.51Zm-95.6,118.63a20,20,0,0,1-28.29,0L73.86,139.4a20,20,0,0,1,0-28.29L124,61l71,71Z"/>
    </g>
  </g>
</svg>