<svg xmlns="http://www.w3.org/2000/svg" width="120" height="103.92" viewBox="0 0 120 103.92">
  <g transform="translate(-14.00,-14.00)" fill="white" stroke="white" stroke-width="0" opacity="0.12">
    <g transform="scale(0.109375)">
      <path d="M100,100a12,12,0,0,1,12-12h32a12,12,0,0,1,0,24H112A12,12,0,0,1,100,100ZM236,68V196a20,20,0,0,1-20,20H40a20,20,0,0,1-20-20V68A20,20,0,0,1,40,48H76V40a28,28,0,0,1,28-28h48a28,28,0,0,1,28,28v8h36A20,20,0,0,1,236,68ZM100,48h56V40a4,4,0,0,0-4-4H104a4,4,0,0,0-4,4ZM44,72v35.23A180.06,180.06,0,0,0,128,128a180,180,0,0,0,84-20.78V72ZM212,192V133.94A204.27,204.27,0,0,1,128,152a204.21,204.21,0,0,1-84-18.06V192Z"/>
    </g>
  </g>
  <g transform="translate(46.00,-14.00)" fill="white" stroke="white" stroke-width="0" opacity="0.12">
    <g transform="scale(0.109375)">
      <path d="M128,76a52,52,0,1,0,52,52A52.06,52.06,0,0,0,128,76Zm0,80a28,28,0,1,1,28-28A28,28,0,0,1,128,156Zm92-27.21v-1.58l14-17.51a12,12,0,0,0,2.23-10.59A111.75,111.75,0,0,0,225,71.89,12,12,0,0,0,215.89,66L193.61,63.5l-1.11-1.11L190,40.1A12,12,0,0,0,184.11,31a111.67,111.67,0,0,0-27.23-11.27A12,12,0,0,0,146.3,22L128.79,36h-1.58L109.7,22a12,12,0,0,0-10.59-2.23A111.75,111.75,0,0,0,71.89,31.05,12,12,0,0,0,66,40.11L63.5,62.39,62.39,63.5,40.1,66A12,12,0,0,0,31,71.89,111.67,111.67,0,0,0,19.77,99.12,12,12,0,0,0,22,109.7l14,17.51v1.58L22,146.3a12,12,0,0,0-2.23,10.59,111.75,111.75,0,0,0,11.29,27.22A12,12,0,0,0,40.11,190l22.28,2.48,1.11,1.11L66,215.9A12,12,0,0,0,71.89,225a111.67,111.67,0,0,0,27.23,11.27A12,12,0,0,0,109.7,234l17.51-14h1.58l17.51,14a12,12,0,0,0,10.59,2.23A111.75,111.75,0,0,0,184.11,225a12,12,0,0,0,5.91-9.06l2.48-22.28,1.11-1.11L215.9,190a12,12,0,0,0,9.06-5.91,111.67,111.67,0,0,0,11.27-27.23A12,12,0,0,0,234,146.3Zm-24.12-4.89a70.1,70.1,0,0,1,0,8.2,12,12,0,0,0,2.61,8.22l12.84,16.05A86.47,86.47,0,0,1,207,166.86l-20.43,2.27a12,12,0,0,0-7.65,4,69,69,0,0,1-5.8,5.8,12,12,0,0,0-4,7.65L166.86,207a86.47,86.47,0,0,1-10.49,4.35l-16.05-12.85a12,12,0,0,0-7.5-2.62c-.24,0-.48,0-.72,0a70.1,70.1,0,0,1-8.2,0,12.06,12.06,0,0,0-8.22,2.6L99.63,211.33A86.47,86.47,0,0,1,89.14,207l-2.27-20.43a12,12,0,0,0-4-7.65,69,69,0,0,1-5.8-5.8,12,12,0,0,0-7.65-4L49,166.86a86.47,86.47,0,0,1-4.35-10.49l12.84-16.05a12,12,0,0,0,2.61-8.22,70.1,70.1,0,0,1,0-8.2,12,12,0,0,0-2.61-8.22L44.67,99.63A86.47,86.47,0,0,1,49,89.14l20.43-2.27a12,12,0,0,0,7.65-4,69,69,0,0,1,5.8-5.8,12,12,0,0,0,4-7.65L89.14,49a86.47,86.47,0,0,1,10.49-4.35l16.05,12.85a12.06,12.06,0,0,0,8.22,2.6,70.1,70.1,0,0,1,8.2,0,12,12,0,0,0,8.22-2.6l16.05-12.85A86.47,86.47,0,0,1,166.86,49l2.27,20.43a12,12,0,0,0,4,7.65,69,69,0,0,1,5.8,5.8,12,12,0,0,0,7.65,4L207,89.14a86.47,86.47,0,0,1,4.35,10.49l-12.84,16.05A12,12,0,0,0,195.88,123.9Z"/>
    </g>
  </g>
  <g transform="translate(16.00,37.96)" fill="white" stroke="white" stroke-width="0" opacity="0.12">
    <g transform="scale(0.109375)">
      <path d="M253.88,108.11l-25.53-51a20,20,0,0,0-26.83-9L178.34,59.7,131.7,44.58a12.14,12.14,0,0,0-7.4,0L77.66,59.7,54.48,48.11a20,20,0,0,0-26.83,9L2.12,108.11a20,20,0,0,0,9,26.83l26.67,13.34,51.18,37.41A12.15,12.15,0,0,0,93,187.62l62,16a12.27,12.27,0,0,0,3,.38,12,12,0,0,0,8.48-3.52l52.62-52.62,25.83-12.92a20,20,0,0,0,8.95-26.83Zm-58.12,29.15-27.52-26a12,12,0,0,0-16.76.26c-9.66,9.74-25.06,16.81-40.81,9.55l38.19-37h22.72l25.81,51.63ZM47.32,71.37,60.59,78l-22,43.9-13.27-6.63Zm107,107.3L101.23,165l-42-30.66L85.17,82.5,128,68.61l1.69.55L90,107.68l-.13.12a20,20,0,0,0,3.4,31c20.95,13.39,46,12.07,66.33-2.73l19.2,18.15Zm63-56.77-22-43.9,13.27-6.63,21.95,43.9ZM118.55,219a12,12,0,0,1-14.62,8.62l-26.6-6.87a12,12,0,0,1-4.08-1.93L48.92,201a12,12,0,0,1,14.16-19.37l22.47,16.42,24.38,6.29A12,12,0,0,1,118.55,219Z"/>
    </g>
  </g>
  <g transform="translate(76.00,37.96)" fill="white" stroke="white" stroke-width="0" opacity="0.12">
    <g transform="scale(0.109375)">
      <path d="M100,100a12,12,0,0,1,12-12h32a12,12,0,0,1,0,24H112A12,12,0,0,1,100,100ZM236,68V196a20,20,0,0,1-20,20H40a20,20,0,0,1-20-20V68A20,20,0,0,1,40,48H76V40a28,28,0,0,1,28-28h48a28,28,0,0,1,28,28v8h36A20,20,0,0,1,236,68ZM100,48h56V40a4,4,0,0,0-4-4H104a4,4,0,0,0-4,4ZM44,72v35.23A180.06,180.06,0,0,0,128,128a180,180,0,0,0,84-20.78V72ZM212,192V133.94A204.27,204.27,0,0,1,128,152a204.21,204.21,0,0,1-84-18.06V192Z"/>
    </g>
  </g>
</svg>