<svg xmlns="http://www.w3.org/2000/svg" width="120" height="103.92" viewBox="0 0 120 103.92">
  <g transform="translate(-14.00,-14.00)" fill="white" stroke="white" stroke-width="0" opacity="0.12">
    <g transform="scale(0.109375)">
      <path d="M144,180a16,16,0,1,1-16-16A16,16,0,0,1,144,180Zm92-52A108,108,0,1,1,128,20,108.12,108.12,0,0,1,236,128Zm-24,0a84,84,0,1,0-84,84A84.09,84.09,0,0,0,212,128ZM128,64c-24.26,0-44,17.94-44,40v4a12,12,0,0,0,24,0v-4c0-8.82,9-16,20-16s20,7.18,20,16-9,16-20,16a12,12,0,0,0-12,12v8a12,12,0,0,0,23.73,2.56C158.31,137.88,172,122.37,172,104,172,81.94,152.26,64,128,64Z"/>
    </g>
  </g>
  <g transform="translate(46.00,-14.00)" fill="white" stroke="white" stroke-width="0" opacity="0.12">
    <g transform="scale(0.109375)">
      <path d="M180,232a12,12,0,0,1-12,12H88a12,12,0,0,1,0-24h80A12,12,0,0,1,180,232Zm40-128a91.51,91.51,0,0,1-35.17,72.35A12.26,12.26,0,0,0,180,186v2a20,20,0,0,1-20,20H96a20,20,0,0,1-20-20v-2a12,12,0,0,0-4.7-9.51A91.57,91.57,0,0,1,36,104.52C35.73,54.69,76,13.2,125.79,12A92,92,0,0,1,220,104Zm-24,0a68,68,0,0,0-69.65-68C89.56,36.88,59.8,67.55,60,104.38a67.71,67.71,0,0,0,26.1,53.19A35.87,35.87,0,0,1,100,184h56.1A36.13,36.13,0,0,1,170,157.49,67.68,67.68,0,0,0,196,104Zm-20.07-5.32a48.5,48.5,0,0,0-31.91-40,12,12,0,0,0-8,22.62,24.31,24.31,0,0,1,16.09,20,12,12,0,0,0,23.86-2.64Z"/>
    </g>
  </g>
  <g transform="translate(16.00,37.96)" fill="white" stroke="white" stroke-width="0" opacity="0.12">
    <g transform="scale(0.109375)">
      <path d="M144,180a16,16,0,1,1-16-16A16,16,0,0,1,144,180Zm92-52A108,108,0,1,1,128,20,108.12,108.12,0,0,1,236,128Zm-24,0a84,84,0,1,0-84,84A84.09,84.09,0,0,0,212,128ZM128,64c-24.26,0-44,17.94-44,40v4a12,12,0,0,0,24,0v-4c0-8.82,9-16,20-16s20,7.18,20,16-9,16-20,16a12,12,0,0,0-12,12v8a12,12,0,0,0,23.73,2.56C158.31,137.88,172,122.37,172,104,172,81.94,152.26,64,128,64Z"/>
    </g>
  </g>
  <g transform="translate(76.00,37.96)" fill="white" stroke="white" stroke-width="0" opacity="0.12">
    <g transform="scale(0.109375)">
      <path d="M180,232a12,12,0,0,1-12,12H88a12,12,0,0,1,0-24h80A12,12,0,0,1,180,232Zm40-128a91.51,91.51,0,0,1-35.17,72.35A12.26,12.26,0,0,0,180,186v2a20,20,0,0,1-20,20H96a20,20,0,0,1-20-20v-2a12,12,0,0,0-4.7-9.51A91.57,91.57,0,0,1,36,104.52C35.73,54.69,76,13.2,125.79,12A92,92,0,0,1,220,104Zm-24,0a68,68,0,0,0-69.65-68C89.56,36.88,59.8,67.55,60,104.38a67.71,67.71,0,0,0,26.1,53.19A35.87,35.87,0,0,1,100,184h56.1A36.13,36.13,0,0,1,170,157.49,67.68,67.68,0,0,0,196,104Zm-20.07-5.32a48.5,48.5,0,0,0-31.91-40,12,12,0,0,0-8,22.62,24.31,24.31,0,0,1,16.09,20,12,12,0,0,0,23.86-2.64Z"/>
    </g>
  </g>
</svg>