<svg xmlns="http://www.w3.org/2000/svg" width="120" height="103.92" viewBox="0 0 120 103.92">
  <g transform="translate(-14.00,-14.00)" fill="white" stroke="white" stroke-width="0" opacity="0.12">
    <g transform="scale(0.109375)">
      <path d="M125.18,156.94a64,64,0,1,0-82.36,0,100.23,100.23,0,0,0-39.49,32,12,12,0,0,0,19.35,14.2,76,76,0,0,1,122.64,0,12,12,0,0,0,19.36-14.2A100.33,100.33,0,0,0,125.18,156.94ZM44,108a40,40,0,1,1,40,40A40,40,0,0,1,44,108Zm206.1,97.67a12,12,0,0,1-16.78-2.57A76.31,76.31,0,0,0,172,172a12,12,0,0,1,0-24,40,40,0,1,0-10.3-78.67,12,12,0,1,1-6.16-23.19,64,64,0,0,1,57.64,110.8,100.23,100.23,0,0,1,39.49,32A12,12,0,0,1,250.1,205.67Z"/>
    </g>
  </g>
  <g transform="translate(-14.00,89.92)" fill="white" stroke="white" stroke-width="0" opacity="0.12">
    <g transform="scale(0.109375)">
      <path d="M125.18,156.94a64,64,0,1,0-82.36,0,100.23,100.23,0,0,0-39.49,32,12,12,0,0,0,19.35,14.2,76,76,0,0,1,122.64,0,12,12,0,0,0,19.36-14.2A100.33,100.33,0,0,0,125.18,156.94ZM44,108a40,40,0,1,1,40,40A40,40,0,0,1,44,108Zm206.1,97.67a12,12,0,0,1-16.78-2.57A76.31,76.31,0,0,0,172,172a12,12,0,0,1,0-24,40,40,0,1,0-10.3-78.67,12,12,0,1,1-6.16-23.19,64,64,0,0,1,57.64,110.8,100.23,100.23,0,0,1,39.49,32A12,12,0,0,1,250.1,205.67Z"/>
    </g>
  </g>
  <g transform="translate(106.00,-14.00)" fill="white" stroke="white" stroke-width="0" opacity="0.12">
    <g transform="scale(0.109375)">
      <path d="M125.18,156.94a64,64,0,1,0-82.36,0,100.23,100.23,0,0,0-39.49,32,12,12,0,0,0,19.35,14.2,76,76,0,0,1,122.64,0,12,12,0,0,0,19.36-14.2A100.33,100.33,0,0,0,125.18,156.94ZM44,108a40,40,0,1,1,40,40A40,40,0,0,1,44,108Zm206.1,97.67a12,12,0,0,1-16.78-2.57A76.31,76.31,0,0,0,172,172a12,12,0,0,1,0-24,40,40,0,1,0-10.3-78.67,12,12,0,1,1-6.16-23.19,64,64,0,0,1,57.64,110.8,100.23,100.23,0,0,1,39.49,32A12,12,0,0,1,250.1,205.67Z"/>
    </g>
  </g>
  <g transform="translate(106.00,89.92)" fill="white" stroke="white" stroke-width="0" opacity="0.12">
    <g transform="scale(0.109375)">
      <path d="M125.18,156.94a64,64,0,1,0-82.36,0,100.23,100.23,0,0,0-39.49,32,12,12,0,0,0,19.35,14.2,76,76,0,0,1,122.64,0,12,12,0,0,0,19.36-14.2A100.33,100.33,0,0,0,125.18,156.94ZM44,108a40,40,0,1,1,40,40A40,40,0,0,1,44,108Zm206.1,97.67a12,12,0,0,1-16.78-2.57A76.31,76.31,0,0,0,172,172a12,12,0,0,1,0-24,40,40,0,1,0-10.3-78.67,12,12,0,1,1-6.16-23.19,64,64,0,0,1,57.64,110.8,100.23,100.23,0,0,1,39.49,32A12,12,0,0,1,250.1,205.67Z"/>
    </g>
  </g>
  <g transform="translate(46.00,-14.00)" fill="white" stroke="white" stroke-width="0" opacity="0.12">
    <g transform="scale(0.109375)">
      <path d="M164.38,181.1a52,52,0,1,0-72.76,0,75.89,75.89,0,0,0-30,28.89,12,12,0,0,0,20.78,12,53,53,0,0,1,91.22,0,12,12,0,1,0,20.78-12A75.89,75.89,0,0,0,164.38,181.1ZM100,144a28,28,0,1,1,28,28A28,28,0,0,1,100,144Zm147.21,9.59a12,12,0,0,1-16.81-2.39c-8.33-11.09-19.85-19.59-29.33-21.64a12,12,0,0,1-1.82-22.91,20,20,0,1,0-24.78-28.3,12,12,0,1,1-21-11.6,44,44,0,1,1,73.28,48.35,92.18,92.18,0,0,1,22.85,21.69A12,12,0,0,1,247.21,153.59Zm-192.28-24c-9.48,2.05-21,10.55-29.33,21.65A12,12,0,0,1,6.41,136.79,92.37,92.37,0,0,1,29.26,115.1a44,44,0,1,1,73.28-48.35,12,12,0,1,1-21,11.6,20,20,0,1,0-24.78,28.3,12,12,0,0,1-1.82,22.91Z"/>
    </g>
  </g>
  <g transform="translate(46.00,89.92)" fill="white" stroke="white" stroke-width="0" opacity="0.12">
    <g transform="scale(0.109375)">
      <path d="M164.38,181.1a52,52,0,1,0-72.76,0,75.89,75.89,0,0,0-30,28.89,12,12,0,0,0,20.78,12,53,53,0,0,1,91.22,0,12,12,0,1,0,20.78-12A75.89,75.89,0,0,0,164.38,181.1ZM100,144a28,28,0,1,1,28,28A28,28,0,0,1,100,144Zm147.21,9.59a12,12,0,0,1-16.81-2.39c-8.33-11.09-19.85-19.59-29.33-21.64a12,12,0,0,1-1.82-22.91,20,20,0,1,0-24.78-28.3,12,12,0,1,1-21-11.6,44,44,0,1,1,73.28,48.35,92.18,92.18,0,0,1,22.85,21.69A12,12,0,0,1,247.21,153.59Zm-192.28-24c-9.48,2.05-21,10.55-29.33,21.65A12,12,0,0,1,6.41,136.79,92.37,92.37,0,0,1,29.26,115.1a44,44,0,1,1,73.28-48.35,12,12,0,1,1-21,11.6,20,20,0,1,0-24.78,28.3,12,12,0,0,1-1.82,22.91Z"/>
    </g>
  </g>
  <g transform="translate(16.00,37.96)" fill="white" stroke="white" stroke-width="0" opacity="0.12">
    <g transform="scale(0.109375)">
      <path d="M125.18,156.94a64,64,0,1,0-82.36,0,100.23,100.23,0,0,0-39.49,32,12,12,0,0,0,19.35,14.2,76,76,0,0,1,122.64,0,12,12,0,0,0,19.36-14.2A100.33,100.33,0,0,0,125.18,156.94ZM44,108a40,40,0,1,1,40,40A40,40,0,0,1,44,108Zm206.1,97.67a12,12,0,0,1-16.78-2.57A76.31,76.31,0,0,0,172,172a12,12,0,0,1,0-24,40,40,0,1,0-10.3-78.67,12,12,0,1,1-6.16-23.19,64,64,0,0,1,57.64,110.8,100.23,100.23,0,0,1,39.49,32A12,12,0,0,1,250.1,205.67Z"/>
    </g>
  </g>
  <g transform="translate(76.00,37.96)" fill="white" stroke="white" stroke-width="0" opacity="0.12">
    <g transform="scale(0.109375)">
      <path d="M164.38,181.1a52,52,0,1,0-72.76,0,75.89,75.89,0,0,0-30,28.89,12,12,0,0,0,20.78,12,53,53,0,0,1,91.22,0,12,12,0,1,0,20.78-12A75.89,75.89,0,0,0,164.38,181.1ZM100,144a28,28,0,1,1,28,28A28,28,0,0,1,100,144Zm147.21,9.59a12,12,0,0,1-16.81-2.39c-8.33-11.09-19.85-19.59-29.33-21.64a12,12,0,0,1-1.82-22.91,20,20,0,1,0-24.78-28.3,12,12,0,1,1-21-11.6,44,44,0,1,1,73.28,48.35,92.18,92.18,0,0,1,22.85,21.69A12,12,0,0,1,247.21,153.59Zm-192.28-24c-9.48,2.05-21,10.55-29.33,21.65A12,12,0,0,1,6.41,136.79,92.37,92.37,0,0,1,29.26,115.1a44,44,0,1,1,73.28-48.35,12,12,0,1,1-21,11.6,20,20,0,1,0-24.78,28.3,12,12,0,0,1-1.82,22.91Z"/>
    </g>
  </g>
</svg>