<svg xmlns="http://www.w3.org/2000/svg" width="120" height="103.92" viewBox="0 0 120 103.92">
  <g transform="translate(-14.00,-14.00)" fill="white" stroke="white" stroke-width="0" opacity="0.12">
    <g transform="scale(0.109375)">
      <path d="M255.14,187.54a12,12,0,0,0-15.6-6.68l-9.75,3.9-27.06-54.13A12,12,0,0,0,192,124H116V108h52a12,12,0,0,0,0-24H116V77.81a34,34,0,1,0-24,0v8.88a76,76,0,1,0,88.35,106.57,12,12,0,1,0-21.57-10.52A52,52,0,1,1,92,112v24a12,12,0,0,0,12,12h80.58l28.68,57.37a12,12,0,0,0,15.19,5.77l20-8A12,12,0,0,0,255.14,187.54ZM104,36A10,10,0,1,1,94,46,10,10,0,0,1,104,36Z"/>
    </g>
  </g>
  <g transform="translate(-14.00,89.92)" fill="white" stroke="white" stroke-width="0" opacity="0.12">
    <g transform="scale(0.109375)">
      <path d="M255.14,187.54a12,12,0,0,0-15.6-6.68l-9.75,3.9-27.06-54.13A12,12,0,0,0,192,124H116V108h52a12,12,0,0,0,0-24H116V77.81a34,34,0,1,0-24,0v8.88a76,76,0,1,0,88.35,106.57,12,12,0,1,0-21.57-10.52A52,52,0,1,1,92,112v24a12,12,0,0,0,12,12h80.58l28.68,57.37a12,12,0,0,0,15.19,5.77l20-8A12,12,0,0,0,255.14,187.54ZM104,36A10,10,0,1,1,94,46,10,10,0,0,1,104,36Z"/>
    </g>
  </g>
  <g transform="translate(106.00,-14.00)" fill="white" stroke="white" stroke-width="0" opacity="0.12">
    <g transform="scale(0.109375)">
      <path d="M255.14,187.54a12,12,0,0,0-15.6-6.68l-9.75,3.9-27.06-54.13A12,12,0,0,0,192,124H116V108h52a12,12,0,0,0,0-24H116V77.81a34,34,0,1,0-24,0v8.88a76,76,0,1,0,88.35,106.57,12,12,0,1,0-21.57-10.52A52,52,0,1,1,92,112v24a12,12,0,0,0,12,12h80.58l28.68,57.37a12,12,0,0,0,15.19,5.77l20-8A12,12,0,0,0,255.14,187.54ZM104,36A10,10,0,1,1,94,46,10,10,0,0,1,104,36Z"/>
    </g>
  </g>
  <g transform="translate(106.00,89.92)" fill="white" stroke="white" stroke-width="0" opacity="0.12">
    <g transform="scale(0.109375)">
      <path d="M255.14,187.54a12,12,0,0,0-15.6-6.68l-9.75,3.9-27.06-54.13A12,12,0,0,0,192,124H116V108h52a12,12,0,0,0,0-24H116V77.81a34,34,0,1,0-24,0v8.88a76,76,0,1,0,88.35,106.57,12,12,0,1,0-21.57-10.52A52,52,0,1,1,92,112v24a12,12,0,0,0,12,12h80.58l28.68,57.37a12,12,0,0,0,15.19,5.77l20-8A12,12,0,0,0,255.14,187.54ZM104,36A10,10,0,1,1,94,46,10,10,0,0,1,104,36Z"/>
    </g>
  </g>
  <g transform="translate(46.00,-14.00)" fill="white" stroke="white" stroke-width="0" opacity="0.12">
    <g transform="scale(0.109375)">
      <path d="M251,123.13c-.37-.81-9.13-20.26-28.48-39.61C196.63,57.67,164,44,128,44S59.37,57.67,33.51,83.52C14.16,102.87,5.4,122.32,5,123.13a12.08,12.08,0,0,0,0,9.75c.37.82,9.13,20.26,28.49,39.61C59.37,198.34,92,212,128,212s68.63-13.66,94.48-39.51c19.36-19.35,28.12-38.79,28.49-39.61A12.08,12.08,0,0,0,251,123.13Zm-46.06,33C183.47,177.27,157.59,188,128,188s-55.47-10.73-76.91-31.88A130.36,130.36,0,0,1,29.52,128,130.45,130.45,0,0,1,51.09,99.89C72.54,78.73,98.41,68,128,68s55.46,10.73,76.91,31.89A130.36,130.36,0,0,1,226.48,128,130.45,130.45,0,0,1,204.91,156.12ZM128,84a44,44,0,1,0,44,44A44.05,44.05,0,0,0,128,84Zm0,64a20,20,0,1,1,20-20A20,20,0,0,1,128,148Z"/>
    </g>
  </g>
  <g transform="translate(46.00,89.92)" fill="white" stroke="white" stroke-width="0" opacity="0.12">
    <g transform="scale(0.109375)">
      <path d="M251,123.13c-.37-.81-9.13-20.26-28.48-39.61C196.63,57.67,164,44,128,44S59.37,57.67,33.51,83.52C14.16,102.87,5.4,122.32,5,123.13a12.08,12.08,0,0,0,0,9.75c.37.82,9.13,20.26,28.49,39.61C59.37,198.34,92,212,128,212s68.63-13.66,94.48-39.51c19.36-19.35,28.12-38.79,28.49-39.61A12.08,12.08,0,0,0,251,123.13Zm-46.06,33C183.47,177.27,157.59,188,128,188s-55.47-10.73-76.91-31.88A130.36,130.36,0,0,1,29.52,128,130.45,130.45,0,0,1,51.09,99.89C72.54,78.73,98.41,68,128,68s55.46,10.73,76.91,31.89A130.36,130.36,0,0,1,226.48,128,130.45,130.45,0,0,1,204.91,156.12ZM128,84a44,44,0,1,0,44,44A44.05,44.05,0,0,0,128,84Zm0,64a20,20,0,1,1,20-20A20,20,0,0,1,128,148Z"/>
    </g>
  </g>
  <g transform="translate(16.00,37.96)" fill="white" stroke="white" stroke-width="0" opacity="0.12">
    <g transform="scale(0.109375)">
      <path d="M220,104a12,12,0,0,1-24,0,68,68,0,0,0-136,0c0,25,7.58,32.3,16.35,40.76S96,163.71,96,188a32,32,0,0,0,32,32c9,0,16.19-3.7,22.75-11.64a12,12,0,0,1,18.5,15.28C158.09,237.15,144.21,244,128,244a56.06,56.06,0,0,1-56-56c0-14.09-4.63-18.56-12.31-26C49.13,151.86,36,139.19,36,104a92,92,0,0,1,184,0Zm-40.13,53.61a12,12,0,0,0-16.4,4.38,4,4,0,0,1-7.47-2c0-7.61,3.65-12.86,9.6-20.8C172,130.65,180,120,180,104a52,52,0,0,0-104,0,12,12,0,0,0,24,0,28,28,0,0,1,56,0c0,7.61-3.65,12.86-9.6,20.8C140,133.35,132,144,132,160a28,28,0,0,0,52.25,14A12,12,0,0,0,179.87,157.61Z"/>
    </g>
  </g>
  <g transform="translate(76.00,37.96)" fill="white" stroke="white" stroke-width="0" opacity="0.12">
    <g transform="scale(0.109375)">
      <path d="M255.14,187.54a12,12,0,0,0-15.6-6.68l-9.75,3.9-27.06-54.13A12,12,0,0,0,192,124H116V108h52a12,12,0,0,0,0-24H116V77.81a34,34,0,1,0-24,0v8.88a76,76,0,1,0,88.35,106.57,12,12,0,1,0-21.57-10.52A52,52,0,1,1,92,112v24a12,12,0,0,0,12,12h80.58l28.68,57.37a12,12,0,0,0,15.19,5.77l20-8A12,12,0,0,0,255.14,187.54ZM104,36A10,10,0,1,1,94,46,10,10,0,0,1,104,36Z"/>
    </g>
  </g>
</svg>