<svg xmlns="http://www.w3.org/2000/svg" width="120" height="120" viewBox="0 0 120 120">
  <g transform="translate(46.0,12.399999999999999)" fill="white" stroke="white" stroke-width="0" opacity="0.12">
    <g transform="scale(0.109375)">
      <path d="M252,92.68a19.86,19.86,0,0,0-5.86-14.14L177.46,9.85a20,20,0,0,0-28.29,0L121.35,37.67,64.11,59.14A20,20,0,0,0,51.4,74.58L28.16,214A12,12,0,0,0,40,228a11.9,11.9,0,0,0,2-.16l139.45-23.25a20.07,20.07,0,0,0,15.44-12.7l21.46-57.25,27.82-27.82A19.85,19.85,0,0,0,252,92.68ZM175.2,181.3,75,198l33-33a34,34,0,1,0-17-17L58,181,74.7,80.8,125,61.94,194.05,131ZM112,134a10,10,0,1,1,10,10A10,10,0,0,1,112,134Zm96-23L145,48l18.34-18.34,63,63Z"/>
    </g>
  </g>
  <g transform="translate(10.0,72.39999999999999)" fill="white" stroke="white" stroke-width="0" opacity="0.12">
    <g transform="scale(0.109375)">
      <path d="M232,44H160a43.86,43.86,0,0,0-32,13.85A43.86,43.86,0,0,0,96,44H24A12,12,0,0,0,12,56V200a12,12,0,0,0,12,12H96a20,20,0,0,1,20,20,12,12,0,0,0,24,0,20,20,0,0,1,20-20h72a12,12,0,0,0,12-12V56A12,12,0,0,0,232,44ZM96,188H36V68H96a20,20,0,0,1,20,20V192.81A43.79,43.79,0,0,0,96,188Zm124,0H160a43.71,43.71,0,0,0-20,4.83V88a20,20,0,0,1,20-20h60Z"/>
    </g>
  </g>
  <g transform="translate(82.0,72.39999999999999)" fill="white" stroke="white" stroke-width="0" opacity="0.12">
    <g transform="scale(0.109375)">
      <path d="M108,108a12,12,0,0,1,12-12h56a12,12,0,0,1,0,24H120A12,12,0,0,1,108,108Zm68,28H120a12,12,0,0,0,0,24h56a12,12,0,0,0,0-24Zm52-88V208a20,20,0,0,1-20,20H48a20,20,0,0,1-20-20V48A20,20,0,0,1,48,28H208A20,20,0,0,1,228,48ZM52,204H68V52H52ZM204,52H92V204H204Z"/>
    </g>
  </g>
</svg>