<svg xmlns="http://www.w3.org/2000/svg" width="120" height="120" viewBox="0 0 120 120">
  <g transform="translate(46.0,12.399999999999999)" fill="white" stroke="white" stroke-width="0" opacity="0.12">
    <g transform="scale(0.109375)">
      <path d="M128,180a52.06,52.06,0,0,0,52-52V64A52,52,0,0,0,76,64v64A52.06,52.06,0,0,0,128,180ZM100,64a28,28,0,0,1,56,0v64a28,28,0,0,1-56,0Zm40,155.22V240a12,12,0,0,1-24,0V219.22A92.14,92.14,0,0,1,36,128a12,12,0,0,1,24,0,68,68,0,0,0,136,0,12,12,0,0,1,24,0A92.14,92.14,0,0,1,140,219.22Z"/>
    </g>
  </g>
  <g transform="translate(10.0,72.39999999999999)" fill="white" stroke="white" stroke-width="0" opacity="0.12">
    <g transform="scale(0.109375)">
      <path d="M128,84a44,44,0,1,0,44,44A44.05,44.05,0,0,0,128,84Zm0,64a20,20,0,1,1,20-20A20,20,0,0,1,128,148Zm77.39,12.7A83.94,83.94,0,0,1,190.61,184a12,12,0,0,1-17.89-16,59.92,59.92,0,0,0,0-80,12,12,0,0,1,17.89-16,84.07,84.07,0,0,1,14.78,88.7ZM83.28,168a12,12,0,0,1-17.89,16,83.94,83.94,0,0,1,0-112A12,12,0,0,1,83.28,88a59.92,59.92,0,0,0,0,80ZM252,128a123.63,123.63,0,0,1-35.43,86.78A12,12,0,1,1,199.43,198a99.88,99.88,0,0,0,0-140,12,12,0,0,1,17.14-16.8A123.63,123.63,0,0,1,252,128ZM56.57,198a12,12,0,0,1-17.14,16.8,123.89,123.89,0,0,1,0-173.56A12,12,0,0,1,56.57,58a99.88,99.88,0,0,0,0,140Z"/>
    </g>
  </g>
  <g transform="translate(82.0,72.39999999999999)" fill="white" stroke="white" stroke-width="0" opacity="0.12">
    <g transform="scale(0.109375)">
      <path d="M204.73,51.85A108.07,108.07,0,0,0,20,128v56a28,28,0,0,0,28,28H64a28,28,0,0,0,28-28V144a28,28,0,0,0-28-28H44.84A84.05,84.05,0,0,1,128,44h.64a83.7,83.7,0,0,1,82.52,72H192a28,28,0,0,0-28,28v40a28,28,0,0,0,28,28h16a28,28,0,0,0,28-28V128A107.34,107.34,0,0,0,204.73,51.85ZM64,140a4,4,0,0,1,4,4v40a4,4,0,0,1-4,4H48a4,4,0,0,1-4-4V140Zm148,44a4,4,0,0,1-4,4H192a4,4,0,0,1-4-4V144a4,4,0,0,1,4-4h20Z"/>
    </g>
  </g>
</svg>