<svg xmlns="http://www.w3.org/2000/svg" width="120" height="103.92" viewBox="0 0 120 103.92">
  <g transform="translate(-14.00,-14.00)" fill="white" stroke="white" stroke-width="0" opacity="0.12">
    <g transform="scale(0.109375)">
      <path d="M246.17,57.9,198.09,29.65h0A11.9,11.9,0,0,0,192,28H160a12,12,0,0,0-12,12,20,20,0,0,1-40,0A12,12,0,0,0,96,28H64a11.9,11.9,0,0,0-6.07,1.66h0L9.83,57.9A20.18,20.18,0,0,0,2,84l17.9,36.8A19.62,19.62,0,0,0,37.67,132H52v76a20,20,0,0,0,20,20H184a20,20,0,0,0,20-20V132h14.32a19.64,19.64,0,0,0,17.75-11.17L254,84A20.18,20.18,0,0,0,246.17,57.9ZM40.37,108,25.16,76.73,52,61v47ZM180,204H76V52h9.67a44,44,0,0,0,84.68,0H180Zm35.62-96H204V61l26.83,15.76Z"/>
    </g>
  </g>
  <g transform="translate(-14.00,89.92)" fill="white" stroke="white" stroke-width="0" opacity="0.12">
    <g transform="scale(0.109375)">
      <path d="M246.17,57.9,198.09,29.65h0A11.9,11.9,0,0,0,192,28H160a12,12,0,0,0-12,12,20,20,0,0,1-40,0A12,12,0,0,0,96,28H64a11.9,11.9,0,0,0-6.07,1.66h0L9.83,57.9A20.18,20.18,0,0,0,2,84l17.9,36.8A19.62,19.62,0,0,0,37.67,132H52v76a20,20,0,0,0,20,20H184a20,20,0,0,0,20-20V132h14.32a19.64,19.64,0,0,0,17.75-11.17L254,84A20.18,20.18,0,0,0,246.17,57.9ZM40.37,108,25.16,76.73,52,61v47ZM180,204H76V52h9.67a44,44,0,0,0,84.68,0H180Zm35.62-96H204V61l26.83,15.76Z"/>
    </g>
  </g>
  <g transform="translate(106.00,-14.00)" fill="white" stroke="white" stroke-width="0" opacity="0.12">
    <g transform="scale(0.109375)">
      <path d="M246.17,57.9,198.09,29.65h0A11.9,11.9,0,0,0,192,28H160a12,12,0,0,0-12,12,20,20,0,0,1-40,0A12,12,0,0,0,96,28H64a11.9,11.9,0,0,0-6.07,1.66h0L9.83,57.9A20.18,20.18,0,0,0,2,84l17.9,36.8A19.62,19.62,0,0,0,37.67,132H52v76a20,20,0,0,0,20,20H184a20,20,0,0,0,20-20V132h14.32a19.64,19.64,0,0,0,17.75-11.17L254,84A20.18,20.18,0,0,0,246.17,57.9ZM40.37,108,25.16,76.73,52,61v47ZM180,204H76V52h9.67a44,44,0,0,0,84.68,0H180Zm35.62-96H204V61l26.83,15.76Z"/>
    </g>
  </g>
  <g transform="translate(106.00,89.92)" fill="white" stroke="white" stroke-width="0" opacity="0.12">
    <g transform="scale(0.109375)">
      <path d="M246.17,57.9,198.09,29.65h0A11.9,11.9,0,0,0,192,28H160a12,12,0,0,0-12,12,20,20,0,0,1-40,0A12,12,0,0,0,96,28H64a11.9,11.9,0,0,0-6.07,1.66h0L9.83,57.9A20.18,20.18,0,0,0,2,84l17.9,36.8A19.62,19.62,0,0,0,37.67,132H52v76a20,20,0,0,0,20,20H184a20,20,0,0,0,20-20V132h14.32a19.64,19.64,0,0,0,17.75-11.17L254,84A20.18,20.18,0,0,0,246.17,57.9ZM40.37,108,25.16,76.73,52,61v47ZM180,204H76V52h9.67a44,44,0,0,0,84.68,0H180Zm35.62-96H204V61l26.83,15.76Z"/>
    </g>
  </g>
  <g transform="translate(46.00,-14.00)" fill="white" stroke="white" stroke-width="0" opacity="0.12">
    <g transform="scale(0.109375)">
      <path d="M200,36a12,12,0,0,0,0,24,12,12,0,0,1,12,12v52H44V72A12,12,0,0,1,56,60a12,12,0,0,0,0-24A36,36,0,0,0,20,72v92a48,48,0,0,0,96,0V148h24v16a48,48,0,0,0,96,0V72A36,36,0,0,0,200,36ZM68,188a24,24,0,0,1-24-24v-9l31.74,31.74A23.89,23.89,0,0,1,68,188Zm24-24a24.8,24.8,0,0,1-.44,4.59L71,148H92Zm96,24a24,24,0,0,1-24-24v-9l31.74,31.74A23.89,23.89,0,0,1,188,188Zm24-24a24.8,24.8,0,0,1-.44,4.59L191,148h21Z"/>
    </g>
  </g>
  <g transform="translate(46.00,89.92)" fill="white" stroke="white" stroke-width="0" opacity="0.12">
    <g transform="scale(0.109375)">
      <path d="M200,36a12,12,0,0,0,0,24,12,12,0,0,1,12,12v52H44V72A12,12,0,0,1,56,60a12,12,0,0,0,0-24A36,36,0,0,0,20,72v92a48,48,0,0,0,96,0V148h24v16a48,48,0,0,0,96,0V72A36,36,0,0,0,200,36ZM68,188a24,24,0,0,1-24-24v-9l31.74,31.74A23.89,23.89,0,0,1,68,188Zm24-24a24.8,24.8,0,0,1-.44,4.59L71,148H92Zm96,24a24,24,0,0,1-24-24v-9l31.74,31.74A23.89,23.89,0,0,1,188,188Zm24-24a24.8,24.8,0,0,1-.44,4.59L191,148h21Z"/>
    </g>
  </g>
  <g transform="translate(16.00,37.96)" fill="white" stroke="white" stroke-width="0" opacity="0.12">
    <g transform="scale(0.109375)">
      <path d="M255.8,162.93l0-.31A43.94,43.94,0,0,0,226,125.36l-56.62-20.2-.24-.09a20,20,0,0,1-11.92-10.78L134.06,40l-.06-.16A20.06,20.06,0,0,0,108.89,29.2L33.17,56.73A20.07,20.07,0,0,0,20,75.53V192a20,20,0,0,0,20,20H236a20,20,0,0,0,20-20V167.06C256,165.67,255.93,164.3,255.8,162.93ZM113.53,53.05l6,14L103.9,72.72a12,12,0,1,0,8.2,22.55L129,89.14l4.54,10.63-13.6,5A12,12,0,0,0,124,128a11.79,11.79,0,0,0,4.1-.73l19.57-7.11a43.86,43.86,0,0,0,13.8,7.64L218.09,148l.23.08a19.89,19.89,0,0,1,6.84,3.91H44V78.33ZM44,188V176H232v12Z"/>
    </g>
  </g>
  <g transform="translate(76.00,37.96)" fill="white" stroke="white" stroke-width="0" opacity="0.12">
    <g transform="scale(0.109375)">
      <path d="M244,168,148,96l19.2-14.4A12,12,0,0,0,172,72a44,44,0,0,0-87.66-5.48,12,12,0,1,0,23.82,3,20,20,0,0,1,39.09-2.92L121,86.24c-.15.1-.29.21-.43.32L12,168a20,20,0,0,0,12,36H232a20,20,0,0,0,12-36ZM36,180l92-69,92,69Z"/>
    </g>
  </g>
</svg>