<svg xmlns="http://www.w3.org/2000/svg" width="120" height="103.92" viewBox="0 0 120 103.92">
  <g transform="translate(-14.00,-14.00)" fill="white" stroke="white" stroke-width="0" opacity="0.12">
    <g transform="scale(0.109375)">
      <path d="M114.32,49.8A19.79,19.79,0,0,0,81.72,57L29.22,201.41A19.82,19.82,0,0,0,47.75,228a20,20,0,0,0,6.84-1.22L199,174.28a19.79,19.79,0,0,0,7.24-32.6ZM104.19,183.21l-31.4-31.4L82.94,123.9l49.16,49.16Zm-52.42,26.4Zm12-32.91L79.3,192.26l-24.45,8.89ZM157,164,92,99l10-27.58L184.57,154ZM128,40V16a12,12,0,0,1,24,0V40a12,12,0,0,1-24,0Zm116.48,83.51a12,12,0,0,1-17,17l-16-16a12,12,0,0,1,17-17Zm-.69-40.13-24,8a12,12,0,0,1-7.59-22.77l24-8a12,12,0,1,1,7.59,22.77ZM156.6,65.93C159.83,47.47,173.39,36,192,36c6.45,0,8.69-2.49,10-4.92a18,18,0,0,0,2-7.22V24a12,12,0,0,1,24,0c0,14.47-9.59,36-36,36-4.94,0-10.21,1.19-11.76,10.06A12,12,0,0,1,168.43,80a12.35,12.35,0,0,1-2.08-.18A12,12,0,0,1,156.6,65.93Z"/>
    </g>
  </g>
  <g transform="translate(-14.00,89.92)" fill="white" stroke="white" stroke-width="0" opacity="0.12">
    <g transform="scale(0.109375)">
      <path d="M114.32,49.8A19.79,19.79,0,0,0,81.72,57L29.22,201.41A19.82,19.82,0,0,0,47.75,228a20,20,0,0,0,6.84-1.22L199,174.28a19.79,19.79,0,0,0,7.24-32.6ZM104.19,183.21l-31.4-31.4L82.94,123.9l49.16,49.16Zm-52.42,26.4Zm12-32.91L79.3,192.26l-24.45,8.89ZM157,164,92,99l10-27.58L184.57,154ZM128,40V16a12,12,0,0,1,24,0V40a12,12,0,0,1-24,0Zm116.48,83.51a12,12,0,0,1-17,17l-16-16a12,12,0,0,1,17-17Zm-.69-40.13-24,8a12,12,0,0,1-7.59-22.77l24-8a12,12,0,1,1,7.59,22.77ZM156.6,65.93C159.83,47.47,173.39,36,192,36c6.45,0,8.69-2.49,10-4.92a18,18,0,0,0,2-7.22V24a12,12,0,0,1,24,0c0,14.47-9.59,36-36,36-4.94,0-10.21,1.19-11.76,10.06A12,12,0,0,1,168.43,80a12.35,12.35,0,0,1-2.08-.18A12,12,0,0,1,156.6,65.93Z"/>
    </g>
  </g>
  <g transform="translate(106.00,-14.00)" fill="white" stroke="white" stroke-width="0" opacity="0.12">
    <g transform="scale(0.109375)">
      <path d="M114.32,49.8A19.79,19.79,0,0,0,81.72,57L29.22,201.41A19.82,19.82,0,0,0,47.75,228a20,20,0,0,0,6.84-1.22L199,174.28a19.79,19.79,0,0,0,7.24-32.6ZM104.19,183.21l-31.4-31.4L82.94,123.9l49.16,49.16Zm-52.42,26.4Zm12-32.91L79.3,192.26l-24.45,8.89ZM157,164,92,99l10-27.58L184.57,154ZM128,40V16a12,12,0,0,1,24,0V40a12,12,0,0,1-24,0Zm116.48,83.51a12,12,0,0,1-17,17l-16-16a12,12,0,0,1,17-17Zm-.69-40.13-24,8a12,12,0,0,1-7.59-22.77l24-8a12,12,0,1,1,7.59,22.77ZM156.6,65.93C159.83,47.47,173.39,36,192,36c6.45,0,8.69-2.49,10-4.92a18,18,0,0,0,2-7.22V24a12,12,0,0,1,24,0c0,14.47-9.59,36-36,36-4.94,0-10.21,1.19-11.76,10.06A12,12,0,0,1,168.43,80a12.35,12.35,0,0,1-2.08-.18A12,12,0,0,1,156.6,65.93Z"/>
    </g>
  </g>
  <g transform="translate(106.00,89.92)" fill="white" stroke="white" stroke-width="0" opacity="0.12">
    <g transform="scale(0.109375)">
      <path d="M114.32,49.8A19.79,19.79,0,0,0,81.72,57L29.22,201.41A19.82,19.82,0,0,0,47.75,228a20,20,0,0,0,6.84-1.22L199,174.28a19.79,19.79,0,0,0,7.24-32.6ZM104.19,183.21l-31.4-31.4L82.94,123.9l49.16,49.16Zm-52.42,26.4Zm12-32.91L79.3,192.26l-24.45,8.89ZM157,164,92,99l10-27.58L184.57,154ZM128,40V16a12,12,0,0,1,24,0V40a12,12,0,0,1-24,0Zm116.48,83.51a12,12,0,0,1-17,17l-16-16a12,12,0,0,1,17-17Zm-.69-40.13-24,8a12,12,0,0,1-7.59-22.77l24-8a12,12,0,1,1,7.59,22.77ZM156.6,65.93C159.83,47.47,173.39,36,192,36c6.45,0,8.69-2.49,10-4.92a18,18,0,0,0,2-7.22V24a12,12,0,0,1,24,0c0,14.47-9.59,36-36,36-4.94,0-10.21,1.19-11.76,10.06A12,12,0,0,1,168.43,80a12.35,12.35,0,0,1-2.08-.18A12,12,0,0,1,156.6,65.93Z"/>
    </g>
  </g>
  <g transform="translate(46.00,-14.00)" fill="white" stroke="white" stroke-width="0" opacity="0.12">
    <g transform="scale(0.109375)">
      <path d="M255,187.13l-64-144A12,12,0,0,0,180,36H76a12,12,0,0,0-10.85,6.9,2.42,2.42,0,0,0-.12.23L65,43.3a.08.08,0,0,0,0,0L1,187.13A12,12,0,0,0,12,204H244a12,12,0,0,0,11-16.87ZM64,104.55V180H30.46ZM88,180V104.55L121.54,180Zm59.8,0L94.47,60H172.2l53.34,120Z"/>
    </g>
  </g>
  <g transform="translate(46.00,89.92)" fill="white" stroke="white" stroke-width="0" opacity="0.12">
    <g transform="scale(0.109375)">
      <path d="M255,187.13l-64-144A12,12,0,0,0,180,36H76a12,12,0,0,0-10.85,6.9,2.42,2.42,0,0,0-.12.23L65,43.3a.08.08,0,0,0,0,0L1,187.13A12,12,0,0,0,12,204H244a12,12,0,0,0,11-16.87ZM64,104.55V180H30.46ZM88,180V104.55L121.54,180Zm59.8,0L94.47,60H172.2l53.34,120Z"/>
    </g>
  </g>
  <g transform="translate(16.00,37.96)" fill="white" stroke="white" stroke-width="0" opacity="0.12">
    <g transform="scale(0.109375)">
      <path d="M243.94,92.67l-184-64A12,12,0,0,0,44,40V216a12,12,0,0,0,24,0V176.53l175.94-61.2a12,12,0,0,0,0-22.66ZM68,151.12V56.88L203.47,104Z"/>
    </g>
  </g>
  <g transform="translate(76.00,37.96)" fill="white" stroke="white" stroke-width="0" opacity="0.12">
    <g transform="scale(0.109375)">
      <path d="M114.32,49.8A19.79,19.79,0,0,0,81.72,57L29.22,201.41A19.82,19.82,0,0,0,47.75,228a20,20,0,0,0,6.84-1.22L199,174.28a19.79,19.79,0,0,0,7.24-32.6ZM104.19,183.21l-31.4-31.4L82.94,123.9l49.16,49.16Zm-52.42,26.4Zm12-32.91L79.3,192.26l-24.45,8.89ZM157,164,92,99l10-27.58L184.57,154ZM128,40V16a12,12,0,0,1,24,0V40a12,12,0,0,1-24,0Zm116.48,83.51a12,12,0,0,1-17,17l-16-16a12,12,0,0,1,17-17Zm-.69-40.13-24,8a12,12,0,0,1-7.59-22.77l24-8a12,12,0,1,1,7.59,22.77ZM156.6,65.93C159.83,47.47,173.39,36,192,36c6.45,0,8.69-2.49,10-4.92a18,18,0,0,0,2-7.22V24a12,12,0,0,1,24,0c0,14.47-9.59,36-36,36-4.94,0-10.21,1.19-11.76,10.06A12,12,0,0,1,168.43,80a12.35,12.35,0,0,1-2.08-.18A12,12,0,0,1,156.6,65.93Z"/>
    </g>
  </g>
</svg>