<svg xmlns="http://www.w3.org/2000/svg" width="120" height="103.92" viewBox="0 0 120 103.92">
  <g transform="translate(-14.00,-14.00)" fill="white" stroke="white" stroke-width="0" opacity="0.12">
    <g transform="scale(0.109375)">
      <path d="M216,132a12,12,0,0,0-12,12c0,21.86-11.41,25.95-35.16,32.42-9.12,2.49-19.61,5.36-28.84,10.69V132h28a12,12,0,0,0,0-24H140V89.94a36,36,0,1,0-24,0V108H88a12,12,0,0,0,0,24h28v55.11c-9.23-5.33-19.72-8.2-28.84-10.69C63.41,170,52,165.86,52,144a12,12,0,0,0-24,0c0,41.17,30.54,49.5,52.84,55.58C104.59,206.05,116,210.14,116,232a12,12,0,0,0,24,0c0-21.86,11.41-25.95,35.16-32.42C197.46,193.5,228,185.17,228,144A12,12,0,0,0,216,132ZM128,44a12,12,0,1,1-12,12A12,12,0,0,1,128,44Z"/>
    </g>
  </g>
  <g transform="translate(-14.00,89.92)" fill="white" stroke="white" stroke-width="0" opacity="0.12">
    <g transform="scale(0.109375)">
      <path d="M216,132a12,12,0,0,0-12,12c0,21.86-11.41,25.95-35.16,32.42-9.12,2.49-19.61,5.36-28.84,10.69V132h28a12,12,0,0,0,0-24H140V89.94a36,36,0,1,0-24,0V108H88a12,12,0,0,0,0,24h28v55.11c-9.23-5.33-19.72-8.2-28.84-10.69C63.41,170,52,165.86,52,144a12,12,0,0,0-24,0c0,41.17,30.54,49.5,52.84,55.58C104.59,206.05,116,210.14,116,232a12,12,0,0,0,24,0c0-21.86,11.41-25.95,35.16-32.42C197.46,193.5,228,185.17,228,144A12,12,0,0,0,216,132ZM128,44a12,12,0,1,1-12,12A12,12,0,0,1,128,44Z"/>
    </g>
  </g>
  <g transform="translate(106.00,-14.00)" fill="white" stroke="white" stroke-width="0" opacity="0.12">
    <g transform="scale(0.109375)">
      <path d="M216,132a12,12,0,0,0-12,12c0,21.86-11.41,25.95-35.16,32.42-9.12,2.49-19.61,5.36-28.84,10.69V132h28a12,12,0,0,0,0-24H140V89.94a36,36,0,1,0-24,0V108H88a12,12,0,0,0,0,24h28v55.11c-9.23-5.33-19.72-8.2-28.84-10.69C63.41,170,52,165.86,52,144a12,12,0,0,0-24,0c0,41.17,30.54,49.5,52.84,55.58C104.59,206.05,116,210.14,116,232a12,12,0,0,0,24,0c0-21.86,11.41-25.95,35.16-32.42C197.46,193.5,228,185.17,228,144A12,12,0,0,0,216,132ZM128,44a12,12,0,1,1-12,12A12,12,0,0,1,128,44Z"/>
    </g>
  </g>
  <g transform="translate(106.00,89.92)" fill="white" stroke="white" stroke-width="0" opacity="0.12">
    <g transform="scale(0.109375)">
      <path d="M216,132a12,12,0,0,0-12,12c0,21.86-11.41,25.95-35.16,32.42-9.12,2.49-19.61,5.36-28.84,10.69V132h28a12,12,0,0,0,0-24H140V89.94a36,36,0,1,0-24,0V108H88a12,12,0,0,0,0,24h28v55.11c-9.23-5.33-19.72-8.2-28.84-10.69C63.41,170,52,165.86,52,144a12,12,0,0,0-24,0c0,41.17,30.54,49.5,52.84,55.58C104.59,206.05,116,210.14,116,232a12,12,0,0,0,24,0c0-21.86,11.41-25.95,35.16-32.42C197.46,193.5,228,185.17,228,144A12,12,0,0,0,216,132ZM128,44a12,12,0,1,1-12,12A12,12,0,0,1,128,44Z"/>
    </g>
  </g>
  <g transform="translate(46.00,-14.00)" fill="white" stroke="white" stroke-width="0" opacity="0.12">
    <g transform="scale(0.109375)">
      <path d="M250.82,170.8A12,12,0,0,0,240,164H148V148h68a12,12,0,0,0,8.88-20.07L148,43.36V12a12,12,0,0,0-21.19-7.71l-104,124A12,12,0,0,0,32,148h92v16H16a12,12,0,0,0-9.37,19.5l29.6,37A19.9,19.9,0,0,0,51.84,228H204.16a19.9,19.9,0,0,0,15.61-7.51l29.6-37A12,12,0,0,0,250.82,170.8ZM188.87,124H148V79ZM57.73,124,124,45v79Zm144.5,80H53.77L41,188H215Z"/>
    </g>
  </g>
  <g transform="translate(46.00,89.92)" fill="white" stroke="white" stroke-width="0" opacity="0.12">
    <g transform="scale(0.109375)">
      <path d="M250.82,170.8A12,12,0,0,0,240,164H148V148h68a12,12,0,0,0,8.88-20.07L148,43.36V12a12,12,0,0,0-21.19-7.71l-104,124A12,12,0,0,0,32,148h92v16H16a12,12,0,0,0-9.37,19.5l29.6,37A19.9,19.9,0,0,0,51.84,228H204.16a19.9,19.9,0,0,0,15.61-7.51l29.6-37A12,12,0,0,0,250.82,170.8ZM188.87,124H148V79ZM57.73,124,124,45v79Zm144.5,80H53.77L41,188H215Z"/>
    </g>
  </g>
  <g transform="translate(16.00,37.96)" fill="white" stroke="white" stroke-width="0" opacity="0.12">
    <g transform="scale(0.109375)">
      <path d="M225.24,174.74a12,12,0,0,1-1.58,16.89C205.49,206.71,189.06,212,174.15,212c-19.76,0-36.86-9.29-51.88-17.44-25.06-13.62-44.86-24.37-74.61.3a12,12,0,1,1-15.32-18.48c42.25-35,75-17.23,101.39-2.92,25.06,13.61,44.86,24.37,74.61-.3A12,12,0,0,1,225.24,174.74Zm-16.9-57.59c-29.75,24.67-49.55,13.91-74.61.3-26.35-14.3-59.14-32.11-101.39,2.92a12,12,0,0,0,15.32,18.48c29.75-24.67,49.55-13.92,74.61-.3,15,8.15,32.12,17.44,51.88,17.44,14.91,0,31.34-5.29,49.51-20.36a12,12,0,0,0-15.32-18.48ZM47.66,82.84c29.75-24.67,49.55-13.92,74.61-.3,15,8.15,32.12,17.44,51.88,17.44,14.91,0,31.34-5.29,49.51-20.36a12,12,0,0,0-15.32-18.48c-29.75,24.67-49.55,13.92-74.61.3-26.35-14.3-59.14-32.11-101.39,2.93A12,12,0,1,0,47.66,82.84Z"/>
    </g>
  </g>
  <g transform="translate(76.00,37.96)" fill="white" stroke="white" stroke-width="0" opacity="0.12">
    <g transform="scale(0.109375)">
      <path d="M216,132a12,12,0,0,0-12,12c0,21.86-11.41,25.95-35.16,32.42-9.12,2.49-19.61,5.36-28.84,10.69V132h28a12,12,0,0,0,0-24H140V89.94a36,36,0,1,0-24,0V108H88a12,12,0,0,0,0,24h28v55.11c-9.23-5.33-19.72-8.2-28.84-10.69C63.41,170,52,165.86,52,144a12,12,0,0,0-24,0c0,41.17,30.54,49.5,52.84,55.58C104.59,206.05,116,210.14,116,232a12,12,0,0,0,24,0c0-21.86,11.41-25.95,35.16-32.42C197.46,193.5,228,185.17,228,144A12,12,0,0,0,216,132ZM128,44a12,12,0,1,1-12,12A12,12,0,0,1,128,44Z"/>
    </g>
  </g>
</svg>