<svg xmlns="http://www.w3.org/2000/svg" width="120" height="103.92" viewBox="0 0 120 103.92">
  <g transform="translate(-14.00,-14.00)" fill="white" stroke="white" stroke-width="0" opacity="0.12">
    <g transform="scale(0.109375)">
      <path d="M156,88H100a12,12,0,0,0-12,12v56a12,12,0,0,0,12,12h56a12,12,0,0,0,12-12V100A12,12,0,0,0,156,88Zm-12,56H112V112h32Zm88-4H220V116h12a12,12,0,0,0,0-24H220V56a20,20,0,0,0-20-20H164V24a12,12,0,0,0-24,0V36H116V24a12,12,0,0,0-24,0V36H56A20,20,0,0,0,36,56V92H24a12,12,0,0,0,0,24H36v24H24a12,12,0,0,0,0,24H36v36a20,20,0,0,0,20,20H92v12a12,12,0,0,0,24,0V220h24v12a12,12,0,0,0,24,0V220h36a20,20,0,0,0,20-20V164h12a12,12,0,0,0,0-24Zm-36,56H60V60H196Z"/>
    </g>
  </g>
  <g transform="translate(-14.00,89.92)" fill="white" stroke="white" stroke-width="0" opacity="0.12">
    <g transform="scale(0.109375)">
      <path d="M156,88H100a12,12,0,0,0-12,12v56a12,12,0,0,0,12,12h56a12,12,0,0,0,12-12V100A12,12,0,0,0,156,88Zm-12,56H112V112h32Zm88-4H220V116h12a12,12,0,0,0,0-24H220V56a20,20,0,0,0-20-20H164V24a12,12,0,0,0-24,0V36H116V24a12,12,0,0,0-24,0V36H56A20,20,0,0,0,36,56V92H24a12,12,0,0,0,0,24H36v24H24a12,12,0,0,0,0,24H36v36a20,20,0,0,0,20,20H92v12a12,12,0,0,0,24,0V220h24v12a12,12,0,0,0,24,0V220h36a20,20,0,0,0,20-20V164h12a12,12,0,0,0,0-24Zm-36,56H60V60H196Z"/>
    </g>
  </g>
  <g transform="translate(106.00,-14.00)" fill="white" stroke="white" stroke-width="0" opacity="0.12">
    <g transform="scale(0.109375)">
      <path d="M156,88H100a12,12,0,0,0-12,12v56a12,12,0,0,0,12,12h56a12,12,0,0,0,12-12V100A12,12,0,0,0,156,88Zm-12,56H112V112h32Zm88-4H220V116h12a12,12,0,0,0,0-24H220V56a20,20,0,0,0-20-20H164V24a12,12,0,0,0-24,0V36H116V24a12,12,0,0,0-24,0V36H56A20,20,0,0,0,36,56V92H24a12,12,0,0,0,0,24H36v24H24a12,12,0,0,0,0,24H36v36a20,20,0,0,0,20,20H92v12a12,12,0,0,0,24,0V220h24v12a12,12,0,0,0,24,0V220h36a20,20,0,0,0,20-20V164h12a12,12,0,0,0,0-24Zm-36,56H60V60H196Z"/>
    </g>
  </g>
  <g transform="translate(106.00,89.92)" fill="white" stroke="white" stroke-width="0" opacity="0.12">
    <g transform="scale(0.109375)">
      <path d="M156,88H100a12,12,0,0,0-12,12v56a12,12,0,0,0,12,12h56a12,12,0,0,0,12-12V100A12,12,0,0,0,156,88Zm-12,56H112V112h32Zm88-4H220V116h12a12,12,0,0,0,0-24H220V56a20,20,0,0,0-20-20H164V24a12,12,0,0,0-24,0V36H116V24a12,12,0,0,0-24,0V36H56A20,20,0,0,0,36,56V92H24a12,12,0,0,0,0,24H36v24H24a12,12,0,0,0,0,24H36v36a20,20,0,0,0,20,20H92v12a12,12,0,0,0,24,0V220h24v12a12,12,0,0,0,24,0V220h36a20,20,0,0,0,20-20V164h12a12,12,0,0,0,0-24Zm-36,56H60V60H196Z"/>
    </g>
  </g>
  <g transform="translate(46.00,-14.00)" fill="white" stroke="white" stroke-width="0" opacity="0.12">
    <g transform="scale(0.109375)">
      <path d="M71.68,97.22,34.74,128l36.94,30.78a12,12,0,1,1-15.36,18.44l-48-40a12,12,0,0,1,0-18.44l48-40A12,12,0,0,1,71.68,97.22Zm176,21.56-48-40a12,12,0,1,0-15.36,18.44L221.26,128l-36.94,30.78a12,12,0,1,0,15.36,18.44l48-40a12,12,0,0,0,0-18.44ZM164.1,28.72a12,12,0,0,0-15.38,7.18l-64,176a12,12,0,0,0,7.18,15.37A11.79,11.79,0,0,0,96,228a12,12,0,0,0,11.28-7.9l64-176A12,12,0,0,0,164.1,28.72Z"/>
    </g>
  </g>
  <g transform="translate(46.00,89.92)" fill="white" stroke="white" stroke-width="0" opacity="0.12">
    <g transform="scale(0.109375)">
      <path d="M71.68,97.22,34.74,128l36.94,30.78a12,12,0,1,1-15.36,18.44l-48-40a12,12,0,0,1,0-18.44l48-40A12,12,0,0,1,71.68,97.22Zm176,21.56-48-40a12,12,0,1,0-15.36,18.44L221.26,128l-36.94,30.78a12,12,0,1,0,15.36,18.44l48-40a12,12,0,0,0,0-18.44ZM164.1,28.72a12,12,0,0,0-15.38,7.18l-64,176a12,12,0,0,0,7.18,15.37A11.79,11.79,0,0,0,96,228a12,12,0,0,0,11.28-7.9l64-176A12,12,0,0,0,164.1,28.72Z"/>
    </g>
  </g>
  <g transform="translate(16.00,37.96)" fill="white" stroke="white" stroke-width="0" opacity="0.12">
    <g transform="scale(0.109375)">
      <path d="M232,156h-4V72a28,28,0,0,0-28-28H56A28,28,0,0,0,28,72v84H24a12,12,0,0,0-12,12v24a28,28,0,0,0,28,28H216a28,28,0,0,0,28-28V168A12,12,0,0,0,232,156ZM52,72a4,4,0,0,1,4-4H200a4,4,0,0,1,4,4v84H52ZM220,192a4,4,0,0,1-4,4H40a4,4,0,0,1-4-4V180H220ZM156,96a12,12,0,0,1-12,12H112a12,12,0,0,1,0-24h32A12,12,0,0,1,156,96Z"/>
    </g>
  </g>
  <g transform="translate(76.00,37.96)" fill="white" stroke="white" stroke-width="0" opacity="0.12">
    <g transform="scale(0.109375)">
      <path d="M176,12H80A28,28,0,0,0,52,40V216a28,28,0,0,0,28,28h96a28,28,0,0,0,28-28V40A28,28,0,0,0,176,12ZM76,76H180V180H76Zm4-40h96a4,4,0,0,1,4,4V52H76V40A4,4,0,0,1,80,36Zm96,184H80a4,4,0,0,1-4-4V204H180v12A4,4,0,0,1,176,220Z"/>
    </g>
  </g>
</svg>