<svg xmlns="http://www.w3.org/2000/svg" width="120" height="103.92" viewBox="0 0 120 103.92">
  <g transform="translate(-14.00,-14.00)" fill="white" stroke="white" stroke-width="0" opacity="0.12">
    <g transform="scale(0.109375)">
      <path d="M230.47,67.5a12,12,0,0,0-19.26-4.32L172.43,99l-12.68-2.72L157,83.57l35.79-38.78a12,12,0,0,0-4.32-19.26A76.07,76.07,0,0,0,88.41,121.64L30.92,174.18a4.68,4.68,0,0,0-.39.38,36,36,0,0,0,50.91,50.91l.38-.39,52.54-57.49A76.05,76.05,0,0,0,230.47,67.5ZM160,148a51.5,51.5,0,0,1-23.35-5.52,12,12,0,0,0-14.26,2.62L64.31,208.66a12,12,0,0,1-17-17l63.55-58.07a12,12,0,0,0,2.62-14.26A51.5,51.5,0,0,1,108,96a52.06,52.06,0,0,1,52-52h.89L135.17,71.87a12,12,0,0,0-2.91,10.65l5.66,26.35a12,12,0,0,0,9.21,9.21l26.35,5.66a12,12,0,0,0,10.65-2.91L212,95.12c0,.3,0,.59,0,.89A52.06,52.06,0,0,1,160,148Z"/>
    </g>
  </g>
  <g transform="translate(-14.00,89.92)" fill="white" stroke="white" stroke-width="0" opacity="0.12">
    <g transform="scale(0.109375)">
      <path d="M230.47,67.5a12,12,0,0,0-19.26-4.32L172.43,99l-12.68-2.72L157,83.57l35.79-38.78a12,12,0,0,0-4.32-19.26A76.07,76.07,0,0,0,88.41,121.64L30.92,174.18a4.68,4.68,0,0,0-.39.38,36,36,0,0,0,50.91,50.91l.38-.39,52.54-57.49A76.05,76.05,0,0,0,230.47,67.5ZM160,148a51.5,51.5,0,0,1-23.35-5.52,12,12,0,0,0-14.26,2.62L64.31,208.66a12,12,0,0,1-17-17l63.55-58.07a12,12,0,0,0,2.62-14.26A51.5,51.5,0,0,1,108,96a52.06,52.06,0,0,1,52-52h.89L135.17,71.87a12,12,0,0,0-2.91,10.65l5.66,26.35a12,12,0,0,0,9.21,9.21l26.35,5.66a12,12,0,0,0,10.65-2.91L212,95.12c0,.3,0,.59,0,.89A52.06,52.06,0,0,1,160,148Z"/>
    </g>
  </g>
  <g transform="translate(106.00,-14.00)" fill="white" stroke="white" stroke-width="0" opacity="0.12">
    <g transform="scale(0.109375)">
      <path d="M230.47,67.5a12,12,0,0,0-19.26-4.32L172.43,99l-12.68-2.72L157,83.57l35.79-38.78a12,12,0,0,0-4.32-19.26A76.07,76.07,0,0,0,88.41,121.64L30.92,174.18a4.68,4.68,0,0,0-.39.38,36,36,0,0,0,50.91,50.91l.38-.39,52.54-57.49A76.05,76.05,0,0,0,230.47,67.5ZM160,148a51.5,51.5,0,0,1-23.35-5.52,12,12,0,0,0-14.26,2.62L64.31,208.66a12,12,0,0,1-17-17l63.55-58.07a12,12,0,0,0,2.62-14.26A51.5,51.5,0,0,1,108,96a52.06,52.06,0,0,1,52-52h.89L135.17,71.87a12,12,0,0,0-2.91,10.65l5.66,26.35a12,12,0,0,0,9.21,9.21l26.35,5.66a12,12,0,0,0,10.65-2.91L212,95.12c0,.3,0,.59,0,.89A52.06,52.06,0,0,1,160,148Z"/>
    </g>
  </g>
  <g transform="translate(106.00,89.92)" fill="white" stroke="white" stroke-width="0" opacity="0.12">
    <g transform="scale(0.109375)">
      <path d="M230.47,67.5a12,12,0,0,0-19.26-4.32L172.43,99l-12.68-2.72L157,83.57l35.79-38.78a12,12,0,0,0-4.32-19.26A76.07,76.07,0,0,0,88.41,121.64L30.92,174.18a4.68,4.68,0,0,0-.39.38,36,36,0,0,0,50.91,50.91l.38-.39,52.54-57.49A76.05,76.05,0,0,0,230.47,67.5ZM160,148a51.5,51.5,0,0,1-23.35-5.52,12,12,0,0,0-14.26,2.62L64.31,208.66a12,12,0,0,1-17-17l63.55-58.07a12,12,0,0,0,2.62-14.26A51.5,51.5,0,0,1,108,96a52.06,52.06,0,0,1,52-52h.89L135.17,71.87a12,12,0,0,0-2.91,10.65l5.66,26.35a12,12,0,0,0,9.21,9.21l26.35,5.66a12,12,0,0,0,10.65-2.91L212,95.12c0,.3,0,.59,0,.89A52.06,52.06,0,0,1,160,148Z"/>
    </g>
  </g>
  <g transform="translate(46.00,-14.00)" fill="white" stroke="white" stroke-width="0" opacity="0.12">
    <g transform="scale(0.109375)">
      <path d="M250.18,105.17,186.71,41.25a100.11,100.11,0,0,0-141.43,0l-.13.14L31.37,55.61a12,12,0,1,0,17.24,16.7L62.32,58.16A75.68,75.68,0,0,1,77.49,46.43L119,88,25.85,181.16a20,20,0,0,0,0,28.29l20.69,20.69a20,20,0,0,0,28.28,0L168,137l1.51,1.51h0l23.65,23.66a20,20,0,0,0,28.29,0l28.69-28.7A20,20,0,0,0,250.18,105.17ZM60.68,210.34l-15-15L108,133l15,15ZM140,131l-15-15,19.51-19.51a12,12,0,0,0,0-17L102.24,37.24a75.94,75.94,0,0,1,67.47,20.95l31.44,31.67L178,113l-1.51-1.51a12,12,0,0,0-17,0Zm67.32,11.31L195,130l23.09-23.09,12.3,12.39Z"/>
    </g>
  </g>
  <g transform="translate(46.00,89.92)" fill="white" stroke="white" stroke-width="0" opacity="0.12">
    <g transform="scale(0.109375)">
      <path d="M250.18,105.17,186.71,41.25a100.11,100.11,0,0,0-141.43,0l-.13.14L31.37,55.61a12,12,0,1,0,17.24,16.7L62.32,58.16A75.68,75.68,0,0,1,77.49,46.43L119,88,25.85,181.16a20,20,0,0,0,0,28.29l20.69,20.69a20,20,0,0,0,28.28,0L168,137l1.51,1.51h0l23.65,23.66a20,20,0,0,0,28.29,0l28.69-28.7A20,20,0,0,0,250.18,105.17ZM60.68,210.34l-15-15L108,133l15,15ZM140,131l-15-15,19.51-19.51a12,12,0,0,0,0-17L102.24,37.24a75.94,75.94,0,0,1,67.47,20.95l31.44,31.67L178,113l-1.51-1.51a12,12,0,0,0-17,0Zm67.32,11.31L195,130l23.09-23.09,12.3,12.39Z"/>
    </g>
  </g>
  <g transform="translate(16.00,37.96)" fill="white" stroke="white" stroke-width="0" opacity="0.12">
    <g transform="scale(0.109375)">
      <path d="M180,232a12,12,0,0,1-12,12H88a12,12,0,0,1,0-24h80A12,12,0,0,1,180,232Zm40-128a91.51,91.51,0,0,1-35.17,72.35A12.26,12.26,0,0,0,180,186v2a20,20,0,0,1-20,20H96a20,20,0,0,1-20-20v-2a12,12,0,0,0-4.7-9.51A91.57,91.57,0,0,1,36,104.52C35.73,54.69,76,13.2,125.79,12A92,92,0,0,1,220,104Zm-24,0a68,68,0,0,0-69.65-68C89.56,36.88,59.8,67.55,60,104.38a67.71,67.71,0,0,0,26.1,53.19A35.87,35.87,0,0,1,100,184h56.1A36.13,36.13,0,0,1,170,157.49,67.68,67.68,0,0,0,196,104Zm-20.07-5.32a48.5,48.5,0,0,0-31.91-40,12,12,0,0,0-8,22.62,24.31,24.31,0,0,1,16.09,20,12,12,0,0,0,23.86-2.64Z"/>
    </g>
  </g>
  <g transform="translate(76.00,37.96)" fill="white" stroke="white" stroke-width="0" opacity="0.12">
    <g transform="scale(0.109375)">
      <path d="M230.47,67.5a12,12,0,0,0-19.26-4.32L172.43,99l-12.68-2.72L157,83.57l35.79-38.78a12,12,0,0,0-4.32-19.26A76.07,76.07,0,0,0,88.41,121.64L30.92,174.18a4.68,4.68,0,0,0-.39.38,36,36,0,0,0,50.91,50.91l.38-.39,52.54-57.49A76.05,76.05,0,0,0,230.47,67.5ZM160,148a51.5,51.5,0,0,1-23.35-5.52,12,12,0,0,0-14.26,2.62L64.31,208.66a12,12,0,0,1-17-17l63.55-58.07a12,12,0,0,0,2.62-14.26A51.5,51.5,0,0,1,108,96a52.06,52.06,0,0,1,52-52h.89L135.17,71.87a12,12,0,0,0-2.91,10.65l5.66,26.35a12,12,0,0,0,9.21,9.21l26.35,5.66a12,12,0,0,0,10.65-2.91L212,95.12c0,.3,0,.59,0,.89A52.06,52.06,0,0,1,160,148Z"/>
    </g>
  </g>
</svg>