<svg xmlns="http://www.w3.org/2000/svg" width="120" height="103.92" viewBox="0 0 120 103.92">
  <g transform="translate(-14.00,-14.00)" fill="white" stroke="white" stroke-width="0" opacity="0.12">
    <g transform="scale(0.109375)">
      <path d="M250.73,210.63l-56-112a12,12,0,0,0-21.46,0l-20.52,41A84.2,84.2,0,0,1,114,126.22,107.48,107.48,0,0,0,139.33,68H160a12,12,0,0,0,0-24H108V32a12,12,0,0,0-24,0V44H32a12,12,0,0,0,0,24h83.13A83.69,83.69,0,0,1,96,110.35,84,84,0,0,1,83.6,91a12,12,0,1,0-21.81,10A107.55,107.55,0,0,0,78,126.24,83.54,83.54,0,0,1,32,140a12,12,0,0,0,0,24,107.47,107.47,0,0,0,64-21.07,108.4,108.4,0,0,0,45.39,19.44l-24.13,48.26a12,12,0,1,0,21.46,10.73L151.41,196h65.17l12.68,25.36a12,12,0,1,0,21.47-10.73ZM163.41,172,184,130.83,204.58,172Z"/>
    </g>
  </g>
  <g transform="translate(-14.00,89.92)" fill="white" stroke="white" stroke-width="0" opacity="0.12">
    <g transform="scale(0.109375)">
      <path d="M250.73,210.63l-56-112a12,12,0,0,0-21.46,0l-20.52,41A84.2,84.2,0,0,1,114,126.22,107.48,107.48,0,0,0,139.33,68H160a12,12,0,0,0,0-24H108V32a12,12,0,0,0-24,0V44H32a12,12,0,0,0,0,24h83.13A83.69,83.69,0,0,1,96,110.35,84,84,0,0,1,83.6,91a12,12,0,1,0-21.81,10A107.55,107.55,0,0,0,78,126.24,83.54,83.54,0,0,1,32,140a12,12,0,0,0,0,24,107.47,107.47,0,0,0,64-21.07,108.4,108.4,0,0,0,45.39,19.44l-24.13,48.26a12,12,0,1,0,21.46,10.73L151.41,196h65.17l12.68,25.36a12,12,0,1,0,21.47-10.73ZM163.41,172,184,130.83,204.58,172Z"/>
    </g>
  </g>
  <g transform="translate(106.00,-14.00)" fill="white" stroke="white" stroke-width="0" opacity="0.12">
    <g transform="scale(0.109375)">
      <path d="M250.73,210.63l-56-112a12,12,0,0,0-21.46,0l-20.52,41A84.2,84.2,0,0,1,114,126.22,107.48,107.48,0,0,0,139.33,68H160a12,12,0,0,0,0-24H108V32a12,12,0,0,0-24,0V44H32a12,12,0,0,0,0,24h83.13A83.69,83.69,0,0,1,96,110.35,84,84,0,0,1,83.6,91a12,12,0,1,0-21.81,10A107.55,107.55,0,0,0,78,126.24,83.54,83.54,0,0,1,32,140a12,12,0,0,0,0,24,107.47,107.47,0,0,0,64-21.07,108.4,108.4,0,0,0,45.39,19.44l-24.13,48.26a12,12,0,1,0,21.46,10.73L151.41,196h65.17l12.68,25.36a12,12,0,1,0,21.47-10.73ZM163.41,172,184,130.83,204.58,172Z"/>
    </g>
  </g>
  <g transform="translate(106.00,89.92)" fill="white" stroke="white" stroke-width="0" opacity="0.12">
    <g transform="scale(0.109375)">
      <path d="M250.73,210.63l-56-112a12,12,0,0,0-21.46,0l-20.52,41A84.2,84.2,0,0,1,114,126.22,107.48,107.48,0,0,0,139.33,68H160a12,12,0,0,0,0-24H108V32a12,12,0,0,0-24,0V44H32a12,12,0,0,0,0,24h83.13A83.69,83.69,0,0,1,96,110.35,84,84,0,0,1,83.6,91a12,12,0,1,0-21.81,10A107.55,107.55,0,0,0,78,126.24,83.54,83.54,0,0,1,32,140a12,12,0,0,0,0,24,107.47,107.47,0,0,0,64-21.07,108.4,108.4,0,0,0,45.39,19.44l-24.13,48.26a12,12,0,1,0,21.46,10.73L151.41,196h65.17l12.68,25.36a12,12,0,1,0,21.47-10.73ZM163.41,172,184,130.83,204.58,172Z"/>
    </g>
  </g>
  <g transform="translate(46.00,-14.00)" fill="white" stroke="white" stroke-width="0" opacity="0.12">
    <g transform="scale(0.109375)">
      <path d="M216,44H40A20,20,0,0,0,20,64V224A19.82,19.82,0,0,0,31.56,242.1a20.14,20.14,0,0,0,8.49,1.9,19.91,19.91,0,0,0,12.82-4.72l.12-.11L84.47,212H216a20,20,0,0,0,20-20V64A20,20,0,0,0,216,44Zm-4,144H80a11.93,11.93,0,0,0-7.84,2.92L44,215.23V68H212ZM84,108A12,12,0,0,1,96,96h64a12,12,0,1,1,0,24H96A12,12,0,0,1,84,108Zm0,40a12,12,0,0,1,12-12h64a12,12,0,0,1,0,24H96A12,12,0,0,1,84,148Z"/>
    </g>
  </g>
  <g transform="translate(46.00,89.92)" fill="white" stroke="white" stroke-width="0" opacity="0.12">
    <g transform="scale(0.109375)">
      <path d="M216,44H40A20,20,0,0,0,20,64V224A19.82,19.82,0,0,0,31.56,242.1a20.14,20.14,0,0,0,8.49,1.9,19.91,19.91,0,0,0,12.82-4.72l.12-.11L84.47,212H216a20,20,0,0,0,20-20V64A20,20,0,0,0,216,44Zm-4,144H80a11.93,11.93,0,0,0-7.84,2.92L44,215.23V68H212ZM84,108A12,12,0,0,1,96,96h64a12,12,0,1,1,0,24H96A12,12,0,0,1,84,108Zm0,40a12,12,0,0,1,12-12h64a12,12,0,0,1,0,24H96A12,12,0,0,1,84,148Z"/>
    </g>
  </g>
  <g transform="translate(16.00,37.96)" fill="white" stroke="white" stroke-width="0" opacity="0.12">
    <g transform="scale(0.109375)">
      <path d="M128,20A108,108,0,1,0,236,128,108.12,108.12,0,0,0,128,20Zm83.13,96H179.56a144.3,144.3,0,0,0-21.35-66.36A84.22,84.22,0,0,1,211.13,116ZM128,207c-9.36-10.81-24.46-33.13-27.45-67h54.94a119.74,119.74,0,0,1-17.11,52.77A108.61,108.61,0,0,1,128,207Zm-27.45-91a119.74,119.74,0,0,1,17.11-52.77A108.61,108.61,0,0,1,128,49c9.36,10.81,24.46,33.13,27.45,67ZM97.79,49.64A144.3,144.3,0,0,0,76.44,116H44.87A84.22,84.22,0,0,1,97.79,49.64ZM44.87,140H76.44a144.3,144.3,0,0,0,21.35,66.36A84.22,84.22,0,0,1,44.87,140Zm113.34,66.36A144.3,144.3,0,0,0,179.56,140h31.57A84.22,84.22,0,0,1,158.21,206.36Z"/>
    </g>
  </g>
  <g transform="translate(76.00,37.96)" fill="white" stroke="white" stroke-width="0" opacity="0.12">
    <g transform="scale(0.109375)">
      <path d="M250.73,210.63l-56-112a12,12,0,0,0-21.46,0l-20.52,41A84.2,84.2,0,0,1,114,126.22,107.48,107.48,0,0,0,139.33,68H160a12,12,0,0,0,0-24H108V32a12,12,0,0,0-24,0V44H32a12,12,0,0,0,0,24h83.13A83.69,83.69,0,0,1,96,110.35,84,84,0,0,1,83.6,91a12,12,0,1,0-21.81,10A107.55,107.55,0,0,0,78,126.24,83.54,83.54,0,0,1,32,140a12,12,0,0,0,0,24,107.47,107.47,0,0,0,64-21.07,108.4,108.4,0,0,0,45.39,19.44l-24.13,48.26a12,12,0,1,0,21.46,10.73L151.41,196h65.17l12.68,25.36a12,12,0,1,0,21.47-10.73ZM163.41,172,184,130.83,204.58,172Z"/>
    </g>
  </g>
</svg>