<svg xmlns="http://www.w3.org/2000/svg" width="120" height="120" viewBox="0 0 120 120">
  <g transform="translate(46.0,12.399999999999999)" fill="white" stroke="white" stroke-width="0" opacity="0.12">
    <g transform="scale(0.109375)">
      <path d="M232.76,137.88a28.66,28.66,0,0,0-12-5.39C236.19,114.94,244,97.37,244,80c0-28.67-23.09-52-51.46-52A51.77,51.77,0,0,0,156,42.85,51.77,51.77,0,0,0,119.46,28C91.09,28,68,51.33,68,80c0,10.15,2.72,20.3,8.22,30.7a35.9,35.9,0,0,0-11.73,7.84L43,140H20A20,20,0,0,0,0,160v40a20,20,0,0,0,20,20H120a11.89,11.89,0,0,0,2.91-.36l64-16a11.4,11.4,0,0,0,1.79-.6l38.82-16.54c.23-.09.45-.19.67-.3a28.61,28.61,0,0,0,4.57-48.32ZM119.46,52A27.18,27.18,0,0,1,144.9,68.56a12,12,0,0,0,22.2,0A27.18,27.18,0,0,1,192.54,52C207.42,52,220,64.82,220,80c0,18.06-15,38.84-43.38,60.19L172,141.26c0-.42,0-.84,0-1.26a32,32,0,0,0-32-32H102.71C95.42,97.76,92,88.77,92,80,92,64.82,104.58,52,119.46,52ZM24,164H36v32H24Zm193.68.61-37.51,16L118.52,196H60V157l21.46-21.46A11.93,11.93,0,0,1,89.94,132H140a8,8,0,0,1,0,16H112a12,12,0,0,0,0,24h32a12.19,12.19,0,0,0,2.69-.3l67-15.41.47-.12a4.61,4.61,0,0,1,5.82,4.44A4.58,4.58,0,0,1,217.68,164.61Z"/>
    </g>
  </g>
  <g transform="translate(10.0,72.39999999999999)" fill="white" stroke="white" stroke-width="0" opacity="0.12">
    <g transform="scale(0.109375)">
      <path d="M253.88,108.11l-25.53-51a20,20,0,0,0-26.83-9L178.34,59.7,131.7,44.58a12.14,12.14,0,0,0-7.4,0L77.66,59.7,54.48,48.11a20,20,0,0,0-26.83,9L2.12,108.11a20,20,0,0,0,9,26.83l26.67,13.34,51.18,37.41A12.15,12.15,0,0,0,93,187.62l62,16a12.27,12.27,0,0,0,3,.38,12,12,0,0,0,8.48-3.52l52.62-52.62,25.83-12.92a20,20,0,0,0,8.95-26.83Zm-58.12,29.15-27.52-26a12,12,0,0,0-16.76.26c-9.66,9.74-25.06,16.81-40.81,9.55l38.19-37h22.72l25.81,51.63ZM47.32,71.37,60.59,78l-22,43.9-13.27-6.63Zm107,107.3L101.23,165l-42-30.66L85.17,82.5,128,68.61l1.69.55L90,107.68l-.13.12a20,20,0,0,0,3.4,31c20.95,13.39,46,12.07,66.33-2.73l19.2,18.15Zm63-56.77-22-43.9,13.27-6.63,21.95,43.9ZM118.55,219a12,12,0,0,1-14.62,8.62l-26.6-6.87a12,12,0,0,1-4.08-1.93L48.92,201a12,12,0,0,1,14.16-19.37l22.47,16.42,24.38,6.29A12,12,0,0,1,118.55,219Z"/>
    </g>
  </g>
  <g transform="translate(82.0,72.39999999999999)" fill="white" stroke="white" stroke-width="0" opacity="0.12">
    <g transform="scale(0.109375)">
      <path d="M178,36c-20.09,0-37.92,7.93-50,21.56C115.92,43.93,98.09,36,78,36a66.08,66.08,0,0,0-66,66c0,72.34,105.81,130.14,110.31,132.57a12,12,0,0,0,11.38,0C138.19,232.14,244,174.34,244,102A66.08,66.08,0,0,0,178,36Zm-5.49,142.36A328.69,328.69,0,0,1,128,210.16a328.69,328.69,0,0,1-44.51-31.8C61.82,159.77,36,131.42,36,102A42,42,0,0,1,78,60c17.8,0,32.7,9.4,38.89,24.54a12,12,0,0,0,22.22,0C145.3,69.4,160.2,60,178,60a42,42,0,0,1,42,42C220,131.42,194.18,159.77,172.51,178.36Z"/>
    </g>
  </g>
</svg>