<svg xmlns="http://www.w3.org/2000/svg" width="120" height="103.92" viewBox="0 0 120 103.92">
  <g transform="translate(-14.00,-14.00)" fill="white" stroke="white" stroke-width="0" opacity="0.12">
    <g transform="scale(0.109375)">
      <path d="M240,204H228V96a20,20,0,0,0-20-20H172V32a20,20,0,0,0-28.45-18.12l-104,48.54A20.06,20.06,0,0,0,28,80.55V204H16a12,12,0,0,0,0,24H240a12,12,0,0,0,0-24ZM204,100V204H172V100ZM52,83.09,148,38.3V204H52ZM132,112v12a12,12,0,0,1-24,0V112a12,12,0,0,1,24,0Zm-40,0v12a12,12,0,0,1-24,0V112a12,12,0,0,1,24,0Zm0,52v12a12,12,0,0,1-24,0V164a12,12,0,0,1,24,0Zm40,0v12a12,12,0,0,1-24,0V164a12,12,0,0,1,24,0Z"/>
    </g>
  </g>
  <g transform="translate(46.00,-14.00)" fill="white" stroke="white" stroke-width="0" opacity="0.12">
    <g transform="scale(0.109375)">
      <path d="M125.18,156.94a64,64,0,1,0-82.36,0,100.23,100.23,0,0,0-39.49,32,12,12,0,0,0,19.35,14.2,76,76,0,0,1,122.64,0,12,12,0,0,0,19.36-14.2A100.33,100.33,0,0,0,125.18,156.94ZM44,108a40,40,0,1,1,40,40A40,40,0,0,1,44,108Zm206.1,97.67a12,12,0,0,1-16.78-2.57A76.31,76.31,0,0,0,172,172a12,12,0,0,1,0-24,40,40,0,1,0-10.3-78.67,12,12,0,1,1-6.16-23.19,64,64,0,0,1,57.64,110.8,100.23,100.23,0,0,1,39.49,32A12,12,0,0,1,250.1,205.67Z"/>
    </g>
  </g>
  <g transform="translate(16.00,37.96)" fill="white" stroke="white" stroke-width="0" opacity="0.12">
    <g transform="scale(0.109375)">
      <path d="M244,204H232V99.3A12,12,0,0,0,228,76H188V51.3A12,12,0,0,0,184,28H40a12,12,0,0,0-4,23.3V204H24a12,12,0,0,0,0,24H244a12,12,0,0,0,0-24ZM208,100V204H188V100ZM60,52H164V204H148V160a12,12,0,0,0-12-12H88a12,12,0,0,0-12,12v44H60Zm64,152H100V172h24ZM72,80A12,12,0,0,1,84,68h8a12,12,0,0,1,0,24H84A12,12,0,0,1,72,80Zm48,0a12,12,0,0,1,12-12h8a12,12,0,0,1,0,24h-8A12,12,0,0,1,120,80ZM72,120a12,12,0,0,1,12-12h8a12,12,0,0,1,0,24H84A12,12,0,0,1,72,120Zm48,0a12,12,0,0,1,12-12h8a12,12,0,0,1,0,24h-8A12,12,0,0,1,120,120Z"/>
    </g>
  </g>
  <g transform="translate(76.00,37.96)" fill="white" stroke="white" stroke-width="0" opacity="0.12">
    <g transform="scale(0.109375)">
      <path d="M240,204H228V96a20,20,0,0,0-20-20H172V32a20,20,0,0,0-28.45-18.12l-104,48.54A20.06,20.06,0,0,0,28,80.55V204H16a12,12,0,0,0,0,24H240a12,12,0,0,0,0-24ZM204,100V204H172V100ZM52,83.09,148,38.3V204H52ZM132,112v12a12,12,0,0,1-24,0V112a12,12,0,0,1,24,0Zm-40,0v12a12,12,0,0,1-24,0V112a12,12,0,0,1,24,0Zm0,52v12a12,12,0,0,1-24,0V164a12,12,0,0,1,24,0Zm40,0v12a12,12,0,0,1-24,0V164a12,12,0,0,1,24,0Z"/>
    </g>
  </g>
</svg>