<svg xmlns="http://www.w3.org/2000/svg" width="120" height="103.92" viewBox="0 0 120 103.92">
  <g transform="translate(-14.00,-14.00)" fill="white" stroke="white" stroke-width="0" opacity="0.12">
    <g transform="scale(0.109375)">
      <path d="M231.38,46.54a12,12,0,0,0-10.29-2.18L161.4,59.28l-60-30a12,12,0,0,0-8.28-.91l-64,16A12,12,0,0,0,20,56V200a12,12,0,0,0,14.91,11.64L94.6,196.72l60,30a12,12,0,0,0,8.28.91l64-16A12,12,0,0,0,236,200V56A12,12,0,0,0,231.38,46.54ZM108,59.42l40,20V196.58l-40-20Zm-64,6,40-10V174.63l-40,10ZM212,190.63l-40,10V81.37l40-10Z"/>
    </g>
  </g>
  <g transform="translate(-14.00,89.92)" fill="white" stroke="white" stroke-width="0" opacity="0.12">
    <g transform="scale(0.109375)">
      <path d="M231.38,46.54a12,12,0,0,0-10.29-2.18L161.4,59.28l-60-30a12,12,0,0,0-8.28-.91l-64,16A12,12,0,0,0,20,56V200a12,12,0,0,0,14.91,11.64L94.6,196.72l60,30a12,12,0,0,0,8.28.91l64-16A12,12,0,0,0,236,200V56A12,12,0,0,0,231.38,46.54ZM108,59.42l40,20V196.58l-40-20Zm-64,6,40-10V174.63l-40,10ZM212,190.63l-40,10V81.37l40-10Z"/>
    </g>
  </g>
  <g transform="translate(106.00,-14.00)" fill="white" stroke="white" stroke-width="0" opacity="0.12">
    <g transform="scale(0.109375)">
      <path d="M231.38,46.54a12,12,0,0,0-10.29-2.18L161.4,59.28l-60-30a12,12,0,0,0-8.28-.91l-64,16A12,12,0,0,0,20,56V200a12,12,0,0,0,14.91,11.64L94.6,196.72l60,30a12,12,0,0,0,8.28.91l64-16A12,12,0,0,0,236,200V56A12,12,0,0,0,231.38,46.54ZM108,59.42l40,20V196.58l-40-20Zm-64,6,40-10V174.63l-40,10ZM212,190.63l-40,10V81.37l40-10Z"/>
    </g>
  </g>
  <g transform="translate(106.00,89.92)" fill="white" stroke="white" stroke-width="0" opacity="0.12">
    <g transform="scale(0.109375)">
      <path d="M231.38,46.54a12,12,0,0,0-10.29-2.18L161.4,59.28l-60-30a12,12,0,0,0-8.28-.91l-64,16A12,12,0,0,0,20,56V200a12,12,0,0,0,14.91,11.64L94.6,196.72l60,30a12,12,0,0,0,8.28.91l64-16A12,12,0,0,0,236,200V56A12,12,0,0,0,231.38,46.54ZM108,59.42l40,20V196.58l-40-20Zm-64,6,40-10V174.63l-40,10ZM212,190.63l-40,10V81.37l40-10Z"/>
    </g>
  </g>
  <g transform="translate(46.00,-14.00)" fill="white" stroke="white" stroke-width="0" opacity="0.12">
    <g transform="scale(0.109375)">
      <path d="M128,60a44,44,0,1,0,44,44A44.05,44.05,0,0,0,128,60Zm0,64a20,20,0,1,1,20-20A20,20,0,0,1,128,124Zm0-112a92.1,92.1,0,0,0-92,92c0,77.36,81.64,135.4,85.12,137.83a12,12,0,0,0,13.76,0,259,259,0,0,0,42.18-39C205.15,170.57,220,136.37,220,104A92.1,92.1,0,0,0,128,12Zm31.3,174.71A249.35,249.35,0,0,1,128,216.89a249.35,249.35,0,0,1-31.3-30.18C80,167.37,60,137.31,60,104a68,68,0,0,1,136,0C196,137.31,176,167.37,159.3,186.71Z"/>
    </g>
  </g>
  <g transform="translate(46.00,89.92)" fill="white" stroke="white" stroke-width="0" opacity="0.12">
    <g transform="scale(0.109375)">
      <path d="M128,60a44,44,0,1,0,44,44A44.05,44.05,0,0,0,128,60Zm0,64a20,20,0,1,1,20-20A20,20,0,0,1,128,124Zm0-112a92.1,92.1,0,0,0-92,92c0,77.36,81.64,135.4,85.12,137.83a12,12,0,0,0,13.76,0,259,259,0,0,0,42.18-39C205.15,170.57,220,136.37,220,104A92.1,92.1,0,0,0,128,12Zm31.3,174.71A249.35,249.35,0,0,1,128,216.89a249.35,249.35,0,0,1-31.3-30.18C80,167.37,60,137.31,60,104a68,68,0,0,1,136,0C196,137.31,176,167.37,159.3,186.71Z"/>
    </g>
  </g>
  <g transform="translate(16.00,37.96)" fill="white" stroke="white" stroke-width="0" opacity="0.12">
    <g transform="scale(0.109375)">
      <path d="M128,20A108,108,0,1,0,236,128,108.12,108.12,0,0,0,128,20Zm0,187a113.4,113.4,0,0,1-20.39-35h40.82a116.94,116.94,0,0,1-10,20.77A108.61,108.61,0,0,1,128,207Zm-26.49-59a135.42,135.42,0,0,1,0-40h53a135.42,135.42,0,0,1,0,40ZM44,128a83.49,83.49,0,0,1,2.43-20H77.25a160.63,160.63,0,0,0,0,40H46.43A83.49,83.49,0,0,1,44,128Zm84-79a113.4,113.4,0,0,1,20.39,35H107.59a116.94,116.94,0,0,1,10-20.77A108.61,108.61,0,0,1,128,49Zm50.73,59h30.82a83.52,83.52,0,0,1,0,40H178.75a160.63,160.63,0,0,0,0-40Zm20.77-24H173.71a140.82,140.82,0,0,0-15.5-34.36A84.51,84.51,0,0,1,199.52,84ZM97.79,49.64A140.82,140.82,0,0,0,82.29,84H56.48A84.51,84.51,0,0,1,97.79,49.64ZM56.48,172H82.29a140.82,140.82,0,0,0,15.5,34.36A84.51,84.51,0,0,1,56.48,172Zm101.73,34.36A140.82,140.82,0,0,0,173.71,172h25.81A84.51,84.51,0,0,1,158.21,206.36Z"/>
    </g>
  </g>
  <g transform="translate(76.00,37.96)" fill="white" stroke="white" stroke-width="0" opacity="0.12">
    <g transform="scale(0.109375)">
      <path d="M231.38,46.54a12,12,0,0,0-10.29-2.18L161.4,59.28l-60-30a12,12,0,0,0-8.28-.91l-64,16A12,12,0,0,0,20,56V200a12,12,0,0,0,14.91,11.64L94.6,196.72l60,30a12,12,0,0,0,8.28.91l64-16A12,12,0,0,0,236,200V56A12,12,0,0,0,231.38,46.54ZM108,59.42l40,20V196.58l-40-20Zm-64,6,40-10V174.63l-40,10ZM212,190.63l-40,10V81.37l40-10Z"/>
    </g>
  </g>
</svg>