<svg xmlns="http://www.w3.org/2000/svg" width="120" height="120" viewBox="0 0 120 120">
  <g transform="translate(46.0,12.399999999999999)" fill="white" stroke="white" stroke-width="0" opacity="0.12">
    <g transform="scale(0.109375)">
      <path d="M125.18,156.94a64,64,0,1,0-82.36,0,100.23,100.23,0,0,0-39.49,32,12,12,0,0,0,19.35,14.2,76,76,0,0,1,122.64,0,12,12,0,0,0,19.36-14.2A100.33,100.33,0,0,0,125.18,156.94ZM44,108a40,40,0,1,1,40,40A40,40,0,0,1,44,108Zm206.1,97.67a12,12,0,0,1-16.78-2.57A76.31,76.31,0,0,0,172,172a12,12,0,0,1,0-24,40,40,0,1,0-10.3-78.67,12,12,0,1,1-6.16-23.19,64,64,0,0,1,57.64,110.8,100.23,100.23,0,0,1,39.49,32A12,12,0,0,1,250.1,205.67Z"/>
    </g>
  </g>
  <g transform="translate(10.0,72.39999999999999)" fill="white" stroke="white" stroke-width="0" opacity="0.12">
    <g transform="scale(0.109375)">
      <path d="M92,144a16,16,0,1,1,16-16A16,16,0,0,1,92,144Zm72-32a16,16,0,1,0,16,16A16,16,0,0,0,164,112Zm-14.4,49.85a41,41,0,0,1-43.2,0,12,12,0,1,0-12.8,20.3,65,65,0,0,0,68.8,0,12,12,0,1,0-12.8-20.3ZM236,128A108,108,0,1,1,128,20,108.12,108.12,0,0,1,236,128Zm-24,0a84.08,84.08,0,0,0-82-83.95c-9.46,14.2-10,27.28-10,28A8,8,0,0,0,136,72a12,12,0,0,1,24,0,32,32,0,0,1-64,0c0-.63.1-10.48,5-23.52A84,84,0,1,0,212,128Z"/>
    </g>
  </g>
  <g transform="translate(82.0,72.39999999999999)" fill="white" stroke="white" stroke-width="0" opacity="0.12">
    <g transform="scale(0.109375)">
      <path d="M222.14,105.85l-80-80a20,20,0,0,0-28.28,0l-80,80A19.86,19.86,0,0,0,28,120v96a12,12,0,0,0,12,12h64a12,12,0,0,0,12-12V164h24v52a12,12,0,0,0,12,12h64a12,12,0,0,0,12-12V120A19.86,19.86,0,0,0,222.14,105.85ZM204,204H164V152a12,12,0,0,0-12-12H104a12,12,0,0,0-12,12v52H52V121.65l76-76,76,76Z"/>
    </g>
  </g>
</svg>