<svg xmlns="http://www.w3.org/2000/svg" width="120" height="103.92" viewBox="0 0 120 103.92">
  <g transform="translate(-14.00,-14.00)" fill="white" stroke="white" stroke-width="0" opacity="0.12">
    <g transform="scale(0.109375)">
      <path d="M100,100a12,12,0,0,1,12-12h32a12,12,0,0,1,0,24H112A12,12,0,0,1,100,100ZM236,68V196a20,20,0,0,1-20,20H40a20,20,0,0,1-20-20V68A20,20,0,0,1,40,48H76V40a28,28,0,0,1,28-28h48a28,28,0,0,1,28,28v8h36A20,20,0,0,1,236,68ZM100,48h56V40a4,4,0,0,0-4-4H104a4,4,0,0,0-4,4ZM44,72v35.23A180.06,180.06,0,0,0,128,128a180,180,0,0,0,84-20.78V72ZM212,192V133.94A204.27,204.27,0,0,1,128,152a204.21,204.21,0,0,1-84-18.06V192Z"/>
    </g>
  </g>
  <g transform="translate(-14.00,89.92)" fill="white" stroke="white" stroke-width="0" opacity="0.12">
    <g transform="scale(0.109375)">
      <path d="M100,100a12,12,0,0,1,12-12h32a12,12,0,0,1,0,24H112A12,12,0,0,1,100,100ZM236,68V196a20,20,0,0,1-20,20H40a20,20,0,0,1-20-20V68A20,20,0,0,1,40,48H76V40a28,28,0,0,1,28-28h48a28,28,0,0,1,28,28v8h36A20,20,0,0,1,236,68ZM100,48h56V40a4,4,0,0,0-4-4H104a4,4,0,0,0-4,4ZM44,72v35.23A180.06,180.06,0,0,0,128,128a180,180,0,0,0,84-20.78V72ZM212,192V133.94A204.27,204.27,0,0,1,128,152a204.21,204.21,0,0,1-84-18.06V192Z"/>
    </g>
  </g>
  <g transform="translate(106.00,-14.00)" fill="white" stroke="white" stroke-width="0" opacity="0.12">
    <g transform="scale(0.109375)">
      <path d="M100,100a12,12,0,0,1,12-12h32a12,12,0,0,1,0,24H112A12,12,0,0,1,100,100ZM236,68V196a20,20,0,0,1-20,20H40a20,20,0,0,1-20-20V68A20,20,0,0,1,40,48H76V40a28,28,0,0,1,28-28h48a28,28,0,0,1,28,28v8h36A20,20,0,0,1,236,68ZM100,48h56V40a4,4,0,0,0-4-4H104a4,4,0,0,0-4,4ZM44,72v35.23A180.06,180.06,0,0,0,128,128a180,180,0,0,0,84-20.78V72ZM212,192V133.94A204.27,204.27,0,0,1,128,152a204.21,204.21,0,0,1-84-18.06V192Z"/>
    </g>
  </g>
  <g transform="translate(106.00,89.92)" fill="white" stroke="white" stroke-width="0" opacity="0.12">
    <g transform="scale(0.109375)">
      <path d="M100,100a12,12,0,0,1,12-12h32a12,12,0,0,1,0,24H112A12,12,0,0,1,100,100ZM236,68V196a20,20,0,0,1-20,20H40a20,20,0,0,1-20-20V68A20,20,0,0,1,40,48H76V40a28,28,0,0,1,28-28h48a28,28,0,0,1,28,28v8h36A20,20,0,0,1,236,68ZM100,48h56V40a4,4,0,0,0-4-4H104a4,4,0,0,0-4,4ZM44,72v35.23A180.06,180.06,0,0,0,128,128a180,180,0,0,0,84-20.78V72ZM212,192V133.94A204.27,204.27,0,0,1,128,152a204.21,204.21,0,0,1-84-18.06V192Z"/>
    </g>
  </g>
  <g transform="translate(46.00,-14.00)" fill="white" stroke="white" stroke-width="0" opacity="0.12">
    <g transform="scale(0.109375)">
      <path d="M232,156h-4V72a28,28,0,0,0-28-28H56A28,28,0,0,0,28,72v84H24a12,12,0,0,0-12,12v24a28,28,0,0,0,28,28H216a28,28,0,0,0,28-28V168A12,12,0,0,0,232,156ZM52,72a4,4,0,0,1,4-4H200a4,4,0,0,1,4,4v84H52ZM220,192a4,4,0,0,1-4,4H40a4,4,0,0,1-4-4V180H220ZM156,96a12,12,0,0,1-12,12H112a12,12,0,0,1,0-24h32A12,12,0,0,1,156,96Z"/>
    </g>
  </g>
  <g transform="translate(46.00,89.92)" fill="white" stroke="white" stroke-width="0" opacity="0.12">
    <g transform="scale(0.109375)">
      <path d="M232,156h-4V72a28,28,0,0,0-28-28H56A28,28,0,0,0,28,72v84H24a12,12,0,0,0-12,12v24a28,28,0,0,0,28,28H216a28,28,0,0,0,28-28V168A12,12,0,0,0,232,156ZM52,72a4,4,0,0,1,4-4H200a4,4,0,0,1,4,4v84H52ZM220,192a4,4,0,0,1-4,4H40a4,4,0,0,1-4-4V180H220ZM156,96a12,12,0,0,1-12,12H112a12,12,0,0,1,0-24h32A12,12,0,0,1,156,96Z"/>
    </g>
  </g>
  <g transform="translate(16.00,37.96)" fill="white" stroke="white" stroke-width="0" opacity="0.12">
    <g transform="scale(0.109375)">
      <path d="M128,20A108,108,0,1,0,236,128,108.12,108.12,0,0,0,128,20Zm0,192a84,84,0,1,1,84-84A84.09,84.09,0,0,1,128,212Zm68-84a12,12,0,0,1-12,12H128a12,12,0,0,1-12-12V72a12,12,0,0,1,24,0v44h44A12,12,0,0,1,196,128Z"/>
    </g>
  </g>
  <g transform="translate(76.00,37.96)" fill="white" stroke="white" stroke-width="0" opacity="0.12">
    <g transform="scale(0.109375)">
      <path d="M100,100a12,12,0,0,1,12-12h32a12,12,0,0,1,0,24H112A12,12,0,0,1,100,100ZM236,68V196a20,20,0,0,1-20,20H40a20,20,0,0,1-20-20V68A20,20,0,0,1,40,48H76V40a28,28,0,0,1,28-28h48a28,28,0,0,1,28,28v8h36A20,20,0,0,1,236,68ZM100,48h56V40a4,4,0,0,0-4-4H104a4,4,0,0,0-4,4ZM44,72v35.23A180.06,180.06,0,0,0,128,128a180,180,0,0,0,84-20.78V72ZM212,192V133.94A204.27,204.27,0,0,1,128,152a204.21,204.21,0,0,1-84-18.06V192Z"/>
    </g>
  </g>
</svg>