<svg xmlns="http://www.w3.org/2000/svg" width="120" height="103.92" viewBox="0 0 120 103.92">
  <g transform="translate(-14.00,-14.00)" fill="white" stroke="white" stroke-width="0" opacity="0.12">
    <g transform="scale(0.109375)">
      <path d="M249.8,85.49l-116-64a12,12,0,0,0-11.6,0l-116,64a12,12,0,0,0,0,21l21.8,12v47.76a19.89,19.89,0,0,0,5.09,13.32C46.63,194.7,77,220,128,220a136.88,136.88,0,0,0,40-5.75V240a12,12,0,0,0,24,0V204.12a119.53,119.53,0,0,0,30.91-24.51A19.89,19.89,0,0,0,228,166.29V118.53l21.8-12a12,12,0,0,0,0-21ZM128,45.71,219.16,96,186,114.3a1.88,1.88,0,0,1-.18-.12l-52-28.69a12,12,0,0,0-11.6,21l39,21.49L128,146.3,36.84,96ZM128,196c-40.42,0-64.65-19.07-76-31.27v-33l70.2,38.74a12,12,0,0,0,11.6,0L168,151.64v37.23A110.46,110.46,0,0,1,128,196Zm76-31.27a93.21,93.21,0,0,1-12,10.81V138.39l12-6.62Z"/>
    </g>
  </g>
  <g transform="translate(-14.00,89.92)" fill="white" stroke="white" stroke-width="0" opacity="0.12">
    <g transform="scale(0.109375)">
      <path d="M249.8,85.49l-116-64a12,12,0,0,0-11.6,0l-116,64a12,12,0,0,0,0,21l21.8,12v47.76a19.89,19.89,0,0,0,5.09,13.32C46.63,194.7,77,220,128,220a136.88,136.88,0,0,0,40-5.75V240a12,12,0,0,0,24,0V204.12a119.53,119.53,0,0,0,30.91-24.51A19.89,19.89,0,0,0,228,166.29V118.53l21.8-12a12,12,0,0,0,0-21ZM128,45.71,219.16,96,186,114.3a1.88,1.88,0,0,1-.18-.12l-52-28.69a12,12,0,0,0-11.6,21l39,21.49L128,146.3,36.84,96ZM128,196c-40.42,0-64.65-19.07-76-31.27v-33l70.2,38.74a12,12,0,0,0,11.6,0L168,151.64v37.23A110.46,110.46,0,0,1,128,196Zm76-31.27a93.21,93.21,0,0,1-12,10.81V138.39l12-6.62Z"/>
    </g>
  </g>
  <g transform="translate(106.00,-14.00)" fill="white" stroke="white" stroke-width="0" opacity="0.12">
    <g transform="scale(0.109375)">
      <path d="M249.8,85.49l-116-64a12,12,0,0,0-11.6,0l-116,64a12,12,0,0,0,0,21l21.8,12v47.76a19.89,19.89,0,0,0,5.09,13.32C46.63,194.7,77,220,128,220a136.88,136.88,0,0,0,40-5.75V240a12,12,0,0,0,24,0V204.12a119.53,119.53,0,0,0,30.91-24.51A19.89,19.89,0,0,0,228,166.29V118.53l21.8-12a12,12,0,0,0,0-21ZM128,45.71,219.16,96,186,114.3a1.88,1.88,0,0,1-.18-.12l-52-28.69a12,12,0,0,0-11.6,21l39,21.49L128,146.3,36.84,96ZM128,196c-40.42,0-64.65-19.07-76-31.27v-33l70.2,38.74a12,12,0,0,0,11.6,0L168,151.64v37.23A110.46,110.46,0,0,1,128,196Zm76-31.27a93.21,93.21,0,0,1-12,10.81V138.39l12-6.62Z"/>
    </g>
  </g>
  <g transform="translate(106.00,89.92)" fill="white" stroke="white" stroke-width="0" opacity="0.12">
    <g transform="scale(0.109375)">
      <path d="M249.8,85.49l-116-64a12,12,0,0,0-11.6,0l-116,64a12,12,0,0,0,0,21l21.8,12v47.76a19.89,19.89,0,0,0,5.09,13.32C46.63,194.7,77,220,128,220a136.88,136.88,0,0,0,40-5.75V240a12,12,0,0,0,24,0V204.12a119.53,119.53,0,0,0,30.91-24.51A19.89,19.89,0,0,0,228,166.29V118.53l21.8-12a12,12,0,0,0,0-21ZM128,45.71,219.16,96,186,114.3a1.88,1.88,0,0,1-.18-.12l-52-28.69a12,12,0,0,0-11.6,21l39,21.49L128,146.3,36.84,96ZM128,196c-40.42,0-64.65-19.07-76-31.27v-33l70.2,38.74a12,12,0,0,0,11.6,0L168,151.64v37.23A110.46,110.46,0,0,1,128,196Zm76-31.27a93.21,93.21,0,0,1-12,10.81V138.39l12-6.62Z"/>
    </g>
  </g>
  <g transform="translate(46.00,-14.00)" fill="white" stroke="white" stroke-width="0" opacity="0.12">
    <g transform="scale(0.109375)">
      <path d="M232,44H160a43.86,43.86,0,0,0-32,13.85A43.86,43.86,0,0,0,96,44H24A12,12,0,0,0,12,56V200a12,12,0,0,0,12,12H96a20,20,0,0,1,20,20,12,12,0,0,0,24,0,20,20,0,0,1,20-20h72a12,12,0,0,0,12-12V56A12,12,0,0,0,232,44ZM96,188H36V68H96a20,20,0,0,1,20,20V192.81A43.79,43.79,0,0,0,96,188Zm124,0H160a43.71,43.71,0,0,0-20,4.83V88a20,20,0,0,1,20-20h60Z"/>
    </g>
  </g>
  <g transform="translate(46.00,89.92)" fill="white" stroke="white" stroke-width="0" opacity="0.12">
    <g transform="scale(0.109375)">
      <path d="M232,44H160a43.86,43.86,0,0,0-32,13.85A43.86,43.86,0,0,0,96,44H24A12,12,0,0,0,12,56V200a12,12,0,0,0,12,12H96a20,20,0,0,1,20,20,12,12,0,0,0,24,0,20,20,0,0,1,20-20h72a12,12,0,0,0,12-12V56A12,12,0,0,0,232,44ZM96,188H36V68H96a20,20,0,0,1,20,20V192.81A43.79,43.79,0,0,0,96,188Zm124,0H160a43.71,43.71,0,0,0-20,4.83V88a20,20,0,0,1,20-20h60Z"/>
    </g>
  </g>
  <g transform="translate(16.00,37.96)" fill="white" stroke="white" stroke-width="0" opacity="0.12">
    <g transform="scale(0.109375)">
      <path d="M230.14,70.54,185.46,25.85a20,20,0,0,0-28.29,0L33.86,149.17A19.85,19.85,0,0,0,28,163.31V208a20,20,0,0,0,20,20H92.69a19.86,19.86,0,0,0,14.14-5.86L230.14,98.82a20,20,0,0,0,0-28.28ZM91,204H52V165l84-84,39,39ZM192,103,153,64l18.34-18.34,39,39Z"/>
    </g>
  </g>
  <g transform="translate(76.00,37.96)" fill="white" stroke="white" stroke-width="0" opacity="0.12">
    <g transform="scale(0.109375)">
      <path d="M249.8,85.49l-116-64a12,12,0,0,0-11.6,0l-116,64a12,12,0,0,0,0,21l21.8,12v47.76a19.89,19.89,0,0,0,5.09,13.32C46.63,194.7,77,220,128,220a136.88,136.88,0,0,0,40-5.75V240a12,12,0,0,0,24,0V204.12a119.53,119.53,0,0,0,30.91-24.51A19.89,19.89,0,0,0,228,166.29V118.53l21.8-12a12,12,0,0,0,0-21ZM128,45.71,219.16,96,186,114.3a1.88,1.88,0,0,1-.18-.12l-52-28.69a12,12,0,0,0-11.6,21l39,21.49L128,146.3,36.84,96ZM128,196c-40.42,0-64.65-19.07-76-31.27v-33l70.2,38.74a12,12,0,0,0,11.6,0L168,151.64v37.23A110.46,110.46,0,0,1,128,196Zm76-31.27a93.21,93.21,0,0,1-12,10.81V138.39l12-6.62Z"/>
    </g>
  </g>
</svg>