<svg xmlns="http://www.w3.org/2000/svg" width="120" height="120" viewBox="0 0 120 120">
  <g transform="translate(46.0,12.399999999999999)" fill="white" stroke="white" stroke-width="0" opacity="0.12">
    <g transform="scale(0.109375)">
      <path d="M208,28H188V24a12,12,0,0,0-24,0v4H92V24a12,12,0,0,0-24,0v4H48A20,20,0,0,0,28,48V208a20,20,0,0,0,20,20H208a20,20,0,0,0,20-20V48A20,20,0,0,0,208,28ZM68,52a12,12,0,0,0,24,0h72a12,12,0,0,0,24,0h16V76H52V52ZM52,204V100H204V204Zm60-80v56a12,12,0,0,1-24,0V143.32a12,12,0,0,1-9.37-22l16-8A12,12,0,0,1,112,124Zm61.49,33.88L163.9,168H168a12,12,0,0,1,0,24H136a12,12,0,0,1-8.71-20.25L155.45,142a4,4,0,0,0,.55-2,4,4,0,0,0-7.47-2,12,12,0,0,1-20.78-12A28,28,0,0,1,180,140a27.77,27.77,0,0,1-5.64,16.86A10.63,10.63,0,0,1,173.49,157.88Z"/>
    </g>
  </g>
  <g transform="translate(10.0,72.39999999999999)" fill="white" stroke="white" stroke-width="0" opacity="0.12">
    <g transform="scale(0.109375)">
      <path d="M128,60a44,44,0,1,0,44,44A44.05,44.05,0,0,0,128,60Zm0,64a20,20,0,1,1,20-20A20,20,0,0,1,128,124Zm0-112a92.1,92.1,0,0,0-92,92c0,77.36,81.64,135.4,85.12,137.83a12,12,0,0,0,13.76,0,259,259,0,0,0,42.18-39C205.15,170.57,220,136.37,220,104A92.1,92.1,0,0,0,128,12Zm31.3,174.71A249.35,249.35,0,0,1,128,216.89a249.35,249.35,0,0,1-31.3-30.18C80,167.37,60,137.31,60,104a68,68,0,0,1,136,0C196,137.31,176,167.37,159.3,186.71Z"/>
    </g>
  </g>
  <g transform="translate(82.0,72.39999999999999)" fill="white" stroke="white" stroke-width="0" opacity="0.12">
    <g transform="scale(0.109375)">
      <path d="M232,108a12,12,0,0,0,12-12V64a20,20,0,0,0-20-20H32A20,20,0,0,0,12,64V96a12,12,0,0,0,12,12,20,20,0,0,1,0,40,12,12,0,0,0-12,12v32a20,20,0,0,0,20,20H224a20,20,0,0,0,20-20V160a12,12,0,0,0-12-12,20,20,0,0,1,0-40ZM36,170.34a44,44,0,0,0,0-84.68V68H88V188H36Zm184,0V188H112V68H220V85.66a44,44,0,0,0,0,84.68Z"/>
    </g>
  </g>
</svg>