<svg xmlns="http://www.w3.org/2000/svg" width="120" height="103.92" viewBox="0 0 120 103.92">
  <g transform="translate(-14.00,-14.00)" fill="white" stroke="white" stroke-width="0" opacity="0.12">
    <g transform="scale(0.109375)">
      <path d="M232.76,137.88a28.66,28.66,0,0,0-12-5.39C236.19,114.94,244,97.37,244,80c0-28.67-23.09-52-51.46-52A51.77,51.77,0,0,0,156,42.85,51.77,51.77,0,0,0,119.46,28C91.09,28,68,51.33,68,80c0,10.15,2.72,20.3,8.22,30.7a35.9,35.9,0,0,0-11.73,7.84L43,140H20A20,20,0,0,0,0,160v40a20,20,0,0,0,20,20H120a11.89,11.89,0,0,0,2.91-.36l64-16a11.4,11.4,0,0,0,1.79-.6l38.82-16.54c.23-.09.45-.19.67-.3a28.61,28.61,0,0,0,4.57-48.32ZM119.46,52A27.18,27.18,0,0,1,144.9,68.56a12,12,0,0,0,22.2,0A27.18,27.18,0,0,1,192.54,52C207.42,52,220,64.82,220,80c0,18.06-15,38.84-43.38,60.19L172,141.26c0-.42,0-.84,0-1.26a32,32,0,0,0-32-32H102.71C95.42,97.76,92,88.77,92,80,92,64.82,104.58,52,119.46,52ZM24,164H36v32H24Zm193.68.61-37.51,16L118.52,196H60V157l21.46-21.46A11.93,11.93,0,0,1,89.94,132H140a8,8,0,0,1,0,16H112a12,12,0,0,0,0,24h32a12.19,12.19,0,0,0,2.69-.3l67-15.41.47-.12a4.61,4.61,0,0,1,5.82,4.44A4.58,4.58,0,0,1,217.68,164.61Z"/>
    </g>
  </g>
  <g transform="translate(-14.00,89.92)" fill="white" stroke="white" stroke-width="0" opacity="0.12">
    <g transform="scale(0.109375)">
      <path d="M232.76,137.88a28.66,28.66,0,0,0-12-5.39C236.19,114.94,244,97.37,244,80c0-28.67-23.09-52-51.46-52A51.77,51.77,0,0,0,156,42.85,51.77,51.77,0,0,0,119.46,28C91.09,28,68,51.33,68,80c0,10.15,2.72,20.3,8.22,30.7a35.9,35.9,0,0,0-11.73,7.84L43,140H20A20,20,0,0,0,0,160v40a20,20,0,0,0,20,20H120a11.89,11.89,0,0,0,2.91-.36l64-16a11.4,11.4,0,0,0,1.79-.6l38.82-16.54c.23-.09.45-.19.67-.3a28.61,28.61,0,0,0,4.57-48.32ZM119.46,52A27.18,27.18,0,0,1,144.9,68.56a12,12,0,0,0,22.2,0A27.18,27.18,0,0,1,192.54,52C207.42,52,220,64.82,220,80c0,18.06-15,38.84-43.38,60.19L172,141.26c0-.42,0-.84,0-1.26a32,32,0,0,0-32-32H102.71C95.42,97.76,92,88.77,92,80,92,64.82,104.58,52,119.46,52ZM24,164H36v32H24Zm193.68.61-37.51,16L118.52,196H60V157l21.46-21.46A11.93,11.93,0,0,1,89.94,132H140a8,8,0,0,1,0,16H112a12,12,0,0,0,0,24h32a12.19,12.19,0,0,0,2.69-.3l67-15.41.47-.12a4.61,4.61,0,0,1,5.82,4.44A4.58,4.58,0,0,1,217.68,164.61Z"/>
    </g>
  </g>
  <g transform="translate(106.00,-14.00)" fill="white" stroke="white" stroke-width="0" opacity="0.12">
    <g transform="scale(0.109375)">
      <path d="M232.76,137.88a28.66,28.66,0,0,0-12-5.39C236.19,114.94,244,97.37,244,80c0-28.67-23.09-52-51.46-52A51.77,51.77,0,0,0,156,42.85,51.77,51.77,0,0,0,119.46,28C91.09,28,68,51.33,68,80c0,10.15,2.72,20.3,8.22,30.7a35.9,35.9,0,0,0-11.73,7.84L43,140H20A20,20,0,0,0,0,160v40a20,20,0,0,0,20,20H120a11.89,11.89,0,0,0,2.91-.36l64-16a11.4,11.4,0,0,0,1.79-.6l38.82-16.54c.23-.09.45-.19.67-.3a28.61,28.61,0,0,0,4.57-48.32ZM119.46,52A27.18,27.18,0,0,1,144.9,68.56a12,12,0,0,0,22.2,0A27.18,27.18,0,0,1,192.54,52C207.42,52,220,64.82,220,80c0,18.06-15,38.84-43.38,60.19L172,141.26c0-.42,0-.84,0-1.26a32,32,0,0,0-32-32H102.71C95.42,97.76,92,88.77,92,80,92,64.82,104.58,52,119.46,52ZM24,164H36v32H24Zm193.68.61-37.51,16L118.52,196H60V157l21.46-21.46A11.93,11.93,0,0,1,89.94,132H140a8,8,0,0,1,0,16H112a12,12,0,0,0,0,24h32a12.19,12.19,0,0,0,2.69-.3l67-15.41.47-.12a4.61,4.61,0,0,1,5.82,4.44A4.58,4.58,0,0,1,217.68,164.61Z"/>
    </g>
  </g>
  <g transform="translate(106.00,89.92)" fill="white" stroke="white" stroke-width="0" opacity="0.12">
    <g transform="scale(0.109375)">
      <path d="M232.76,137.88a28.66,28.66,0,0,0-12-5.39C236.19,114.94,244,97.37,244,80c0-28.67-23.09-52-51.46-52A51.77,51.77,0,0,0,156,42.85,51.77,51.77,0,0,0,119.46,28C91.09,28,68,51.33,68,80c0,10.15,2.72,20.3,8.22,30.7a35.9,35.9,0,0,0-11.73,7.84L43,140H20A20,20,0,0,0,0,160v40a20,20,0,0,0,20,20H120a11.89,11.89,0,0,0,2.91-.36l64-16a11.4,11.4,0,0,0,1.79-.6l38.82-16.54c.23-.09.45-.19.67-.3a28.61,28.61,0,0,0,4.57-48.32ZM119.46,52A27.18,27.18,0,0,1,144.9,68.56a12,12,0,0,0,22.2,0A27.18,27.18,0,0,1,192.54,52C207.42,52,220,64.82,220,80c0,18.06-15,38.84-43.38,60.19L172,141.26c0-.42,0-.84,0-1.26a32,32,0,0,0-32-32H102.71C95.42,97.76,92,88.77,92,80,92,64.82,104.58,52,119.46,52ZM24,164H36v32H24Zm193.68.61-37.51,16L118.52,196H60V157l21.46-21.46A11.93,11.93,0,0,1,89.94,132H140a8,8,0,0,1,0,16H112a12,12,0,0,0,0,24h32a12.19,12.19,0,0,0,2.69-.3l67-15.41.47-.12a4.61,4.61,0,0,1,5.82,4.44A4.58,4.58,0,0,1,217.68,164.61Z"/>
    </g>
  </g>
  <g transform="translate(46.00,-14.00)" fill="white" stroke="white" stroke-width="0" opacity="0.12">
    <g transform="scale(0.109375)">
      <path d="M128,20A108,108,0,1,0,236,128,108.12,108.12,0,0,0,128,20Zm83.13,96H179.56a144.3,144.3,0,0,0-21.35-66.36A84.22,84.22,0,0,1,211.13,116ZM128,207c-9.36-10.81-24.46-33.13-27.45-67h54.94a119.74,119.74,0,0,1-17.11,52.77A108.61,108.61,0,0,1,128,207Zm-27.45-91a119.74,119.74,0,0,1,17.11-52.77A108.61,108.61,0,0,1,128,49c9.36,10.81,24.46,33.13,27.45,67ZM97.79,49.64A144.3,144.3,0,0,0,76.44,116H44.87A84.22,84.22,0,0,1,97.79,49.64ZM44.87,140H76.44a144.3,144.3,0,0,0,21.35,66.36A84.22,84.22,0,0,1,44.87,140Zm113.34,66.36A144.3,144.3,0,0,0,179.56,140h31.57A84.22,84.22,0,0,1,158.21,206.36Z"/>
    </g>
  </g>
  <g transform="translate(46.00,89.92)" fill="white" stroke="white" stroke-width="0" opacity="0.12">
    <g transform="scale(0.109375)">
      <path d="M128,20A108,108,0,1,0,236,128,108.12,108.12,0,0,0,128,20Zm83.13,96H179.56a144.3,144.3,0,0,0-21.35-66.36A84.22,84.22,0,0,1,211.13,116ZM128,207c-9.36-10.81-24.46-33.13-27.45-67h54.94a119.74,119.74,0,0,1-17.11,52.77A108.61,108.61,0,0,1,128,207Zm-27.45-91a119.74,119.74,0,0,1,17.11-52.77A108.61,108.61,0,0,1,128,49c9.36,10.81,24.46,33.13,27.45,67ZM97.79,49.64A144.3,144.3,0,0,0,76.44,116H44.87A84.22,84.22,0,0,1,97.79,49.64ZM44.87,140H76.44a144.3,144.3,0,0,0,21.35,66.36A84.22,84.22,0,0,1,44.87,140Zm113.34,66.36A144.3,144.3,0,0,0,179.56,140h31.57A84.22,84.22,0,0,1,158.21,206.36Z"/>
    </g>
  </g>
  <g transform="translate(16.00,37.96)" fill="white" stroke="white" stroke-width="0" opacity="0.12">
    <g transform="scale(0.109375)">
      <path d="M164.38,181.1a52,52,0,1,0-72.76,0,75.89,75.89,0,0,0-30,28.89,12,12,0,0,0,20.78,12,53,53,0,0,1,91.22,0,12,12,0,1,0,20.78-12A75.89,75.89,0,0,0,164.38,181.1ZM100,144a28,28,0,1,1,28,28A28,28,0,0,1,100,144Zm147.21,9.59a12,12,0,0,1-16.81-2.39c-8.33-11.09-19.85-19.59-29.33-21.64a12,12,0,0,1-1.82-22.91,20,20,0,1,0-24.78-28.3,12,12,0,1,1-21-11.6,44,44,0,1,1,73.28,48.35,92.18,92.18,0,0,1,22.85,21.69A12,12,0,0,1,247.21,153.59Zm-192.28-24c-9.48,2.05-21,10.55-29.33,21.65A12,12,0,0,1,6.41,136.79,92.37,92.37,0,0,1,29.26,115.1a44,44,0,1,1,73.28-48.35,12,12,0,1,1-21,11.6,20,20,0,1,0-24.78,28.3,12,12,0,0,1-1.82,22.91Z"/>
    </g>
  </g>
  <g transform="translate(76.00,37.96)" fill="white" stroke="white" stroke-width="0" opacity="0.12">
    <g transform="scale(0.109375)">
      <path d="M232.76,137.88a28.66,28.66,0,0,0-12-5.39C236.19,114.94,244,97.37,244,80c0-28.67-23.09-52-51.46-52A51.77,51.77,0,0,0,156,42.85,51.77,51.77,0,0,0,119.46,28C91.09,28,68,51.33,68,80c0,10.15,2.72,20.3,8.22,30.7a35.9,35.9,0,0,0-11.73,7.84L43,140H20A20,20,0,0,0,0,160v40a20,20,0,0,0,20,20H120a11.89,11.89,0,0,0,2.91-.36l64-16a11.4,11.4,0,0,0,1.79-.6l38.82-16.54c.23-.09.45-.19.67-.3a28.61,28.61,0,0,0,4.57-48.32ZM119.46,52A27.18,27.18,0,0,1,144.9,68.56a12,12,0,0,0,22.2,0A27.18,27.18,0,0,1,192.54,52C207.42,52,220,64.82,220,80c0,18.06-15,38.84-43.38,60.19L172,141.26c0-.42,0-.84,0-1.26a32,32,0,0,0-32-32H102.71C95.42,97.76,92,88.77,92,80,92,64.82,104.58,52,119.46,52ZM24,164H36v32H24Zm193.68.61-37.51,16L118.52,196H60V157l21.46-21.46A11.93,11.93,0,0,1,89.94,132H140a8,8,0,0,1,0,16H112a12,12,0,0,0,0,24h32a12.19,12.19,0,0,0,2.69-.3l67-15.41.47-.12a4.61,4.61,0,0,1,5.82,4.44A4.58,4.58,0,0,1,217.68,164.61Z"/>
    </g>
  </g>
</svg>