<svg xmlns="http://www.w3.org/2000/svg" width="120" height="120" viewBox="0 0 120 120">
  <g transform="translate(46.0,12.399999999999999)" fill="white" stroke="white" stroke-width="0" opacity="0.12">
    <g transform="scale(0.109375)">
      <path d="M244,204H232V99.3A12,12,0,0,0,228,76H188V51.3A12,12,0,0,0,184,28H40a12,12,0,0,0-4,23.3V204H24a12,12,0,0,0,0,24H244a12,12,0,0,0,0-24ZM208,100V204H188V100ZM60,52H164V204H148V160a12,12,0,0,0-12-12H88a12,12,0,0,0-12,12v44H60Zm64,152H100V172h24ZM72,80A12,12,0,0,1,84,68h8a12,12,0,0,1,0,24H84A12,12,0,0,1,72,80Zm48,0a12,12,0,0,1,12-12h8a12,12,0,0,1,0,24h-8A12,12,0,0,1,120,80ZM72,120a12,12,0,0,1,12-12h8a12,12,0,0,1,0,24H84A12,12,0,0,1,72,120Zm48,0a12,12,0,0,1,12-12h8a12,12,0,0,1,0,24h-8A12,12,0,0,1,120,120Z"/>
    </g>
  </g>
  <g transform="translate(10.0,72.39999999999999)" fill="white" stroke="white" stroke-width="0" opacity="0.12">
    <g transform="scale(0.109375)">
      <path d="M224,64H180V56a28,28,0,0,0-28-28H104A28,28,0,0,0,76,56v8H32A20,20,0,0,0,12,84V192a20,20,0,0,0,20,20H224a20,20,0,0,0,20-20V84A20,20,0,0,0,224,64ZM100,56a4,4,0,0,1,4-4h48a4,4,0,0,1,4,4v8H100ZM220,88v32H196v-4a12,12,0,0,0-24,0v4H84v-4a12,12,0,0,0-24,0v4H36V88ZM36,188V144H60v4a12,12,0,0,0,24,0v-4h88v4a12,12,0,0,0,24,0v-4h24v44Z"/>
    </g>
  </g>
  <g transform="translate(82.0,72.39999999999999)" fill="white" stroke="white" stroke-width="0" opacity="0.12">
    <g transform="scale(0.109375)">
      <path d="M172,164a12,12,0,0,1-12,12H96a12,12,0,0,1,0-24h64A12,12,0,0,1,172,164Zm-12-52H96a12,12,0,0,0,0,24h64a12,12,0,0,0,0-24Zm60-64V216a20,20,0,0,1-20,20H56a20,20,0,0,1-20-20V48A20,20,0,0,1,56,28H90.53a51.88,51.88,0,0,1,74.94,0H200A20,20,0,0,1,220,48ZM100.29,60h55.42a28,28,0,0,0-55.42,0ZM196,52H178.59A52.13,52.13,0,0,1,180,64v8a12,12,0,0,1-12,12H88A12,12,0,0,1,76,72V64a52.13,52.13,0,0,1,1.41-12H60V212H196Z"/>
    </g>
  </g>
</svg>