<svg xmlns="http://www.w3.org/2000/svg" width="120" height="103.92" viewBox="0 0 120 103.92">
  <g transform="translate(-14.00,-14.00)" fill="white" stroke="white" stroke-width="0" opacity="0.12">
    <g transform="scale(0.109375)">
      <path d="M255.62,51.65a12,12,0,0,0-11.27-11.27c-53.27-3.13-96.2,13.36-114.84,44.14-12.14,20-12.56,44.17-1.46,67.3a75.14,75.14,0,0,0-12.28,23l-12.66-12.66c7.19-16.77,6.43-34.11-2.4-48.69C86.73,90.36,54.89,78,15.55,80.27A12,12,0,0,0,4.28,91.55C2,130.89,14.36,162.73,37.45,176.71a49.76,49.76,0,0,0,26,7.27,57.54,57.54,0,0,0,22.7-4.87L112,205v23a12,12,0,0,0,24,0V198.51a51.63,51.63,0,0,1,9.49-29.95,76.82,76.82,0,0,0,32.1,7.39,64.91,64.91,0,0,0,33.89-9.46C242.25,147.85,258.76,104.92,255.62,51.65ZM49.88,156.18c-13.19-8-21.18-27.46-21.83-52.13,24.67.65,44.14,8.64,52.13,21.83a26,26,0,0,1,3.63,17L72.48,131.51a12,12,0,0,0-17,17l11.34,11.34A26.27,26.27,0,0,1,49.88,156.18ZM199.05,146c-10.66,6.45-23,7.67-35.81,3.76l37.25-37.24a12,12,0,0,0-17-17l-37.25,37.24C142.37,120,143.59,107.61,150,97c12.7-21,42.65-33,81.32-33H232C232.14,103,220.14,133.18,199.05,146Z"/>
    </g>
  </g>
  <g transform="translate(-14.00,89.92)" fill="white" stroke="white" stroke-width="0" opacity="0.12">
    <g transform="scale(0.109375)">
      <path d="M255.62,51.65a12,12,0,0,0-11.27-11.27c-53.27-3.13-96.2,13.36-114.84,44.14-12.14,20-12.56,44.17-1.46,67.3a75.14,75.14,0,0,0-12.28,23l-12.66-12.66c7.19-16.77,6.43-34.11-2.4-48.69C86.73,90.36,54.89,78,15.55,80.27A12,12,0,0,0,4.28,91.55C2,130.89,14.36,162.73,37.45,176.71a49.76,49.76,0,0,0,26,7.27,57.54,57.54,0,0,0,22.7-4.87L112,205v23a12,12,0,0,0,24,0V198.51a51.63,51.63,0,0,1,9.49-29.95,76.82,76.82,0,0,0,32.1,7.39,64.91,64.91,0,0,0,33.89-9.46C242.25,147.85,258.76,104.92,255.62,51.65ZM49.88,156.18c-13.19-8-21.18-27.46-21.83-52.13,24.67.65,44.14,8.64,52.13,21.83a26,26,0,0,1,3.63,17L72.48,131.51a12,12,0,0,0-17,17l11.34,11.34A26.27,26.27,0,0,1,49.88,156.18ZM199.05,146c-10.66,6.45-23,7.67-35.81,3.76l37.25-37.24a12,12,0,0,0-17-17l-37.25,37.24C142.37,120,143.59,107.61,150,97c12.7-21,42.65-33,81.32-33H232C232.14,103,220.14,133.18,199.05,146Z"/>
    </g>
  </g>
  <g transform="translate(106.00,-14.00)" fill="white" stroke="white" stroke-width="0" opacity="0.12">
    <g transform="scale(0.109375)">
      <path d="M255.62,51.65a12,12,0,0,0-11.27-11.27c-53.27-3.13-96.2,13.36-114.84,44.14-12.14,20-12.56,44.17-1.46,67.3a75.14,75.14,0,0,0-12.28,23l-12.66-12.66c7.19-16.77,6.43-34.11-2.4-48.69C86.73,90.36,54.89,78,15.55,80.27A12,12,0,0,0,4.28,91.55C2,130.89,14.36,162.73,37.45,176.71a49.76,49.76,0,0,0,26,7.27,57.54,57.54,0,0,0,22.7-4.87L112,205v23a12,12,0,0,0,24,0V198.51a51.63,51.63,0,0,1,9.49-29.95,76.82,76.82,0,0,0,32.1,7.39,64.91,64.91,0,0,0,33.89-9.46C242.25,147.85,258.76,104.92,255.62,51.65ZM49.88,156.18c-13.19-8-21.18-27.46-21.83-52.13,24.67.65,44.14,8.64,52.13,21.83a26,26,0,0,1,3.63,17L72.48,131.51a12,12,0,0,0-17,17l11.34,11.34A26.27,26.27,0,0,1,49.88,156.18ZM199.05,146c-10.66,6.45-23,7.67-35.81,3.76l37.25-37.24a12,12,0,0,0-17-17l-37.25,37.24C142.37,120,143.59,107.61,150,97c12.7-21,42.65-33,81.32-33H232C232.14,103,220.14,133.18,199.05,146Z"/>
    </g>
  </g>
  <g transform="translate(106.00,89.92)" fill="white" stroke="white" stroke-width="0" opacity="0.12">
    <g transform="scale(0.109375)">
      <path d="M255.62,51.65a12,12,0,0,0-11.27-11.27c-53.27-3.13-96.2,13.36-114.84,44.14-12.14,20-12.56,44.17-1.46,67.3a75.14,75.14,0,0,0-12.28,23l-12.66-12.66c7.19-16.77,6.43-34.11-2.4-48.69C86.73,90.36,54.89,78,15.55,80.27A12,12,0,0,0,4.28,91.55C2,130.89,14.36,162.73,37.45,176.71a49.76,49.76,0,0,0,26,7.27,57.54,57.54,0,0,0,22.7-4.87L112,205v23a12,12,0,0,0,24,0V198.51a51.63,51.63,0,0,1,9.49-29.95,76.82,76.82,0,0,0,32.1,7.39,64.91,64.91,0,0,0,33.89-9.46C242.25,147.85,258.76,104.92,255.62,51.65ZM49.88,156.18c-13.19-8-21.18-27.46-21.83-52.13,24.67.65,44.14,8.64,52.13,21.83a26,26,0,0,1,3.63,17L72.48,131.51a12,12,0,0,0-17,17l11.34,11.34A26.27,26.27,0,0,1,49.88,156.18ZM199.05,146c-10.66,6.45-23,7.67-35.81,3.76l37.25-37.24a12,12,0,0,0-17-17l-37.25,37.24C142.37,120,143.59,107.61,150,97c12.7-21,42.65-33,81.32-33H232C232.14,103,220.14,133.18,199.05,146Z"/>
    </g>
  </g>
  <g transform="translate(46.00,-14.00)" fill="white" stroke="white" stroke-width="0" opacity="0.12">
    <g transform="scale(0.109375)">
      <path d="M116,36V20a12,12,0,0,1,24,0V36a12,12,0,0,1-24,0Zm80,92a68,68,0,1,1-68-68A68.07,68.07,0,0,1,196,128Zm-24,0a44,44,0,1,0-44,44A44.05,44.05,0,0,0,172,128ZM51.51,68.49a12,12,0,1,0,17-17l-12-12a12,12,0,0,0-17,17Zm0,119-12,12a12,12,0,0,0,17,17l12-12a12,12,0,1,0-17-17ZM196,72a12,12,0,0,0,8.49-3.51l12-12a12,12,0,0,0-17-17l-12,12A12,12,0,0,0,196,72Zm8.49,115.51a12,12,0,0,0-17,17l12,12a12,12,0,0,0,17-17ZM48,128a12,12,0,0,0-12-12H20a12,12,0,0,0,0,24H36A12,12,0,0,0,48,128Zm80,80a12,12,0,0,0-12,12v16a12,12,0,0,0,24,0V220A12,12,0,0,0,128,208Zm108-92H220a12,12,0,0,0,0,24h16a12,12,0,0,0,0-24Z"/>
    </g>
  </g>
  <g transform="translate(46.00,89.92)" fill="white" stroke="white" stroke-width="0" opacity="0.12">
    <g transform="scale(0.109375)">
      <path d="M116,36V20a12,12,0,0,1,24,0V36a12,12,0,0,1-24,0Zm80,92a68,68,0,1,1-68-68A68.07,68.07,0,0,1,196,128Zm-24,0a44,44,0,1,0-44,44A44.05,44.05,0,0,0,172,128ZM51.51,68.49a12,12,0,1,0,17-17l-12-12a12,12,0,0,0-17,17Zm0,119-12,12a12,12,0,0,0,17,17l12-12a12,12,0,1,0-17-17ZM196,72a12,12,0,0,0,8.49-3.51l12-12a12,12,0,0,0-17-17l-12,12A12,12,0,0,0,196,72Zm8.49,115.51a12,12,0,0,0-17,17l12,12a12,12,0,0,0,17-17ZM48,128a12,12,0,0,0-12-12H20a12,12,0,0,0,0,24H36A12,12,0,0,0,48,128Zm80,80a12,12,0,0,0-12,12v16a12,12,0,0,0,24,0V220A12,12,0,0,0,128,208Zm108-92H220a12,12,0,0,0,0,24h16a12,12,0,0,0,0-24Z"/>
    </g>
  </g>
  <g transform="translate(16.00,37.96)" fill="white" stroke="white" stroke-width="0" opacity="0.12">
    <g transform="scale(0.109375)">
      <path d="M227.42,39.86a12,12,0,0,0-11.28-11.28c-39.6-2.33-74.59,2.34-104,13.87C84,53.48,62.31,70.58,49.39,91.9c-17.62,29.11-17.66,64.45-.45,98.19L31.51,207.52a12,12,0,0,0,17,17l17.43-17.43c16.74,8.54,33.88,12.85,50.45,12.85a91.31,91.31,0,0,0,47.74-13.3c21.32-12.92,38.42-34.62,49.45-62.75C225.08,114.46,229.75,79.46,227.42,39.86ZM151.66,186.08C131.57,198.25,108,199.17,83.94,189l84.54-84.54a12,12,0,1,0-17-17L67,172.06c-10.14-24-9.22-47.63,3-67.72,20.91-34.53,70.54-53.72,134-52.25C205.38,115.53,186.19,165.17,151.66,186.08Z"/>
    </g>
  </g>
  <g transform="translate(76.00,37.96)" fill="white" stroke="white" stroke-width="0" opacity="0.12">
    <g transform="scale(0.109375)">
      <path d="M100,84a12,12,0,0,1,12-12h32a12,12,0,0,1,0,24H112A12,12,0,0,1,100,84ZM252,200a12,12,0,0,1-12,12H16a12,12,0,0,1,0-24h4V139.31A12,12,0,0,1,6.24,121l40-56a11.91,11.91,0,0,1,2.94-2.9l67.56-46.65.17-.11a19.94,19.94,0,0,1,22.18,0l.17.11,67.56,46.65a11.91,11.91,0,0,1,2.94,2.9l40,56A12,12,0,0,1,236,139.31V188h4A12,12,0,0,1,252,200ZM44,188H64V124a12,12,0,0,1,12-12H180a12,12,0,0,1,12,12v64h20V109.45L191.45,80.69,128,36.87,64.55,80.69,44,109.45Zm124-52H113.9L168,174.07ZM88,188h58.1L88,147.12Z"/>
    </g>
  </g>
</svg>