<svg xmlns="http://www.w3.org/2000/svg" width="120" height="120" viewBox="0 0 120 120">
  <g transform="translate(46.0,12.399999999999999)" fill="white" stroke="white" stroke-width="0" opacity="0.12">
    <g transform="scale(0.109375)">
      <path d="M128,76a52,52,0,1,0,52,52A52.06,52.06,0,0,0,128,76Zm0,80a28,28,0,1,1,28-28A28,28,0,0,1,128,156Zm92-27.21v-1.58l14-17.51a12,12,0,0,0,2.23-10.59A111.75,111.75,0,0,0,225,71.89,12,12,0,0,0,215.89,66L193.61,63.5l-1.11-1.11L190,40.1A12,12,0,0,0,184.11,31a111.67,111.67,0,0,0-27.23-11.27A12,12,0,0,0,146.3,22L128.79,36h-1.58L109.7,22a12,12,0,0,0-10.59-2.23A111.75,111.75,0,0,0,71.89,31.05,12,12,0,0,0,66,40.11L63.5,62.39,62.39,63.5,40.1,66A12,12,0,0,0,31,71.89,111.67,111.67,0,0,0,19.77,99.12,12,12,0,0,0,22,109.7l14,17.51v1.58L22,146.3a12,12,0,0,0-2.23,10.59,111.75,111.75,0,0,0,11.29,27.22A12,12,0,0,0,40.11,190l22.28,2.48,1.11,1.11L66,215.9A12,12,0,0,0,71.89,225a111.67,111.67,0,0,0,27.23,11.27A12,12,0,0,0,109.7,234l17.51-14h1.58l17.51,14a12,12,0,0,0,10.59,2.23A111.75,111.75,0,0,0,184.11,225a12,12,0,0,0,5.91-9.06l2.48-22.28,1.11-1.11L215.9,190a12,12,0,0,0,9.06-5.91,111.67,111.67,0,0,0,11.27-27.23A12,12,0,0,0,234,146.3Zm-24.12-4.89a70.1,70.1,0,0,1,0,8.2,12,12,0,0,0,2.61,8.22l12.84,16.05A86.47,86.47,0,0,1,207,166.86l-20.43,2.27a12,12,0,0,0-7.65,4,69,69,0,0,1-5.8,5.8,12,12,0,0,0-4,7.65L166.86,207a86.47,86.47,0,0,1-10.49,4.35l-16.05-12.85a12,12,0,0,0-7.5-2.62c-.24,0-.48,0-.72,0a70.1,70.1,0,0,1-8.2,0,12.06,12.06,0,0,0-8.22,2.6L99.63,211.33A86.47,86.47,0,0,1,89.14,207l-2.27-20.43a12,12,0,0,0-4-7.65,69,69,0,0,1-5.8-5.8,12,12,0,0,0-7.65-4L49,166.86a86.47,86.47,0,0,1-4.35-10.49l12.84-16.05a12,12,0,0,0,2.61-8.22,70.1,70.1,0,0,1,0-8.2,12,12,0,0,0-2.61-8.22L44.67,99.63A86.47,86.47,0,0,1,49,89.14l20.43-2.27a12,12,0,0,0,7.65-4,69,69,0,0,1,5.8-5.8,12,12,0,0,0,4-7.65L89.14,49a86.47,86.47,0,0,1,10.49-4.35l16.05,12.85a12.06,12.06,0,0,0,8.22,2.6,70.1,70.1,0,0,1,8.2,0,12,12,0,0,0,8.22-2.6l16.05-12.85A86.47,86.47,0,0,1,166.86,49l2.27,20.43a12,12,0,0,0,4,7.65,69,69,0,0,1,5.8,5.8,12,12,0,0,0,7.65,4L207,89.14a86.47,86.47,0,0,1,4.35,10.49l-12.84,16.05A12,12,0,0,0,195.88,123.9Z"/>
    </g>
  </g>
  <g transform="translate(10.0,72.39999999999999)" fill="white" stroke="white" stroke-width="0" opacity="0.12">
    <g transform="scale(0.109375)">
      <path d="M230.47,67.5a12,12,0,0,0-19.26-4.32L172.43,99l-12.68-2.72L157,83.57l35.79-38.78a12,12,0,0,0-4.32-19.26A76.07,76.07,0,0,0,88.41,121.64L30.92,174.18a4.68,4.68,0,0,0-.39.38,36,36,0,0,0,50.91,50.91l.38-.39,52.54-57.49A76.05,76.05,0,0,0,230.47,67.5ZM160,148a51.5,51.5,0,0,1-23.35-5.52,12,12,0,0,0-14.26,2.62L64.31,208.66a12,12,0,0,1-17-17l63.55-58.07a12,12,0,0,0,2.62-14.26A51.5,51.5,0,0,1,108,96a52.06,52.06,0,0,1,52-52h.89L135.17,71.87a12,12,0,0,0-2.91,10.65l5.66,26.35a12,12,0,0,0,9.21,9.21l26.35,5.66a12,12,0,0,0,10.65-2.91L212,95.12c0,.3,0,.59,0,.89A52.06,52.06,0,0,1,160,148Z"/>
    </g>
  </g>
  <g transform="translate(82.0,72.39999999999999)" fill="white" stroke="white" stroke-width="0" opacity="0.12">
    <g transform="scale(0.109375)">
      <path d="M200,20H56A20,20,0,0,0,36,40V216a20,20,0,0,0,20,20H200a20,20,0,0,0,20-20V40A20,20,0,0,0,200,20Zm-4,192H60V44H196ZM80,76A12,12,0,0,1,92,64h72a12,12,0,0,1,0,24H92A12,12,0,0,1,80,76Zm40,52a16,16,0,1,1-16-16A16,16,0,0,1,120,128Zm48,0a16,16,0,1,1-16-16A16,16,0,0,1,168,128Zm-48,48a16,16,0,1,1-16-16A16,16,0,0,1,120,176Zm48,0a16,16,0,1,1-16-16A16,16,0,0,1,168,176Z"/>
    </g>
  </g>
</svg>