<svg xmlns="http://www.w3.org/2000/svg" width="120" height="120" viewBox="0 0 120 120">
  <g transform="translate(46.0,12.399999999999999)" fill="white" stroke="white" stroke-width="0" opacity="0.12">
    <g transform="scale(0.109375)">
      <path d="M227.42,39.86a12,12,0,0,0-11.28-11.28c-39.6-2.33-74.59,2.34-104,13.87C84,53.48,62.31,70.58,49.39,91.9c-17.62,29.11-17.66,64.45-.45,98.19L31.51,207.52a12,12,0,0,0,17,17l17.43-17.43c16.74,8.54,33.88,12.85,50.45,12.85a91.31,91.31,0,0,0,47.74-13.3c21.32-12.92,38.42-34.62,49.45-62.75C225.08,114.46,229.75,79.46,227.42,39.86ZM151.66,186.08C131.57,198.25,108,199.17,83.94,189l84.54-84.54a12,12,0,1,0-17-17L67,172.06c-10.14-24-9.22-47.63,3-67.72,20.91-34.53,70.54-53.72,134-52.25C205.38,115.53,186.19,165.17,151.66,186.08Z"/>
    </g>
  </g>
  <g transform="translate(10.0,72.39999999999999)" fill="white" stroke="white" stroke-width="0" opacity="0.12">
    <g transform="scale(0.109375)">
      <path d="M128,20A108,108,0,1,0,236,128,108.12,108.12,0,0,0,128,20Zm83.13,96H179.56a144.3,144.3,0,0,0-21.35-66.36A84.22,84.22,0,0,1,211.13,116ZM128,207c-9.36-10.81-24.46-33.13-27.45-67h54.94a119.74,119.74,0,0,1-17.11,52.77A108.61,108.61,0,0,1,128,207Zm-27.45-91a119.74,119.74,0,0,1,17.11-52.77A108.61,108.61,0,0,1,128,49c9.36,10.81,24.46,33.13,27.45,67ZM97.79,49.64A144.3,144.3,0,0,0,76.44,116H44.87A84.22,84.22,0,0,1,97.79,49.64ZM44.87,140H76.44a144.3,144.3,0,0,0,21.35,66.36A84.22,84.22,0,0,1,44.87,140Zm113.34,66.36A144.3,144.3,0,0,0,179.56,140h31.57A84.22,84.22,0,0,1,158.21,206.36Z"/>
    </g>
  </g>
  <g transform="translate(82.0,72.39999999999999)" fill="white" stroke="white" stroke-width="0" opacity="0.12">
    <g transform="scale(0.109375)">
      <path d="M100,208a12,12,0,0,1-12,12H40a28,28,0,0,1-24.23-42l29.45-50.88-4.76,1.27a12,12,0,1,1-6.2-23.18l32.77-8.77a12,12,0,0,1,14.69,8.48l8.79,32.77a12,12,0,1,1-23.17,6.22L66.08,139l-29.5,51A4,4,0,0,0,40,196H88A12,12,0,0,1,100,208ZM128,36a3.87,3.87,0,0,1,3.46,2l29.45,50.87-4.75-1.27A12,12,0,1,0,150,110.78l32.77,8.79a12,12,0,0,0,14.69-8.48L206.2,78.3A12,12,0,1,0,183,72.08l-1.31,4.86L152.23,26a28,28,0,0,0-48.46,0L80.61,66a12,12,0,1,0,20.77,12l23.16-40A3.87,3.87,0,0,1,128,36ZM240.19,178l-23.14-40a12,12,0,1,0-20.77,12l23.14,40a4,4,0,0,1-3.46,6H157l3.51-3.51a12,12,0,1,0-17-17l-24,24a12,12,0,0,0,0,17l24,24a12,12,0,1,0,17-17L157,220h59a28,28,0,0,0,24.23-42Z"/>
    </g>
  </g>
</svg>