<svg xmlns="http://www.w3.org/2000/svg" width="120" height="120" viewBox="0 0 120 120">
  <g transform="translate(46.0,12.399999999999999)" fill="white" stroke="white" stroke-width="0" opacity="0.12">
    <g transform="scale(0.109375)">
      <path d="M180,232a12,12,0,0,1-12,12H88a12,12,0,0,1,0-24h80A12,12,0,0,1,180,232Zm40-128a91.51,91.51,0,0,1-35.17,72.35A12.26,12.26,0,0,0,180,186v2a20,20,0,0,1-20,20H96a20,20,0,0,1-20-20v-2a12,12,0,0,0-4.7-9.51A91.57,91.57,0,0,1,36,104.52C35.73,54.69,76,13.2,125.79,12A92,92,0,0,1,220,104Zm-24,0a68,68,0,0,0-69.65-68C89.56,36.88,59.8,67.55,60,104.38a67.71,67.71,0,0,0,26.1,53.19A35.87,35.87,0,0,1,100,184h56.1A36.13,36.13,0,0,1,170,157.49,67.68,67.68,0,0,0,196,104Zm-20.07-5.32a48.5,48.5,0,0,0-31.91-40,12,12,0,0,0-8,22.62,24.31,24.31,0,0,1,16.09,20,12,12,0,0,0,23.86-2.64Z"/>
    </g>
  </g>
  <g transform="translate(10.0,72.39999999999999)" fill="white" stroke="white" stroke-width="0" opacity="0.12">
    <g transform="scale(0.109375)">
      <path d="M236,32a12,12,0,0,0-12-12c-44.78,0-90,48.54-115.9,82a64,64,0,0,0-80,62c0,12-3.1,22.71-9.23,31.76A43,43,0,0,1,9.4,206.05a11.88,11.88,0,0,0-4.91,13.38A12.07,12.07,0,0,0,16.11,228h76A64,64,0,0,0,154,148C187.49,122.05,236,76.8,236,32ZM209.62,46.39c-4,12.92-13.15,27.49-26.92,42.91-3,3.39-6.16,6.7-9.35,9.89a104.31,104.31,0,0,0-16.5-16.51c3.19-3.19,6.49-6.32,9.88-9.35C182.15,59.55,196.71,50.43,209.62,46.39ZM92.07,204H42a80.17,80.17,0,0,0,10.14-40,40,40,0,1,1,40,40Zm38.18-91.32c3.12-3.93,6.55-8.09,10.23-12.35a80.52,80.52,0,0,1,15.23,15.24c-4.26,3.68-8.42,7.11-12.35,10.23A64.43,64.43,0,0,0,130.25,112.68Z"/>
    </g>
  </g>
  <g transform="translate(82.0,72.39999999999999)" fill="white" stroke="white" stroke-width="0" opacity="0.12">
    <g transform="scale(0.109375)">
      <path d="M199,125.31l-49.88-18.39L130.69,57a19.92,19.92,0,0,0-37.38,0L74.92,106.92,25,125.31a19.92,19.92,0,0,0,0,37.38l49.88,18.39L93.31,231a19.92,19.92,0,0,0,37.38,0l18.39-49.88L199,162.69a19.92,19.92,0,0,0,0-37.38Zm-63.38,35.16a12,12,0,0,0-7.11,7.11L112,212.28l-16.47-44.7a12,12,0,0,0-7.11-7.11L43.72,144l44.7-16.47a12,12,0,0,0,7.11-7.11L112,75.72l16.47,44.7a12,12,0,0,0,7.11,7.11L180.28,144ZM140,40a12,12,0,0,1,12-12h12V16a12,12,0,0,1,24,0V28h12a12,12,0,0,1,0,24H188V64a12,12,0,0,1-24,0V52H152A12,12,0,0,1,140,40ZM252,88a12,12,0,0,1-12,12h-4v4a12,12,0,0,1-24,0v-4h-4a12,12,0,0,1,0-24h4V72a12,12,0,0,1,24,0v4h4A12,12,0,0,1,252,88Z"/>
    </g>
  </g>
</svg>