<svg xmlns="http://www.w3.org/2000/svg" width="120" height="103.92" viewBox="0 0 120 103.92">
  <g transform="translate(-14.00,-14.00)" fill="white" stroke="white" stroke-width="0" opacity="0.12">
    <g transform="scale(0.109375)">
      <path d="M92,108a12,12,0,0,1,12-12h72a12,12,0,0,1,0,24H104A12,12,0,0,1,92,108Zm12,52h72a12,12,0,0,0,0-24H104a12,12,0,0,0,0,24ZM236,64V184a28,28,0,0,1-28,28H36A32,32,0,0,1,4,180V88a12,12,0,0,1,24,0v92a8,8,0,0,0,16,0V64A20,20,0,0,1,64,44H216A20,20,0,0,1,236,64Zm-24,4H68V180a32,32,0,0,1-1,8H208a4,4,0,0,0,4-4Z"/>
    </g>
  </g>
  <g transform="translate(-14.00,89.92)" fill="white" stroke="white" stroke-width="0" opacity="0.12">
    <g transform="scale(0.109375)">
      <path d="M92,108a12,12,0,0,1,12-12h72a12,12,0,0,1,0,24H104A12,12,0,0,1,92,108Zm12,52h72a12,12,0,0,0,0-24H104a12,12,0,0,0,0,24ZM236,64V184a28,28,0,0,1-28,28H36A32,32,0,0,1,4,180V88a12,12,0,0,1,24,0v92a8,8,0,0,0,16,0V64A20,20,0,0,1,64,44H216A20,20,0,0,1,236,64Zm-24,4H68V180a32,32,0,0,1-1,8H208a4,4,0,0,0,4-4Z"/>
    </g>
  </g>
  <g transform="translate(106.00,-14.00)" fill="white" stroke="white" stroke-width="0" opacity="0.12">
    <g transform="scale(0.109375)">
      <path d="M92,108a12,12,0,0,1,12-12h72a12,12,0,0,1,0,24H104A12,12,0,0,1,92,108Zm12,52h72a12,12,0,0,0,0-24H104a12,12,0,0,0,0,24ZM236,64V184a28,28,0,0,1-28,28H36A32,32,0,0,1,4,180V88a12,12,0,0,1,24,0v92a8,8,0,0,0,16,0V64A20,20,0,0,1,64,44H216A20,20,0,0,1,236,64Zm-24,4H68V180a32,32,0,0,1-1,8H208a4,4,0,0,0,4-4Z"/>
    </g>
  </g>
  <g transform="translate(106.00,89.92)" fill="white" stroke="white" stroke-width="0" opacity="0.12">
    <g transform="scale(0.109375)">
      <path d="M92,108a12,12,0,0,1,12-12h72a12,12,0,0,1,0,24H104A12,12,0,0,1,92,108Zm12,52h72a12,12,0,0,0,0-24H104a12,12,0,0,0,0,24ZM236,64V184a28,28,0,0,1-28,28H36A32,32,0,0,1,4,180V88a12,12,0,0,1,24,0v92a8,8,0,0,0,16,0V64A20,20,0,0,1,64,44H216A20,20,0,0,1,236,64Zm-24,4H68V180a32,32,0,0,1-1,8H208a4,4,0,0,0,4-4Z"/>
    </g>
  </g>
  <g transform="translate(46.00,-14.00)" fill="white" stroke="white" stroke-width="0" opacity="0.12">
    <g transform="scale(0.109375)">
      <path d="M128,84a44,44,0,1,0,44,44A44.05,44.05,0,0,0,128,84Zm0,64a20,20,0,1,1,20-20A20,20,0,0,1,128,148Zm77.39,12.7A83.94,83.94,0,0,1,190.61,184a12,12,0,0,1-17.89-16,59.92,59.92,0,0,0,0-80,12,12,0,0,1,17.89-16,84.07,84.07,0,0,1,14.78,88.7ZM83.28,168a12,12,0,0,1-17.89,16,83.94,83.94,0,0,1,0-112A12,12,0,0,1,83.28,88a59.92,59.92,0,0,0,0,80ZM252,128a123.63,123.63,0,0,1-35.43,86.78A12,12,0,1,1,199.43,198a99.88,99.88,0,0,0,0-140,12,12,0,0,1,17.14-16.8A123.63,123.63,0,0,1,252,128ZM56.57,198a12,12,0,0,1-17.14,16.8,123.89,123.89,0,0,1,0-173.56A12,12,0,0,1,56.57,58a99.88,99.88,0,0,0,0,140Z"/>
    </g>
  </g>
  <g transform="translate(46.00,89.92)" fill="white" stroke="white" stroke-width="0" opacity="0.12">
    <g transform="scale(0.109375)">
      <path d="M128,84a44,44,0,1,0,44,44A44.05,44.05,0,0,0,128,84Zm0,64a20,20,0,1,1,20-20A20,20,0,0,1,128,148Zm77.39,12.7A83.94,83.94,0,0,1,190.61,184a12,12,0,0,1-17.89-16,59.92,59.92,0,0,0,0-80,12,12,0,0,1,17.89-16,84.07,84.07,0,0,1,14.78,88.7ZM83.28,168a12,12,0,0,1-17.89,16,83.94,83.94,0,0,1,0-112A12,12,0,0,1,83.28,88a59.92,59.92,0,0,0,0,80ZM252,128a123.63,123.63,0,0,1-35.43,86.78A12,12,0,1,1,199.43,198a99.88,99.88,0,0,0,0-140,12,12,0,0,1,17.14-16.8A123.63,123.63,0,0,1,252,128ZM56.57,198a12,12,0,0,1-17.14,16.8,123.89,123.89,0,0,1,0-173.56A12,12,0,0,1,56.57,58a99.88,99.88,0,0,0,0,140Z"/>
    </g>
  </g>
  <g transform="translate(16.00,37.96)" fill="white" stroke="white" stroke-width="0" opacity="0.12">
    <g transform="scale(0.109375)">
      <path d="M249.45,69.31a12,12,0,0,0-12.51,1L212,88.43V72a20,20,0,0,0-20-20H32A20,20,0,0,0,12,72V184a20,20,0,0,0,20,20H192a20,20,0,0,0,20-20V167.57l24.94,18.14A12,12,0,0,0,256,176V80A12,12,0,0,0,249.45,69.31ZM188,180H36V76H188Zm44-27.57-20-14.54V118.11l20-14.54Z"/>
    </g>
  </g>
  <g transform="translate(76.00,37.96)" fill="white" stroke="white" stroke-width="0" opacity="0.12">
    <g transform="scale(0.109375)">
      <path d="M92,108a12,12,0,0,1,12-12h72a12,12,0,0,1,0,24H104A12,12,0,0,1,92,108Zm12,52h72a12,12,0,0,0,0-24H104a12,12,0,0,0,0,24ZM236,64V184a28,28,0,0,1-28,28H36A32,32,0,0,1,4,180V88a12,12,0,0,1,24,0v92a8,8,0,0,0,16,0V64A20,20,0,0,1,64,44H216A20,20,0,0,1,236,64Zm-24,4H68V180a32,32,0,0,1-1,8H208a4,4,0,0,0,4-4Z"/>
    </g>
  </g>
</svg>