<svg xmlns="http://www.w3.org/2000/svg" width="120" height="103.92" viewBox="0 0 120 103.92">
  <g transform="translate(-14.00,-14.00)" fill="white" stroke="white" stroke-width="0" opacity="0.12">
    <g transform="scale(0.109375)">
      <path d="M24,108H44v48H32a12,12,0,0,0,0,24H224a12,12,0,0,0,0-24H212V108h20a12,12,0,0,0,6.29-22.22l-104-64a12,12,0,0,0-12.58,0l-104,64A12,12,0,0,0,24,108Zm44,0H92v48H68Zm72,0v48H116V108Zm48,48H164V108h24ZM128,46.09,189.6,84H66.4ZM252,208a12,12,0,0,1-12,12H16a12,12,0,0,1,0-24H240A12,12,0,0,1,252,208Z"/>
    </g>
  </g>
  <g transform="translate(-14.00,89.92)" fill="white" stroke="white" stroke-width="0" opacity="0.12">
    <g transform="scale(0.109375)">
      <path d="M24,108H44v48H32a12,12,0,0,0,0,24H224a12,12,0,0,0,0-24H212V108h20a12,12,0,0,0,6.29-22.22l-104-64a12,12,0,0,0-12.58,0l-104,64A12,12,0,0,0,24,108Zm44,0H92v48H68Zm72,0v48H116V108Zm48,48H164V108h24ZM128,46.09,189.6,84H66.4ZM252,208a12,12,0,0,1-12,12H16a12,12,0,0,1,0-24H240A12,12,0,0,1,252,208Z"/>
    </g>
  </g>
  <g transform="translate(106.00,-14.00)" fill="white" stroke="white" stroke-width="0" opacity="0.12">
    <g transform="scale(0.109375)">
      <path d="M24,108H44v48H32a12,12,0,0,0,0,24H224a12,12,0,0,0,0-24H212V108h20a12,12,0,0,0,6.29-22.22l-104-64a12,12,0,0,0-12.58,0l-104,64A12,12,0,0,0,24,108Zm44,0H92v48H68Zm72,0v48H116V108Zm48,48H164V108h24ZM128,46.09,189.6,84H66.4ZM252,208a12,12,0,0,1-12,12H16a12,12,0,0,1,0-24H240A12,12,0,0,1,252,208Z"/>
    </g>
  </g>
  <g transform="translate(106.00,89.92)" fill="white" stroke="white" stroke-width="0" opacity="0.12">
    <g transform="scale(0.109375)">
      <path d="M24,108H44v48H32a12,12,0,0,0,0,24H224a12,12,0,0,0,0-24H212V108h20a12,12,0,0,0,6.29-22.22l-104-64a12,12,0,0,0-12.58,0l-104,64A12,12,0,0,0,24,108Zm44,0H92v48H68Zm72,0v48H116V108Zm48,48H164V108h24ZM128,46.09,189.6,84H66.4ZM252,208a12,12,0,0,1-12,12H16a12,12,0,0,1,0-24H240A12,12,0,0,1,252,208Z"/>
    </g>
  </g>
  <g transform="translate(46.00,-14.00)" fill="white" stroke="white" stroke-width="0" opacity="0.12">
    <g transform="scale(0.109375)">
      <path d="M243.14,131.54l-32-80h0a12,12,0,0,0-13.73-7.25L140,57V40a12,12,0,0,0-24,0V62.37L53.4,76.29a12,12,0,0,0-8.54,7.25h0l0,0v0l-32,79.92A12,12,0,0,0,12,168c0,12.13,6.2,22.43,17.45,29A55,55,0,0,0,56,204a55,55,0,0,0,26.55-7C93.8,190.43,100,180.13,100,168a12,12,0,0,0-.86-4.46L72.38,96.65,116,87V204H104a12,12,0,0,0,0,24h48a12,12,0,0,0,0-24H140V81.63l40.42-9-23.56,58.9A12,12,0,0,0,156,136c0,12.13,6.2,22.43,17.45,29a53.78,53.78,0,0,0,53.1,0C237.8,158.43,244,148.13,244,136A12,12,0,0,0,243.14,131.54ZM56,180c-3.71,0-18-1.87-19.81-10.18L56,120.31l19.81,49.51C74,178.13,59.71,180,56,180Zm144-32c-3.71,0-18-1.87-19.81-10.18L200,88.31l19.81,49.51C218,146.13,203.71,148,200,148Z"/>
    </g>
  </g>
  <g transform="translate(46.00,89.92)" fill="white" stroke="white" stroke-width="0" opacity="0.12">
    <g transform="scale(0.109375)">
      <path d="M243.14,131.54l-32-80h0a12,12,0,0,0-13.73-7.25L140,57V40a12,12,0,0,0-24,0V62.37L53.4,76.29a12,12,0,0,0-8.54,7.25h0l0,0v0l-32,79.92A12,12,0,0,0,12,168c0,12.13,6.2,22.43,17.45,29A55,55,0,0,0,56,204a55,55,0,0,0,26.55-7C93.8,190.43,100,180.13,100,168a12,12,0,0,0-.86-4.46L72.38,96.65,116,87V204H104a12,12,0,0,0,0,24h48a12,12,0,0,0,0-24H140V81.63l40.42-9-23.56,58.9A12,12,0,0,0,156,136c0,12.13,6.2,22.43,17.45,29a53.78,53.78,0,0,0,53.1,0C237.8,158.43,244,148.13,244,136A12,12,0,0,0,243.14,131.54ZM56,180c-3.71,0-18-1.87-19.81-10.18L56,120.31l19.81,49.51C74,178.13,59.71,180,56,180Zm144-32c-3.71,0-18-1.87-19.81-10.18L200,88.31l19.81,49.51C218,146.13,203.71,148,200,148Z"/>
    </g>
  </g>
  <g transform="translate(16.00,37.96)" fill="white" stroke="white" stroke-width="0" opacity="0.12">
    <g transform="scale(0.109375)">
      <path d="M252,120a52.06,52.06,0,0,0-52-52H160.32c-3.44-.21-52.6-4-99.46-43.3A20,20,0,0,0,28,40V200a19.8,19.8,0,0,0,11.54,18.12,19.86,19.86,0,0,0,21.32-2.81A192.92,192.92,0,0,1,144,174.47v26.2a20,20,0,0,0,8.9,16.64,11.35,11.35,0,0,0,1.39.8l14.44,7.06A20,20,0,0,0,198.37,213l11.09-41.82A52.07,52.07,0,0,0,252,120ZM52,191.63V48.4c36.17,28.07,72.17,38.1,92,41.66V150C124.17,153.52,88.17,163.55,52,191.63ZM176.39,202.2,168,198.1V172h16.4ZM200,148H168V92h32a28,28,0,1,1,0,56Z"/>
    </g>
  </g>
  <g transform="translate(76.00,37.96)" fill="white" stroke="white" stroke-width="0" opacity="0.12">
    <g transform="scale(0.109375)">
      <path d="M24,108H44v48H32a12,12,0,0,0,0,24H224a12,12,0,0,0,0-24H212V108h20a12,12,0,0,0,6.29-22.22l-104-64a12,12,0,0,0-12.58,0l-104,64A12,12,0,0,0,24,108Zm44,0H92v48H68Zm72,0v48H116V108Zm48,48H164V108h24ZM128,46.09,189.6,84H66.4ZM252,208a12,12,0,0,1-12,12H16a12,12,0,0,1,0-24H240A12,12,0,0,1,252,208Z"/>
    </g>
  </g>
</svg>