<svg xmlns="http://www.w3.org/2000/svg" width="120" height="103.92" viewBox="0 0 120 103.92">
  <g transform="translate(-14.00,-14.00)" fill="white" stroke="white" stroke-width="0" opacity="0.12">
    <g transform="scale(0.109375)">
      <path d="M233.21,56.31A12,12,0,0,0,224,52H66L60.53,21.85A12,12,0,0,0,48.73,12H24a12,12,0,0,0,0,24H38.71L63.62,173a28,28,0,0,0,4.07,10.21A32,32,0,1,0,123,196h34a32,32,0,1,0,31-24H91.17a4,4,0,0,1-3.93-3.28L84.92,156H196.1a28,28,0,0,0,27.55-23l12.16-66.86A12,12,0,0,0,233.21,56.31ZM100,204a8,8,0,1,1-8-8A8,8,0,0,1,100,204Zm88,8a8,8,0,1,1,8-8A8,8,0,0,1,188,212Zm12-83.28A4,4,0,0,1,196.1,132H80.56L70.38,76H209.62Z"/>
    </g>
  </g>
  <g transform="translate(-14.00,89.92)" fill="white" stroke="white" stroke-width="0" opacity="0.12">
    <g transform="scale(0.109375)">
      <path d="M233.21,56.31A12,12,0,0,0,224,52H66L60.53,21.85A12,12,0,0,0,48.73,12H24a12,12,0,0,0,0,24H38.71L63.62,173a28,28,0,0,0,4.07,10.21A32,32,0,1,0,123,196h34a32,32,0,1,0,31-24H91.17a4,4,0,0,1-3.93-3.28L84.92,156H196.1a28,28,0,0,0,27.55-23l12.16-66.86A12,12,0,0,0,233.21,56.31ZM100,204a8,8,0,1,1-8-8A8,8,0,0,1,100,204Zm88,8a8,8,0,1,1,8-8A8,8,0,0,1,188,212Zm12-83.28A4,4,0,0,1,196.1,132H80.56L70.38,76H209.62Z"/>
    </g>
  </g>
  <g transform="translate(106.00,-14.00)" fill="white" stroke="white" stroke-width="0" opacity="0.12">
    <g transform="scale(0.109375)">
      <path d="M233.21,56.31A12,12,0,0,0,224,52H66L60.53,21.85A12,12,0,0,0,48.73,12H24a12,12,0,0,0,0,24H38.71L63.62,173a28,28,0,0,0,4.07,10.21A32,32,0,1,0,123,196h34a32,32,0,1,0,31-24H91.17a4,4,0,0,1-3.93-3.28L84.92,156H196.1a28,28,0,0,0,27.55-23l12.16-66.86A12,12,0,0,0,233.21,56.31ZM100,204a8,8,0,1,1-8-8A8,8,0,0,1,100,204Zm88,8a8,8,0,1,1,8-8A8,8,0,0,1,188,212Zm12-83.28A4,4,0,0,1,196.1,132H80.56L70.38,76H209.62Z"/>
    </g>
  </g>
  <g transform="translate(106.00,89.92)" fill="white" stroke="white" stroke-width="0" opacity="0.12">
    <g transform="scale(0.109375)">
      <path d="M233.21,56.31A12,12,0,0,0,224,52H66L60.53,21.85A12,12,0,0,0,48.73,12H24a12,12,0,0,0,0,24H38.71L63.62,173a28,28,0,0,0,4.07,10.21A32,32,0,1,0,123,196h34a32,32,0,1,0,31-24H91.17a4,4,0,0,1-3.93-3.28L84.92,156H196.1a28,28,0,0,0,27.55-23l12.16-66.86A12,12,0,0,0,233.21,56.31ZM100,204a8,8,0,1,1-8-8A8,8,0,0,1,100,204Zm88,8a8,8,0,1,1,8-8A8,8,0,0,1,188,212Zm12-83.28A4,4,0,0,1,196.1,132H80.56L70.38,76H209.62Z"/>
    </g>
  </g>
  <g transform="translate(46.00,-14.00)" fill="white" stroke="white" stroke-width="0" opacity="0.12">
    <g transform="scale(0.109375)">
      <path d="M236,96a12,12,0,0,0-.44-3.3L221.2,42.51A20.08,20.08,0,0,0,202,28H54A20.08,20.08,0,0,0,34.8,42.51L20.46,92.7A12,12,0,0,0,20,96h0v16a43.94,43.94,0,0,0,16,33.92V216a12,12,0,0,0,12,12H208a12,12,0,0,0,12-12V145.92A43.94,43.94,0,0,0,236,112V96ZM57.05,52H199l9.14,32H47.91Zm91,56v4a20,20,0,0,1-40,0v-4ZM53,128.71A20,20,0,0,1,44,112v-4H84v4a20,20,0,0,1-20,20,19.76,19.76,0,0,1-9.07-2.2A11.54,11.54,0,0,0,53,128.71ZM196,204H60V155.81c1.32.12,2.65.19,4,.19a43.86,43.86,0,0,0,32-13.85,43.89,43.89,0,0,0,64,0A43.86,43.86,0,0,0,192,156c1.35,0,2.68-.07,4-.19Zm16-92a20,20,0,0,1-9,16.71,11.66,11.66,0,0,0-1.88,1.09A20,20,0,0,1,172,112v-4h40Z"/>
    </g>
  </g>
  <g transform="translate(46.00,89.92)" fill="white" stroke="white" stroke-width="0" opacity="0.12">
    <g transform="scale(0.109375)">
      <path d="M236,96a12,12,0,0,0-.44-3.3L221.2,42.51A20.08,20.08,0,0,0,202,28H54A20.08,20.08,0,0,0,34.8,42.51L20.46,92.7A12,12,0,0,0,20,96h0v16a43.94,43.94,0,0,0,16,33.92V216a12,12,0,0,0,12,12H208a12,12,0,0,0,12-12V145.92A43.94,43.94,0,0,0,236,112V96ZM57.05,52H199l9.14,32H47.91Zm91,56v4a20,20,0,0,1-40,0v-4ZM53,128.71A20,20,0,0,1,44,112v-4H84v4a20,20,0,0,1-20,20,19.76,19.76,0,0,1-9.07-2.2A11.54,11.54,0,0,0,53,128.71ZM196,204H60V155.81c1.32.12,2.65.19,4,.19a43.86,43.86,0,0,0,32-13.85,43.89,43.89,0,0,0,64,0A43.86,43.86,0,0,0,192,156c1.35,0,2.68-.07,4-.19Zm16-92a20,20,0,0,1-9,16.71,11.66,11.66,0,0,0-1.88,1.09A20,20,0,0,1,172,112v-4h40Z"/>
    </g>
  </g>
  <g transform="translate(16.00,37.96)" fill="white" stroke="white" stroke-width="0" opacity="0.12">
    <g transform="scale(0.109375)">
      <path d="M246.15,133.18,146.83,33.86A19.85,19.85,0,0,0,132.69,28H40A12,12,0,0,0,28,40v92.69a19.85,19.85,0,0,0,5.86,14.14l99.32,99.32a20,20,0,0,0,28.28,0l84.69-84.69A20,20,0,0,0,246.15,133.18Zm-98.83,93.17L52,131V52h79l95.32,95.32ZM104,88A16,16,0,1,1,88,72,16,16,0,0,1,104,88Z"/>
    </g>
  </g>
  <g transform="translate(76.00,37.96)" fill="white" stroke="white" stroke-width="0" opacity="0.12">
    <g transform="scale(0.109375)">
      <path d="M233.21,56.31A12,12,0,0,0,224,52H66L60.53,21.85A12,12,0,0,0,48.73,12H24a12,12,0,0,0,0,24H38.71L63.62,173a28,28,0,0,0,4.07,10.21A32,32,0,1,0,123,196h34a32,32,0,1,0,31-24H91.17a4,4,0,0,1-3.93-3.28L84.92,156H196.1a28,28,0,0,0,27.55-23l12.16-66.86A12,12,0,0,0,233.21,56.31ZM100,204a8,8,0,1,1-8-8A8,8,0,0,1,100,204Zm88,8a8,8,0,1,1,8-8A8,8,0,0,1,188,212Zm12-83.28A4,4,0,0,1,196.1,132H80.56L70.38,76H209.62Z"/>
    </g>
  </g>
</svg>